<svg width="144" height="52" viewBox="0 0 144 52" fill="none" xmlns="http://www.w3.org/2000/svg">
<rect width="144" height="52" rx="10" fill="#39BFBF"/>
<path d="M42.8906 26.8438C42.8906 27.6771 42.7708 28.4219 42.5312 29.0781C42.2969 29.7344 41.9609 30.2917 41.5234 30.75C41.0911 31.2031 40.5703 31.5521 39.9609 31.7969C39.3516 32.0365 38.6719 32.1562 37.9219 32.1562C37.1875 32.1562 36.513 32.0365 35.8984 31.7969C35.2891 31.5521 34.763 31.2031 34.3203 30.75C33.8828 30.2917 33.5417 29.7344 33.2969 29.0781C33.0521 28.4219 32.9297 27.6771 32.9297 26.8438V25.7891C32.9297 24.9557 33.0495 24.2109 33.2891 23.5547C33.5339 22.8932 33.875 22.3359 34.3125 21.8828C34.75 21.4245 35.2734 21.0755 35.8828 20.8359C36.4922 20.5911 37.1667 20.4688 37.9062 20.4688C38.6562 20.4688 39.3359 20.5911 39.9453 20.8359C40.5599 21.0755 41.0833 21.4245 41.5156 21.8828C41.9531 22.3359 42.2917 22.8932 42.5312 23.5547C42.7708 24.2109 42.8906 24.9557 42.8906 25.7891V26.8438ZM40.9609 25.7734C40.9609 24.5755 40.6927 23.6667 40.1562 23.0469C39.625 22.4219 38.875 22.1094 37.9062 22.1094C37.4271 22.1094 37 22.1875 36.625 22.3438C36.25 22.5 35.9323 22.7344 35.6719 23.0469C35.4115 23.3542 35.2109 23.737 35.0703 24.1953C34.9349 24.6484 34.8672 25.1745 34.8672 25.7734V26.8438C34.8672 27.4427 34.9375 27.9714 35.0781 28.4297C35.2188 28.888 35.4193 29.2734 35.6797 29.5859C35.9401 29.8932 36.2578 30.1276 36.6328 30.2891C37.013 30.4453 37.4427 30.5234 37.9219 30.5234C38.9062 30.5234 39.6589 30.2135 40.1797 29.5938C40.7005 28.9688 40.9609 28.0521 40.9609 26.8438V25.7734ZM44.2422 34.5312V30.4531H44.9688C45.1979 30.1979 45.401 29.9427 45.5781 29.6875C45.7552 29.4271 45.9062 29.1432 46.0312 28.8359C46.1615 28.5234 46.263 28.1719 46.3359 27.7812C46.4141 27.3906 46.4635 26.9297 46.4844 26.3984L46.6016 23.5469H52.7109V30.4531H53.8984V34.5312H52.0391V32H46.1094V34.5312H44.2422ZM50.8672 30.4531V25.1328H48.3984L48.3516 26.3984C48.3203 27.3359 48.2057 28.1354 48.0078 28.7969C47.8151 29.4531 47.5651 30.0052 47.2578 30.4531H50.8672ZM55.1016 27.5938C55.1016 26.9688 55.1953 26.3984 55.3828 25.8828C55.5755 25.3672 55.849 24.9245 56.2031 24.5547C56.5625 24.1849 56.9974 23.8984 57.5078 23.6953C58.0234 23.4922 58.6042 23.3906 59.25 23.3906C59.901 23.3906 60.4844 23.4922 61 23.6953C61.5156 23.8984 61.9505 24.1849 62.3047 24.5547C62.6641 24.9245 62.9375 25.3672 63.125 25.8828C63.3177 26.3984 63.4141 26.9688 63.4141 27.5938V27.9531C63.4141 28.5781 63.3177 29.1484 63.125 29.6641C62.9375 30.1797 62.6641 30.6224 62.3047 30.9922C61.9505 31.362 61.5156 31.6484 61 31.8516C60.4896 32.0547 59.9115 32.1562 59.2656 32.1562C58.6146 32.1562 58.0312 32.0547 57.5156 31.8516C57.0052 31.6484 56.5703 31.362 56.2109 30.9922C55.8516 30.6224 55.5755 30.1797 55.3828 29.6641C55.1953 29.1484 55.1016 28.5781 55.1016 27.9531V27.5938ZM56.9453 27.9531C56.9453 28.3385 56.9922 28.6927 57.0859 29.0156C57.1797 29.3385 57.3203 29.6198 57.5078 29.8594C57.7005 30.0938 57.9427 30.2786 58.2344 30.4141C58.526 30.5443 58.8698 30.6094 59.2656 30.6094C59.6562 30.6094 59.9948 30.5443 60.2812 30.4141C60.5729 30.2786 60.8125 30.0938 61 29.8594C61.1927 29.6198 61.3333 29.3385 61.4219 29.0156C61.5156 28.6927 61.5625 28.3385 61.5625 27.9531V27.5938C61.5625 27.2188 61.5156 26.8698 61.4219 26.5469C61.3281 26.224 61.1849 25.9427 60.9922 25.7031C60.8047 25.4635 60.5651 25.276 60.2734 25.1406C59.9818 25.0052 59.6406 24.9375 59.25 24.9375C58.8594 24.9375 58.5208 25.0052 58.2344 25.1406C57.9479 25.276 57.7083 25.4635 57.5156 25.7031C57.3229 25.9427 57.1797 26.224 57.0859 26.5469C56.9922 26.8698 56.9453 27.2188 56.9453 27.5938V27.9531ZM64.9531 27.3516C64.9531 26.3568 65.0495 25.487 65.2422 24.7422C65.4401 23.9922 65.7161 23.3594 66.0703 22.8438C66.4245 22.3229 66.8516 21.9089 67.3516 21.6016C67.8568 21.2943 68.4141 21.0833 69.0234 20.9688C69.3568 20.9062 69.6432 20.8438 69.8828 20.7812C70.1276 20.7135 70.3281 20.638 70.4844 20.5547C70.6458 20.4661 70.7656 20.3646 70.8438 20.25C70.9219 20.1354 70.9609 19.9974 70.9609 19.8359H72.4766C72.4766 20.2318 72.4062 20.5755 72.2656 20.8672C72.1302 21.1536 71.9297 21.401 71.6641 21.6094C71.4036 21.8125 71.0807 21.9818 70.6953 22.1172C70.3099 22.2526 69.8698 22.3646 69.375 22.4531C69.0156 22.5156 68.6823 22.6146 68.375 22.75C68.0729 22.8854 67.8021 23.0625 67.5625 23.2812C67.3229 23.5 67.1172 23.7656 66.9453 24.0781C66.7786 24.3854 66.651 24.7448 66.5625 25.1562C66.9375 24.7917 67.362 24.5156 67.8359 24.3281C68.3099 24.1354 68.8385 24.0391 69.4219 24.0391C70.0208 24.0391 70.5547 24.138 71.0234 24.3359C71.4974 24.5286 71.8958 24.7995 72.2188 25.1484C72.5417 25.4974 72.7891 25.9115 72.9609 26.3906C73.1328 26.8698 73.2188 27.3906 73.2188 27.9531V28.1406C73.2188 28.7188 73.125 29.2552 72.9375 29.75C72.7552 30.2396 72.487 30.6641 72.1328 31.0234C71.7839 31.3776 71.3516 31.6562 70.8359 31.8594C70.3255 32.0625 69.7448 32.1641 69.0938 32.1641C68.4427 32.1641 67.8594 32.0573 67.3438 31.8438C66.8333 31.6302 66.401 31.3333 66.0469 30.9531C65.6927 30.5677 65.4219 30.1146 65.2344 29.5938C65.0469 29.0729 64.9531 28.5026 64.9531 27.8828V27.3516ZM69.0781 25.5859C68.6823 25.5859 68.3411 25.651 68.0547 25.7812C67.7682 25.9062 67.5312 26.0781 67.3438 26.2969C67.1615 26.5104 67.026 26.7604 66.9375 27.0469C66.849 27.3333 66.8047 27.6354 66.8047 27.9531V28.1406C66.8047 28.4792 66.849 28.7995 66.9375 29.1016C67.026 29.3984 67.1615 29.6615 67.3438 29.8906C67.5312 30.1146 67.7682 30.2917 68.0547 30.4219C68.3464 30.5521 68.6927 30.6172 69.0938 30.6172C69.4844 30.6172 69.8229 30.5521 70.1094 30.4219C70.3958 30.2917 70.6328 30.1146 70.8203 29.8906C71.0078 29.6615 71.1458 29.3984 71.2344 29.1016C71.3229 28.7995 71.3672 28.4792 71.3672 28.1406V27.9531C71.3672 27.6354 71.3229 27.3333 71.2344 27.0469C71.1458 26.7604 71.0078 26.5104 70.8203 26.2969C70.638 26.0781 70.401 25.9062 70.1094 25.7812C69.8229 25.651 69.4792 25.5859 69.0781 25.5859ZM74.9453 35.25V23.5469H76.6562L76.7344 24.5078C77.0312 24.1484 77.3828 23.8724 77.7891 23.6797C78.2005 23.487 78.6823 23.3906 79.2344 23.3906C79.8021 23.3906 80.3021 23.487 80.7344 23.6797C81.1719 23.8672 81.5391 24.1432 81.8359 24.5078C82.1328 24.8672 82.3568 25.3073 82.5078 25.8281C82.6589 26.349 82.7344 26.9401 82.7344 27.6016V27.9297C82.7344 28.5651 82.6562 29.1432 82.5 29.6641C82.349 30.1797 82.125 30.6224 81.8281 30.9922C81.5365 31.362 81.1745 31.6484 80.7422 31.8516C80.3099 32.0547 79.8151 32.1562 79.2578 32.1562C78.7057 32.1562 78.2292 32.0651 77.8281 31.8828C77.4323 31.6953 77.0859 31.4375 76.7891 31.1094V35.25H74.9453ZM78.7344 24.9453C78.2448 24.9453 77.8411 25.0365 77.5234 25.2188C77.2057 25.3958 76.9609 25.6406 76.7891 25.9531V29.6094C76.9661 29.9219 77.2135 30.1667 77.5312 30.3438C77.849 30.5208 78.2578 30.6094 78.7578 30.6094C79.1328 30.6094 79.4531 30.5443 79.7188 30.4141C79.9896 30.2839 80.2109 30.1016 80.3828 29.8672C80.5547 29.6276 80.6797 29.3438 80.7578 29.0156C80.8411 28.6875 80.8828 28.3255 80.8828 27.9297V27.6016C80.8828 27.1953 80.8411 26.8307 80.7578 26.5078C80.6745 26.1797 80.5443 25.901 80.3672 25.6719C80.1953 25.4375 79.974 25.2578 79.7031 25.1328C79.4323 25.0078 79.1094 24.9453 78.7344 24.9453ZM86.5234 23.5469V29.2344L90.2812 23.5469H92.1328V32H90.2812V26.2969L86.5234 32H84.6719V23.5469H86.5234ZM93.6641 23.5469H101.492V25.0781H98.4688V32H96.6172V25.0781H93.6641V23.5469ZM103.141 32V23.5469H105V26.1719H107.062C107.641 26.1719 108.154 26.2448 108.602 26.3906C109.049 26.5312 109.427 26.7318 109.734 26.9922C110.042 27.2474 110.273 27.5547 110.43 27.9141C110.591 28.2734 110.672 28.6667 110.672 29.0938C110.672 29.5156 110.591 29.9036 110.43 30.2578C110.273 30.612 110.042 30.9193 109.734 31.1797C109.427 31.4349 109.049 31.6354 108.602 31.7812C108.154 31.9271 107.641 32 107.062 32H103.141ZM105 27.7109V30.4609H107.062C107.38 30.4609 107.651 30.4245 107.875 30.3516C108.099 30.2734 108.281 30.1719 108.422 30.0469C108.562 29.9219 108.664 29.7786 108.727 29.6172C108.789 29.4505 108.82 29.2786 108.82 29.1016C108.82 28.9193 108.789 28.7448 108.727 28.5781C108.664 28.4062 108.562 28.2578 108.422 28.1328C108.281 28.0026 108.099 27.901 107.875 27.8281C107.651 27.75 107.38 27.7109 107.062 27.7109H105Z" fill="white"/>
</svg>
