<svg width="152" height="52" viewBox="0 0 152 52" fill="none" xmlns="http://www.w3.org/2000/svg">
<rect x="1" y="1" width="150" height="50" rx="9" stroke="#35383F" stroke-width="2"/>
<path d="M42.8906 26.8438C42.8906 27.6771 42.7708 28.4219 42.5312 29.0781C42.2969 29.7344 41.9609 30.2917 41.5234 30.75C41.0911 31.2031 40.5703 31.5521 39.9609 31.7969C39.3516 32.0365 38.6719 32.1562 37.9219 32.1562C37.1875 32.1562 36.513 32.0365 35.8984 31.7969C35.2891 31.5521 34.763 31.2031 34.3203 30.75C33.8828 30.2917 33.5417 29.7344 33.2969 29.0781C33.0521 28.4219 32.9297 27.6771 32.9297 26.8438V25.7891C32.9297 24.9557 33.0495 24.2109 33.2891 23.5547C33.5339 22.8932 33.875 22.3359 34.3125 21.8828C34.75 21.4245 35.2734 21.0755 35.8828 20.8359C36.4922 20.5911 37.1667 20.4688 37.9062 20.4688C38.6562 20.4688 39.3359 20.5911 39.9453 20.8359C40.5599 21.0755 41.0833 21.4245 41.5156 21.8828C41.9531 22.3359 42.2917 22.8932 42.5312 23.5547C42.7708 24.2109 42.8906 24.9557 42.8906 25.7891V26.8438ZM40.9609 25.7734C40.9609 24.5755 40.6927 23.6667 40.1562 23.0469C39.625 22.4219 38.875 22.1094 37.9062 22.1094C37.4271 22.1094 37 22.1875 36.625 22.3438C36.25 22.5 35.9323 22.7344 35.6719 23.0469C35.4115 23.3542 35.2109 23.737 35.0703 24.1953C34.9349 24.6484 34.8672 25.1745 34.8672 25.7734V26.8438C34.8672 27.4427 34.9375 27.9714 35.0781 28.4297C35.2188 28.888 35.4193 29.2734 35.6797 29.5859C35.9401 29.8932 36.2578 30.1276 36.6328 30.2891C37.013 30.4453 37.4427 30.5234 37.9219 30.5234C38.9062 30.5234 39.6589 30.2135 40.1797 29.5938C40.7005 28.9688 40.9609 28.0521 40.9609 26.8438V25.7734ZM44.1953 23.5469H52.0234V25.0781H49V32H47.1484V25.0781H44.1953V23.5469ZM53.6562 23.5469H55.5V26.875H56.5234L59.0938 23.5469H61.4062L58.125 27.6875L61.7188 32H59.2812L56.6719 28.6797H55.5V32H53.6562V23.5469ZM62.1719 30.4375L62.4922 30.4141C62.7526 30.3984 62.9714 30.3307 63.1484 30.2109C63.3255 30.0859 63.4714 29.8958 63.5859 29.6406C63.7005 29.3854 63.7865 29.0573 63.8438 28.6562C63.9062 28.2552 63.9505 27.7656 63.9766 27.1875L64.1484 23.5469H70.5V32H68.6484V25.0938H65.8984L65.7422 27.7422C65.7005 28.5182 65.612 29.1771 65.4766 29.7188C65.3464 30.2552 65.1615 30.6927 64.9219 31.0312C64.6823 31.3698 64.3828 31.6172 64.0234 31.7734C63.6693 31.9245 63.25 32 62.7656 32H62.1875L62.1719 30.4375ZM72.4141 27.5938C72.4141 26.9688 72.5078 26.3984 72.6953 25.8828C72.888 25.3672 73.1615 24.9245 73.5156 24.5547C73.875 24.1849 74.3099 23.8984 74.8203 23.6953C75.3359 23.4922 75.9167 23.3906 76.5625 23.3906C77.2135 23.3906 77.7969 23.4922 78.3125 23.6953C78.8281 23.8984 79.263 24.1849 79.6172 24.5547C79.9766 24.9245 80.25 25.3672 80.4375 25.8828C80.6302 26.3984 80.7266 26.9688 80.7266 27.5938V27.9531C80.7266 28.5781 80.6302 29.1484 80.4375 29.6641C80.25 30.1797 79.9766 30.6224 79.6172 30.9922C79.263 31.362 78.8281 31.6484 78.3125 31.8516C77.8021 32.0547 77.224 32.1562 76.5781 32.1562C75.9271 32.1562 75.3438 32.0547 74.8281 31.8516C74.3177 31.6484 73.8828 31.362 73.5234 30.9922C73.1641 30.6224 72.888 30.1797 72.6953 29.6641C72.5078 29.1484 72.4141 28.5781 72.4141 27.9531V27.5938ZM74.2578 27.9531C74.2578 28.3385 74.3047 28.6927 74.3984 29.0156C74.4922 29.3385 74.6328 29.6198 74.8203 29.8594C75.013 30.0938 75.2552 30.2786 75.5469 30.4141C75.8385 30.5443 76.1823 30.6094 76.5781 30.6094C76.9688 30.6094 77.3073 30.5443 77.5938 30.4141C77.8854 30.2786 78.125 30.0938 78.3125 29.8594C78.5052 29.6198 78.6458 29.3385 78.7344 29.0156C78.8281 28.6927 78.875 28.3385 78.875 27.9531V27.5938C78.875 27.2188 78.8281 26.8698 78.7344 26.5469C78.6406 26.224 78.4974 25.9427 78.3047 25.7031C78.1172 25.4635 77.8776 25.276 77.5859 25.1406C77.2943 25.0052 76.9531 24.9375 76.5625 24.9375C76.1719 24.9375 75.8333 25.0052 75.5469 25.1406C75.2604 25.276 75.0208 25.4635 74.8281 25.7031C74.6354 25.9427 74.4922 26.224 74.3984 26.5469C74.3047 26.8698 74.2578 27.2188 74.2578 27.5938V27.9531ZM82.6406 23.5469H84.5V27.0391H88.2344V23.5469H90.0859V32H88.2344V28.5781H84.5V32H82.6406V23.5469ZM94.3203 23.5469V29.2344L98.0781 23.5469H99.9297V32H98.0781V26.2969L94.3203 32H92.4688V23.5469H94.3203ZM101.461 23.5469H109.289V25.0781H106.266V32H104.414V25.0781H101.461V23.5469ZM110.938 32V23.5469H112.797V26.1719H114.859C115.438 26.1719 115.951 26.2448 116.398 26.3906C116.846 26.5312 117.224 26.7318 117.531 26.9922C117.839 27.2474 118.07 27.5547 118.227 27.9141C118.388 28.2734 118.469 28.6667 118.469 29.0938C118.469 29.5156 118.388 29.9036 118.227 30.2578C118.07 30.612 117.839 30.9193 117.531 31.1797C117.224 31.4349 116.846 31.6354 116.398 31.7812C115.951 31.9271 115.438 32 114.859 32H110.938ZM112.797 27.7109V30.4609H114.859C115.177 30.4609 115.448 30.4245 115.672 30.3516C115.896 30.2734 116.078 30.1719 116.219 30.0469C116.359 29.9219 116.461 29.7786 116.523 29.6172C116.586 29.4505 116.617 29.2786 116.617 29.1016C116.617 28.9193 116.586 28.7448 116.523 28.5781C116.461 28.4062 116.359 28.2578 116.219 28.1328C116.078 28.0026 115.896 27.901 115.672 27.8281C115.448 27.75 115.177 27.7109 114.859 27.7109H112.797Z" fill="#35383F"/>
</svg>
