<svg width="60" height="56" viewBox="0 0 60 56" fill="none" xmlns="http://www.w3.org/2000/svg">
<g clip-path="url(#clip0_9742_243633)">
<path fill-rule="evenodd" clip-rule="evenodd" d="M32.7202 50.0117C32.6663 50.0117 32.6125 50.0388 32.5586 50.0388L32.7202 50.0117Z" fill="#1C5C94"/>
<path d="M27.8948 1.58048L26.7734 1.73047L28.0677 11.7064L29.189 11.5564L27.8948 1.58048Z" fill="#1C5C94"/>
<path d="M21.8692 3.06072L20.8242 3.5L24.6149 12.7967L25.6599 12.3575L21.8692 3.06072Z" fill="#1C5C94"/>
<path d="M41.273 33.1401L40.6172 34.0078L48.1585 39.8842L48.8143 39.0165L41.273 33.1401Z" fill="#1C5C94"/>
<path d="M42.8811 30.0365L42.4688 31.0469L51.2507 34.7418L51.663 33.7314L42.8811 30.0365Z" fill="#1C5C94"/>
<path d="M43.6514 26.6079L43.5352 27.6953L52.9863 28.7368L53.1025 27.6494L43.6514 26.6079Z" fill="#1C5C94"/>
<path d="M24.2722 0.00356586L23.1797 0.300781L26.302 12.1331L27.3945 11.8358L24.2722 0.00356586Z" fill="#1C5C94"/>
<path d="M43.3723 28.3497L43.0938 29.4062L54.2799 32.4468L54.5585 31.3903L43.3723 28.3497Z" fill="#1C5C94"/>
<path d="M42.1792 31.6427L41.6406 32.5898L47.5876 36.0762L48.1262 35.129L42.1792 31.6427Z" fill="#1C5C94"/>
<path d="M50.4777 24.5419L43.6133 24.7305L43.6424 25.8238L50.5068 25.6352L50.4777 24.5419Z" fill="#1C5C94"/>
<path fill-rule="evenodd" clip-rule="evenodd" d="M25.8546 38.0625L25.8008 38.1992C26.0162 38.2812 26.2317 38.3359 26.4471 38.418L26.474 38.3086L25.8546 38.0625Z" fill="#1C5C94"/>
<path fill-rule="evenodd" clip-rule="evenodd" d="M27.4961 38.6641C27.523 38.6911 27.5769 38.6911 27.6038 38.7182L27.55 38.6911L27.4961 38.6641Z" fill="#1C5C94"/>
<path fill-rule="evenodd" clip-rule="evenodd" d="M24.7222 37.6523L24.2105 37.4609L24.1836 37.4883C24.399 37.5977 24.5875 37.707 24.803 37.7891L24.8568 37.6797L24.7222 37.6523Z" fill="#1C5C94"/>
<path fill-rule="evenodd" clip-rule="evenodd" d="M25.6903 38.0078L25.7711 38.0352L25.8519 38.0625L25.8788 38.0352L24.8824 37.625L24.8555 37.6797L24.8824 37.707L25.6903 38.0078Z" fill="#1C5C94"/>
<path fill-rule="evenodd" clip-rule="evenodd" d="M25.7698 38.0352L25.6891 38.0078L24.8812 37.707L24.8273 37.6797L24.7734 37.7891C25.0966 37.9258 25.4198 38.0898 25.7698 38.1992L25.8237 38.0625L25.7698 38.0352Z" fill="#1C5C94"/>
<path fill-rule="evenodd" clip-rule="evenodd" d="M26.7146 38.3906L26.58 38.3359L26.4722 38.2812L26.4453 38.3906C26.7954 38.5 27.1455 38.582 27.4956 38.6641V38.6367L26.7146 38.3906Z" fill="#1C5C94"/>
<path fill-rule="evenodd" clip-rule="evenodd" d="M23.9141 37.3516C23.9949 37.4062 24.1026 37.4609 24.1834 37.4883L24.2103 37.4609L23.9141 37.3516Z" fill="#1C5C94"/>
<path d="M16.4443 6.06646L15.5469 6.76562L21.5802 14.7492L22.4776 14.05L16.4443 6.06646Z" fill="#1C5C94"/>
<path fill-rule="evenodd" clip-rule="evenodd" d="M11.9311 10.418L11.2578 11.3203L14.3009 13.6992C14.8126 13.5625 15.2973 13.4805 15.782 13.4258L11.9311 10.418Z" fill="#1C5C94"/>
<path fill-rule="evenodd" clip-rule="evenodd" d="M11.3091 16.8711L8.72385 15.7773L8.29297 16.8164L11.3361 18.1016C11.2553 17.6914 11.2553 17.2812 11.3091 16.8711Z" fill="#1C5C94"/>
<path fill-rule="evenodd" clip-rule="evenodd" d="M12.5232 6.53516L11.7422 7.32812L17.7476 13.4258C18.4747 13.5078 19.1749 13.6992 19.8481 13.9453L12.5232 6.53516Z" fill="#1C5C94"/>
<path fill-rule="evenodd" clip-rule="evenodd" d="M12.845 14.3555L5.3585 9.95312L4.79297 10.9375L12.0102 15.1758C12.2526 14.8477 12.5219 14.5742 12.845 14.3555Z" fill="#1C5C94"/>
<path fill-rule="evenodd" clip-rule="evenodd" d="M12.0403 19.9336L5.55014 18.1562L5.25391 19.25L13.3329 21.4375C12.7943 20.9727 12.3634 20.4531 12.0403 19.9336Z" fill="#1C5C94"/>
<path d="M20.4365 6.8125L19.457 7.38672L23.0387 13.6855L24.0182 13.1113L20.4365 6.8125Z" fill="#1C5C94"/>
<path fill-rule="evenodd" clip-rule="evenodd" d="M20.5452 35.7109L20.4375 35.793L20.7068 36.0391L21.1646 35.6016L20.5452 35.7109Z" fill="#1C5C94"/>
<path fill-rule="evenodd" clip-rule="evenodd" d="M11.4167 18.1562L11.3359 18.1289C11.4437 18.7305 11.6591 19.332 12.063 19.9609L12.1977 19.9883C11.7668 19.3594 11.5244 18.7578 11.4167 18.1562Z" fill="#1C5C94"/>
<path fill-rule="evenodd" clip-rule="evenodd" d="M16.0742 13.3981C16.1819 13.3981 16.2897 13.3981 16.3974 13.3711C16.3166 13.3711 16.1819 13.3711 16.0742 13.3981Z" fill="#1C5C94"/>
<path fill-rule="evenodd" clip-rule="evenodd" d="M21.3022 35.4375L21.1406 35.6016L21.4099 35.5469C21.3022 35.4102 21.4638 35.5742 21.3022 35.4375Z" fill="#1C5C94"/>
<path fill-rule="evenodd" clip-rule="evenodd" d="M14.1902 13.7266C14.2172 13.7266 14.271 13.6992 14.298 13.6992H14.271C14.2172 13.7266 14.1633 13.7266 14.1095 13.7539C13.6247 13.8906 13.2208 14.1094 12.8438 14.3828L12.8707 14.4102C13.2746 14.082 13.7055 13.8633 14.1902 13.7266Z" fill="#1C5C94"/>
<path fill-rule="evenodd" clip-rule="evenodd" d="M12.0626 15.2031L12.0088 15.1758C11.6318 15.668 11.3894 16.2422 11.3086 16.8711L11.3894 16.8984C11.4702 16.2695 11.7125 15.6953 12.0626 15.2031Z" fill="#1C5C94"/>
<path fill-rule="evenodd" clip-rule="evenodd" d="M15.7815 13.4258C15.2968 13.4531 14.7851 13.5625 14.2734 13.6992H14.3004C14.812 13.5625 15.2968 13.4531 15.7815 13.4258Z" fill="#1C5C94"/>
<path fill-rule="evenodd" clip-rule="evenodd" d="M11.3918 16.8984L11.311 16.8711C11.2571 17.2813 11.2571 17.6914 11.3379 18.1016L11.4187 18.1289C11.3379 17.7188 11.3379 17.3086 11.3918 16.8984Z" fill="#1C5C94"/>
<path fill-rule="evenodd" clip-rule="evenodd" d="M12.9008 14.3555L12.8739 14.3281C12.5507 14.5742 12.2545 14.8477 12.0391 15.1484L12.0929 15.1758C12.3084 14.875 12.5777 14.6016 12.9008 14.3555Z" fill="#1C5C94"/>
<path fill-rule="evenodd" clip-rule="evenodd" d="M12.1737 19.9883L12.0391 19.9609C12.3622 20.4805 12.7931 21 13.3317 21.4922L13.5202 21.5469C12.9547 21.0273 12.4969 20.5078 12.1737 19.9883Z" fill="#1C5C94"/>
<path fill-rule="evenodd" clip-rule="evenodd" d="M17.7168 13.4514C17.4206 13.4244 17.1244 13.3973 16.8281 13.3973C17.1244 13.3703 17.4206 13.3973 17.7168 13.4514Z" fill="#1C5C94"/>
<path fill-rule="evenodd" clip-rule="evenodd" d="M19.8462 14C19.146 13.7266 18.4459 13.5352 17.7188 13.4531C18.4459 13.5352 19.173 13.7266 19.8462 14Z" fill="#1C5C94"/>
<path fill-rule="evenodd" clip-rule="evenodd" d="M38.6169 42.6564L20.7354 36.0119L26.9562 34.1252C27.0101 34.0978 27.0101 34.0158 27.037 33.9611C27.6295 32.8673 28.4643 31.172 28.8683 30.0236C29.3799 28.6291 29.6762 28.0548 28.8683 26.6056C28.6259 26.1955 27.7911 24.9923 27.3063 24.6916C27.4679 23.6798 28.4374 23.9259 29.0837 24.2814C29.9185 24.883 30.7264 25.84 30.8072 26.8791C30.915 28.1916 30.2956 31.6369 29.5954 32.8947C29.1645 33.6877 29.1106 33.8244 28.3027 33.715C28.222 33.715 27.9527 33.715 27.9527 33.797C27.9527 33.9064 28.0604 33.9884 28.1412 34.0431C29.0837 34.8088 32.1807 35.2736 31.0227 33.1955C30.9957 33.1408 30.8611 33.0588 30.915 33.0314C32.0729 32.6486 33.2579 32.3478 34.4158 32.047L46.3189 41.5353C46.5613 41.7267 47.5038 42.3283 47.423 42.8752C47.1268 45.6095 39.371 42.9025 38.6169 42.6564ZM46.9652 41.0158L34.8467 31.172L30.8342 31.883C31.2381 30.3517 31.6959 28.8205 32.0191 27.2619C32.1537 26.6056 31.9922 26.0588 31.7229 25.4845C31.1035 24.172 30.0532 23.4884 28.8144 22.8048C26.7408 21.6564 25.4212 25.2658 27.037 26.3869C28.9221 27.6994 28.1142 29.1759 27.4948 30.9259C27.3602 31.3908 26.8755 33.2228 26.4715 33.3322C23.8862 34.0705 22.3512 34.4533 19.7659 35.1095L18.7695 38.1173L41.4984 44.6525C43.0873 45.008 45.6187 45.2267 47.2345 44.6525C50.2237 43.5041 47.7731 41.6447 46.9652 41.0158Z" fill="#1C5C94"/>
<path fill-rule="evenodd" clip-rule="evenodd" d="M24.1574 21.6016L24.1305 21.6562L24.1035 21.6836L24.0766 21.7109L24.0497 21.7383C24.0497 21.7656 24.0228 21.793 24.0228 21.8203C23.9689 21.9297 23.915 22.0664 23.8881 22.2031L23.6457 21.2187C23.1341 20.6172 21.1951 18.9766 19.4716 17.9648C18.2597 17.2539 17.1825 16.8711 16.7786 17.3633C16.2938 18.9492 14.1933 17.7188 14.328 16.4883C14.3549 16.1602 14.5434 15.832 14.9743 15.5586C15.082 15.5039 15.1897 15.4219 15.2974 15.3672C15.5667 15.2305 15.836 15.1484 16.1323 15.0938C16.8055 14.957 17.4788 15.0117 18.2059 15.2578C18.9599 15.5039 19.714 15.9961 20.5219 16.6523C21.5721 17.5273 22.8648 18.5937 23.9958 20.125C24.6691 19.5508 25.1807 19.4141 26.0425 20.0977C25.2346 20.1797 24.5075 20.8633 24.1574 21.5195V21.6016ZM24.3728 25.1289C24.2382 24.3906 24.2113 23.8164 24.2651 23.3242C24.9653 21.6836 25.8809 20.3984 27.9815 21.2734C29.1125 21.7383 29.2202 22.2578 29.328 22.3672L30.1628 22.9688L29.7588 21.9023C29.4357 21.2734 28.4931 20.3164 27.7929 20.125C27.7391 20.125 27.6852 20.0977 27.6044 20.0977L26.5811 19.1953C24.7229 17.0625 22.4339 14.9844 19.8217 14L19.8486 14.0273C19.1754 13.7539 18.4482 13.5898 17.7211 13.4805C17.4249 13.4531 17.1287 13.4258 16.8324 13.3984C16.8055 13.3984 16.7786 13.3984 16.7517 13.3984C16.6439 13.3984 16.5362 13.3984 16.4016 13.3984C16.2938 13.3984 16.1861 13.3984 16.0784 13.4258C16.0515 13.4258 16.0515 13.4258 16.0245 13.4258C15.9438 13.4258 15.863 13.4531 15.7822 13.4531C15.2974 13.5078 14.8127 13.5898 14.301 13.7266C14.2741 13.7266 14.2202 13.7539 14.1933 13.7539C13.7086 13.8906 13.2777 14.1094 12.8737 14.3828C12.5506 14.6289 12.2813 14.9023 12.0389 15.2031C11.6888 15.6953 11.4465 16.2695 11.3657 16.8984C11.3118 17.3086 11.3118 17.7188 11.3926 18.1563C11.5003 18.7578 11.7427 19.3594 12.1466 19.9883C12.4698 20.5078 12.9276 21.0273 13.4931 21.5469C14.4087 22.3398 15.6206 23.1055 17.1825 23.7891C17.4249 23.8984 17.6673 23.9805 17.9366 24.0898C22.0838 25.6758 22.6493 25.7852 26.7427 27.043C25.7732 25.6211 25.7732 25.5391 24.3728 25.1289Z" fill="#1C5C94"/>
<path fill-rule="evenodd" clip-rule="evenodd" d="M51.3795 46.9766C51.3795 46.9766 52.3221 46.4297 52.8337 46.0195L52.1605 47.8242L51.1641 48.0977L51.3795 46.9766Z" fill="#1C5C94"/>
<path fill-rule="evenodd" clip-rule="evenodd" d="M20.7652 34.8359L20.5497 34.6719L20.2266 35L20.7652 34.8359Z" fill="#1C5C94"/>
<path fill-rule="evenodd" clip-rule="evenodd" d="M38.0244 11.7852C38.0244 10.0898 37.2973 9.24219 35.843 9.24219H34.1734V14.3828H35.843C37.2973 14.3828 38.0244 13.5625 38.0244 11.7852ZM39.4786 11.7852C39.4786 14.3555 38.159 15.7773 35.843 15.7773H34.1734V20.3164H32.7461V7.875H35.8161C38.159 7.875 39.4786 9.29687 39.4786 11.7852Z" fill="#1C5C94"/>
<path fill-rule="evenodd" clip-rule="evenodd" d="M40.9883 16.7344V11.457C40.9883 8.99609 42.3617 7.62891 44.4084 7.62891C46.5089 7.62891 47.8016 8.94141 47.9362 11.3477H46.5089C46.4012 9.73437 45.6741 8.99609 44.3815 8.99609C43.1965 8.99609 42.4156 9.78906 42.4156 11.457V16.7344C42.4156 18.375 43.2504 19.168 44.4353 19.168C45.728 19.168 46.4551 18.4023 46.5897 16.8437H48.017C47.8824 19.2227 46.5897 20.5352 44.4353 20.5352C42.3886 20.5352 40.9883 19.168 40.9883 16.7344Z" fill="#1C5C94"/>
<path fill-rule="evenodd" clip-rule="evenodd" d="M55.3169 16.4062V11.7578C55.3169 10.0352 54.5898 9.05078 53.1625 9.05078C51.7352 9.05078 50.9811 10.0352 50.9811 11.7578V16.4062C50.9811 18.1562 51.7083 19.1406 53.1625 19.1406C54.5628 19.1133 55.3169 18.1562 55.3169 16.4062ZM49.5 16.4062V11.7578C49.5 9.21484 50.8734 7.62891 53.1355 7.62891C55.4246 7.62891 56.7711 9.21484 56.7711 11.7578V16.4062C56.7711 18.9766 55.4246 20.5625 53.1355 20.5625C50.8734 20.5352 49.5 18.9492 49.5 16.4062Z" fill="#1C5C94"/>
<path fill-rule="evenodd" clip-rule="evenodd" d="M52.7296 49.9844L56.9307 32.5391C57.4424 32.4844 58.2772 32.5664 58.4119 33.1133C57.3616 36.4219 53.0797 49.957 52.7296 49.9844ZM33.744 46.6484L33.2054 42.5469L34.498 42.9297L35.4406 46.5117C34.8751 46.5117 34.3095 46.5391 33.744 46.6484ZM29.9199 48.1797V41.5625L32.0743 42.2187L32.6937 46.8945C31.7512 47.1406 30.8356 47.5508 29.9199 48.1797ZM37.3257 43.75L38.5645 46.7852C37.9181 46.6758 37.2449 46.5937 36.5986 46.5391L35.7368 43.2852L37.3257 43.75ZM1.69732 32.3477C1.83197 31.8008 2.6668 31.7187 3.17847 31.7734L7.37955 49.2188C7.00253 49.1641 2.72066 35.6289 1.69732 32.3477ZM59.8122 33.1953C59.3544 32.4023 58.2772 31.6367 58.2772 31.4727C57.981 29.4492 58.7889 27.5352 59.5699 25.7305C60.0815 24.0352 58.762 23.5977 57.8463 23.2148C55.9343 30.4609 52.7027 43.2578 52.1372 47.3047C51.9487 47.3867 51.7602 47.4687 51.5716 47.5508C51.7871 47.1953 52.0025 46.8398 52.2449 46.4297C48.1246 49.2188 43.9235 47.8789 39.7763 47.0039L39.8571 47.0312L38.6722 44.1602L41.5268 44.8164C43.6273 45.1719 45.5932 45.5273 47.2359 44.9531C49.7673 44.0508 48.5555 42.3828 47.586 41.5625C49.7404 44.5156 42.7925 45.8555 38.6722 42.8203L38.0259 42.5742L37.972 42.4102L36.5716 41.8906L36.6255 42.0547L35.2521 41.5352L35.2252 41.3984L33.9864 40.9336L34.0133 41.0703L32.963 40.6875L32.9361 40.5508L31.805 40.1406L31.832 40.2773L29.9199 39.5664L29.1928 39.293L28.0079 48.3711L26.9307 48.2344L28.1426 38.9102L27.604 38.7188C27.577 38.7188 27.5232 38.6914 27.4962 38.6914L24.5339 49.9023L23.4837 49.6289L26.446 38.4453C26.2305 38.3906 26.0151 38.3086 25.7997 38.2266L22.218 46.9766L21.2216 46.5664L24.7763 37.8164C24.5609 37.707 24.3724 37.625 24.1569 37.5156L20.8176 43.3672L19.8751 42.8203L23.1336 37.0781L23.0797 37.0508H23.0528L22.4334 36.832L16.9666 44.0781L16.1049 43.4219L21.3831 36.4492H21.3562L20.8984 36.2852L20.656 36.0937L13.1964 43.668L12.4424 42.9023L20.4944 34.7266C20.3329 34.5625 20.1982 34.3711 20.0366 34.207L12.6578 39.9492L12.0115 39.0742L19.3903 33.3047C19.2557 33.1133 19.121 32.9219 19.0133 32.7305L13.3041 36.0937L12.7655 35.1367L18.5555 31.7461C18.4478 31.5273 18.34 31.3359 18.2593 31.1172L9.64167 34.7539L9.23772 33.7422L17.8553 30.1055C17.7745 29.8867 17.7207 29.668 17.6399 29.4492L6.59858 32.457L6.32928 31.3906L17.3706 28.3828C17.3167 28.1641 17.2898 27.9453 17.2359 27.6992L7.94508 28.9297L7.81043 27.8359L17.1282 26.5781C17.1013 26.3594 17.1013 26.1133 17.1013 25.8945H10.3418V24.8008H17.1282C17.1551 24.4453 17.1821 24.0625 17.2359 23.707C15.6471 23.0234 14.4352 22.2578 13.5465 21.4648L13.358 21.4102C13.5734 21.6016 13.8158 21.793 14.0582 21.9844H14.0313C13.8697 22.0117 13.7081 22.0117 13.5196 22.0117C11.069 21.875 2.18206 20.4531 3.17847 23.4336C1.07793 25.0469 1.67039 27.5898 1.80504 30.2695L0.647053 31.1719C0.0276631 31.6641 -0.0261969 32.3203 0.027663 33.0859C1.61653 35.793 7.16411 54.7148 8.45675 55.7539C10.0995 57.0664 23.5106 51.8438 26.9307 52.3906C29.3813 54.7148 31.5896 54.7422 34.6327 52.4727C37.3257 52.8008 51.2216 56.7383 52.7027 55.4531C55.665 49.2734 55.3688 43.8594 59.7853 34.6992C60.0277 34.1797 60.1354 33.7148 59.8122 33.1953Z" fill="#1C5C94"/>
</g>
<defs>
<clipPath id="clip0_9742_243633">
<rect width="60" height="56" fill="white"/>
</clipPath>
</defs>
</svg>
