<svg width="56" height="56" viewBox="0 0 56 56" fill="none" xmlns="http://www.w3.org/2000/svg">
<path d="M7.43485 20.8396C7.43076 23.056 7.61096 25.2689 7.97356 27.4554L7.97394 27.4576C8.03135 27.7944 8.11192 28.1375 8.18853 28.4637C8.20956 28.5532 8.2303 28.6415 8.25017 28.728C8.344 29.1365 8.42238 29.5201 8.45271 29.8926C8.4669 30.4204 8.36937 30.9453 8.16646 31.4328C7.96201 31.9241 7.65527 32.3661 7.26666 32.7296L7.25466 32.7408L7.24342 32.7528C7.05855 32.95 6.77012 33.1994 6.46914 33.3586C6.15156 33.5265 5.94128 33.5337 5.81776 33.4745C5.79957 33.4658 5.78758 33.4586 5.77997 33.4533C5.78106 33.4377 5.78559 33.408 5.80237 33.3605C5.86952 33.1705 6.04861 32.929 6.23752 32.7269L5.87225 32.3854L6.23752 32.7269C6.59456 32.3449 6.60173 31.84 6.56167 31.4807C6.53337 31.227 6.46422 30.9376 6.41178 30.7181C6.39157 30.6335 6.37384 30.5593 6.36189 30.5015L6.36148 30.4996C6.14945 29.4948 5.97483 28.474 5.85555 27.4555L5.85558 27.4555L5.85487 27.45C5.58325 25.334 5.4908 23.1988 5.57849 21.0673C5.67081 19.0005 5.97842 16.9489 6.49633 14.9459L5.57622 14.576C3.65096 18.0068 2.53148 21.8306 2.30255 25.7579L2.3017 25.7725V25.787C2.3017 25.8486 2.23951 26.0281 1.99215 26.2851C1.76549 26.5206 1.45535 26.7447 1.14871 26.8962C0.831875 27.0528 0.606504 27.0892 0.505808 27.0755C0.501797 27.0544 0.498055 27.0183 0.501085 26.9617L0.501129 26.9609C1.05033 16.3705 8.46674 6.68577 18.1193 2.74951L18.1193 2.74954L18.1241 2.74752C18.1992 2.71596 18.2992 2.68748 18.4029 2.67323C18.5009 2.65978 18.5798 2.66204 18.6323 2.67189C18.6321 2.67364 18.6319 2.67548 18.6316 2.67735C18.5186 2.97792 18.3439 3.25164 18.1186 3.48079C17.8843 3.71911 17.6008 3.90349 17.2879 4.02109L17.2879 4.02101L17.2796 4.02431C16.2027 4.45125 15.1676 4.97663 14.1874 5.59378C13.9019 5.76514 13.6168 5.94579 13.332 6.13568L13.3319 6.13567L13.3286 6.13797L13.0672 6.3153L13.0592 6.32075L13.0514 6.32651L12.8801 6.45268C12.3538 6.81667 11.8765 7.18925 11.4024 7.58747L11.4008 7.58883L10.7289 8.15814L10.6976 8.18461L10.6711 8.21582C10.6688 8.21852 10.6662 8.22092 10.6633 8.22295L10.5765 8.28351L10.5217 8.37403C9.44485 10.1528 8.66201 12.0936 8.20332 14.1216C7.69662 16.3252 7.43885 18.5786 7.43485 20.8396ZM7.43485 20.8396L7.93485 20.8405M7.43485 20.8396L7.93485 20.8405M7.93485 20.8405C7.93878 18.6166 8.19236 16.4001 8.69082 14.2328L7.60819 33.0947C8.04867 32.6828 8.39635 32.1817 8.62808 31.6249C8.85981 31.0681 8.97028 30.4684 8.95214 29.8655C8.91226 29.3585 8.79241 28.848 8.67323 28.3404C8.59716 28.0164 8.52137 27.6936 8.46683 27.3736C8.10875 25.2144 7.93081 23.0292 7.93485 20.8405ZM18.6343 2.62798C18.6338 2.62605 18.6337 2.62499 18.6338 2.62494C18.6338 2.6249 18.6341 2.62586 18.6343 2.62798ZM5.76831 33.4434C5.76844 33.4433 5.76946 33.4443 5.77092 33.4463C5.76891 33.4445 5.76819 33.4435 5.76831 33.4434Z" fill="#35383F" stroke="#35383F"/>
<path d="M36.6738 49.103C36.9271 49.0721 37.1791 49.0313 37.4292 48.9806L37.5887 49.1664L37.6483 49.1162C37.7174 49.0606 37.7909 49.0106 37.8681 48.9668L38.1213 48.8231V48.739L38.1427 48.7177C38.279 48.5815 38.448 48.4827 38.6335 48.4306C38.7803 48.3895 38.9335 48.3787 39.0838 48.3985C39.0789 48.4293 39.0685 48.4731 39.047 48.531C38.9589 48.7689 38.7719 49.0171 38.6756 49.1046L38.6743 49.1058C37.179 50.4744 35.134 50.6635 32.9789 50.6639C30.0294 50.5984 27.1002 50.1564 24.2627 49.3484L24.2627 49.3483L24.2569 49.3467C22.7951 48.9496 21.3707 48.4259 19.9999 47.7814C19.4553 47.5218 18.918 47.2483 18.3737 46.9711C18.3286 46.9482 18.2835 46.9252 18.2383 46.9022C17.6541 46.6049 17.0613 46.3049 16.4554 46.0227C15.3885 45.4425 14.2245 45.0621 13.0207 44.9005L13.0051 44.8984L12.9894 44.8973C12.8385 44.8866 12.687 44.8862 12.5359 44.8961H12.5356H12.5351H12.5346H12.5341H12.5335H12.533H12.5324H12.5319H12.5313H12.5307H12.5302H12.5296H12.529H12.5284H12.5278H12.5272H12.5266H12.526H12.5253H12.5247H12.5241H12.5234H12.5228H12.5221H12.5215H12.5208H12.5201H12.5195H12.5188H12.5181H12.5174H12.5167H12.516H12.5153H12.5146H12.5139H12.5132H12.5125H12.5118H12.511H12.5103H12.5095H12.5088H12.508H12.5073H12.5065H12.5058H12.505H12.5042H12.5035H12.5027H12.5019H12.5011H12.5003H12.4995H12.4987H12.4979H12.4971H12.4963H12.4955H12.4947H12.4938H12.493H12.4922H12.4914H12.4905H12.4897H12.4888H12.488H12.4871H12.4863H12.4854H12.4846H12.4837H12.4829H12.482H12.4811H12.4802H12.4794H12.4785H12.4776H12.4767H12.4758H12.4749H12.4741H12.4732H12.4723H12.4714H12.4705H12.4696H12.4686H12.4677H12.4668H12.4659H12.465H12.4641H12.4632H12.4622H12.4613H12.4604H12.4595H12.4585H12.4576H12.4567H12.4557H12.4548H12.4539H12.4529H12.452H12.4511H12.4501H12.4492H12.4482H12.4473H12.4463H12.4454H12.4444H12.4435H12.4425H12.4416H12.4406H12.4397H12.4387H12.4378H12.4368H12.4359H12.4349H12.4339H12.433H12.432H12.4311H12.4301H12.4292H12.4282H12.4272H12.4263H12.4253H12.4244H12.4234H12.4224H12.4215H12.4205H12.4196H12.4186H12.4176H12.4167H12.4157H12.4148H12.4138H12.4129H12.4119H12.4109H12.41H12.409H12.4081H12.4071H12.4062H12.4052H12.4043H12.4033H12.4024H12.4014H12.4005H12.3995H12.3986H12.3977H12.3967H12.3958H12.3948H12.3939H12.393H12.392H12.3911H12.3902H12.3892H12.3883H12.3874H12.3865H12.3856H12.3846H12.3837H12.3828H12.3819H12.381H12.3801H12.3792H12.3783H12.3774H12.3765H12.3756H12.3747H12.3738H12.3729H12.372H12.3711H12.3702H12.3694H12.3685H12.3676H12.3667H12.3659H12.365H12.3641H12.3633H12.3624H12.3616H12.3607H12.3599H12.359H12.3582H12.3574H12.3565H12.3557H12.3549H12.3541H12.3532H12.3524H12.3516H12.3508H12.35H12.3492H12.3484H12.3476H12.3476H12.3468H12.3464H12.346H12.3453H12.3453H12.3445H12.3442H12.3437H12.3431H12.343H12.3422H12.342H12.3414H12.3409H12.3407H12.3399H12.3399H12.3392H12.3388H12.3385H12.3378H12.3377H12.337H12.3368H12.3363H12.3358H12.3355H12.3348H12.3348H12.3341H12.3338H12.3334H12.3328H12.3327H12.332H12.3319H12.3313H12.331H12.3306H12.33H12.3299H12.3293H12.3291H12.3286H12.3282H12.3279H12.3273H12.3273H12.3266H12.3265H12.326H12.3256H12.3253H12.3248H12.3247H12.324H12.3239H12.3234H12.3231H12.3228H12.3223H12.3222H12.3216H12.3215H12.321H12.3208H12.3204H12.32H12.3198H12.3192H12.3192H12.3186H12.3185H12.318H12.3178H12.3174H12.3171H12.3169H12.3163H12.3163H12.3158H12.3157H12.3152H12.315H12.3147H12.3143H12.3142H12.3137H12.3136H12.3131H12.313H12.3126H12.3124H12.3121H12.3118H12.3116H12.3112H12.3111H12.3106H12.3106H12.3101H12.31H12.3097H12.3094H12.3092H12.3089H12.3087H12.3083H12.3083H12.3078H12.3078H12.3074H12.3073H12.307H12.3068H12.3065H12.3063H12.3061H12.3058H12.3057H12.3053H12.3053H12.3049H12.3049H12.3045H12.3044H12.3041H12.304H12.3038H12.3035H12.3034H12.3031H12.303H12.3027H12.3027H12.3023H12.302H12.3019H12.3017H12.3016H12.3013H12.3012H12.301H12.3009H12.3007H12.3005H12.3004H12.3002H12.3001H12.2999H12.2999H12.2996H12.2993H12.2993H12.2991H12.299H12.2988H12.2987H12.2986H12.2985H12.2983H12.2982H12.2981H12.298H12.2979H12.2978H12.2977H12.2975H12.2975H12.2973H12.2973H12.2971H12.2971H12.297H12.2969H12.2968H12.2966H12.2965H12.2963H12.2962H12.2962H12.2961H12.296H12.296H12.2959H12.2959H12.2958H12.2958H12.2957H12.2957H12.2956H12.2956H12.2956H12.2955H12.2955H12.2955H12.2954H12.2954H12.2954H12.2954H12.2954H12.2953L12.2953 45.0827L12.2654 44.9029L11.8734 44.9682L11.8381 44.9741L11.804 44.9849L11.5986 45.0503L11.4706 45.091L11.3803 45.1904L11.108 45.4899C10.9638 45.6342 10.8075 45.7659 10.6407 45.8835L10.1468 46.2319L10.5816 46.6517L10.8523 46.9131L10.8576 46.9181L10.863 46.9231C15.8389 51.4537 22.3167 53.9804 29.046 54.0157C29.0538 54.016 29.061 54.0163 29.0676 54.0168C29.0596 54.0699 29.0391 54.1417 29.002 54.2254C28.9577 54.3254 28.9005 54.418 28.8481 54.4843L28.8356 54.5001L28.8244 54.5168C28.6402 54.7928 28.3967 55.0243 28.1117 55.1945C27.8347 55.36 27.5251 55.4634 27.2044 55.4978C27.0063 55.4934 26.8123 55.4827 26.6102 55.4715C26.5865 55.4702 26.5628 55.4689 26.5389 55.4676C26.3082 55.455 26.0671 55.4428 25.8186 55.4424C19.2998 55.1095 13.1208 52.4316 8.42062 47.9019C3.78028 43.3875 0.9615 37.3251 0.500176 30.868C0.50504 30.6558 0.610981 30.4174 0.81885 30.1704C1.02867 29.9212 1.30726 29.7065 1.55769 29.5611L1.56648 29.556L1.57506 29.5505C1.68097 29.4831 1.98914 29.3426 2.24817 29.3034C2.28436 29.2979 2.31379 29.2954 2.33723 29.2944V29.4087V29.4273L2.33861 29.4458C2.77943 35.3604 5.19495 40.9553 9.19733 45.3322L9.54076 45.7077L9.9102 45.3577C10.0761 45.2006 10.2524 45.0505 10.4408 44.8904L10.526 44.818L10.5723 44.7161C10.6623 44.5178 10.7229 44.3075 10.7524 44.0917L10.7534 44.0845L10.7541 44.0772C10.8087 43.5658 10.7533 43.0486 10.5916 42.5603L10.5889 42.552L10.5858 42.5438C10.1953 41.4893 9.70277 40.4754 9.11539 39.5164L9.11093 39.5092L9.10622 39.502C8.58075 38.7065 8.2357 37.8057 8.09517 36.8629C8.06884 36.3227 8.16128 35.7831 8.36609 35.2823C8.5737 34.7747 8.89157 34.3195 9.29671 33.9498L9.29674 33.9499L9.3019 33.945C9.51061 33.7491 9.81809 33.5041 10.1292 33.3435C10.4352 33.1857 10.6299 33.1673 10.7325 33.1957C10.7292 33.2265 10.7194 33.276 10.6934 33.3462C10.6053 33.5841 10.4182 33.8323 10.3219 33.9198L10.3131 33.9278L10.3047 33.9363L10.2114 34.0296L10.065 34.176V34.3831V34.3832V34.3834V34.3835V34.3836V34.3837V34.3838V34.3839V34.384V34.3841V34.3842V34.3843V34.3844V34.3845V34.3846V34.3847V34.3848V34.3849V34.3849V34.385V34.3851V34.3852V34.3853V34.3854V34.3855V34.3856V34.3857V34.3857V34.3858V34.3859V34.386V34.3861V34.3861V34.3862V34.3863V34.3864V34.3865V34.3865V34.3866V34.3867V34.3868V34.3868V34.3869V34.387V34.3871V34.3871V34.3872V34.3873V34.3873V34.3874V34.3875V34.3875V34.3876V34.3877V34.3878V34.3878V34.3879V34.3879V34.388V34.3881V34.3881V34.3882V34.3883V34.3883V34.3884V34.3885V34.3885V34.3886V34.3886V34.3887V34.3888V34.3888V34.3889V34.3889V34.389V34.389V34.3891V34.3892V34.3892V34.3893V34.3893V34.3894V34.3894V34.3895V34.3895V34.3896V34.3897V34.3897V34.3898V34.3898V34.3899V34.3899V34.39V34.39V34.3901V34.3901V34.3902V34.3902V34.3903V34.3904V34.3904V34.3905V34.3905V34.3906V34.3906V34.3907V34.3907V34.3908V34.3908V34.3909V34.3909V34.391V34.391V34.3911V34.3911V34.3912V34.3912V34.3913V34.3914V34.3914V34.3915V34.3915V34.3916V34.3916V34.3917V34.3917V34.3918V34.3918V34.3919V34.3919V34.392V34.3921V34.3921V34.3922V34.3922V34.3923V34.3923V34.3924V34.3924V34.3925V34.3926V34.3926V34.3927V34.3927V34.3928V34.3929V34.3929V34.393V34.393V34.3931V34.3932V34.3932V34.3933V34.3933V34.3934V34.3935V34.3935V34.3936V34.3937V34.3937V34.3938V34.3939V34.3939V34.394V34.3941V34.3941V34.3942V34.3943V34.3944V34.3944V34.3945V34.3946V34.3946V34.3947V34.3948V34.3949V34.3949V34.395V34.3951V34.3952V34.3953V34.3953V34.3954V34.3955V34.3956V34.3957V34.3957V34.3958V34.3959V34.396V34.3961V34.3962V34.3963V34.3964V34.3964V34.3965V34.3966V34.3967V34.3968V34.3969V34.397V34.3971V34.3972V34.3973V34.3974V34.3975V34.3976V34.3977V34.3978V34.3979V34.398V34.3981V34.3982V34.3983V34.3984V34.3986V34.3987V34.3988V34.3989V34.399V34.3991V34.3992V34.3994V34.3995V34.3996V34.3997V34.3998V34.4V34.4001V34.4002V34.4004V34.4005V34.4006V34.4007V34.4009V34.401V34.4011V34.4013V34.4014V34.4016V34.4017V34.4018V34.402V34.4021V34.4023V34.4024V34.4026V34.4027V34.4029V34.403V34.4032V34.4033V34.4035V34.4037V34.4038V34.404V34.4041V34.4043V34.4045V34.4046V34.4048V34.405V34.4052V34.4053V34.4055V34.4057V34.4059V34.406V34.4062V34.4064V34.4066V34.4068V34.407V34.4072V34.4073V34.4075V34.4077V34.4079V34.4081V34.4083V34.4085V34.4087V34.4089V34.4091V34.4094V34.4096V34.4098V34.41V34.4102V34.4104V34.4106V34.4109V34.4111V34.4113V34.4115V34.4118V34.412V34.4122V34.4125V34.4127V34.4129V34.4132V34.4134V34.4137V34.4139V34.4142V34.4144V34.4147V34.4149V34.4152V34.4154V34.4157V34.416V34.4162V34.4165V34.4168V34.417V34.4173V34.4176V34.4179V34.4181V34.4184V34.4187V34.419V34.4193V34.4196V34.4199V34.4202V34.4205V34.4207V34.4211V34.4214V34.4217V34.422V34.4223V34.4226V34.4229V34.4232V34.4235V34.4239V34.4242V34.4245V34.4248V34.4252V34.4255V34.4258V34.4262V34.4265V34.4269V34.4272V34.4276V34.4279V34.4283V34.4286V34.429V34.4293V34.4297V34.4301V34.4304V34.4308V34.4312V34.4315V34.4319V34.4323V34.4327V34.4331V34.4335V34.4338V34.4342V34.4346V34.435V34.4354V34.4358V34.4362V34.4367V34.4371V34.4375V34.4379V34.4383V34.4387V34.4392V34.4396V34.44V34.4405V34.4409V34.4413V34.4418V34.4422V34.4427V34.4431V34.4436V34.444V34.4445V34.4449V34.4454V34.4459V34.4463V34.4468V34.4473V34.4478V34.4483V34.4487V34.4492V34.4497V34.4502V34.4507V34.4512V34.4517V34.4522V34.4527V34.4532V34.4537V34.4543V34.4548V34.4553V34.4558V34.4564V34.4569V34.4574V34.458V34.4585V34.4591V34.4596V34.4602V34.4607V34.4613V34.4618V34.4624V34.463V34.4633C10.0167 34.6716 9.99167 34.8846 9.9903 35.0986L9.99017 35.0986L9.99035 35.1097C9.99745 35.5557 10.0807 35.9971 10.2364 36.415L10.2424 36.4311L10.2495 36.4467C10.7112 37.466 11.2599 38.3898 11.7793 39.2643C11.8319 39.3529 11.8842 39.4409 11.936 39.5284L11.9371 39.5302C12.4255 40.3474 12.6966 41.2759 12.7245 42.2273C12.7143 42.4313 12.6848 42.6339 12.6364 42.8323L12.4856 43.4508H13.1222H13.3835H13.4134L13.4432 43.4473C14.5659 43.3124 15.7046 43.4529 16.7609 43.8565L16.7609 43.8566L16.7688 43.8595C17.9954 44.3047 19.161 44.8948 20.3572 45.5034L20.4148 45.5327C21.5839 46.1276 22.7838 46.7381 24.0548 47.2089L24.0548 47.2089L24.0608 47.2111C27.0319 48.2688 30.1362 48.9064 33.2837 49.1054C34.4048 49.1921 35.5309 49.192 36.652 49.1051L36.6629 49.1043L36.6738 49.103ZM29.1312 54.0275C29.1311 54.0275 29.13 54.0272 29.1283 54.0263C29.1304 54.027 29.1313 54.0275 29.1312 54.0275ZM29.071 53.9551C29.0708 53.954 29.0707 53.9534 29.0707 53.9533L29.071 53.9551Z" fill="#35383F" stroke="#35383F"/>
<path d="M55.4981 27.1419L55.4981 27.1434C55.5216 33.3717 53.4555 39.4279 49.6304 44.3432L49.6185 44.3586L49.6077 44.3749C49.4258 44.6504 49.1845 44.8817 48.9013 45.0516C48.6285 45.2152 48.3237 45.3179 48.0077 45.3527C48.004 45.3524 48.0004 45.352 47.9971 45.3516C47.999 45.2992 48.0146 45.2217 48.0513 45.1293C48.0893 45.0336 48.1407 44.9452 48.1901 44.8813L48.1907 44.8805C51.1202 41.0733 52.9597 36.5414 53.5127 31.7696C54.0656 26.9977 53.3111 22.1652 51.3298 17.789L51.33 17.7889L51.3241 17.7768C50.3997 15.873 49.2805 14.0702 47.9844 12.3972L47.6359 11.9473L47.2346 12.3508L45.5453 14.0494L45.5453 14.0495L29.5869 30.1012L29.5858 30.1023L23.9871 35.701L23.9849 35.7032L23.2519 36.4455L22.9972 36.6911C22.6565 37.0115 22.3713 37.3862 22.1531 37.7999L22.1521 37.8019L22.0401 38.0165L22.0216 38.0519L22.009 38.0897C21.9999 38.117 21.9958 38.1265 21.9892 38.1416C21.9821 38.1581 21.9721 38.181 21.9499 38.2403C21.928 38.2984 21.8958 38.3919 21.8847 38.5046C21.8657 38.5809 21.8505 38.6582 21.8392 38.736L21.8392 38.736L21.8382 38.7431C21.8262 38.8353 21.8242 38.9284 21.8321 39.0209C21.8246 39.1382 21.8258 39.2558 21.8358 39.373L21.8357 39.373L21.8362 39.3771L21.8253 39.4765L21.8587 39.5788C21.9311 39.801 22.027 40.0149 22.1447 40.2168L23.0767 41.8165V41.1638L23.3117 41.3326L23.3254 41.3424L23.3397 41.3512C23.9264 41.7153 24.5533 42.0105 25.2077 42.2309L25.2259 42.237L25.2446 42.2418C25.3391 42.2657 25.427 42.311 25.5013 42.3741C25.5757 42.4373 25.6346 42.5166 25.6735 42.6061C25.7124 42.6955 25.7303 42.7927 25.7258 42.8902C25.7219 42.9764 25.7005 43.0609 25.663 43.1384C25.4897 43.3556 25.254 43.515 24.9872 43.5949C24.7088 43.6783 24.4111 43.6707 24.1373 43.5734C23.1439 43.2087 22.025 42.6858 21.1479 41.9733C20.2779 41.2665 19.6907 40.4123 19.6332 39.3721C19.6575 38.6529 19.8337 37.947 20.1503 37.3006C20.4699 36.6483 20.9251 36.0718 21.4855 35.6097L21.5052 35.5934L21.5231 35.5753L25.2546 31.7972L25.2563 31.7954L40.8967 16.1178L40.8975 16.1169L46.124 10.8531L46.4855 10.489L46.1122 10.137C45.9009 9.93781 45.7074 9.74038 45.5076 9.53643C45.4057 9.43244 45.3022 9.32675 45.1937 9.21826C45.1938 9.21505 45.1941 9.21069 45.1949 9.20504C45.2016 9.15432 45.2349 9.06131 45.3219 8.92967C45.494 8.66917 45.7768 8.40492 45.9706 8.25653L45.6665 7.85959L45.9706 8.25653C46.1718 8.1024 46.4651 7.91281 46.7412 7.81801C47.036 7.7168 47.1346 7.7746 47.1731 7.81455L47.1803 7.82201L47.1877 7.82916L47.8131 8.42647L48.1717 8.76904L48.5172 8.41321L50.3713 6.50347C50.5901 6.31063 50.8649 6.19276 51.1557 6.16731C51.4516 6.14142 51.7479 6.21264 51.9997 6.37019L52.0009 6.37094C52.0777 6.41864 52.1424 6.48326 52.1903 6.55985L52.6138 6.29512L52.1903 6.55986C52.2382 6.63646 52.2679 6.723 52.2772 6.81284C52.2865 6.9027 52.2751 6.99349 52.2438 7.07825L52.713 7.25108L52.2438 7.07826C52.2126 7.16303 52.1624 7.23952 52.0971 7.30189L52.097 7.30177L52.0881 7.31071L49.6148 9.79329L49.2991 10.1102L49.5791 10.4591C50.9833 12.209 52.1742 14.1197 53.1267 16.1511C54.6874 19.6052 55.4957 23.3516 55.4981 27.1419ZM47.9553 45.3422C47.9555 45.3422 47.9565 45.3426 47.9581 45.3435C47.9559 45.3426 47.9551 45.3421 47.9553 45.3422Z" fill="#35383F" stroke="#35383F"/>
<path d="M33.546 3.59045L34.3934 2.95189L33.3615 2.70486C29.7562 1.8418 26.0105 1.74091 22.3641 2.40863C22.2538 2.42502 22.1797 2.41728 22.1382 2.40636C22.1335 2.40511 22.1293 2.40386 22.1257 2.40267C22.1287 2.37012 22.1432 2.3048 22.1968 2.20479L22.197 2.20488L22.2032 2.19238C22.3557 1.888 22.5722 1.62026 22.8381 1.40761C23.0981 1.19957 23.3992 1.04909 23.7215 0.965979C29.0048 0.169999 34.9671 0.110538 39.4511 3.14778L39.461 3.15446L39.4711 3.16067C40.9593 4.06834 42.1456 5.39602 42.8807 6.97652L42.8809 6.97693C43.3727 8.03181 43.4732 9.22705 43.1647 10.349C42.9176 11.0468 42.5234 11.6834 42.0087 12.2156C41.4906 12.7513 40.8627 13.1685 40.1681 13.4387C37.7361 14.3616 34.921 13.1365 33.2063 11.0237C31.5026 8.92454 31.0464 6.16368 33.0289 4.07681L33.0371 4.06822L33.0448 4.05926C33.1948 3.88565 33.3628 3.7285 33.546 3.59045ZM22.1048 2.39352C22.1049 2.39351 22.1052 2.3937 22.1057 2.39413L22.1048 2.39352ZM41.4591 11.0406L41.4612 11.0249L41.4623 11.009C41.5564 9.63426 41.1517 8.27176 40.3225 7.17144C39.8052 6.43405 39.185 5.77442 38.4809 5.21257C38.2507 5.01815 38.0081 4.83884 37.7547 4.67578C37.4542 4.47862 37.1413 4.28255 36.8132 4.11302C36.2331 3.79033 35.6317 3.50751 35.0132 3.26654L34.6336 3.11866L34.4121 3.46057C34.2775 3.66828 34.1155 3.85687 33.9304 4.0212L33.7624 4.17039V4.33483C33.6865 4.49263 33.6375 4.66233 33.6178 4.83692C33.5411 5.26292 33.5415 5.69924 33.619 6.12512C33.7654 7.22031 34.1893 8.25999 34.8505 9.14538C36.0348 10.7433 38.0553 12.3685 40.3345 12.2401C40.4763 12.2392 40.6173 12.2204 40.7543 12.1842H41.0475L41.189 11.9212L41.2544 11.7999L41.2696 11.7715L41.2811 11.7415C41.3676 11.5156 41.4273 11.2804 41.4591 11.0406Z" fill="#35383F" stroke="#35383F"/>
<path d="M26.5283 25.3103C26.0568 26.4296 25.4832 27.5031 24.8147 28.5172L24.8082 28.5271L24.8011 28.5367L24.2972 29.2273L24.2901 29.237L24.2826 29.2463L24.0146 29.5789L24.012 29.5823L23.8373 29.8029L23.8326 29.8089L23.8277 29.8147C23.6722 29.9994 23.5094 30.1722 23.3417 30.3405C23.2601 30.4403 23.17 30.5329 23.0725 30.6173L22.9317 30.7392H22.7453H22.6986H22.652H22.568H22.428H22.288H21.9893H21.8773H21.7882L21.7045 30.7084L21.3498 30.5777L21.3116 30.5637L21.2762 30.5436L21.0272 30.4025L20.8458 30.3315L20.7754 30.304L20.7163 30.2568C20.5239 30.1034 20.346 29.9327 20.1847 29.7467C19.8082 29.3183 19.5004 28.834 19.2724 28.3112L19.2501 28.2599L19.2396 28.2051C19.236 28.1859 19.2332 28.1667 19.2313 28.1474L19.2081 28.0855C19.2078 28.0848 19.2075 28.0841 19.2073 28.0834C19.1529 27.9417 19.1107 27.7938 19.0753 27.6698L19.0736 27.6639C18.9844 27.3594 18.9199 27.0482 18.8808 26.7332C18.8356 26.4375 18.8153 26.1385 18.8201 25.8393V25.7687V25.7687V25.7687V25.7687V25.7686V25.7686V25.7686V25.7686V25.7685V25.7685V25.7685V25.7684V25.7684V25.7683V25.7683V25.7682V25.7682V25.7681V25.7681V25.768V25.7679V25.7679V25.7678V25.7677V25.7677V25.7676V25.7675V25.7674V25.7674V25.7673V25.7672V25.7671V25.767V25.7669V25.7668V25.7667V25.7666V25.7665V25.7664V25.7663V25.7662V25.7661V25.7659V25.7658V25.7657V25.7656V25.7655V25.7653V25.7652V25.7651V25.7649V25.7648V25.7647V25.7645V25.7644V25.7642V25.7641V25.7639V25.7638V25.7636V25.7635V25.7633V25.7631V25.763V25.7628V25.7626V25.7625V25.7623V25.7621V25.7619V25.7618V25.7616V25.7614V25.7612V25.761V25.7608V25.7607V25.7605V25.7603V25.7601V25.7599V25.7597V25.7595V25.7593V25.7591V25.7589V25.7586V25.7584V25.7582V25.758V25.7578V25.7576V25.7573V25.7571V25.7569V25.7567V25.7564V25.7562V25.756V25.7557V25.7555V25.7553V25.755V25.7548V25.7545V25.7543V25.7541V25.7538V25.7536V25.7533V25.753V25.7528V25.7525V25.7523V25.752V25.7518V25.7515V25.7512V25.751V25.7507V25.7504V25.7502V25.7499V25.7496V25.7493V25.7491V25.7488V25.7485V25.7482V25.7479V25.7476V25.7474V25.7471V25.7468V25.7465V25.7462V25.7459V25.7456V25.7453V25.745V25.7447V25.7444V25.7441V25.7438V25.7435V25.7432V25.7429V25.7426V25.7423V25.7419V25.7416V25.7413V25.741V25.7407V25.7404V25.7401V25.7397V25.7394V25.7391V25.7388V25.7384V25.7381V25.7378V25.7374V25.7371V25.7368V25.7365V25.7361V25.7358V25.7354V25.7351V25.7348V25.7344V25.7341V25.7338V25.7334V25.7331V25.7327V25.7324V25.732V25.7317V25.7313V25.731V25.7306V25.7303V25.7299V25.7296V25.7292V25.7289V25.7285V25.7281V25.7278V25.7274V25.7271V25.7267V25.7263V25.726V25.7256V25.7253V25.7249V25.7245V25.7242V25.7238V25.7234V25.723V25.7227V25.7223V25.7219V25.7216V25.7212V25.7208V25.7204V25.7201V25.7197V25.7193V25.7189V25.7186V25.7182V25.7178V25.7174V25.717V25.7167V25.7163V25.7159V25.7155V25.7151V25.7147V25.7143V25.714V25.7136V25.7132V25.7128V25.7124V25.712V25.7116V25.7112V25.7109V25.7105V25.7101V25.7097V25.7093V25.7089V25.7085V25.7081V25.7077V25.7073V25.7069V25.7065V25.7061V25.7057V25.7054V25.705V25.7046V25.7042V25.7038V25.7034V25.703V25.7026V25.7022V25.7018V25.7014V25.701V25.7006V25.7002V25.6998V25.6994V25.699V25.6986V25.6982V25.6978V25.6974V25.697V25.6966V25.6962V25.6958V25.6954V25.695V25.6946V25.6942V25.6938V25.6934V25.693V25.6926V25.6922V25.6918V25.6914V25.691V25.6906V25.6902V25.6898V25.6894V25.6889V25.6885V25.6881V25.6877V25.6873V25.6869V25.6865V25.6861V25.6857V25.6853V25.6849V25.6845V25.6841V25.6837V25.6833V25.6829V25.6825V25.6821V25.6817V25.6813V25.6809V25.6805V25.6801V25.6797V25.6793V25.6789V25.6786V25.6782V25.6778V25.6774V25.677V25.6766V25.6762V25.6758V25.6754V25.675V25.6746V25.6742V25.6738V25.6734V25.673V25.6726V25.6722V25.6719V25.6715V25.6711V25.6707V25.6703V25.6699V25.6695V25.6691V25.6687V25.6684V25.668V25.6676V25.6672V25.6668V25.6664V25.6661V25.6657V25.6653V25.6649V25.6645V25.6642V25.6638V25.6634V25.663V25.6626V25.6623V25.6619V25.6615V25.6611V25.6608V25.6604V25.66V25.6597V25.6593V25.6589V25.6585V25.6582V25.6578V25.6574V25.6571V25.6567V25.6563V25.656V25.6556V25.6553V25.6549V25.6545V25.6542V25.6538V25.6535V25.6531V25.6528V25.6524V25.6521V25.6517V25.6514V25.651V25.6507V25.6503V25.65V25.6496V25.6493V25.6489V25.6486V25.6482V25.6479V25.6476V25.6472V25.6469V25.6465V25.6462V25.6459V25.6455V25.6452V25.6449V25.6446V25.6442V25.6439V25.6436V25.6432V25.6429V25.6426V25.6423V25.642V25.6416V25.6413V25.641V25.6407V25.6404V25.6401V25.6398V25.6395V25.6391V25.6388V25.6385V25.6382V25.6379V25.6376V25.6373V25.637V25.6367V25.6364V25.6361V25.6359V25.6356V25.6353V25.635V25.6347V25.6344V25.6341V25.6339V25.6336V25.6333V25.633V25.6327V25.6325V25.6322V25.6319V25.6317V25.6314V25.6311V25.6309V25.6306V25.6303V25.6301V25.6298V25.6296V25.6293V25.629V25.6288V25.6285V25.6283V25.6281V25.6278V25.6276V25.6273V25.6271V25.6268V25.6266V25.6264V25.6261V25.6259V25.6257V25.6255V25.6252V25.625V25.6248V25.6246V25.6244V25.6241V25.6239V25.6237V25.6235V25.6233V25.6231V25.6229V25.6227V25.6225V25.6223V25.6221V25.6219V25.6217V25.6215V25.6213V25.6211V25.621V25.6208V25.6206V25.6204V25.6202V25.6201V25.6199V25.6197V25.6196V25.6194V25.6005L18.8215 25.5816C18.8354 25.3994 18.8592 25.2181 18.8929 25.0385C18.9345 24.7825 18.9969 24.5302 19.0794 24.2843L19.0834 24.2723L19.088 24.2606L19.5534 24.4434L19.0881 24.2606L19.0881 24.2606L19.0881 24.2604L19.0884 24.2598L19.0893 24.2575L19.0926 24.249L19.1048 24.2182L19.1435 24.1202C19.1716 24.0495 19.2072 23.9602 19.2245 23.9198L19.229 23.9093L19.234 23.899L19.374 23.6097L19.389 23.5787L19.4081 23.5501L19.6134 23.2421L19.6208 23.231L19.6209 23.2311L19.7329 23.0725L19.7502 23.048L19.7702 23.0258C19.8669 22.9187 19.9691 22.8165 20.0762 22.7197C20.1635 22.6404 20.2561 22.5671 20.3533 22.5004L20.4811 22.4128H20.545L20.8788 22.2196L20.8802 22.2188L21.1339 22.6553L21.5641 22.4496C21.5623 22.4459 21.5606 22.4422 21.5587 22.4386C21.5423 22.406 21.5236 22.3773 21.5037 22.3521C21.408 22.2311 21.2825 22.1903 21.2285 22.1774C21.1576 22.1605 21.1001 22.1634 21.0782 22.165C21.0506 22.1669 21.0287 22.1707 21.0163 22.1732C20.9917 22.178 20.9729 22.1837 20.9656 22.186C20.9492 22.1911 20.9374 22.1958 20.9352 22.1967C20.9287 22.1993 20.926 22.2006 20.9306 22.1985C20.9485 22.1905 20.9878 22.1718 21.0425 22.1454C21.0691 22.1325 21.0993 22.1179 21.1302 22.1028C21.2128 22.0627 21.3012 22.0197 21.3438 22.0003C21.4723 21.9419 21.8209 21.8133 22.0491 21.7438L22.0568 21.7415L22.0647 21.7394L22.55 21.6087L22.5633 21.6051L22.5767 21.6023L23.4167 21.425L23.4266 21.4229L23.4367 21.4212C24.0404 21.3192 24.6507 21.2608 25.2628 21.2463L25.2745 21.2461V21.2462C25.9314 21.2462 26.5633 21.2459 27.1918 21.192L27.8971 21.1316L27.7183 21.8165C27.4071 23.0085 27.0094 24.1762 26.5283 25.3103ZM26.5283 25.3103C26.5283 25.3104 26.5282 25.3105 26.5282 25.3107L26.0679 25.1154L26.5286 25.3095C26.5285 25.3098 26.5284 25.31 26.5283 25.3103ZM26.3851 17.4037L26.3851 17.4036L26.3774 17.4071C25.4482 17.8218 24.6366 17.6172 23.9201 17.0771C23.1806 16.5196 22.5686 15.6152 22.1534 14.7223L22.1535 14.7223L22.1498 14.7148C20.8658 12.0686 20.3853 9.10412 20.7678 6.1878L20.7681 6.18556C20.7911 6.00383 20.9557 5.74385 21.2692 5.46518C21.5666 5.2008 21.9089 4.9989 22.114 4.91467C22.2104 4.87508 22.3148 4.84571 22.4115 4.83201C22.5038 4.81893 22.5693 4.82288 22.6073 4.83106C22.6086 4.84845 22.6085 4.87494 22.6038 4.91291C22.2516 7.70137 22.7227 10.5318 23.959 13.0557C24.3805 14.0973 25.0816 15.0025 25.9851 15.671L26.0007 15.6826L26.0172 15.6929C26.2412 15.8331 26.483 15.9427 26.7361 16.0187L27.0967 16.1269L27.3004 15.8102C27.3588 15.7193 27.4117 15.625 27.4588 15.5278C27.5506 15.3456 27.6322 15.1585 27.7032 14.9672L27.7044 14.964C27.7088 14.9518 27.7147 14.9374 27.7252 14.9126C27.7262 14.9104 27.7271 14.908 27.7282 14.9056C27.7373 14.8842 27.7504 14.8533 27.7624 14.8218C27.7841 14.7647 27.8135 14.6782 27.8239 14.5726C27.9281 14.1615 28.0061 13.7441 28.0575 13.3231L28.0598 13.304L28.0606 13.2848C28.1788 10.6369 27.5911 8.0052 26.3579 5.65916C26.31 5.55042 26.3165 5.40647 26.4541 5.18495C26.5943 4.95925 26.8225 4.73958 27.0364 4.56775C27.1667 4.47112 27.5068 4.25219 27.8333 4.12901C27.9919 4.06918 28.1054 4.04831 28.1715 4.04882C29.8168 7.47852 30.5564 11.2728 30.3193 15.07L30.3192 15.07L30.3188 15.0794C30.2617 16.3898 30.1086 17.6944 29.8607 18.9825L29.7463 19.577H30.3517H30.641H30.6661L30.6911 19.5745C31.3424 19.5089 31.9884 19.3991 32.6248 19.2457L32.6283 19.2449C33.0854 19.1312 33.5313 18.9768 33.9607 18.7837H34.0691L34.1788 18.7256L34.3375 18.6416L34.3452 18.6375L34.3528 18.6331L34.7261 18.4185L34.7348 18.4135L34.7433 18.4081L34.9953 18.2495L35.0099 18.2402L35.0239 18.23L35.2665 18.0527L35.2666 18.0527L35.2715 18.049C35.5024 17.8759 35.7362 17.6909 35.9623 17.4943L35.9623 17.4944L35.9664 17.4907L36.2183 17.2668L36.227 17.259L36.2353 17.2509L36.618 16.8776L36.618 16.8776L36.6224 16.8733C36.8216 16.674 37.113 16.4284 37.4149 16.2687C37.7187 16.108 37.9299 16.0866 38.0614 16.1328C38.0612 16.1344 38.0609 16.136 38.0606 16.1377C38.0551 16.1705 38.0429 16.2143 38.0212 16.2687C37.9272 16.5036 37.7258 16.7636 37.6139 16.8755L37.6078 16.8816L37.6019 16.8879C35.5606 19.0751 32.847 20.517 29.8927 20.9849H29.8011H29.422L29.3196 21.3499C28.8577 22.9972 28.2113 24.5871 27.3927 26.0895L27.3866 26.1008L27.381 26.1124C26.3404 28.2811 24.7924 30.167 22.8681 31.6104C22.4018 31.9495 21.8615 32.1732 21.2918 32.2629C20.7266 32.352 20.1485 32.3066 19.6042 32.1307C18.677 31.7495 17.9982 30.9826 17.5644 30.0297C17.1271 29.0692 16.9545 27.9499 17.0282 26.9439L17.0284 26.9414C17.2592 23.5638 20.3752 21.1387 23.5804 20.2303C24.6384 19.9371 25.7269 19.7679 26.8239 19.7263H26.825H26.8268H26.8285H26.8303H26.832H26.8338H26.8355H26.8373H26.839H26.8408H26.8425H26.8443H26.8461H26.8478H26.8496H26.8513H26.8531H26.8549H26.8566H26.8584H26.8601H26.8619H26.8637H26.8654H26.8672H26.8689H26.8707H26.8725H26.8742H26.876H26.8778H26.8795H26.8813H26.8831H26.8848H26.8866H26.8884H26.8901H26.8919H26.8937H26.8954H26.8972H26.899H26.9007H26.9025H26.9043H26.906H26.9078H26.9096H26.9114H26.9131H26.9149H26.9167H26.9185H26.9202H26.922H26.9238H26.9256H26.9273H26.9291H26.9309H26.9327H26.9344H26.9362H26.938H26.9398H26.9415H26.9433H26.9451H26.9469H26.9487H26.9504H26.9522H26.954H26.9558H26.9576H26.9593H26.9611H26.9629H26.9647H26.9665H26.9683H26.97H26.9718H26.9736H26.9754H26.9772H26.979H26.9808H26.9825H26.9843H26.9861H26.9879H26.9897H26.9915H26.9933H26.9951H26.9969H26.9986H27.0004H27.0022H27.004H27.0058H27.0076H27.0094H27.0112H27.013H27.0148H27.0166H27.0183H27.0201H27.0219H27.0237H27.0255H27.0273H27.0291H27.0309H27.0327H27.0345H27.0363H27.0381H27.0399H27.0417H27.0435H27.0453H27.0471H27.0489H27.0507H27.0525H27.0543H27.0561H27.0579H27.0597H27.0615H27.0633H27.0651H27.0669H27.0687H27.0705H27.0723H27.0741H27.0759H27.0777H27.0795H27.0813H27.0831H27.0849H27.0867H27.0885H27.0903H27.0922H27.094H27.0958H27.0976H27.0994H27.1012H27.103H27.1048H27.1066H27.1084H27.1102H27.112H27.1139H27.1157H27.1175H27.1193H27.1211H27.1229H27.1247H27.1265H27.1283H27.1302H27.132H27.1338H27.1356H27.1374H27.1392H27.141H27.1428H27.1447H27.1465H27.1483H27.1501H27.1519H27.1537H27.1556H27.1574H27.1592H27.161H27.1628H27.1646H27.1665H27.1683H27.1701H27.1719H27.1737H27.1756H27.1774H27.1792H27.181H27.1828H27.1846H27.1865H27.1883H27.1901H27.1919H27.1938H27.1956H27.1974H27.1992H27.201H27.2029H27.2047H27.2065H27.2083H27.2102H27.212H27.2138H27.2156H27.2175H27.2193H27.2211H27.2229H27.2248H27.2266H27.2284H27.2302H27.2321H27.2339H27.2357H27.2375H27.2394H27.2412H27.243H27.2449H27.2467H27.2485H27.2503H27.2522H27.254H27.2558H27.2577H27.2595H27.2613H27.2632H27.265H27.2668H27.2686H27.2705H27.2723H27.2741H27.276H27.2778H27.2796H27.2815H27.2833H27.2851H27.287H27.2888H27.2906H27.2925H27.2943H27.2961H27.298H27.2998H27.3016H27.3035H27.3053H27.3072H27.309H27.3108H27.3127H27.3145H27.3163H27.3182H27.32H27.3218H27.3237H27.3255H27.3274H27.3292H27.331H27.3329H27.3347H27.3365H27.3384H27.3402H27.3421H27.3439H27.3457H27.3476H27.3494H27.3513H27.3531H27.3549H27.3568H27.3586H27.3605H27.3623H27.3641H27.366H27.3678H27.3697H27.3715H27.3734H27.3752H27.377H27.3789H27.3807H27.3826H27.3844H27.3863H27.3881H27.3899H27.3918H27.3936H27.3955H27.3973H27.3992H27.401H27.4029H27.4047H27.4065H27.4084H27.4102H27.4121H27.4139H27.4158H27.4176H27.4195H27.4213H27.4232H27.425H27.4269H27.4287H27.4305H27.4324H27.4342H27.4361H27.4379H27.4398H27.4416H27.4435H27.4453H27.4472H27.449H27.4509H27.4527H27.4546H27.4564H27.4583H27.4601H27.462H27.4638H27.4657H27.4675H27.4694H27.4712H27.4731H27.4749H27.4768H27.4786H27.4805H27.4823H27.4842H27.486H27.4879H27.4897H27.4916H27.4934H27.4953H27.4971H27.499H27.5008H27.5027H27.5045H27.5064H27.5082H27.5101H27.5119H27.5138H27.5157H27.5175H27.5194H27.5212H27.5231H27.5249H27.5268H27.5286H27.5305H27.5323H27.5342H27.536H27.5379H27.5397H27.5416H27.5435H27.5453H27.5472H27.549H27.5509H27.5527H27.5546H27.5564H27.5583H27.5601H27.562H27.5639H27.5657H27.5676H27.5694H27.5713H27.5731H27.575H27.5768H27.5787H27.5806H27.5824H27.5843H27.5861H27.588H27.5898H27.5917H27.5935H27.5954H27.5973H27.5991H27.601H27.6028H27.6047H27.6065H27.6084H27.6103H27.6121H27.614H27.6158H27.6177H27.6195H27.6214H27.6233H27.6251H27.627H27.6288H27.6307H27.6325H27.6344H27.6363H27.6381H27.64H27.6418H27.6437H27.6456H27.6474H27.6493H27.6511H27.653H27.6548H27.6567H27.6586H27.6604H27.6623H27.6641H27.666H27.6679H27.6697H27.6716H27.6734H27.6753H27.6771H27.679H27.6809H27.6827H27.6846H27.6864H27.6883H27.6902H27.692H27.6939H27.6957H27.6976H27.6995H27.7013H27.7032H27.705H27.7069H27.7087H27.7106H27.7125H27.7143H27.7162H27.718H27.7199H27.7218H27.7236H27.7255H27.7273H27.7292H27.7311H27.7329H27.7348H27.7366H27.7385H27.7404H27.7422H27.7441H27.7459H27.7478H28.1773L28.2421 19.3017C28.3561 18.5544 28.4415 17.7948 28.4984 17.0232L28.5864 15.831L27.6758 16.6055C27.2883 16.9352 26.8532 17.2043 26.3851 17.4037ZM22.6028 4.80346C22.6028 4.80344 22.6031 4.80399 22.6034 4.80517L22.6028 4.80346Z" fill="#35383F" stroke="#35383F"/>
<path d="M43.8797 31.2993L43.9021 31.2987L43.9244 31.2961C44.1261 31.2725 44.3245 31.2267 44.516 31.1595H45.0017L44.982 30.6404C44.9736 30.4214 44.949 30.2033 44.9083 29.988L44.9066 29.9787L44.9045 29.9695C44.7546 29.3128 44.4892 28.6879 44.1208 28.124C43.5777 27.238 42.9257 26.4235 42.1801 25.6996L42.1743 25.6939L42.1683 25.6885C41.3414 24.9359 40.4196 24.2147 39.5063 23.5282C39.5154 23.5042 39.528 23.4753 39.5451 23.4414C39.5782 23.3761 39.6226 23.3033 39.6763 23.2257L39.6763 23.2257L39.6798 23.2205C39.768 23.0896 39.8657 22.9654 39.972 22.8488L40.1435 22.6944H40.1819L40.3167 22.5907C40.5414 22.4178 40.796 22.2566 41.0219 22.1704C41.1337 22.1278 41.2182 22.1115 41.2756 22.1103C41.3282 22.1092 41.3422 22.1205 41.3428 22.1209L41.3428 22.1209L41.348 22.1244C42.4805 22.8839 43.537 23.751 44.5026 24.7138L44.5117 24.7228L44.5213 24.7314C45.5003 25.6119 46.4455 26.5356 47.3571 27.5026L48.6675 28.8926L48.2061 27.0388C47.82 25.4877 47.3551 23.9574 46.8132 22.4537L46.793 22.3904C46.1924 20.5047 45.5701 18.5507 46.0073 16.7657C46.1159 16.4608 46.2897 16.1832 46.5168 15.9524L46.1637 15.6052L46.5168 15.9524C46.7488 15.7164 47.0305 15.5351 47.3415 15.4218L47.3521 15.4179L47.3625 15.4136C47.4321 15.3846 47.5319 15.3561 47.6391 15.3413C47.736 15.3279 47.817 15.3287 47.8739 15.3376C47.8728 15.3431 47.8714 15.3491 47.8699 15.3555C47.6438 16.2575 47.7241 17.2536 47.9116 18.2045C48.0943 19.1308 48.3894 20.0623 48.6479 20.8782C48.656 20.9038 48.6641 20.9293 48.6722 20.9548L48.6767 20.9692L48.6822 20.9834C49.386 22.8121 49.9115 24.7044 50.2514 26.6342C50.3817 27.4865 50.2862 28.3581 49.9745 29.162C49.9013 29.3289 49.8151 29.4898 49.7169 29.6434L49.5165 29.9567L49.759 30.2388C49.9726 30.4872 50.152 30.7632 50.2925 31.0592C50.5413 31.5921 50.6961 32.164 50.75 32.7497C50.8275 34.1129 50.6607 35.479 50.2577 36.7836L50.2576 36.7836L50.2552 36.7922C49.7374 38.5809 49.0288 40.6393 47.7531 41.8294L47.7443 41.8377L47.7358 41.8464C47.2323 42.364 46.6261 42.7707 45.9563 43.0404C45.2864 43.3101 44.5676 43.4369 43.8458 43.4126L43.8458 43.4126L43.8402 43.4124C43.2945 43.4002 42.7596 43.2576 42.2803 42.9964C41.801 42.7352 41.3912 42.3631 41.0851 41.9111C40.779 41.4592 40.5856 40.9405 40.5209 40.3985C40.4563 39.8565 40.5223 39.3069 40.7135 38.7956L40.7136 38.7957L40.7174 38.7847C41.468 36.6256 42.7864 34.7085 44.534 33.235L44.0502 32.3795C42.7066 32.8381 41.256 32.881 39.8877 32.5026C37.6108 31.8322 35.6299 30.4064 34.2714 28.46L34.2672 28.454L34.2628 28.4481L34.2628 28.4481C34.2574 28.4408 34.2021 28.3663 34.3305 28.121C34.4523 27.8883 34.6888 27.6196 34.9869 27.3868C35.2854 27.1537 35.5994 26.9928 35.846 26.9348C35.9679 26.9062 36.0475 26.9088 36.0907 26.9183C36.119 26.9245 36.1285 26.9319 36.1348 26.9396C37.4263 28.8113 39.2848 30.219 41.4366 30.9552L41.4365 30.9554L41.4484 30.9591C42.2344 31.2063 43.056 31.3212 43.8797 31.2993ZM39.4863 23.6C39.4863 23.6 39.4863 23.5996 39.4864 23.5988L39.4863 23.6ZM47.9301 15.3523C47.9301 15.3523 47.9294 15.352 47.9283 15.3513C47.9296 15.3519 47.9302 15.3523 47.9301 15.3523ZM47.8801 15.282C47.8797 15.2801 47.8797 15.279 47.8797 15.279C47.8798 15.2789 47.88 15.2799 47.8801 15.282ZM48.861 35.8264L48.9959 34.743L48.9016 34.8059C48.8871 34.0721 48.7402 33.344 48.465 32.6574L48.4556 32.6341L48.444 32.6118C48.31 32.3553 48.1532 32.1115 47.9755 31.8831L47.6784 31.5012L47.287 31.7856C46.1451 32.6151 45.1054 33.5768 44.1894 34.6505L44.1568 34.6831L44.1361 34.7038L44.1179 34.7268L43.9779 34.9041L43.9779 34.9041L43.9744 34.9086L43.7224 35.2352L43.7206 35.2376C43.595 35.4025 43.4737 35.5822 43.3635 35.7455C43.3334 35.7901 43.3042 35.8334 43.2759 35.8749L43.2703 35.8831L43.265 35.8916L43.2185 35.966C43.1508 36.0742 43.0893 36.1861 43.0344 36.3012L43.0337 36.3025C42.9422 36.4856 42.8433 36.6834 42.7535 36.8929L42.7533 36.8929L42.7488 36.9042C42.7319 36.9464 42.7156 37.0074 42.7095 37.0305C42.7089 37.0329 42.7083 37.0348 42.7079 37.0363L42.7056 37.0451C42.6961 37.0801 42.6879 37.1104 42.6805 37.1352C42.6774 37.1456 42.6756 37.1507 42.6752 37.152C42.6751 37.1524 42.6751 37.1524 42.6752 37.1521C42.6754 37.1515 42.678 37.1443 42.6831 37.1332L42.6833 37.1328C42.6864 37.1259 42.7011 37.0939 42.7288 37.0562C42.7426 37.0374 42.7739 36.9974 42.825 36.9583C42.8311 36.9536 42.8381 36.9485 42.846 36.9431C42.8491 36.941 42.8522 36.9389 42.8556 36.9367C42.9132 36.8992 43.0115 36.8523 43.1423 36.8564C43.2024 36.8582 43.2563 36.8703 43.3037 36.8884C43.2726 36.9547 43.2422 37.0217 43.213 37.0899C43.2079 37.1026 43.1987 37.137 43.1879 37.1769C43.1815 37.2006 43.1745 37.2263 43.1676 37.2506L42.639 37.1765L42.5829 37.3725L42.5822 37.3753C42.5309 37.5587 42.4901 37.7448 42.4598 37.9328C42.4288 38.0834 42.4078 38.236 42.397 38.3894L42.8525 38.4215L42.3957 38.4215V38.4215V38.4215V38.4216V38.4216V38.4216V38.4216V38.4217V38.4217V38.4217V38.4217V38.4218V38.4218V38.4219V38.4219V38.4219V38.422V38.422V38.422V38.4221V38.4221V38.4222V38.4222V38.4223V38.4224V38.4225V38.4226V38.4227V38.4229V38.423V38.4231V38.4232V38.4233V38.4233V38.4235V38.4235V38.4236V38.4237V38.4238V38.4239V38.424V38.4241V38.4242V38.4243V38.4244V38.4245V38.4246V38.4248V38.425V38.4252V38.4255V38.4257V38.4259V38.4262V38.4264V38.4267V38.427V38.4272V38.4275V38.4278V38.4281V38.4284V38.4287V38.429V38.4293V38.4297V38.43V38.4303V38.4307V38.431V38.4314V38.4317V38.4321V38.4325V38.4328V38.4332V38.4336V38.434V38.4344V38.4348V38.4352V38.4356V38.4361V38.4365V38.4369V38.4373V38.4378V38.4382V38.4387V38.4392V38.4396V38.4401V38.4406V38.4411V38.4415V38.442V38.4425V38.443V38.4435V38.444V38.4446V38.4451V38.4456V38.4462V38.4467V38.4472V38.4478V38.4483V38.4489V38.4495V38.45V38.4506V38.4512V38.4518V38.4523V38.4529V38.4535V38.4541V38.4547V38.4553V38.456V38.4566V38.4572V38.4578V38.4585V38.4591V38.4597V38.4604V38.461V38.4617V38.4623V38.463V38.4637V38.4643V38.465V38.4657V38.4664V38.4671V38.4678V38.4685V38.4692V38.4699V38.4706V38.4713V38.472V38.4727V38.4734V38.4742V38.4749V38.4756V38.4764V38.4771V38.4779V38.4786V38.4794V38.4801V38.4809V38.4816V38.4824V38.4832V38.484V38.4847V38.4855V38.4863V38.4871V38.4879V38.4887V38.4895V38.4903V38.4911V38.4919V38.4927V38.4935V38.4943V38.4951V38.496V38.4968V38.4976V38.4985V38.4993V38.5001V38.501V38.5018V38.5027V38.5035V38.5044V38.5052V38.5061V38.5069V38.5078V38.5087V38.5095V38.5104V38.5113V38.5122V38.513V38.5139V38.5148V38.5157V38.5166V38.5175V38.5184V38.5193V38.5202V38.5211V38.522V38.5229V38.5238V38.5247V38.5256V38.5265V38.5274V38.5284V38.5293V38.5302V38.5311V38.532V38.533V38.5339V38.5348V38.5358V38.5367V38.5376V38.5386V38.5395V38.5405V38.5414V38.5424V38.5433V38.5443V38.5452V38.5462V38.5471V38.5481V38.549V38.55V38.5509V38.5519V38.5529V38.5538V38.5548V38.5558V38.5567V38.5577V38.5587V38.5596V38.5606V38.5616V38.5626V38.5635V38.5645V38.5655V38.5665V38.5674V38.5684V38.5694V38.5704V38.5714V38.5724V38.5733V38.5743V38.5753V38.5763V38.5773V38.5783V38.5793V38.5803V38.5812V38.5822V38.5832V38.5842V38.5852V38.5862V38.5872V38.5882V38.5892V38.5902V38.5912V38.5922V38.5932V38.5942V38.5952V38.5962V38.5971V38.5981V38.5991V38.6001V38.6011V38.6021V38.6031V38.6041V38.6051V38.6061V38.6071V38.6081V38.6091V38.6101V38.6111V38.6121V38.6131V38.6141V38.6151V38.6161V38.6171V38.618V38.619V38.62V38.621V38.622V38.623V38.624V38.625V38.626V38.627V38.6279V38.6289V38.6299V38.6309V38.6319V38.6329V38.6338V38.6348V38.6358V38.6368V38.6378V38.6387V38.6397V38.6407V38.6417V38.6426V38.6436V38.6446V38.6456V38.6465V38.6475V38.6485V38.6494V38.6504V38.6513V38.6523V38.6533V38.6542V38.6552V38.6561V38.6571V38.658V38.659V38.6599V38.6609V38.6618V38.6628V38.6637V38.6647V38.6656V38.6665V38.6675V38.6684V38.6693V38.6703V38.6712V38.6721V38.673V38.674V38.6749V38.6758V38.6767V38.6776V38.6785V38.6794V38.6804V38.6813V38.6822V38.6831V38.684V38.6849V38.6857V38.6866V38.6875V38.6884V38.6893V38.6902V38.6911V38.6919V38.6928V38.6937V38.6945V38.6954V38.6963V38.6971V38.698V38.6988V38.6997V38.7005V38.7014V38.7022V38.7031V38.7039V38.7047V38.7056V38.7064V38.7072V38.7081V38.7089V38.7097V38.7105V38.7113V38.7121V38.7129V38.7137V38.7145V38.7153V38.7161V38.7169V38.7177V38.7185V38.7192V38.72V38.7208V38.7215V38.7223V38.7231V38.7238V38.7246V38.7253V38.7261V38.7268V38.7275V38.7283V38.729V38.7297V38.7305V38.7312V38.7319V38.7326V38.7333V38.734V38.7347V38.7354V38.7361V38.7368V38.7375V38.7381V38.7388V38.7395V38.7401V38.7408V38.7415V38.7421V38.7428V38.7434V38.744V38.7447V38.7453V38.7459V38.7466V38.7472V38.7478V38.7484V38.749V38.7496V38.7502V38.7508V38.7514V38.7519V38.7525V38.7531V38.7537V38.7542V38.7548V38.7553V38.7559V38.7564V38.7569V38.7575V38.758V38.7585V38.759V38.7596V38.7601V38.7606V38.7611V38.7615V38.762V38.7625V38.763V38.7635V38.7639V38.7644V38.7648V38.7653V38.7657V38.7662V38.7666V38.767V38.7674V38.7678V38.7682V38.7687V38.7691V38.7694V38.7698V38.7876L42.397 38.8052C42.4212 39.1469 42.4894 39.484 42.5997 39.8082L42.5997 39.8082L42.6011 39.8124C42.6099 39.8375 42.6196 39.8624 42.63 39.8869C42.6306 39.8937 42.6313 39.9005 42.6321 39.9073L42.6417 39.9949L42.6807 40.0738C42.7484 40.2108 42.827 40.3421 42.9158 40.4664C43.0934 40.7241 43.3047 40.9569 43.5441 41.1587L43.609 41.2134L43.6883 41.2437L43.8186 41.2933L43.837 41.3071L43.849 41.316L43.8614 41.3243C43.9784 41.4015 44.0993 41.4726 44.2236 41.5373L44.2261 41.5386C44.4928 41.6755 44.7719 41.7871 45.0595 41.872L45.1287 41.8924H45.201H45.3407C45.4691 41.9017 45.598 41.9021 45.7264 41.8935C45.8294 41.8994 45.9325 41.9009 46.0356 41.898V42.8904L46.9467 41.5743L47.0307 41.453L47.0469 41.4296L47.0603 41.4045L47.199 41.1456C47.2816 40.9954 47.3601 40.8364 47.4313 40.6922C47.4536 40.6469 47.4753 40.603 47.4961 40.5614L47.4963 40.5615L47.5017 40.5497C47.7128 40.0989 47.9149 39.618 48.0887 39.1352L48.0887 39.1352L48.0905 39.1299C48.4627 38.0589 48.7209 36.9516 48.861 35.8264Z" fill="#35383F" stroke="#35383F"/>
<path d="M39.7218 50.9304C39.7401 50.9194 39.7955 50.8813 39.849 50.8445C39.8794 50.8236 39.9092 50.8031 39.9311 50.7883L40.2365 51.1904L40.4604 51.0224L40.4605 51.0225L40.4678 51.0168L41.1025 50.5221L41.12 50.5084L41.1363 50.4933L41.266 50.3721C41.3664 50.2881 41.4623 50.1988 41.5532 50.1047C41.6226 50.0351 41.7164 49.9336 41.7885 49.8547C41.8262 49.8134 41.8599 49.7761 41.8843 49.7491L41.9131 49.717L41.9177 49.7118L41.9258 49.7034C41.9351 49.6936 41.9481 49.68 41.9635 49.6634C41.9941 49.6306 42.0359 49.5849 42.0786 49.5355C42.1197 49.488 42.169 49.4286 42.2105 49.3702C42.2308 49.3416 42.2567 49.303 42.2797 49.2593L42.2806 49.2574C42.2832 49.2526 42.2872 49.245 42.292 49.2349C42.3416 49.1688 42.3876 49.0999 42.4296 49.0286L42.4339 49.0213L42.438 49.0139C42.4731 48.9495 42.5316 48.813 42.5706 48.7219C42.5787 48.7031 42.586 48.6862 42.592 48.6723C42.6133 48.623 42.6219 48.6051 42.6215 48.6049C42.6214 48.6049 42.6202 48.607 42.618 48.6108C42.6154 48.6153 42.6061 48.6315 42.5915 48.6517C42.5843 48.6615 42.5696 48.6811 42.5479 48.7035C42.5338 48.7181 42.48 48.7737 42.3908 48.8131C42.3332 48.8384 42.244 48.8616 42.1441 48.8536C42.1397 48.8532 42.1354 48.8528 42.131 48.8523C42.0815 48.847 42.0296 48.8339 41.9779 48.8094C41.9851 48.7978 41.9921 48.7862 41.9991 48.7745C42.0214 48.7335 42.0646 48.633 42.1042 48.5407C42.1243 48.4941 42.1434 48.4495 42.1585 48.4158L42.6481 48.5762C42.6995 48.4301 42.7332 48.2783 42.7486 48.1241L42.7486 48.1241L42.7492 48.117C42.7561 48.0359 42.7561 47.9544 42.7492 47.8733L42.7491 47.8722L42.7803 47.7166L42.675 47.5482C42.6301 47.4763 42.5709 47.4166 42.5454 47.3911C42.5107 47.3564 42.4744 47.3232 42.4488 47.3001C42.4126 47.2673 42.4102 47.2653 42.413 47.268C42.4151 47.2701 42.4202 47.2753 42.4268 47.2826L42.427 47.2828C42.4313 47.2874 42.4483 47.3061 42.4668 47.333C42.4752 47.3453 42.4966 47.3772 42.5155 47.4223L42.5162 47.4238C42.5236 47.4414 42.556 47.5179 42.5544 47.6236C42.5537 47.6685 42.5468 47.7187 42.5293 47.7719C42.5186 47.8046 42.5055 47.8342 42.4907 47.8612C42.4893 47.8637 42.4879 47.8662 42.4865 47.8686C42.4808 47.8786 42.4749 47.8881 42.4688 47.8972C42.4619 47.9075 42.4548 47.9173 42.4475 47.9266C42.433 47.9177 42.4184 47.9098 42.4038 47.9028C42.3946 47.8984 42.3855 47.8944 42.3764 47.8907C42.3322 47.8728 42.2883 47.8628 42.246 47.8584C42.2464 47.8433 42.248 47.8281 42.251 47.8132C42.2248 47.7711 42.1452 47.6995 42.0957 47.6549C42.086 47.6461 42.0774 47.6384 42.0707 47.6322L42.3511 47.2105C42.3491 47.2092 42.347 47.2077 42.3446 47.2062C42.2067 47.1152 42.061 47.0369 41.9092 46.972C41.5032 46.7919 41.087 46.6359 40.6627 46.5048L40.661 46.5043C39.4796 46.144 38.2762 45.8507 37.093 45.5623C36.9415 45.5253 36.7902 45.4885 36.6395 45.4516L36.6395 45.4515L36.6357 45.4507C36.4768 45.4131 36.3183 45.376 36.1602 45.3391C35.4445 45.1718 34.7378 45.0066 34.0481 44.8041L34.0196 44.7958L33.9902 44.7908C32.8305 44.5958 31.7301 44.1401 30.7721 43.458L30.7643 43.4524L30.7563 43.4472C29.4228 42.5727 28.2957 41.4182 27.4535 40.064L27.4535 40.064L27.4516 40.061C27.3692 39.9306 27.2947 39.7954 27.2285 39.6561L27.2153 39.6283L27.1988 39.6023C27.1439 39.5161 27.0957 39.4281 27.0386 39.3234L27.0337 39.3144L27.0285 39.3057C27.0195 39.2908 27.0138 39.2743 27.0116 39.2571L27.0021 39.1819L26.9706 39.1129C26.6223 38.3481 26.5022 37.4991 26.6248 36.668C26.7734 36.0103 27.0559 35.3903 27.455 34.8466C27.8574 34.2984 28.3695 33.8399 28.9586 33.5002L28.9667 33.4955L28.9745 33.4906C30.2144 32.7131 31.4787 32.6441 32.6915 33.0081C33.9193 33.3766 35.0999 34.1928 36.1084 35.1912C37.503 36.642 38.8022 38.5529 38.9051 40.4644C38.9472 41.4344 38.6316 42.3861 38.0183 43.1388L37.5161 43.7549L38.2889 43.9408C38.6707 44.0326 39.0502 44.1206 39.4274 44.208C40.5285 44.4632 41.6103 44.714 42.6724 45.0429L42.6967 45.0504L42.7215 45.0554C43.3637 45.1849 43.9612 45.478 44.4562 45.9058C44.5596 46.0896 44.6219 46.294 44.6382 46.5048C44.6564 46.738 44.6178 46.9722 44.5259 47.1873L44.5185 47.2045L44.5125 47.2221C43.8138 49.2666 41.9525 50.8489 40.0948 52.1123C37.7479 53.6931 35.061 54.6977 32.2527 55.0443C32.1365 55.0574 32.0542 55.0491 32.0038 55.0359C31.992 55.0328 31.9828 55.0298 31.9758 55.027C31.9782 54.9955 31.9908 54.9309 32.0412 54.8287L32.0419 54.8273C32.1911 54.5224 32.4059 54.2542 32.671 54.0422C32.9282 53.8364 33.2265 53.6884 33.5456 53.608C35.2403 53.4261 36.8924 52.9609 38.4331 52.2316L38.4342 52.2311L38.6301 52.1378L38.515 51.6283C38.5247 51.6232 38.5349 51.6176 38.5458 51.6117M39.7218 50.9304C39.6646 50.9685 39.6069 51.0057 39.5489 51.0422C39.5639 51.0649 39.5814 51.0871 39.6014 51.1085C39.6812 51.1935 39.7726 51.2322 39.8376 51.2495C39.8676 51.2575 39.8961 51.262 39.9221 51.2643L39.7218 50.9304ZM39.7218 50.9304L39.9454 51.2658C40.0051 51.2682 40.0488 51.2595 40.0629 51.2567L40.0634 51.2566C40.1222 51.2449 40.1653 51.2247 40.1706 51.2223C40.1849 51.2158 40.1958 51.2101 40.2008 51.2074C40.2113 51.2018 40.2187 51.1972 40.2205 51.1961C40.2243 51.1938 40.2123 51.2016 40.1747 51.2273C40.1663 51.2331 40.156 51.2402 40.1446 51.2481C40.0981 51.2801 40.0324 51.3253 39.9942 51.3497C39.7775 51.4939 39.553 51.626 39.3464 51.7475C39.3004 51.7746 39.2553 51.8011 39.2114 51.8272L39.1999 51.834L39.1881 51.8401L38.7812 52.0528C38.7394 52.0756 38.6996 52.0961 38.6795 52.1065C38.6741 52.1093 38.6701 52.1113 38.6679 52.1125C38.6417 52.1262 38.6813 52.1077 38.7215 52.0763L38.7217 52.0761C38.7282 52.0711 38.7457 52.0573 38.7673 52.0354L38.5458 51.6117M38.5458 51.6117L38.7735 52.0291C38.7874 52.0145 38.8026 51.9968 38.8175 51.9761C38.8449 51.938 38.9889 51.7227 38.8584 51.4618C38.8566 51.4582 38.8548 51.4547 38.8529 51.4512L38.5458 51.6117ZM29.3995 34.6219V34.3123V34.6219ZM29.3995 34.6219L29.3961 34.6246L29.3933 34.6269L29.3995 34.6219ZM28.5274 34.3123L28.5913 34.8403L28.5806 34.9281C28.4578 35.263 28.4074 35.6213 28.4343 35.979L28.4343 35.979L28.4344 35.9811C28.4868 36.6428 28.6686 37.2877 28.9694 37.8794L29.0503 38.0502L29.0581 38.0667L29.0671 38.0826C30.2382 40.1507 32.0508 41.7813 34.2308 42.728L34.233 42.7289C34.7743 42.9609 35.313 43.1531 35.8567 43.3248L35.9132 43.3426L35.9723 43.3468C36.12 43.3571 36.2683 43.3576 36.4161 43.348H36.4366H36.9366V42.848V42.8476V42.8471V42.8467V42.8463V42.8458V42.8454V42.8449V42.8445V42.8441V42.8436V42.8432V42.8428V42.8423V42.8419V42.8415V42.841V42.8406V42.8402V42.8397V42.8393V42.8389V42.8384V42.838V42.8376V42.8371V42.8367V42.8363V42.8358V42.8354V42.835V42.8345V42.8341V42.8337V42.8332V42.8328V42.8324V42.832V42.8315V42.8311V42.8307V42.8302V42.8298V42.8294V42.8289V42.8285V42.8281V42.8277V42.8272V42.8268V42.8264V42.8259V42.8255V42.8251V42.8247V42.8242V42.8238V42.8234V42.823V42.8225V42.8221V42.8217V42.8213V42.8208V42.8204V42.82V42.8196V42.8191V42.8187V42.8183V42.8179V42.8174V42.817V42.8166V42.8162V42.8157V42.8153V42.8149V42.8145V42.814V42.8136V42.8132V42.8128V42.8123V42.8119V42.8115V42.8111V42.8107V42.8102V42.8098V42.8094V42.809V42.8085V42.8081V42.8077V42.8073V42.8069V42.8064V42.806V42.8056V42.8052V42.8048V42.8043V42.8039V42.8035V42.8031V42.8027V42.8022V42.8018V42.8014V42.801V42.8006V42.8001V42.7997V42.7993V42.7989V42.7985V42.7981V42.7976V42.7972V42.7968V42.7964V42.796V42.7955V42.7951V42.7947V42.7943V42.7939V42.7935V42.793V42.7926V42.7922V42.7918V42.7914V42.791V42.7905V42.7901V42.7897V42.7893V42.7889V42.7885V42.788V42.7876V42.7872V42.7868V42.7864V42.786V42.7856V42.7851V42.7847V42.7843V42.7839V42.7835V42.7831V42.7827V42.7822V42.7818V42.7814V42.781V42.7806V42.7802V42.7798V42.7793V42.7789V42.7785V42.7781V42.7777V42.7773V42.7769V42.7764V42.776V42.7756V42.7752V42.7748V42.7744V42.774V42.7736V42.7731V42.7727V42.7723V42.7719V42.7715V42.7711V42.7707V42.7703V42.7698V42.7694V42.769V42.7686V42.7682V42.7678V42.7674V42.767V42.7665V42.7661V42.7657V42.7653V42.7649V42.7645V42.7641V42.7637V42.7633V42.7628V42.7624V42.762V42.7616V42.7612V42.7608V42.7604V42.76V42.7596V42.7591V42.7587V42.7583V42.7579V42.7575V42.7571V42.7567V42.7563V42.7559V42.7554V42.755V42.7546V42.7542V42.7538V42.7534V42.753V42.7526V42.7522V42.7517V42.7513V42.7509V42.7505V42.7501V42.7497V42.7493V42.7489V42.7485V42.7481V42.7476V42.7472V42.7468V42.7464V42.746V42.7456V42.7452V42.7448V42.7444V42.744V42.7435V42.7431V42.7427V42.7423V42.7419V42.7415V42.7411V42.7407V42.7403V42.7399V42.7394V42.739V42.7386V42.7382V42.7378V42.7374V42.737V42.7366V42.7362V42.7357V42.7353V42.7349V42.7345V42.7341V42.7337V42.7333V42.7329V42.7325V42.7321V42.7316V42.7312V42.7308V42.7304V42.73V42.7296V42.7292V42.7288V42.7284V42.728V42.7275V42.7271V42.7267V42.7263V42.7259V42.7255V42.7251V42.7247V42.7243V42.7238V42.7234V42.723V42.7226V42.7222V42.7218V42.7214V42.721V42.7206V42.7201V42.7197V42.7193V42.7189V42.7185V42.7181V42.7177V42.7173V42.7169V42.7164V42.716V42.7156V42.7152V42.7148V42.7144V42.714V42.7136V42.7132V42.7127V42.7123V42.7119V42.7115V42.7111V42.7107V42.7103V42.7099V42.7094V42.709V42.7086V42.7082V42.7078V42.7074V42.707V42.7065V42.7061V42.7057V42.7053V42.7049V42.7045V42.7041V42.7037V42.7032V42.7028V42.7024V42.702V42.7016V42.7012V42.7008V42.7003V42.6999V42.6995V42.6991V42.6987V42.6983V42.6979V42.6974V42.697V42.6966V42.6962V42.6958V42.6954V42.695V42.6945V42.6941V42.6937V42.6933V42.6929V42.6925V42.692V42.6916V42.6912V42.6908V42.6904V42.69V42.6895V42.6891V42.6887V42.6883V42.6879V42.6875V42.687V42.6866V42.6862V42.6858V42.6854V42.685V42.6845V42.6841V42.6837V42.6833V42.6829V42.6825V42.682V42.6816V42.6812V42.6808V42.6804V42.6799V42.6795V42.6791V42.6787V42.6783V42.6778V42.6774V42.677V42.6766V42.6762V42.6757V42.6753V42.6749V42.6745V42.6741V42.6736V42.6732V42.6728V42.6724V42.672V42.6715V42.6711V42.6707V42.6703V42.6698V42.6694V42.669V42.6686V42.6682V42.6677V42.6673V42.6669V42.6665V42.666V42.6656V42.6652V42.6648V42.6643V42.6639V42.6635V42.6631V42.6626V42.6622V42.6618V42.6614V42.6609V42.6605V42.6601V42.6598C36.9602 42.4279 36.9592 42.1941 36.9336 41.9624L36.9335 41.9617C36.8637 41.3386 36.7077 40.7281 36.4699 40.1479L36.467 40.1408L36.4639 40.1338C35.8851 38.8359 35.0643 37.6602 34.0455 36.6696C33.0496 35.5435 31.7353 34.7461 30.2762 34.3831L30.2573 34.3784L30.2381 34.3752C29.9596 34.3285 29.6774 34.3075 29.3951 34.3123H29.3951H29.3948H29.3944H29.3941H29.3938H29.3934H29.3931H29.3927H29.3923H29.392H29.3916H29.3912H29.3908H29.3905H29.3901H29.3897H29.3893H29.3889H29.3884H29.388H29.3876H29.3872H29.3868H29.3863H29.3859H29.3854H29.385H29.3846H29.3841H29.3836H29.3832H29.3827H29.3822H29.3818H29.3813H29.3808H29.3803H29.3798H29.3793H29.3788H29.3783H29.3778H29.3773H29.3768H29.3763H29.3757H29.3752H29.3747H29.3741H29.3736H29.3731H29.3725H29.372H29.3714H29.3709H29.3703H29.3697H29.3692H29.3686H29.368H29.3674H29.3669H29.3663H29.3657H29.3651H29.3645H29.3639H29.3633H29.3627H29.3621H29.3615H29.3609H29.3603H29.3596H29.359H29.3584H29.3578H29.3571H29.3565H29.3559H29.3552H29.3546H29.3539H29.3533H29.3526H29.352H29.3513H29.3507H29.35H29.3493H29.3487H29.348H29.3473H29.3466H29.346H29.3453H29.3446H29.3439H29.3432H29.3425H29.3419H29.3412H29.3405H29.3398H29.3391H29.3384H29.3377H29.337H29.3362H29.3355H29.3348H29.3341H29.3334H29.3327H29.332H29.3312H29.3305H29.3298H29.3291H29.3283H29.3276H29.3269H29.3261H29.3254H29.3247H29.3239H29.3232H29.3224H29.3217H29.3209H29.3202H29.3194H29.3187H29.3179H29.3172H29.3164H29.3157H29.3149H29.3142H29.3134H29.3126H29.3119H29.3111H29.3104H29.3096H29.3088H29.3081H29.3073H29.3065H29.3058H29.305H29.3042H29.3034H29.3027H29.3019H29.3011H29.3003H29.2996H29.2988H29.298H29.2972H29.2965H29.2957H29.2949H29.2941H29.2933H29.2926H29.2918H29.291H29.2902H29.2894H29.2886H29.2879H29.2871H29.2863H29.2855H29.2847H29.2839H29.2832H29.2824H29.2816H29.2808H29.28H29.2792H29.2785H29.2777H29.2769H29.2761H29.2753H29.2745H29.2738H29.273H29.2722H29.2714H29.2706H29.2698H29.2691H29.2683H29.2675H29.2667H29.2659H29.2652H29.2644H29.2636H29.2628H29.262H29.2613H29.2605H29.2597H29.2589H29.2582H29.2574H29.2566H29.2559H29.2551H29.2543H29.2536H29.2528H29.252H29.2513H29.2505H29.2497H29.249H29.2482H29.2474H29.2467H29.2459H29.2452H29.2444H29.2437H29.2429H29.2422H29.2414H29.2407H29.2399H29.2392H29.2384H29.2377H29.237H29.2362H29.2355H29.2347H29.234H29.2333H29.2326H29.2318H29.2311H29.2304H29.2297H29.2289H29.2282H29.2275H29.2268H29.2261H29.2254H29.2246H29.2239H29.2232H29.2225H29.2218H29.2211H29.2204H29.2197H29.219H29.2184H29.2177H29.217H29.2163H29.2156H29.2149H29.2143H29.2136H29.2129H29.2123H29.2116H29.2109H29.2103H29.2096H29.209H29.2083H29.2077H29.207H29.2064H29.2057H29.2051H29.2045H29.2038H29.2032H29.2026H29.2019H29.2013H29.2007H29.2001H29.1995H29.1989H29.1983H29.1977H29.1971H29.1965H29.1959H29.1953H29.1947H29.1941H29.1936H29.193H29.1924H29.1918H29.1913H29.1907H29.1902H29.1896H29.1891H29.1885H29.188H29.1874H29.1869H29.1864H29.1858H29.1853H29.1848H29.1843H29.1838H29.1832H29.1827H29.1822H29.1817H29.1812H29.1808H29.1803H29.1798H29.1793H29.1788H29.1784H29.1779H29.1775H29.177H29.1765H29.1761H29.1757H29.1752H29.1748H29.1744H29.1739H29.1735H29.1731H29.1727H29.1723H29.1719H29.1715H29.1711H29.1707H29.1703H29.1699H29.1696H29.1692H29.1688H29.1685H29.1681H29.1678H29.1674H29.1671H29.1667H29.1664H29.1661H29.1658H29.1655H29.1651H29.1648H29.1645H29.1643H29.164H29.1637H29.1634H29.1631H29.1629H29.1626H29.1623H29.1621H29.1619H29.1616H29.1614H29.1611H29.1609H29.1607H29.1605H29.1603H29.1601H29.1599H29.1597H29.1595H29.1593H29.1592H29.159H29.1588H29.1587H29.1585H29.1584H29.1583H29.1581H29.158H29.1579H29.1578H29.1577H29.1576H29.1575H29.1574H29.1573H29.1572H29.1572H29.1571H29.1571H29.157H29.157H29.1569H29.1569H29.1569H29.1569H29.1569H29.0915H28.5274ZM36.0073 42.848C35.9837 42.8406 35.9601 42.8331 35.9366 42.8256V42.8259V42.8264V42.8268V42.8272V42.8277V42.8281V42.8285V42.8289V42.8294V42.8298V42.8302V42.8307V42.8311V42.8315V42.832V42.8324V42.8328V42.8332V42.8337V42.8341V42.8345V42.835V42.8354V42.8358V42.8363V42.8367V42.8371V42.8376V42.838V42.8384V42.8389V42.8393V42.8397V42.8402V42.8406V42.841V42.8415V42.8419V42.8423V42.8428V42.8432V42.8436V42.8441V42.8445V42.8449V42.8454V42.8458V42.8463V42.8467V42.8471V42.8476V42.848H36.0073ZM29.5927 34.8133C29.6255 34.8143 29.6583 34.8156 29.6911 34.8173L29.5193 34.6026L29.482 34.5559L29.4046 34.6178L29.4046 34.6944L29.4046 34.7744L29.5879 34.7523C29.5904 34.7726 29.592 34.7929 29.5927 34.8133Z" fill="#35383F" stroke="#35383F"/>
<path d="M10.5068 18.055V18.0694V18.1158C10.6433 21.6521 11.1481 25.1645 12.0129 28.5962L12.0132 28.5973C12.5005 30.5494 13.0964 32.4728 13.798 34.3585L13.7983 34.3593C13.9431 34.7508 14.103 35.1421 14.2665 35.5425C14.2939 35.6094 14.3213 35.6766 14.3488 35.7441C14.5366 36.2048 14.7256 36.6768 14.888 37.1522C15.0655 37.5643 15.1571 38.0085 15.1571 38.4574C15.1571 38.9136 15.0625 39.365 14.8792 39.7828L14.8534 39.8417L14.8135 39.8921C14.7663 39.9518 14.7157 40.0375 14.6776 40.1327C14.6405 40.2256 14.6245 40.3048 14.6228 40.3588C14.6236 40.3589 14.6245 40.359 14.6254 40.3591C14.9427 40.3237 15.249 40.2206 15.5233 40.0568C15.8083 39.8866 16.0518 39.6551 16.236 39.379L16.247 39.3627L16.2591 39.3472C16.7874 38.6766 17.0548 37.8375 17.0122 36.9852C16.8903 36.0265 16.5936 35.0982 16.1366 34.2466L16.1236 34.2223L16.1133 34.1967C15.3052 32.187 14.6224 30.1292 14.0688 28.035M10.5068 18.055L15.6257 22.9254C15.6263 22.925 15.627 22.9246 15.6276 22.9242M10.5068 18.055L10.506 18.0406C10.4266 16.6683 10.3644 15.2054 10.5313 13.8027C10.6978 12.4029 11.089 11.0982 11.8901 10.0266C12.4626 9.2724 13.3426 8.51296 14.2987 8.09149C15.2507 7.67178 16.2126 7.61042 17.0445 8.11781M10.5068 18.055L17.0445 8.11781M14.0688 28.035C14.0687 28.0348 14.0686 28.0345 14.0686 28.0342L14.552 27.9064L14.069 28.0359C14.0689 28.0356 14.0689 28.0353 14.0688 28.035ZM14.0688 28.035C13.7205 26.7361 13.42 25.4208 13.1303 24.1033L12.9986 23.504L13.612 23.4959C14.3226 23.4865 15.018 23.2893 15.6276 22.9242M15.6276 22.9242C17.0235 22.0697 17.9118 20.7044 18.4549 19.1184C18.9992 17.5291 19.1853 15.7495 19.1944 14.1281L19.1945 14.1188L19.1946 14.1188C19.222 12.9856 19.1473 11.754 18.8253 10.6642C18.5043 9.57782 17.9503 8.67186 17.0445 8.11781M15.6276 22.9242L17.0445 8.11781M14.5801 40.3499C14.5802 40.3498 14.5812 40.3502 14.5829 40.3511C14.5809 40.3504 14.58 40.35 14.5801 40.3499ZM16.685 20.3537L16.7132 20.2733V20.257C17.1793 18.7921 17.4155 17.2637 17.4132 15.7261L17.4132 15.724C17.4085 14.9066 17.3805 13.9767 17.2389 13.096C17.099 12.2267 16.8411 11.3556 16.343 10.6801C16.0024 10.1678 15.5075 9.777 14.9299 9.56448L14.8935 9.55106L14.8553 9.54344C14.8426 9.5409 14.8276 9.53806 14.8113 9.53497C14.7739 9.52792 14.7297 9.51957 14.6907 9.51051C14.6804 9.50813 14.676 9.50692 14.676 9.50693C14.676 9.50693 14.6762 9.50698 14.6765 9.50708L14.6766 9.50709C14.6776 9.50741 14.6854 9.50971 14.697 9.5141L14.6976 9.51432C14.7041 9.51677 14.7421 9.53102 14.7862 9.56012C14.7966 9.56705 14.8179 9.58142 14.8432 9.6042C14.8594 9.61882 14.8774 9.6369 14.8953 9.6587C14.9024 9.66741 14.9095 9.67671 14.9166 9.68663C14.9739 9.76775 15.0482 9.9332 14.9829 10.1301C14.9096 10.0943 14.8343 10.0621 14.7573 10.0337C14.7519 10.0326 14.7428 10.0309 14.7312 10.0287C14.6914 10.0212 14.6222 10.0081 14.5713 9.99608L14.5929 9.47007C14.461 9.45925 14.3285 9.45869 14.1966 9.4684H14.1964H14.1958H14.1952H14.1946H14.194H14.1934H14.1928H14.1922H14.1916H14.1909H14.1903H14.1897H14.189H14.1884H14.1878H14.1871H14.1865H14.1858H14.1851H14.1845H14.1838H14.1831H14.1825H14.1818H14.1811H14.1804H14.1797H14.179H14.1783H14.1776H14.1769H14.1762H14.1755H14.1748H14.1741H14.1734H14.1726H14.1719H14.1712H14.1704H14.1697H14.169H14.1682H14.1675H14.1667H14.166H14.1652H14.1645H14.1637H14.1629H14.1622H14.1614H14.1606H14.1598H14.1591H14.1583H14.1575H14.1567H14.1559H14.1551H14.1543H14.1535H14.1527H14.1519H14.1511H14.1503H14.1495H14.1487H14.1479H14.1471H14.1463H14.1455H14.1446H14.1438H14.143H14.1422H14.1413H14.1405H14.1397H14.1388H14.138H14.1372H14.1363H14.1355H14.1346H14.1338H14.1329H14.1321H14.1312H14.1304H14.1295H14.1287H14.1278H14.127H14.1261H14.1252H14.1244H14.1235H14.1227H14.1218H14.1209H14.1201H14.1192H14.1183H14.1174H14.1166H14.1157H14.1148H14.114H14.1131H14.1122H14.1113H14.1104H14.1096H14.1087H14.1078H14.1069H14.106H14.1052H14.1043H14.1034H14.1025H14.1016H14.1007H14.0999H14.099H14.0981H14.0972H14.0963H14.0954H14.0945H14.0937H14.0928H14.0919H14.091H14.0901H14.0892H14.0883H14.0874H14.0866H14.0857H14.0848H14.0839H14.083H14.0821H14.0812H14.0803H14.0795H14.0786H14.0777H14.0768H14.0759H14.075H14.0742H14.0733H14.0724H14.0715H14.0706H14.0698H14.0689H14.068H14.0671H14.0662H14.0654H14.0645H14.0636H14.0628H14.0619H14.061H14.0601H14.0593H14.0584H14.0575H14.0567H14.0558H14.055H14.0541H14.0532H14.0524H14.0515H14.0507H14.0498H14.049H14.0481H14.0473H14.0464H14.0456H14.0447H14.0439H14.043H14.0422H14.0414H14.0405H14.0397H14.0389H14.038H14.0372H14.0364H14.0356H14.0347H14.0339H14.0331H14.0323H14.0315H14.0307H14.0299H14.0291H14.0283H14.0275H14.0267H14.0259H14.0251H14.0243H14.0235H14.0227H14.0219H14.0211H14.0204H14.0196H14.0188H14.018H14.0173H14.0165H14.0158H14.015H14.0142H14.0135H14.0127H14.012H14.0112H14.0105H14.0098H14.009H14.0083H14.0076H14.0069H14.0061H14.0054H14.0047H14.004H14.0033H14.0026H14.0019H14.0013H14.0012H14.0005H14.0003H13.9998H13.9994H13.9991H13.9984H13.9984H13.9978H13.9975H13.9971H13.9965H13.9964H13.9957H13.9956H13.9951H13.9947H13.9944H13.9938H13.9938H13.9931H13.9929H13.9925H13.992H13.9918H13.9912H13.9911H13.9905H13.9903H13.9899H13.9894H13.9893H13.9887H13.9886H13.988H13.9878H13.9874H13.987H13.9868H13.9862H13.9862H13.9856H13.9854H13.985H13.9846H13.9844H13.9838H13.9838H13.9832H13.983H13.9827H13.9823H13.9821H13.9815H13.9815H13.9809H13.9808H13.9804H13.9801H13.9798H13.9794H13.9793H13.9787H13.9787H13.9782H13.978H13.9776H13.9773H13.9771H13.9766H13.9766H13.9761H13.976H13.9755H13.9753H13.975H13.9747H13.9745H13.974H13.974H13.9735H13.9734H13.973H13.9728H13.9725H13.9722H13.972H13.9716H13.9716H13.9711H13.971H13.9706H13.9705H13.9702H13.9699H13.9697H13.9694H13.9692H13.9688H13.9688H13.9684H13.9683H13.9679H13.9678H13.9675H13.9672H13.9671H13.9667H13.9666H13.9662H13.9662H13.9658H13.9658H13.9654H13.9653H13.965H13.9648H13.9646H13.9644H13.9642H13.9639H13.9639H13.9635H13.9635H13.9631H13.9631H13.9628H13.9626H13.9624H13.9622H13.9621H13.9618H13.9617H13.9614H13.9614H13.9611H13.961H13.9607H13.9607H13.9604H13.9603H13.9601H13.96H13.9598H13.9596H13.9595H13.9593H13.9592H13.959H13.9589H13.9586H13.9586H13.9583H13.9581H13.958H13.9578H13.9577H13.9575H13.9575H13.9573H13.9572H13.957H13.9569H13.9568H13.9567H13.9566H13.9564H13.9563H13.9562H13.9561H13.9559H13.9559H13.9557H13.9555H13.9555H13.9553H13.9553H13.9551H13.9551H13.955H13.9549H13.9548H13.9547H13.9546H13.9546H13.9545H13.9544H13.9543H13.9542H13.9542H13.9541H13.954H13.954H13.9539H13.9538H13.9538H13.9537H13.9537H13.9536H13.9536H13.9535H13.9535H13.9534H13.9534H13.9533H13.9533H13.9532H13.9532H13.9531H13.9531H13.953H13.953H13.9529H13.9529H13.9529H13.9528H13.9528H13.908H13.658L13.508 9.6684L13.452 9.74306L13.4392 9.76005L13.428 9.77806L13.3813 9.85272L13.3731 9.86593L13.3656 9.87963C13.2345 10.1219 13.1193 10.3725 13.0209 10.6299L13.0177 10.6382L13.0148 10.6467C12.9193 10.9263 12.8398 11.211 12.7766 11.4995C12.6992 11.824 12.6402 12.1525 12.5997 12.4836L12.5997 12.4836L12.5993 12.4873C12.5113 13.2547 12.4759 14.0271 12.4933 14.7993V14.9802V15.0474L12.4992 15.0689L12.4933 15.0904V15.1575V15.1605V15.1636V15.1666V15.1696V15.1726V15.1756V15.1786V15.1816V15.1846V15.1876V15.1906V15.1936V15.1967V15.1997V15.2027V15.2057V15.2087V15.2117V15.2147V15.2177V15.2207V15.2238V15.2268V15.2298V15.2328V15.2358V15.2388V15.2418V15.2449V15.2479V15.2509V15.2539V15.2569V15.2599V15.2629V15.266V15.269V15.272V15.275V15.278V15.281V15.284V15.2871V15.2901V15.2931V15.2961V15.2991V15.3021V15.3052V15.3082V15.3112V15.3142V15.3172V15.3203V15.3233V15.3263V15.3293V15.3323V15.3354V15.3384V15.3414V15.3444V15.3474V15.3505V15.3535V15.3565V15.3595V15.3625V15.3656V15.3686V15.3716V15.3746V15.3776V15.3807V15.3837V15.3867V15.3897V15.3928V15.3958V15.3988V15.4018V15.4049V15.4079V15.4109V15.4139V15.417V15.42V15.423V15.426V15.429V15.4321V15.4351V15.4381V15.4412V15.4442V15.4472V15.4502V15.4533V15.4563V15.4593V15.4623V15.4654V15.4684V15.4714V15.4744V15.4775V15.4805V15.4835V15.4866V15.4896V15.4926V15.4956V15.4987V15.5017V15.5047V15.5078V15.5108V15.5138V15.5169V15.5199V15.5229V15.5259V15.529V15.532V15.535V15.5381V15.5411V15.5441V15.5472V15.5502V15.5532V15.5563V15.5593V15.5623V15.5654V15.5684V15.5714V15.5745V15.5775V15.5805V15.5836V15.5866V15.5896V15.5927V15.5957V15.5987V15.6018V15.6048V15.6078V15.6109V15.6139V15.6169V15.62V15.623V15.626V15.6291V15.6321V15.6352V15.6382V15.6412V15.6443V15.6473V15.6503V15.6534V15.6564V15.6594V15.6625V15.6655V15.6686V15.6716V15.6746V15.6777V15.6807V15.6837V15.6868V15.6898V15.6929V15.6959V15.6989V15.702V15.705V15.7081V15.7111V15.7141V15.7172V15.7202V15.7233V15.7263V15.7293V15.7324V15.7354V15.7385V15.7415V15.7445V15.7476V15.7506V15.7537V15.7567V15.7598V15.7628V15.7658V15.7689V15.7719V15.775V15.778V15.7811V15.7841V15.7871V15.7902V15.7932V15.7963V15.7993V15.8024V15.8054V15.8084V15.8115V15.8145V15.8176V15.8206V15.8237V15.8267V15.8298V15.8328V15.8358V15.8389V15.8419V15.845V15.848V15.8511V15.8541V15.8572V15.8602V15.8633V15.8663V15.8693V15.8724V15.8754V15.8785V15.8815V15.8846V15.8876V15.8907V15.8937V15.8968V15.8998V15.9029V15.9059V15.909V15.912V15.9151V15.9181V15.9212V15.9242V15.9272V15.9303V15.9333V15.9364V15.9394V15.9425V15.9455V15.9486V15.9516V15.9547V15.9577V15.9608V15.9638V15.9669V15.9699V15.973V15.976V15.9791V15.9821V15.9852V15.9882V15.9913V15.9943V15.9974V16.0004V16.0035V16.0065V16.0096V16.0126V16.0157V16.0188V16.0218V16.0249V16.0279V16.031V16.034V16.0371V16.0401V16.0432V16.0462V16.0493V16.0523V16.0554V16.0584V16.0615V16.0645V16.0676V16.0706V16.0737V16.0767V16.0798V16.0829V16.0859V16.089V16.092V16.0951V16.0981V16.1012V16.1042V16.1073V16.1103V16.1134V16.1164V16.1195V16.1226V16.1256V16.1287V16.1317V16.1348V16.1378V16.1409V16.1439V16.147V16.1501V16.1531V16.1562V16.1592V16.1623V16.1653V16.1684V16.1714V16.1745V16.1776V16.1806V16.1837V16.1867V16.1898V16.1928V16.1959V16.1989V16.202V16.2051V16.2081V16.2112V16.2142V16.2173V16.2203V16.2234V16.2265V16.2295V16.2326V16.2356V16.2387V16.2417V16.2448V16.2479V16.2509V16.254V16.257V16.2601V16.2631V16.2662V16.2693V16.2723V16.2754V16.2784V16.2815V16.2845V16.2876V16.2907V16.2937V16.2968V16.2998V16.3029V16.306V16.309V16.3121V16.3151V16.3182V16.3213V16.3243V16.3274V16.3304V16.3335V16.3365V16.3396V16.3427V16.3457V16.3488V16.3518V16.3549V16.358V16.361V16.3641V16.3671V16.3702V16.3733V16.3763V16.3794V16.3824V16.3855V16.3886V16.3916V16.3947V16.3977V16.4008V16.4039V16.4069V16.41V16.413V16.4161V16.4192V16.4222V16.4253V16.4283V16.4314V16.4345V16.4375V16.4406V16.4436V16.4467V16.4498V16.4528V16.4559V16.459V16.462V16.4651V16.4681V16.4712V16.4743V16.4773V16.4804V16.4834V16.4865V16.4896V16.4926V16.4957V16.4987V16.5018V16.5049V16.5079V16.511V16.5141V16.5171V16.5202V16.5232V16.5263V16.5294V16.5324V16.5355V16.5385V16.5416V16.5447V16.5477V16.5508V16.5539V16.5569V16.56V16.563V16.5661V16.5692V16.5722V16.5753V16.5784V16.5814V16.5845V16.5875V16.5906V16.5937V16.5967V16.5998V16.6028V16.6059V16.609V16.612V16.6151V16.6182V16.6212V16.6243V16.6273V16.6304V16.6335V16.6365V16.6396V16.6427V16.6457V16.6488V16.6518V16.6549V16.658V16.661V16.6641V16.6672V16.6702V16.6733V16.6763V16.6794V16.6825V16.6855V16.6886V16.6917V16.6947V16.6978V16.7008V16.7039V16.707V16.71V16.7131V16.7162V16.7308L12.4942 16.7455C12.5368 17.4701 12.6234 18.1915 12.7534 18.9057L12.7534 18.9057L12.7541 18.9091C12.8375 19.35 12.9532 19.7841 13.1 20.208V20.2918L13.1413 20.387C13.1763 20.4677 13.2154 20.5466 13.2583 20.6234C13.3325 20.7786 13.4233 20.9252 13.5292 21.0607C13.6276 21.1929 13.7351 21.3181 13.8509 21.4353L13.8695 21.4541L13.8899 21.4709C13.8916 21.4722 13.8931 21.4737 13.8944 21.4754L13.9499 21.5432L14.0253 21.5881C14.2461 21.7198 14.4844 21.8197 14.7331 21.885L14.7955 21.9013H14.8599H14.9813H15.3079H15.6159H15.8732L16.0228 21.6919L16.0694 21.6266L16.0695 21.6266L16.0722 21.6227L16.1375 21.5294L16.1543 21.5054L16.1681 21.4797L16.3641 21.1157L16.3687 21.1073L16.3729 21.0987C16.4915 20.8567 16.5957 20.608 16.685 20.3537Z" fill="#35383F" stroke="#35383F"/>
</svg>
