<svg width="70" height="16" viewBox="0 0 70 16" fill="none" xmlns="http://www.w3.org/2000/svg">
<path d="M0.12232 5.38557V4.81067C0.12232 4.6435 0.177364 4.50487 0.287452 4.39478C0.39754 4.28469 0.53617 4.22965 0.70334 4.22965H8.46455C8.63172 4.22965 8.77035 4.28469 8.88044 4.39478C8.99053 4.50487 9.04557 4.6435 9.04557 4.81067V5.38557C9.04557 5.55275 8.99053 5.69137 8.88044 5.80146C8.77035 5.90747 8.63172 5.96048 8.46455 5.96048H5.73681V12.4373C5.73681 12.5963 5.67973 12.7309 5.56556 12.841C5.45548 12.947 5.32092 13 5.16191 13H4.00598C3.84697 13 3.71038 12.947 3.59621 12.841C3.48612 12.7309 3.43108 12.5963 3.43108 12.4373V5.96048H0.70334C0.53617 5.96048 0.39754 5.90747 0.287452 5.80146C0.177364 5.69137 0.12232 5.55275 0.12232 5.38557ZM10.2991 12.4251V4.81067C10.2991 4.6435 10.3542 4.50487 10.4642 4.39478C10.5743 4.28469 10.713 4.22965 10.8801 4.22965H11.9565C12.1156 4.22965 12.2501 4.28469 12.3602 4.39478C12.4744 4.50487 12.5314 4.63942 12.5314 4.79844V10.9206L16.0115 4.81067C16.1052 4.65165 16.2337 4.51506 16.3968 4.4009C16.5599 4.28673 16.7107 4.22965 16.8493 4.22965H18.6536C18.8126 4.22965 18.9471 4.28673 19.0572 4.4009C19.1673 4.51506 19.2224 4.65165 19.2224 4.81067V12.4251C19.2224 12.5841 19.1653 12.7207 19.0511 12.8349C18.9369 12.945 18.8004 13 18.6413 13H17.5649C17.4059 13 17.2693 12.945 17.1551 12.8349C17.0451 12.7207 16.99 12.5841 16.99 12.4251V6.74944L13.7975 12.4251C13.7037 12.5841 13.5712 12.7207 13.3999 12.8349C13.2287 12.945 13.0635 13 12.9045 13H10.8801C10.7211 13 10.5845 12.945 10.4704 12.8349C10.3562 12.7207 10.2991 12.5841 10.2991 12.4251ZM21.2282 12.4129V4.8229C21.2282 4.65573 21.2832 4.51506 21.3933 4.4009C21.5034 4.28673 21.6379 4.22965 21.7969 4.22965H24.2862C24.4452 4.22965 24.596 4.28673 24.7387 4.4009C24.8815 4.51506 24.9773 4.65165 25.0262 4.81067L26.8304 10.0337L28.6346 4.81067C28.6836 4.65165 28.7794 4.51506 28.9221 4.4009C29.0648 4.28673 29.2157 4.22965 29.3747 4.22965H31.8639C32.0229 4.22965 32.1554 4.28673 32.2614 4.4009C32.3715 4.51506 32.4266 4.65573 32.4266 4.8229V12.4129C32.4266 12.58 32.3695 12.7207 32.2553 12.8349C32.1452 12.945 32.0107 13 31.8517 13H30.7508C30.5918 13 30.4552 12.945 30.341 12.8349C30.2309 12.7207 30.1759 12.58 30.1759 12.4129V6.43753L28.0169 12.4496C27.9598 12.6004 27.8599 12.7309 27.7172 12.841C27.5745 12.947 27.4237 13 27.2647 13H26.3901C26.2311 13 26.0802 12.947 25.9375 12.841C25.7989 12.7309 25.699 12.6004 25.6378 12.4496L23.485 6.43753V12.4129C23.485 12.58 23.4279 12.7207 23.3137 12.8349C23.2036 12.945 23.0691 13 22.9101 13H21.8092C21.6502 13 21.5136 12.945 21.3994 12.8349C21.2852 12.7207 21.2282 12.58 21.2282 12.4129ZM48.1503 12.7309C48.1503 12.9103 48.0443 13 47.8323 13H46.4317C46.2727 13 46.1015 12.945 45.918 12.8349C45.7345 12.7207 45.5918 12.5841 45.4899 12.4251L44.4134 10.7187C44.1566 10.3028 43.8977 9.99093 43.6367 9.78298C43.3758 9.57096 43.0618 9.46495 42.6948 9.46495H41.3799V12.4373C41.3799 12.5963 41.3228 12.7309 41.2087 12.841C41.0986 12.947 40.964 13 40.805 13H39.6552C39.4962 13 39.3596 12.9429 39.2454 12.8288C39.1313 12.7105 39.0742 12.5719 39.0742 12.4129V4.81067C39.0742 4.65165 39.1313 4.51302 39.2454 4.39478C39.3596 4.27654 39.4962 4.21742 39.6552 4.21742H40.805C40.964 4.21742 41.0986 4.27654 41.2087 4.39478C41.3228 4.51302 41.3799 4.65165 41.3799 4.81067V7.74024H42.6948C43.0537 7.74024 43.3676 7.64238 43.6367 7.44667C43.9099 7.25096 44.1688 6.93496 44.4134 6.49869L45.3614 4.81067C45.5775 4.41925 45.8711 4.2215 46.2421 4.21742H47.6549C47.8506 4.21742 47.9485 4.30304 47.9485 4.47429C47.9485 4.56807 47.9138 4.6802 47.8445 4.81067L46.5174 7.21426C46.3257 7.56491 46.1096 7.8544 45.8691 8.08273C45.6326 8.31106 45.3227 8.47212 44.9394 8.5659C45.2085 8.62298 45.4837 8.79219 45.7651 9.07353C46.0505 9.35486 46.3013 9.66066 46.5174 9.99093L48.0464 12.4251C48.1157 12.5433 48.1503 12.6453 48.1503 12.7309ZM57.1895 12.0948C56.3578 12.8247 55.1346 13.1896 53.5199 13.1896C51.9094 13.1896 50.6862 12.8247 49.8503 12.0948C49.0145 11.3609 48.5965 10.2009 48.5965 8.61482C48.5965 7.02874 49.0145 5.87078 49.8503 5.14093C50.6862 4.41109 51.9094 4.04617 53.5199 4.04617C55.1346 4.04617 56.3578 4.41109 57.1895 5.14093C58.0254 5.87078 58.4433 7.02874 58.4433 8.61482C58.4433 10.2009 58.0254 11.3609 57.1895 12.0948ZM55.5199 6.43141C55.1081 5.94213 54.4414 5.69749 53.5199 5.69749C52.6025 5.69749 51.9359 5.94213 51.52 6.43141C51.1082 6.92069 50.9023 7.65053 50.9023 8.62094C50.9023 9.58727 51.1082 10.3151 51.52 10.8044C51.9359 11.2896 52.6025 11.5322 53.5199 11.5322C54.4414 11.5322 55.1081 11.2896 55.5199 10.8044C55.9317 10.3151 56.1376 9.58727 56.1376 8.62094C56.1376 7.65053 55.9317 6.92069 55.5199 6.43141ZM58.8957 12.4251V11.838C58.8957 11.6789 58.9507 11.5444 59.0608 11.4343C59.175 11.3242 59.3115 11.2692 59.4706 11.2692H59.9476L61.0852 6.63936C61.4807 5.03289 62.8058 4.22965 65.0606 4.22965H68.3632C68.5222 4.22965 68.6568 4.28469 68.7669 4.39478C68.881 4.50487 68.9381 4.63942 68.9381 4.79844V12.4373C68.9381 12.5963 68.881 12.7309 68.7669 12.841C68.6568 12.947 68.5222 13 68.3632 13H59.4706C59.3115 13 59.175 12.945 59.0608 12.8349C58.9507 12.7207 58.8957 12.5841 58.8957 12.4251ZM62.3023 11.2692H66.6385V5.96048H64.8098C64.4225 5.96048 64.1024 6.06649 63.8496 6.27851C63.5968 6.49053 63.4235 6.78614 63.3298 7.16533L62.3023 11.2692Z" fill="white"/>
</svg>
