<svg width="40" height="37" viewBox="0 0 40 37" fill="none" xmlns="http://www.w3.org/2000/svg">
<g clip-path="url(#clip0_6038_79329)">
<path fill-rule="evenodd" clip-rule="evenodd" d="M21.8123 32.6504C21.7764 32.6504 21.7405 32.6682 21.7046 32.6682L21.8123 32.6504Z" fill="#1C5C94"/>
<path d="M18.5962 1.51589L17.8486 1.6123L18.7115 8.02542L19.459 7.929L18.5962 1.51589Z" fill="#1C5C94"/>
<path d="M14.579 2.46761L13.8823 2.75L16.4094 8.72648L17.1061 8.44409L14.579 2.46761Z" fill="#1C5C94"/>
<path d="M27.5163 21.804L27.0791 22.3618L32.1067 26.1395L32.5439 25.5817L27.5163 21.804Z" fill="#1C5C94"/>
<path d="M28.5864 19.8089L28.3115 20.4585L34.1661 22.8338L34.441 22.1843L28.5864 19.8089Z" fill="#1C5C94"/>
<path d="M29.0999 17.6056L29.0225 18.3047L35.3232 18.9742L35.4007 18.2752L29.0999 17.6056Z" fill="#1C5C94"/>
<path d="M16.181 0.503269L15.4526 0.694336L17.5342 8.3008L18.2625 8.10973L16.181 0.503269Z" fill="#1C5C94"/>
<path d="M28.9137 18.7261L28.728 19.4053L36.1855 21.3599L36.3712 20.6807L28.9137 18.7261Z" fill="#1C5C94"/>
<path d="M28.1193 20.8408L27.7603 21.4497L31.7249 23.6909L32.084 23.082L28.1193 20.8408Z" fill="#1C5C94"/>
<path d="M33.651 16.2767L29.0747 16.3979L29.0941 17.1008L33.6704 16.9796L33.651 16.2767Z" fill="#1C5C94"/>
<path fill-rule="evenodd" clip-rule="evenodd" d="M17.2356 24.9688L17.1997 25.0566C17.3433 25.1094 17.487 25.1445 17.6306 25.1973L17.6485 25.127L17.2356 24.9688Z" fill="#1C5C94"/>
<path fill-rule="evenodd" clip-rule="evenodd" d="M18.3315 25.3555C18.3495 25.3733 18.3854 25.3733 18.4034 25.3912L18.3675 25.3733L18.3315 25.3555Z" fill="#1C5C94"/>
<path fill-rule="evenodd" clip-rule="evenodd" d="M16.4806 24.7051L16.1395 24.582L16.1216 24.5996C16.2652 24.6699 16.3909 24.7402 16.5345 24.793L16.5704 24.7227L16.4806 24.7051Z" fill="#1C5C94"/>
<path fill-rule="evenodd" clip-rule="evenodd" d="M17.1269 24.9336L17.1807 24.9512L17.2346 24.9687L17.2525 24.9512L16.5883 24.6875L16.5703 24.7227L16.5883 24.7402L17.1269 24.9336Z" fill="#1C5C94"/>
<path fill-rule="evenodd" clip-rule="evenodd" d="M17.1809 24.9512L17.127 24.9336L16.5884 24.7402L16.5525 24.7227L16.5166 24.793C16.732 24.8809 16.9475 24.9863 17.1809 25.0566L17.2168 24.9687L17.1809 24.9512Z" fill="#1C5C94"/>
<path fill-rule="evenodd" clip-rule="evenodd" d="M17.8099 25.1797L17.7201 25.1445L17.6483 25.1094L17.6304 25.1797C17.8638 25.25 18.0972 25.3027 18.3306 25.3555V25.3379L17.8099 25.1797Z" fill="#1C5C94"/>
<path fill-rule="evenodd" clip-rule="evenodd" d="M15.9434 24.5117C15.9972 24.5469 16.069 24.582 16.1229 24.5996L16.1408 24.582L15.9434 24.5117Z" fill="#1C5C94"/>
<path d="M10.963 4.39917L10.3647 4.84863L14.387 9.98094L14.9852 9.53147L10.963 4.39917Z" fill="#1C5C94"/>
<path fill-rule="evenodd" clip-rule="evenodd" d="M7.95274 7.19727L7.50391 7.77734L9.53263 9.30664C9.87374 9.21875 10.1969 9.16602 10.5201 9.13086L7.95274 7.19727Z" fill="#1C5C94"/>
<path fill-rule="evenodd" clip-rule="evenodd" d="M7.53958 11.3457L5.81606 10.6426L5.52881 11.3105L7.55753 12.1367C7.50367 11.873 7.50367 11.6094 7.53958 11.3457Z" fill="#1C5C94"/>
<path fill-rule="evenodd" clip-rule="evenodd" d="M8.34926 4.70117L7.82861 5.21094L11.8322 9.13086C12.3169 9.18359 12.7837 9.30664 13.2326 9.46484L8.34926 4.70117Z" fill="#1C5C94"/>
<path fill-rule="evenodd" clip-rule="evenodd" d="M8.56336 9.72852L3.57233 6.89844L3.19531 7.53125L8.0068 10.2559C8.16838 10.0449 8.34792 9.86914 8.56336 9.72852Z" fill="#1C5C94"/>
<path fill-rule="evenodd" clip-rule="evenodd" d="M8.0257 13.3145L3.69895 12.1719L3.50146 12.875L8.88746 14.2812C8.52839 13.9824 8.24114 13.6484 8.0257 13.3145Z" fill="#1C5C94"/>
<path d="M13.6237 4.87988L12.9707 5.24902L15.3585 9.29825L16.0115 8.92911L13.6237 4.87988Z" fill="#1C5C94"/>
<path fill-rule="evenodd" clip-rule="evenodd" d="M13.6978 23.457L13.626 23.5098L13.8055 23.668L14.1107 23.3867L13.6978 23.457Z" fill="#1C5C94"/>
<path fill-rule="evenodd" clip-rule="evenodd" d="M7.61197 12.1719L7.55811 12.1543C7.62992 12.541 7.77355 12.9277 8.04285 13.332L8.13261 13.3496C7.84536 12.9453 7.68378 12.5586 7.61197 12.1719Z" fill="#1C5C94"/>
<path fill-rule="evenodd" clip-rule="evenodd" d="M10.7173 9.11355C10.7891 9.11355 10.8609 9.11355 10.9327 9.0957C10.8789 9.0957 10.7891 9.0957 10.7173 9.11355Z" fill="#1C5C94"/>
<path fill-rule="evenodd" clip-rule="evenodd" d="M14.2005 23.2812L14.0928 23.3867L14.2723 23.3516C14.2005 23.2637 14.3082 23.3691 14.2005 23.2812Z" fill="#1C5C94"/>
<path fill-rule="evenodd" clip-rule="evenodd" d="M9.46163 9.32422C9.47958 9.32422 9.51549 9.30664 9.53344 9.30664H9.51549C9.47958 9.32422 9.44368 9.32422 9.40777 9.3418C9.08461 9.42969 8.81531 9.57031 8.56396 9.74609L8.58192 9.76367C8.85122 9.55273 9.13847 9.41211 9.46163 9.32422Z" fill="#1C5C94"/>
<path fill-rule="evenodd" clip-rule="evenodd" d="M8.04273 10.2734L8.00683 10.2559C7.75548 10.5723 7.5939 10.9414 7.54004 11.3457L7.5939 11.3633C7.64776 10.959 7.80934 10.5898 8.04273 10.2734Z" fill="#1C5C94"/>
<path fill-rule="evenodd" clip-rule="evenodd" d="M10.5205 9.13086C10.1974 9.14844 9.85625 9.21875 9.51514 9.30664H9.53309C9.8742 9.21875 10.1974 9.14844 10.5205 9.13086Z" fill="#1C5C94"/>
<path fill-rule="evenodd" clip-rule="evenodd" d="M7.595 11.3633L7.54114 11.3457C7.50523 11.6094 7.50523 11.873 7.55909 12.1367L7.61295 12.1543C7.55909 11.8906 7.55909 11.627 7.595 11.3633Z" fill="#1C5C94"/>
<path fill-rule="evenodd" clip-rule="evenodd" d="M8.59941 9.72852L8.58146 9.71094C8.36602 9.86914 8.16853 10.0449 8.0249 10.2383L8.06081 10.2559C8.20444 10.0625 8.38397 9.88672 8.59941 9.72852Z" fill="#1C5C94"/>
<path fill-rule="evenodd" clip-rule="evenodd" d="M8.11467 13.3496L8.0249 13.332C8.24034 13.666 8.5276 14 8.88666 14.3164L9.01234 14.3516C8.63532 14.0176 8.33011 13.6836 8.11467 13.3496Z" fill="#1C5C94"/>
<path fill-rule="evenodd" clip-rule="evenodd" d="M11.8122 9.14914C11.6147 9.1313 11.4172 9.11345 11.2197 9.11345C11.4172 9.0956 11.6147 9.11345 11.8122 9.14914Z" fill="#1C5C94"/>
<path fill-rule="evenodd" clip-rule="evenodd" d="M13.2313 9.5C12.7645 9.32422 12.2977 9.20117 11.813 9.14844C12.2977 9.20117 12.7825 9.32422 13.2313 9.5Z" fill="#1C5C94"/>
<path fill-rule="evenodd" clip-rule="evenodd" d="M25.7458 27.922L13.8248 23.6506L17.972 22.4377C18.0079 22.4201 18.0079 22.3674 18.0258 22.3322C18.4208 21.6291 18.9774 20.5392 19.2467 19.801C19.5878 18.9045 19.7853 18.5353 19.2467 17.6037C19.0851 17.34 18.5285 16.5666 18.2054 16.3732C18.3131 15.7228 18.9594 15.881 19.3903 16.1095C19.9468 16.4963 20.4854 17.1115 20.5393 17.7795C20.6111 18.6232 20.1982 20.8381 19.7314 21.6467C19.4441 22.1564 19.4082 22.2443 18.8696 22.174C18.8158 22.174 18.6362 22.174 18.6362 22.2267C18.6362 22.297 18.7081 22.3498 18.7619 22.3849C19.3903 22.8771 21.4549 23.176 20.6829 21.84C20.665 21.8049 20.5752 21.7521 20.6111 21.7345C21.3831 21.4885 22.173 21.2951 22.945 21.1017L30.8804 27.2013C31.042 27.3244 31.6704 27.7111 31.6165 28.0627C31.419 29.8205 26.2484 28.0802 25.7458 27.922ZM31.3113 26.8674L23.2323 20.5392L20.5572 20.9963C20.8265 20.0119 21.1318 19.0275 21.3472 18.0256C21.437 17.6037 21.3292 17.2521 21.1497 16.883C20.7368 16.0392 20.0366 15.5998 19.2107 15.1603C17.8283 14.422 16.9486 16.7424 18.0258 17.4631C19.2826 18.3068 18.744 19.256 18.331 20.381C18.2413 20.6799 17.9181 21.8576 17.6488 21.9279C15.9253 22.4025 14.902 22.6486 13.1784 23.0705L12.5142 25.0041L27.6668 29.2052C28.726 29.4338 30.4136 29.5744 31.4908 29.2052C33.4836 28.467 31.8499 27.2717 31.3113 26.8674Z" fill="#1C5C94"/>
<path fill-rule="evenodd" clip-rule="evenodd" d="M16.1051 14.3867L16.0871 14.4219L16.0692 14.4395L16.0512 14.457L16.0333 14.4746C16.0333 14.4922 16.0153 14.5098 16.0153 14.5273C15.9794 14.5977 15.9435 14.6855 15.9256 14.7734L15.764 14.1406C15.4229 13.7539 14.1302 12.6992 12.9812 12.0488C12.1733 11.5918 11.4552 11.3457 11.1859 11.6621C10.8627 12.6816 9.46237 11.8906 9.55214 11.0996C9.57009 10.8887 9.69576 10.6777 9.98302 10.502C10.0548 10.4668 10.1266 10.4141 10.1985 10.3789C10.378 10.291 10.5575 10.2383 10.755 10.2031C11.2038 10.1152 11.6527 10.1504 12.1374 10.3086C12.6401 10.4668 13.1428 10.7832 13.6814 11.2051C14.3816 11.7676 15.2433 12.4531 15.9974 13.4375C16.4462 13.0684 16.7873 12.9805 17.3618 13.4199C16.8232 13.4727 16.3385 13.9121 16.1051 14.334V14.3867ZM16.2487 16.6543C16.159 16.1797 16.141 15.8105 16.1769 15.4941C16.6437 14.4395 17.2541 13.6133 18.6545 14.1758C19.4085 14.4746 19.4803 14.8086 19.5521 14.8789L20.1087 15.2656L19.8394 14.5801C19.6239 14.1758 18.9956 13.5605 18.5288 13.4375C18.4929 13.4375 18.457 13.4199 18.4031 13.4199L17.7209 12.8398C16.4821 11.4687 14.9561 10.1328 13.2146 9.5L13.2326 9.51758C12.7837 9.3418 12.299 9.23633 11.8143 9.16602C11.6168 9.14844 11.4193 9.13086 11.2218 9.11328C11.2038 9.11328 11.1859 9.11328 11.1679 9.11328C11.0961 9.11328 11.0243 9.11328 10.9345 9.11328C10.8627 9.11328 10.7909 9.11328 10.7191 9.13086C10.7011 9.13086 10.7011 9.13086 10.6832 9.13086C10.6293 9.13086 10.5755 9.14844 10.5216 9.14844C10.1985 9.18359 9.8753 9.23633 9.53418 9.32422C9.51623 9.32422 9.48032 9.3418 9.46237 9.3418C9.13921 9.42969 8.85196 9.57031 8.58266 9.74609C8.36722 9.9043 8.18768 10.0801 8.0261 10.2734C7.79271 10.5898 7.63113 10.959 7.57727 11.3633C7.54136 11.627 7.54136 11.8906 7.59522 12.1719C7.66704 12.5586 7.82862 12.9453 8.09792 13.3496C8.31336 13.6836 8.61856 14.0176 8.99558 14.3516C9.606 14.8613 10.4139 15.3535 11.4552 15.793C11.6168 15.8633 11.7783 15.916 11.9579 15.9863C14.7227 17.0059 15.0997 17.0762 17.8286 17.8848C17.1823 16.9707 17.1823 16.918 16.2487 16.6543Z" fill="#1C5C94"/>
<path fill-rule="evenodd" clip-rule="evenodd" d="M34.254 30.6992C34.254 30.6992 34.8823 30.3477 35.2235 30.084L34.7746 31.2441L34.1104 31.4199L34.254 30.6992Z" fill="#1C5C94"/>
<path fill-rule="evenodd" clip-rule="evenodd" d="M13.8425 22.8945L13.6988 22.7891L13.4834 23L13.8425 22.8945Z" fill="#1C5C94"/>
<path fill-rule="evenodd" clip-rule="evenodd" d="M25.3499 8.07617C25.3499 6.98633 24.8652 6.44141 23.8957 6.44141H22.7826V9.74609H23.8957C24.8652 9.74609 25.3499 9.21875 25.3499 8.07617ZM26.3194 8.07617C26.3194 9.72852 25.4397 10.6426 23.8957 10.6426H22.7826V13.5605H21.8311V5.5625H23.8777C25.4397 5.5625 26.3194 6.47656 26.3194 8.07617Z" fill="#1C5C94"/>
<path fill-rule="evenodd" clip-rule="evenodd" d="M27.3257 11.2578V7.86523C27.3257 6.2832 28.2413 5.4043 29.6058 5.4043C31.0061 5.4043 31.8679 6.24805 31.9576 7.79492H31.0061C30.9343 6.75781 30.4496 6.2832 29.5878 6.2832C28.7979 6.2832 28.2772 6.79297 28.2772 7.86523V11.2578C28.2772 12.3125 28.8338 12.8223 29.6237 12.8223C30.4855 12.8223 30.9702 12.3301 31.06 11.3281H32.0115C31.9217 12.8574 31.06 13.7012 29.6237 13.7012C28.2593 13.7012 27.3257 12.8223 27.3257 11.2578Z" fill="#1C5C94"/>
<path fill-rule="evenodd" clip-rule="evenodd" d="M36.8769 11.0469V8.05859C36.8769 6.95117 36.3922 6.31836 35.4407 6.31836C34.4891 6.31836 33.9865 6.95117 33.9865 8.05859V11.0469C33.9865 12.1719 34.4712 12.8047 35.4407 12.8047C36.3742 12.7871 36.8769 12.1719 36.8769 11.0469ZM32.999 11.0469V8.05859C32.999 6.42383 33.9146 5.4043 35.4227 5.4043C36.9488 5.4043 37.8464 6.42383 37.8464 8.05859V11.0469C37.8464 12.6992 36.9488 13.7187 35.4227 13.7187C33.9146 13.7012 32.999 12.6816 32.999 11.0469Z" fill="#1C5C94"/>
<path fill-rule="evenodd" clip-rule="evenodd" d="M35.1531 32.6328L37.9538 21.418C38.2949 21.3828 38.8515 21.4355 38.9412 21.7871C38.2411 23.9141 35.3865 32.6152 35.1531 32.6328ZM22.496 30.4883L22.1369 27.8516L22.9987 28.0977L23.6271 30.4004C23.25 30.4004 22.873 30.418 22.496 30.4883ZM19.9466 31.4727V27.2187L21.3829 27.6406L21.7958 30.6465C21.1675 30.8047 20.557 31.0684 19.9466 31.4727ZM24.8838 28.625L25.7096 30.5762C25.2788 30.5059 24.8299 30.4531 24.399 30.418L23.8245 28.3262L24.8838 28.625ZM1.13155 21.2949C1.22131 20.9434 1.77787 20.8906 2.11898 20.9258L4.9197 32.1406C4.66835 32.1055 1.81377 23.4043 1.13155 21.2949ZM39.8748 21.8398C39.5696 21.3301 38.8515 20.8379 38.8515 20.7324C38.654 19.4316 39.1926 18.2012 39.7132 17.041C40.0543 15.9512 39.1746 15.6699 38.5642 15.4238C37.2895 20.082 35.1351 28.3086 34.7581 30.9102C34.6324 30.9629 34.5068 31.0156 34.3811 31.0684C34.5247 30.8398 34.6684 30.6113 34.8299 30.3477C32.0831 32.1406 29.2824 31.2793 26.5175 30.7168L26.5714 30.7344L25.7815 28.8887L27.6845 29.3105C29.0849 29.5391 30.3955 29.7676 31.4906 29.3984C33.1782 28.8184 32.3703 27.7461 31.724 27.2187C33.1603 29.1172 28.5283 29.9785 25.7815 28.0273L25.3506 27.8691L25.3147 27.7637L24.3811 27.4297L24.417 27.5352L23.5014 27.2012L23.4834 27.1133L22.6576 26.8145L22.6755 26.9023L21.9754 26.6562L21.9574 26.5684L21.2034 26.3047L21.2213 26.3926L19.9466 25.9355L19.4619 25.7598L18.6719 31.5957L17.9538 31.5078L18.7617 25.5137L18.4026 25.3906C18.3847 25.3906 18.3488 25.373 18.3308 25.373L16.356 32.5801L15.6558 32.4043L17.6306 25.2148C17.487 25.1797 17.3434 25.127 17.1998 25.0742L14.812 30.6992L14.1477 30.4355L16.5175 24.8105C16.3739 24.7402 16.2482 24.6875 16.1046 24.6172L13.8784 28.3789L13.25 28.0273L15.4224 24.3359L15.3865 24.3184H15.3685L14.9556 24.1777L11.3111 28.8359L10.7366 28.4141L14.2554 23.9316H14.2375L13.9323 23.8262L13.7707 23.7031L8.79762 28.5723L8.29492 28.0801L13.663 22.8242C13.5552 22.7187 13.4655 22.5957 13.3578 22.4902L8.43855 26.1816L8.00767 25.6191L12.9269 21.9102C12.8371 21.7871 12.7473 21.6641 12.6755 21.541L8.86943 23.7031L8.51036 23.0879L12.3703 20.9082C12.2985 20.7676 12.2267 20.6445 12.1728 20.5039L6.42778 22.8418L6.15848 22.1914L11.9035 19.8535C11.8497 19.7129 11.8138 19.5723 11.7599 19.4316L4.39905 21.3652L4.21952 20.6797L11.5804 18.7461C11.5445 18.6055 11.5265 18.4648 11.4906 18.3066L5.29672 19.0977L5.20695 18.3945L11.4188 17.5859C11.4008 17.4453 11.4008 17.2871 11.4008 17.1465H6.89456V16.4434H11.4188C11.4368 16.2148 11.4547 15.9687 11.4906 15.7402C10.4314 15.3008 9.62347 14.8086 9.03101 14.2988L8.90533 14.2637C9.04896 14.3867 9.21054 14.5098 9.37212 14.6328H9.35417C9.24645 14.6504 9.13873 14.6504 9.01305 14.6504C7.3793 14.5625 1.45471 13.6484 2.11898 15.5645C0.718621 16.6016 1.11359 18.2363 1.20336 19.959L0.431368 20.5391C0.0184421 20.8555 -0.0174646 21.2773 0.018442 21.7695C1.07769 23.5098 4.77607 35.6738 5.63783 36.3418C6.73298 37.1855 15.6737 33.8281 17.9538 34.1797C19.5876 35.6738 21.0597 35.6914 23.0885 34.2324C24.8838 34.4434 34.1477 36.9746 35.1351 36.1484C37.11 32.1758 36.9125 28.6953 39.8569 22.8066C40.0184 22.4727 40.0903 22.1738 39.8748 21.8398Z" fill="#1C5C94"/>
</g>
<defs>
<clipPath id="clip0_6038_79329">
<rect width="40" height="36" fill="white" transform="translate(0 0.5)"/>
</clipPath>
</defs>
</svg>
