<svg width="56" height="56" viewBox="0 0 56 56" fill="none" xmlns="http://www.w3.org/2000/svg">
<path d="M7.43485 20.8377C7.43076 23.054 7.61096 25.2669 7.97356 27.4535L7.97394 27.4557C8.03135 27.7925 8.11192 28.1355 8.18853 28.4617C8.20956 28.5513 8.2303 28.6395 8.25017 28.7261C8.344 29.1345 8.42238 29.5181 8.45271 29.8907C8.4669 30.4185 8.36937 30.9433 8.16646 31.4309C7.96201 31.9221 7.65527 32.3642 7.26666 32.7276L7.25466 32.7388L7.24342 32.7508C7.05855 32.948 6.77012 33.1974 6.46914 33.3566C6.15156 33.5246 5.94128 33.5318 5.81776 33.4726C5.79957 33.4639 5.78758 33.4566 5.77997 33.4514C5.78106 33.4358 5.78559 33.406 5.80237 33.3586C5.86952 33.1686 6.04861 32.927 6.23752 32.7249L5.87225 32.3835L6.23752 32.7249C6.59456 32.343 6.60173 31.8381 6.56167 31.4788C6.53337 31.225 6.46422 30.9356 6.41178 30.7162C6.39157 30.6316 6.37384 30.5574 6.36189 30.4996L6.36148 30.4977C6.14945 29.4928 5.97483 28.472 5.85555 27.4535L5.85558 27.4535L5.85487 27.448C5.58325 25.332 5.4908 23.1969 5.57849 21.0653C5.67081 18.9985 5.97842 16.947 6.49633 14.944L5.57622 14.5741C3.65096 18.0048 2.53148 21.8286 2.30255 25.756L2.3017 25.7705V25.7851C2.3017 25.8467 2.23951 26.0261 1.99215 26.2831C1.76549 26.5186 1.45535 26.7427 1.14871 26.8943C0.831875 27.0509 0.606504 27.0873 0.505808 27.0736C0.501797 27.0524 0.498055 27.0163 0.501085 26.9598L0.501129 26.9589C1.05033 16.3686 8.46674 6.68382 18.1193 2.74756L18.1193 2.74758L18.1241 2.74557C18.1992 2.71401 18.2992 2.68553 18.4029 2.67128C18.5009 2.65782 18.5798 2.66009 18.6323 2.66993C18.6321 2.67169 18.6319 2.67353 18.6316 2.6754C18.5186 2.97596 18.3439 3.24969 18.1186 3.47884C17.8843 3.71716 17.6008 3.90154 17.2879 4.01913L17.2879 4.01906L17.2796 4.02236C16.2027 4.44929 15.1676 4.97468 14.1874 5.59182C13.9019 5.76319 13.6168 5.94384 13.332 6.13373L13.3319 6.13372L13.3286 6.13602L13.0672 6.31334L13.0592 6.31879L13.0514 6.32455L12.8801 6.45073C12.3538 6.81471 11.8765 7.1873 11.4024 7.58551L11.4008 7.58688L10.7289 8.15619L10.6976 8.18266L10.6711 8.21386C10.6688 8.21657 10.6662 8.21896 10.6633 8.22099L10.5765 8.28155L10.5217 8.37207C9.44485 10.1508 8.66201 12.0916 8.20332 14.1197C7.69662 16.3232 7.43885 18.5766 7.43485 20.8377ZM7.43485 20.8377L7.93485 20.8386M7.43485 20.8377L7.93485 20.8386M7.93485 20.8386C7.93878 18.6146 8.19236 16.3982 8.69082 14.2308L7.60819 33.0928C8.04867 32.6808 8.39635 32.1798 8.62808 31.623C8.85981 31.0662 8.97028 30.4664 8.95214 29.8636C8.91226 29.3566 8.79241 28.8461 8.67323 28.3385C8.59716 28.0145 8.52137 27.6916 8.46683 27.3717C8.10875 25.2125 7.93081 23.0273 7.93485 20.8386ZM18.6343 2.62603C18.6338 2.6241 18.6337 2.62304 18.6338 2.62299C18.6338 2.62294 18.6341 2.62391 18.6343 2.62603ZM5.76831 33.4415C5.76844 33.4414 5.76946 33.4423 5.77092 33.4443C5.76891 33.4425 5.76819 33.4415 5.76831 33.4415Z" fill="#35383F" stroke="#35383F"/>
<path d="M36.6738 49.101C36.9271 49.0701 37.1791 49.0293 37.4292 48.9787L37.5887 49.1645L37.6483 49.1143C37.7174 49.0586 37.7909 49.0087 37.8681 48.9648L38.1213 48.8211V48.7371L38.1427 48.7157C38.279 48.5796 38.448 48.4807 38.6335 48.4287C38.7803 48.3875 38.9335 48.3768 39.0838 48.3965C39.0789 48.4274 39.0685 48.4711 39.047 48.529C38.9589 48.7669 38.7719 49.0151 38.6756 49.1027L38.6743 49.1038C37.179 50.4724 35.134 50.6616 32.9789 50.6619C30.0294 50.5965 27.1002 50.1544 24.2627 49.3464L24.2627 49.3464L24.2569 49.3448C22.7951 48.9477 21.3707 48.4239 19.9999 47.7794C19.4553 47.5199 18.918 47.2463 18.3737 46.9692C18.3286 46.9462 18.2835 46.9233 18.2383 46.9003C17.6541 46.6029 17.0613 46.303 16.4554 46.0208C15.3885 45.4405 14.2245 45.0602 13.0207 44.8986L13.0051 44.8965L12.9894 44.8954C12.8385 44.8847 12.687 44.8843 12.5359 44.8941H12.5356H12.5351H12.5346H12.5341H12.5335H12.533H12.5324H12.5319H12.5313H12.5307H12.5302H12.5296H12.529H12.5284H12.5278H12.5272H12.5266H12.526H12.5253H12.5247H12.5241H12.5234H12.5228H12.5221H12.5215H12.5208H12.5201H12.5195H12.5188H12.5181H12.5174H12.5167H12.516H12.5153H12.5146H12.5139H12.5132H12.5125H12.5118H12.511H12.5103H12.5095H12.5088H12.508H12.5073H12.5065H12.5058H12.505H12.5042H12.5035H12.5027H12.5019H12.5011H12.5003H12.4995H12.4987H12.4979H12.4971H12.4963H12.4955H12.4947H12.4938H12.493H12.4922H12.4914H12.4905H12.4897H12.4888H12.488H12.4871H12.4863H12.4854H12.4846H12.4837H12.4829H12.482H12.4811H12.4802H12.4794H12.4785H12.4776H12.4767H12.4758H12.4749H12.4741H12.4732H12.4723H12.4714H12.4705H12.4696H12.4686H12.4677H12.4668H12.4659H12.465H12.4641H12.4632H12.4622H12.4613H12.4604H12.4595H12.4585H12.4576H12.4567H12.4557H12.4548H12.4539H12.4529H12.452H12.4511H12.4501H12.4492H12.4482H12.4473H12.4463H12.4454H12.4444H12.4435H12.4425H12.4416H12.4406H12.4397H12.4387H12.4378H12.4368H12.4359H12.4349H12.4339H12.433H12.432H12.4311H12.4301H12.4292H12.4282H12.4272H12.4263H12.4253H12.4244H12.4234H12.4224H12.4215H12.4205H12.4196H12.4186H12.4176H12.4167H12.4157H12.4148H12.4138H12.4129H12.4119H12.4109H12.41H12.409H12.4081H12.4071H12.4062H12.4052H12.4043H12.4033H12.4024H12.4014H12.4005H12.3995H12.3986H12.3977H12.3967H12.3958H12.3948H12.3939H12.393H12.392H12.3911H12.3902H12.3892H12.3883H12.3874H12.3865H12.3856H12.3846H12.3837H12.3828H12.3819H12.381H12.3801H12.3792H12.3783H12.3774H12.3765H12.3756H12.3747H12.3738H12.3729H12.372H12.3711H12.3702H12.3694H12.3685H12.3676H12.3667H12.3659H12.365H12.3641H12.3633H12.3624H12.3616H12.3607H12.3599H12.359H12.3582H12.3574H12.3565H12.3557H12.3549H12.3541H12.3532H12.3524H12.3516H12.3508H12.35H12.3492H12.3484H12.3476H12.3476H12.3468H12.3464H12.346H12.3453H12.3453H12.3445H12.3442H12.3437H12.3431H12.343H12.3422H12.342H12.3414H12.3409H12.3407H12.3399H12.3399H12.3392H12.3388H12.3385H12.3378H12.3377H12.337H12.3368H12.3363H12.3358H12.3355H12.3348H12.3348H12.3341H12.3338H12.3334H12.3328H12.3327H12.332H12.3319H12.3313H12.331H12.3306H12.33H12.3299H12.3293H12.3291H12.3286H12.3282H12.3279H12.3273H12.3273H12.3266H12.3265H12.326H12.3256H12.3253H12.3248H12.3247H12.324H12.3239H12.3234H12.3231H12.3228H12.3223H12.3222H12.3216H12.3215H12.321H12.3208H12.3204H12.32H12.3198H12.3192H12.3192H12.3186H12.3185H12.318H12.3178H12.3174H12.3171H12.3169H12.3163H12.3163H12.3158H12.3157H12.3152H12.315H12.3147H12.3143H12.3142H12.3137H12.3136H12.3131H12.313H12.3126H12.3124H12.3121H12.3118H12.3116H12.3112H12.3111H12.3106H12.3106H12.3101H12.31H12.3097H12.3094H12.3092H12.3089H12.3087H12.3083H12.3083H12.3078H12.3078H12.3074H12.3073H12.307H12.3068H12.3065H12.3063H12.3061H12.3058H12.3057H12.3053H12.3053H12.3049H12.3049H12.3045H12.3044H12.3041H12.304H12.3038H12.3035H12.3034H12.3031H12.303H12.3027H12.3027H12.3023H12.302H12.3019H12.3017H12.3016H12.3013H12.3012H12.301H12.3009H12.3007H12.3005H12.3004H12.3002H12.3001H12.2999H12.2999H12.2996H12.2993H12.2993H12.2991H12.299H12.2988H12.2987H12.2986H12.2985H12.2983H12.2982H12.2981H12.298H12.2979H12.2978H12.2977H12.2975H12.2975H12.2973H12.2973H12.2971H12.2971H12.297H12.2969H12.2968H12.2966H12.2965H12.2963H12.2962H12.2962H12.2961H12.296H12.296H12.2959H12.2959H12.2958H12.2958H12.2957H12.2957H12.2956H12.2956H12.2956H12.2955H12.2955H12.2955H12.2954H12.2954H12.2954H12.2954H12.2954H12.2953L12.2953 45.0807L12.2654 44.9009L11.8734 44.9663L11.8381 44.9721L11.804 44.983L11.5986 45.0483L11.4706 45.089L11.3803 45.1884L11.108 45.488C10.9638 45.6323 10.8075 45.7639 10.6407 45.8815L10.1468 46.2299L10.5816 46.6498L10.8523 46.9111L10.8576 46.9162L10.863 46.9211C15.8389 51.4517 22.3167 53.9785 29.046 54.0138C29.0538 54.014 29.061 54.0144 29.0676 54.0148C29.0596 54.0679 29.0391 54.1397 29.002 54.2234C28.9577 54.3235 28.9005 54.4161 28.8481 54.4823L28.8356 54.4981L28.8244 54.5148C28.6402 54.7908 28.3967 55.0224 28.1117 55.1925C27.8347 55.358 27.5251 55.4615 27.2044 55.4959C27.0063 55.4914 26.8123 55.4807 26.6102 55.4696C26.5865 55.4683 26.5628 55.467 26.5389 55.4657C26.3082 55.453 26.0671 55.4408 25.8186 55.4404C19.2998 55.1076 13.1208 52.4296 8.42062 47.8999C3.78028 43.3856 0.9615 37.3231 0.500176 30.866C0.50504 30.6539 0.610981 30.4155 0.81885 30.1685C1.02867 29.9192 1.30726 29.7045 1.55769 29.5591L1.56648 29.554L1.57506 29.5485C1.68097 29.4811 1.98914 29.3406 2.24817 29.3014C2.28436 29.296 2.31379 29.2934 2.33723 29.2925V29.4067V29.4253L2.33861 29.4439C2.77943 35.3584 5.19495 40.9533 9.19733 45.3302L9.54076 45.7058L9.9102 45.3558C10.0761 45.1986 10.2524 45.0486 10.4408 44.8885L10.526 44.816L10.5723 44.7141C10.6623 44.5158 10.7229 44.3055 10.7524 44.0898L10.7534 44.0825L10.7541 44.0752C10.8087 43.5638 10.7533 43.0466 10.5916 42.5584L10.5889 42.5501L10.5858 42.5419C10.1953 41.4874 9.70277 40.4734 9.11539 39.5145L9.11093 39.5072L9.10622 39.5001C8.58075 38.7045 8.2357 37.8038 8.09517 36.861C8.06884 36.3207 8.16128 35.7812 8.36609 35.2804C8.5737 34.7727 8.89157 34.3176 9.29671 33.9479L9.29674 33.9479L9.3019 33.9431C9.51061 33.7471 9.81809 33.5021 10.1292 33.3416C10.4352 33.1837 10.6299 33.1653 10.7325 33.1938C10.7292 33.2245 10.7194 33.274 10.6934 33.3442C10.6053 33.5822 10.4182 33.8304 10.3219 33.9179L10.3131 33.9259L10.3047 33.9343L10.2114 34.0276L10.065 34.1741V34.3812V34.3813V34.3814V34.3815V34.3816V34.3817V34.3818V34.3819V34.382V34.3821V34.3822V34.3823V34.3824V34.3825V34.3826V34.3827V34.3828V34.3829V34.383V34.3831V34.3832V34.3833V34.3834V34.3834V34.3835V34.3836V34.3837V34.3838V34.3839V34.3839V34.384V34.3841V34.3842V34.3843V34.3844V34.3844V34.3845V34.3846V34.3847V34.3847V34.3848V34.3849V34.385V34.385V34.3851V34.3852V34.3853V34.3853V34.3854V34.3855V34.3855V34.3856V34.3857V34.3857V34.3858V34.3859V34.3859V34.386V34.3861V34.3861V34.3862V34.3862V34.3863V34.3864V34.3864V34.3865V34.3866V34.3866V34.3867V34.3867V34.3868V34.3869V34.3869V34.387V34.387V34.3871V34.3871V34.3872V34.3873V34.3873V34.3874V34.3874V34.3875V34.3875V34.3876V34.3876V34.3877V34.3878V34.3878V34.3879V34.3879V34.388V34.388V34.3881V34.3881V34.3882V34.3882V34.3883V34.3883V34.3884V34.3885V34.3885V34.3886V34.3886V34.3887V34.3887V34.3888V34.3888V34.3889V34.3889V34.389V34.389V34.3891V34.3891V34.3892V34.3892V34.3893V34.3893V34.3894V34.3895V34.3895V34.3896V34.3896V34.3897V34.3897V34.3898V34.3898V34.3899V34.3899V34.39V34.39V34.3901V34.3902V34.3902V34.3903V34.3903V34.3904V34.3904V34.3905V34.3906V34.3906V34.3907V34.3907V34.3908V34.3908V34.3909V34.391V34.391V34.3911V34.3911V34.3912V34.3913V34.3913V34.3914V34.3915V34.3915V34.3916V34.3917V34.3917V34.3918V34.3919V34.3919V34.392V34.3921V34.3921V34.3922V34.3923V34.3923V34.3924V34.3925V34.3925V34.3926V34.3927V34.3928V34.3928V34.3929V34.393V34.3931V34.3931V34.3932V34.3933V34.3934V34.3935V34.3935V34.3936V34.3937V34.3938V34.3939V34.394V34.394V34.3941V34.3942V34.3943V34.3944V34.3945V34.3946V34.3947V34.3948V34.3949V34.395V34.3951V34.3951V34.3952V34.3953V34.3954V34.3955V34.3956V34.3957V34.3958V34.396V34.3961V34.3962V34.3963V34.3964V34.3965V34.3966V34.3967V34.3968V34.3969V34.3971V34.3972V34.3973V34.3974V34.3975V34.3976V34.3978V34.3979V34.398V34.3981V34.3983V34.3984V34.3985V34.3987V34.3988V34.3989V34.3991V34.3992V34.3993V34.3995V34.3996V34.3997V34.3999V34.4V34.4002V34.4003V34.4005V34.4006V34.4008V34.4009V34.4011V34.4012V34.4014V34.4015V34.4017V34.4019V34.402V34.4022V34.4024V34.4025V34.4027V34.4029V34.403V34.4032V34.4034V34.4035V34.4037V34.4039V34.4041V34.4043V34.4044V34.4046V34.4048V34.405V34.4052V34.4054V34.4056V34.4058V34.406V34.4062V34.4064V34.4066V34.4068V34.407V34.4072V34.4074V34.4076V34.4078V34.408V34.4083V34.4085V34.4087V34.4089V34.4091V34.4094V34.4096V34.4098V34.4101V34.4103V34.4105V34.4108V34.411V34.4112V34.4115V34.4117V34.412V34.4122V34.4125V34.4127V34.413V34.4132V34.4135V34.4137V34.414V34.4143V34.4145V34.4148V34.4151V34.4154V34.4156V34.4159V34.4162V34.4165V34.4168V34.417V34.4173V34.4176V34.4179V34.4182V34.4185V34.4188V34.4191V34.4194V34.4197V34.42V34.4203V34.4206V34.421V34.4213V34.4216V34.4219V34.4222V34.4226V34.4229V34.4232V34.4236V34.4239V34.4242V34.4246V34.4249V34.4253V34.4256V34.426V34.4263V34.4267V34.427V34.4274V34.4277V34.4281V34.4285V34.4288V34.4292V34.4296V34.43V34.4303V34.4307V34.4311V34.4315V34.4319V34.4323V34.4327V34.4331V34.4335V34.4339V34.4343V34.4347V34.4351V34.4355V34.4359V34.4364V34.4368V34.4372V34.4376V34.4381V34.4385V34.4389V34.4394V34.4398V34.4403V34.4407V34.4412V34.4416V34.4421V34.4425V34.443V34.4435V34.4439V34.4444V34.4449V34.4453V34.4458V34.4463V34.4468V34.4473V34.4478V34.4483V34.4488V34.4493V34.4498V34.4503V34.4508V34.4513V34.4518V34.4523V34.4528V34.4534V34.4539V34.4544V34.4549V34.4555V34.456V34.4566V34.4571V34.4577V34.4582V34.4588V34.4593V34.4599V34.4604V34.461V34.4613C10.0167 34.6696 9.99167 34.8827 9.9903 35.0966L9.99017 35.0966L9.99035 35.1078C9.99745 35.5537 10.0807 35.9952 10.2364 36.4131L10.2424 36.4291L10.2495 36.4448C10.7112 37.4641 11.2599 38.3878 11.7793 39.2624C11.8319 39.3509 11.8842 39.4389 11.936 39.5265L11.9371 39.5282C12.4255 40.3454 12.6966 41.2739 12.7245 42.2254C12.7143 42.4294 12.6848 42.6319 12.6364 42.8304L12.4856 43.4489H13.1222H13.3835H13.4134L13.4432 43.4453C14.5659 43.3104 15.7046 43.4509 16.7609 43.8546L16.7609 43.8547L16.7688 43.8575C17.9954 44.3027 19.161 44.8928 20.3572 45.5014L20.4148 45.5308C21.5839 46.1257 22.7838 46.7362 24.0548 47.2069L24.0548 47.207L24.0608 47.2091C27.0319 48.2668 30.1362 48.9044 33.2837 49.1035C34.4048 49.1901 35.5309 49.19 36.652 49.1032L36.6629 49.1023L36.6738 49.101ZM29.1312 54.0256C29.1311 54.0256 29.13 54.0252 29.1283 54.0243C29.1304 54.0251 29.1313 54.0256 29.1312 54.0256ZM29.071 53.9531C29.0708 53.952 29.0707 53.9514 29.0707 53.9513L29.071 53.9531Z" fill="#35383F" stroke="#35383F"/>
<path d="M55.4981 27.1399L55.4981 27.1415C55.5216 33.3697 53.4555 39.4259 49.6304 44.3412L49.6185 44.3566L49.6077 44.3729C49.4258 44.6485 49.1845 44.8797 48.9013 45.0496C48.6285 45.2133 48.3237 45.316 48.0077 45.3508C48.004 45.3504 48.0004 45.3501 47.9971 45.3497C47.999 45.2972 48.0146 45.2197 48.0513 45.1273C48.0893 45.0316 48.1407 44.9433 48.1901 44.8794L48.1907 44.8786C51.1202 41.0713 52.9597 36.5395 53.5127 31.7676C54.0656 26.9957 53.3111 22.1633 51.3298 17.7871L51.33 17.787L51.3241 17.7749C50.3997 15.8711 49.2805 14.0682 47.9844 12.3952L47.6359 11.9454L47.2346 12.3489L45.5453 14.0475L45.5453 14.0475L29.5869 30.0993L29.5858 30.1003L23.9871 35.6991L23.9849 35.7013L23.2519 36.4436L22.9972 36.6891C22.6565 37.0096 22.3713 37.3843 22.1531 37.798L22.1521 37.7999L22.0401 38.0146L22.0216 38.0499L22.009 38.0878C21.9999 38.115 21.9958 38.1246 21.9892 38.1397C21.9821 38.1561 21.9721 38.1791 21.9499 38.2383C21.928 38.2965 21.8958 38.3899 21.8847 38.5027C21.8657 38.579 21.8505 38.6562 21.8392 38.7341L21.8392 38.7341L21.8382 38.7411C21.8262 38.8333 21.8242 38.9265 21.8321 39.019C21.8246 39.1362 21.8258 39.2539 21.8358 39.371L21.8357 39.371L21.8362 39.3752L21.8253 39.4745L21.8587 39.5769C21.9311 39.7991 22.027 40.0129 22.1447 40.2149L23.0767 41.8145V41.1619L23.3117 41.3306L23.3254 41.3404L23.3397 41.3493C23.9264 41.7134 24.5533 42.0086 25.2077 42.2289L25.2259 42.2351L25.2446 42.2398C25.3391 42.2637 25.427 42.309 25.5013 42.3722C25.5757 42.4353 25.6346 42.5147 25.6735 42.6041C25.7124 42.6936 25.7303 42.7908 25.7258 42.8882C25.7219 42.9745 25.7005 43.0589 25.663 43.1365C25.4897 43.3536 25.254 43.513 24.9872 43.5929C24.7088 43.6763 24.4111 43.6688 24.1373 43.5714C23.1439 43.2067 22.025 42.6839 21.1479 41.9713C20.2779 41.2645 19.6907 40.4103 19.6332 39.3701C19.6575 38.651 19.8337 37.945 20.1503 37.2987C20.4699 36.6464 20.9251 36.0699 21.4855 35.6077L21.5052 35.5915L21.5231 35.5733L25.2546 31.7952L25.2563 31.7935L40.8967 16.1158L40.8975 16.115L46.124 10.8512L46.4855 10.4871L46.1122 10.1351C45.9009 9.93585 45.7074 9.73843 45.5076 9.53448C45.4057 9.43049 45.3022 9.3248 45.1937 9.21631C45.1938 9.21309 45.1941 9.20874 45.1949 9.20309C45.2016 9.15236 45.2349 9.05936 45.3219 8.92772C45.494 8.66722 45.7768 8.40297 45.9706 8.25458L45.6665 7.85764L45.9706 8.25458C46.1718 8.10044 46.4651 7.91085 46.7412 7.81606C47.036 7.71485 47.1346 7.77265 47.1731 7.8126L47.1803 7.82005L47.1877 7.8272L47.8131 8.42452L48.1717 8.76709L48.5172 8.41125L50.3713 6.50151C50.5901 6.30868 50.8649 6.1908 51.1557 6.16536C51.4516 6.13947 51.7479 6.21069 51.9997 6.36824L52.0009 6.36899C52.0777 6.41669 52.1424 6.48131 52.1903 6.5579L52.6138 6.29316L52.1903 6.55791C52.2382 6.63451 52.2679 6.72105 52.2772 6.81089C52.2865 6.90075 52.2751 6.99154 52.2438 7.0763L52.713 7.24913L52.2438 7.07631C52.2126 7.16107 52.1624 7.23757 52.0971 7.29994L52.097 7.29982L52.0881 7.30876L49.6148 9.79133L49.2991 10.1083L49.5791 10.4572C50.9833 12.207 52.1742 14.1178 53.1267 16.1492C54.6874 19.6032 55.4957 23.3496 55.4981 27.1399ZM47.9553 45.3402C47.9555 45.3402 47.9565 45.3406 47.9581 45.3415C47.9559 45.3407 47.9551 45.3402 47.9553 45.3402Z" fill="#35383F" stroke="#35383F"/>
<path d="M33.546 3.58849L34.3934 2.94994L33.3615 2.70291C29.7562 1.83985 26.0105 1.73896 22.3641 2.40667C22.2538 2.42307 22.1797 2.41533 22.1382 2.40441C22.1335 2.40316 22.1293 2.40191 22.1257 2.40072C22.1287 2.36817 22.1432 2.30284 22.1968 2.20284L22.197 2.20293L22.2032 2.19043C22.3557 1.88604 22.5722 1.61831 22.8381 1.40565C23.0981 1.19762 23.3992 1.04713 23.7215 0.964026C29.0048 0.168046 34.9671 0.108585 39.4511 3.14583L39.461 3.15251L39.4711 3.15872C40.9593 4.06639 42.1456 5.39406 42.8807 6.97457L42.8809 6.97498C43.3727 8.02986 43.4732 9.22509 43.1647 10.347C42.9176 11.0448 42.5234 11.6814 42.0087 12.2136C41.4906 12.7493 40.8627 13.1666 40.1681 13.4367C37.7361 14.3597 34.921 13.1345 33.2063 11.0218C31.5026 8.92258 31.0464 6.16173 33.0289 4.07486L33.0371 4.06627L33.0448 4.05731C33.1948 3.8837 33.3628 3.72654 33.546 3.58849ZM22.1048 2.39157C22.1049 2.39156 22.1052 2.39175 22.1057 2.39218L22.1048 2.39157ZM41.4591 11.0387L41.4612 11.0229L41.4623 11.0071C41.5564 9.6323 41.1517 8.26981 40.3225 7.16949C39.8052 6.4321 39.185 5.77247 38.4809 5.21062C38.2507 5.01619 38.0081 4.83689 37.7547 4.67382C37.4542 4.47667 37.1413 4.28059 36.8132 4.11107C36.2331 3.78837 35.6317 3.50556 35.0132 3.26459L34.6336 3.1167L34.4121 3.45861C34.2775 3.66633 34.1155 3.85491 33.9304 4.01925L33.7624 4.16843V4.33287C33.6865 4.49067 33.6375 4.66038 33.6178 4.83497C33.5411 5.26096 33.5415 5.69728 33.619 6.12317C33.7654 7.21836 34.1893 8.25804 34.8505 9.14343C36.0348 10.7414 38.0553 12.3666 40.3345 12.2382C40.4763 12.2372 40.6173 12.2184 40.7543 12.1822H41.0475L41.189 11.9192L41.2544 11.7979L41.2696 11.7696L41.2811 11.7396C41.3676 11.5137 41.4273 11.2784 41.4591 11.0387Z" fill="#35383F" stroke="#35383F"/>
<path d="M26.5283 25.3083C26.0568 26.4276 25.4832 27.5011 24.8147 28.5152L24.8082 28.5251L24.8011 28.5347L24.2972 29.2254L24.2901 29.235L24.2826 29.2443L24.0146 29.577L24.012 29.5803L23.8373 29.801L23.8326 29.8069L23.8277 29.8127C23.6722 29.9974 23.5094 30.1702 23.3417 30.3386C23.2601 30.4383 23.17 30.5309 23.0725 30.6153L22.9317 30.7373H22.7453H22.6986H22.652H22.568H22.428H22.288H21.9893H21.8773H21.7882L21.7045 30.7064L21.3498 30.5758L21.3116 30.5617L21.2762 30.5416L21.0272 30.4006L20.8458 30.3296L20.7754 30.302L20.7163 30.2549C20.5239 30.1014 20.346 29.9307 20.1847 29.7448C19.8082 29.3164 19.5004 28.8321 19.2724 28.3092L19.2501 28.258L19.2396 28.2031C19.236 28.184 19.2332 28.1647 19.2313 28.1454L19.2081 28.0835C19.2078 28.0828 19.2075 28.0821 19.2073 28.0814C19.1529 27.9398 19.1107 27.7918 19.0753 27.6679L19.0736 27.662C18.9844 27.3574 18.9199 27.0462 18.8808 26.7313C18.8356 26.4355 18.8153 26.1365 18.8201 25.8374V25.7668V25.7667V25.7667V25.7667V25.7667V25.7667V25.7666V25.7666V25.7666V25.7665V25.7665V25.7665V25.7664V25.7664V25.7663V25.7663V25.7662V25.7662V25.7661V25.7661V25.766V25.7659V25.7659V25.7658V25.7657V25.7656V25.7656V25.7655V25.7654V25.7653V25.7652V25.7651V25.765V25.765V25.7649V25.7648V25.7647V25.7645V25.7644V25.7643V25.7642V25.7641V25.764V25.7639V25.7637V25.7636V25.7635V25.7634V25.7632V25.7631V25.763V25.7628V25.7627V25.7626V25.7624V25.7623V25.7621V25.762V25.7618V25.7617V25.7615V25.7613V25.7612V25.761V25.7609V25.7607V25.7605V25.7603V25.7602V25.76V25.7598V25.7596V25.7595V25.7593V25.7591V25.7589V25.7587V25.7585V25.7583V25.7581V25.7579V25.7577V25.7575V25.7573V25.7571V25.7569V25.7567V25.7565V25.7563V25.756V25.7558V25.7556V25.7554V25.7552V25.7549V25.7547V25.7545V25.7543V25.754V25.7538V25.7536V25.7533V25.7531V25.7528V25.7526V25.7523V25.7521V25.7519V25.7516V25.7513V25.7511V25.7508V25.7506V25.7503V25.7501V25.7498V25.7495V25.7493V25.749V25.7487V25.7485V25.7482V25.7479V25.7477V25.7474V25.7471V25.7468V25.7465V25.7463V25.746V25.7457V25.7454V25.7451V25.7448V25.7445V25.7442V25.7439V25.7437V25.7434V25.7431V25.7428V25.7425V25.7422V25.7418V25.7415V25.7412V25.7409V25.7406V25.7403V25.74V25.7397V25.7394V25.7391V25.7387V25.7384V25.7381V25.7378V25.7375V25.7371V25.7368V25.7365V25.7362V25.7358V25.7355V25.7352V25.7348V25.7345V25.7342V25.7338V25.7335V25.7332V25.7328V25.7325V25.7321V25.7318V25.7315V25.7311V25.7308V25.7304V25.7301V25.7297V25.7294V25.729V25.7287V25.7283V25.728V25.7276V25.7273V25.7269V25.7265V25.7262V25.7258V25.7255V25.7251V25.7248V25.7244V25.724V25.7237V25.7233V25.7229V25.7226V25.7222V25.7218V25.7215V25.7211V25.7207V25.7204V25.72V25.7196V25.7192V25.7189V25.7185V25.7181V25.7177V25.7174V25.717V25.7166V25.7162V25.7158V25.7155V25.7151V25.7147V25.7143V25.7139V25.7135V25.7132V25.7128V25.7124V25.712V25.7116V25.7112V25.7108V25.7105V25.7101V25.7097V25.7093V25.7089V25.7085V25.7081V25.7077V25.7073V25.7069V25.7066V25.7062V25.7058V25.7054V25.705V25.7046V25.7042V25.7038V25.7034V25.703V25.7026V25.7022V25.7018V25.7014V25.701V25.7006V25.7002V25.6998V25.6994V25.699V25.6986V25.6982V25.6978V25.6974V25.697V25.6966V25.6962V25.6958V25.6954V25.695V25.6946V25.6942V25.6938V25.6934V25.693V25.6926V25.6922V25.6918V25.6914V25.691V25.6906V25.6902V25.6898V25.6894V25.689V25.6886V25.6882V25.6878V25.6874V25.687V25.6866V25.6862V25.6858V25.6854V25.685V25.6846V25.6842V25.6838V25.6834V25.683V25.6826V25.6822V25.6818V25.6814V25.681V25.6806V25.6802V25.6798V25.6794V25.679V25.6786V25.6782V25.6778V25.6774V25.677V25.6766V25.6762V25.6758V25.6754V25.675V25.6746V25.6742V25.6738V25.6734V25.673V25.6726V25.6723V25.6719V25.6715V25.6711V25.6707V25.6703V25.6699V25.6695V25.6691V25.6687V25.6683V25.668V25.6676V25.6672V25.6668V25.6664V25.666V25.6656V25.6653V25.6649V25.6645V25.6641V25.6637V25.6633V25.663V25.6626V25.6622V25.6618V25.6614V25.6611V25.6607V25.6603V25.6599V25.6596V25.6592V25.6588V25.6584V25.6581V25.6577V25.6573V25.657V25.6566V25.6562V25.6559V25.6555V25.6551V25.6548V25.6544V25.654V25.6537V25.6533V25.6529V25.6526V25.6522V25.6519V25.6515V25.6512V25.6508V25.6505V25.6501V25.6497V25.6494V25.649V25.6487V25.6483V25.648V25.6477V25.6473V25.647V25.6466V25.6463V25.6459V25.6456V25.6453V25.6449V25.6446V25.6443V25.6439V25.6436V25.6433V25.6429V25.6426V25.6423V25.6419V25.6416V25.6413V25.641V25.6407V25.6403V25.64V25.6397V25.6394V25.6391V25.6387V25.6384V25.6381V25.6378V25.6375V25.6372V25.6369V25.6366V25.6363V25.636V25.6357V25.6354V25.6351V25.6348V25.6345V25.6342V25.6339V25.6336V25.6333V25.633V25.6327V25.6325V25.6322V25.6319V25.6316V25.6313V25.6311V25.6308V25.6305V25.6302V25.63V25.6297V25.6294V25.6292V25.6289V25.6286V25.6284V25.6281V25.6279V25.6276V25.6273V25.6271V25.6268V25.6266V25.6263V25.6261V25.6259V25.6256V25.6254V25.6251V25.6249V25.6247V25.6244V25.6242V25.624V25.6237V25.6235V25.6233V25.6231V25.6228V25.6226V25.6224V25.6222V25.622V25.6218V25.6216V25.6213V25.6211V25.6209V25.6207V25.6205V25.6203V25.6201V25.6199V25.6198V25.6196V25.6194V25.6192V25.619V25.6188V25.6186V25.6185V25.6183V25.6181V25.6179V25.6178V25.6176V25.6174V25.5985L18.8215 25.5796C18.8354 25.3974 18.8592 25.2161 18.8929 25.0366C18.9345 24.7805 18.9969 24.5283 19.0794 24.2823L19.0834 24.2704L19.088 24.2587L19.5534 24.4415L19.0881 24.2586L19.0881 24.2586L19.0881 24.2584L19.0884 24.2579L19.0893 24.2556L19.0926 24.2471L19.1048 24.2162L19.1435 24.1182C19.1716 24.0475 19.2072 23.9583 19.2245 23.9179L19.229 23.9074L19.234 23.897L19.374 23.6077L19.389 23.5768L19.4081 23.5482L19.6134 23.2402L19.6208 23.2291L19.6209 23.2292L19.7329 23.0705L19.7502 23.0461L19.7702 23.0239C19.8669 22.9167 19.9691 22.8145 20.0762 22.7178C20.1635 22.6384 20.2561 22.5652 20.3533 22.4985L20.4811 22.4109H20.545L20.8788 22.2177L20.8802 22.2168L21.1339 22.6534L21.5641 22.4476C21.5623 22.444 21.5606 22.4403 21.5587 22.4366C21.5423 22.404 21.5236 22.3754 21.5037 22.3502C21.408 22.2292 21.2825 22.1884 21.2285 22.1755C21.1576 22.1585 21.1001 22.1615 21.0782 22.163C21.0506 22.1649 21.0287 22.1688 21.0163 22.1712C20.9917 22.1761 20.9729 22.1818 20.9656 22.1841C20.9492 22.1892 20.9374 22.1939 20.9352 22.1948C20.9287 22.1973 20.926 22.1986 20.9306 22.1966C20.9485 22.1886 20.9878 22.1699 21.0425 22.1434C21.0691 22.1305 21.0993 22.1159 21.1302 22.1009C21.2128 22.0607 21.3012 22.0177 21.3438 21.9984C21.4723 21.9399 21.8209 21.8113 22.0491 21.7419L22.0568 21.7395L22.0647 21.7374L22.55 21.6068L22.5633 21.6032L22.5767 21.6004L23.4167 21.423L23.4266 21.4209L23.4367 21.4192C24.0404 21.3173 24.6507 21.2588 25.2628 21.2444L25.2745 21.2441V21.2442C25.9314 21.2442 26.5633 21.2439 27.1918 21.1901L27.8971 21.1296L27.7183 21.8145C27.4071 23.0065 27.0094 24.1742 26.5283 25.3083ZM26.5283 25.3083C26.5283 25.3085 26.5282 25.3086 26.5282 25.3087L26.0679 25.1135L26.5286 25.3075C26.5285 25.3078 26.5284 25.3081 26.5283 25.3083ZM26.3851 17.4017L26.3851 17.4017L26.3774 17.4051C25.4482 17.8198 24.6366 17.6153 23.9201 17.0751C23.1806 16.5177 22.5686 15.6132 22.1534 14.7203L22.1535 14.7203L22.1498 14.7129C20.8658 12.0667 20.3853 9.10217 20.7678 6.18584L20.7681 6.1836C20.7911 6.00188 20.9557 5.7419 21.2692 5.46322C21.5666 5.19885 21.9089 4.99695 22.114 4.91272C22.2104 4.87312 22.3148 4.84375 22.4115 4.83006C22.5038 4.81698 22.5693 4.82092 22.6073 4.8291C22.6086 4.8465 22.6085 4.87299 22.6038 4.91096C22.2516 7.69942 22.7227 10.5299 23.959 13.0537C24.3805 14.0954 25.0816 15.0005 25.9851 15.6691L26.0007 15.6806L26.0172 15.6909C26.2412 15.8312 26.483 15.9408 26.7361 16.0167L27.0967 16.1249L27.3004 15.8082C27.3588 15.7174 27.4117 15.6231 27.4588 15.5258C27.5506 15.3436 27.6322 15.1565 27.7032 14.9653L27.7044 14.962C27.7088 14.9499 27.7147 14.9355 27.7252 14.9106C27.7262 14.9084 27.7271 14.9061 27.7282 14.9036C27.7373 14.8823 27.7504 14.8513 27.7624 14.8198C27.7841 14.7628 27.8135 14.6762 27.8239 14.5707C27.9281 14.1595 28.0061 13.7422 28.0575 13.3211L28.0598 13.302L28.0606 13.2828C28.1788 10.6349 27.5911 8.00324 26.3579 5.65721C26.31 5.54847 26.3165 5.40452 26.4541 5.183C26.5943 4.9573 26.8225 4.73763 27.0364 4.5658C27.1667 4.46917 27.5068 4.25023 27.8333 4.12706C27.9919 4.06723 28.1054 4.04635 28.1715 4.04687C29.8168 7.47657 30.5564 11.2708 30.3193 15.068L30.3192 15.068L30.3188 15.0774C30.2617 16.3879 30.1086 17.6924 29.8607 18.9805L29.7463 19.575H30.3517H30.641H30.6661L30.6911 19.5725C31.3424 19.507 31.9884 19.3972 32.6248 19.2438L32.6283 19.2429C33.0854 19.1292 33.5313 18.9749 33.9607 18.7817H34.0691L34.1788 18.7236L34.3375 18.6396L34.3452 18.6355L34.3528 18.6312L34.7261 18.4165L34.7348 18.4115L34.7433 18.4062L34.9953 18.2475L35.0099 18.2383L35.0239 18.2281L35.2665 18.0508L35.2666 18.0508L35.2715 18.0471C35.5024 17.8739 35.7362 17.6889 35.9623 17.4924L35.9623 17.4924L35.9664 17.4888L36.2183 17.2648L36.227 17.2571L36.2353 17.249L36.618 16.8757L36.618 16.8757L36.6224 16.8713C36.8216 16.6721 37.113 16.4265 37.4149 16.2668C37.7187 16.106 37.9299 16.0846 38.0614 16.1308C38.0612 16.1324 38.0609 16.134 38.0606 16.1357C38.0551 16.1685 38.0429 16.2124 38.0212 16.2667C37.9272 16.5016 37.7258 16.7616 37.6139 16.8735L37.6078 16.8796L37.6019 16.8859C35.5606 19.0732 32.847 20.515 29.8927 20.9829H29.8011H29.422L29.3196 21.3479C28.8577 22.9952 28.2113 24.5852 27.3927 26.0875L27.3866 26.0988L27.381 26.1105C26.3404 28.2792 24.7924 30.1651 22.8681 31.6084C22.4018 31.9476 21.8615 32.1713 21.2918 32.261C20.7266 32.35 20.1485 32.3047 19.6042 32.1287C18.677 31.7476 17.9982 30.9807 17.5644 30.0278C17.1271 29.0673 16.9545 27.948 17.0282 26.9419L17.0284 26.9395C17.2592 23.5618 20.3752 21.1368 23.5804 20.2284C24.6384 19.9351 25.7269 19.766 26.8239 19.7243H26.825H26.8268H26.8285H26.8303H26.832H26.8338H26.8355H26.8373H26.839H26.8408H26.8425H26.8443H26.8461H26.8478H26.8496H26.8513H26.8531H26.8549H26.8566H26.8584H26.8601H26.8619H26.8637H26.8654H26.8672H26.8689H26.8707H26.8725H26.8742H26.876H26.8778H26.8795H26.8813H26.8831H26.8848H26.8866H26.8884H26.8901H26.8919H26.8937H26.8954H26.8972H26.899H26.9007H26.9025H26.9043H26.906H26.9078H26.9096H26.9114H26.9131H26.9149H26.9167H26.9185H26.9202H26.922H26.9238H26.9256H26.9273H26.9291H26.9309H26.9327H26.9344H26.9362H26.938H26.9398H26.9415H26.9433H26.9451H26.9469H26.9487H26.9504H26.9522H26.954H26.9558H26.9576H26.9593H26.9611H26.9629H26.9647H26.9665H26.9683H26.97H26.9718H26.9736H26.9754H26.9772H26.979H26.9808H26.9825H26.9843H26.9861H26.9879H26.9897H26.9915H26.9933H26.9951H26.9969H26.9986H27.0004H27.0022H27.004H27.0058H27.0076H27.0094H27.0112H27.013H27.0148H27.0166H27.0183H27.0201H27.0219H27.0237H27.0255H27.0273H27.0291H27.0309H27.0327H27.0345H27.0363H27.0381H27.0399H27.0417H27.0435H27.0453H27.0471H27.0489H27.0507H27.0525H27.0543H27.0561H27.0579H27.0597H27.0615H27.0633H27.0651H27.0669H27.0687H27.0705H27.0723H27.0741H27.0759H27.0777H27.0795H27.0813H27.0831H27.0849H27.0867H27.0885H27.0903H27.0922H27.094H27.0958H27.0976H27.0994H27.1012H27.103H27.1048H27.1066H27.1084H27.1102H27.112H27.1139H27.1157H27.1175H27.1193H27.1211H27.1229H27.1247H27.1265H27.1283H27.1302H27.132H27.1338H27.1356H27.1374H27.1392H27.141H27.1428H27.1447H27.1465H27.1483H27.1501H27.1519H27.1537H27.1556H27.1574H27.1592H27.161H27.1628H27.1646H27.1665H27.1683H27.1701H27.1719H27.1737H27.1756H27.1774H27.1792H27.181H27.1828H27.1846H27.1865H27.1883H27.1901H27.1919H27.1938H27.1956H27.1974H27.1992H27.201H27.2029H27.2047H27.2065H27.2083H27.2102H27.212H27.2138H27.2156H27.2175H27.2193H27.2211H27.2229H27.2248H27.2266H27.2284H27.2302H27.2321H27.2339H27.2357H27.2375H27.2394H27.2412H27.243H27.2449H27.2467H27.2485H27.2503H27.2522H27.254H27.2558H27.2577H27.2595H27.2613H27.2632H27.265H27.2668H27.2686H27.2705H27.2723H27.2741H27.276H27.2778H27.2796H27.2815H27.2833H27.2851H27.287H27.2888H27.2906H27.2925H27.2943H27.2961H27.298H27.2998H27.3016H27.3035H27.3053H27.3072H27.309H27.3108H27.3127H27.3145H27.3163H27.3182H27.32H27.3218H27.3237H27.3255H27.3274H27.3292H27.331H27.3329H27.3347H27.3365H27.3384H27.3402H27.3421H27.3439H27.3457H27.3476H27.3494H27.3513H27.3531H27.3549H27.3568H27.3586H27.3605H27.3623H27.3641H27.366H27.3678H27.3697H27.3715H27.3734H27.3752H27.377H27.3789H27.3807H27.3826H27.3844H27.3863H27.3881H27.3899H27.3918H27.3936H27.3955H27.3973H27.3992H27.401H27.4029H27.4047H27.4065H27.4084H27.4102H27.4121H27.4139H27.4158H27.4176H27.4195H27.4213H27.4232H27.425H27.4269H27.4287H27.4305H27.4324H27.4342H27.4361H27.4379H27.4398H27.4416H27.4435H27.4453H27.4472H27.449H27.4509H27.4527H27.4546H27.4564H27.4583H27.4601H27.462H27.4638H27.4657H27.4675H27.4694H27.4712H27.4731H27.4749H27.4768H27.4786H27.4805H27.4823H27.4842H27.486H27.4879H27.4897H27.4916H27.4934H27.4953H27.4971H27.499H27.5008H27.5027H27.5045H27.5064H27.5082H27.5101H27.5119H27.5138H27.5157H27.5175H27.5194H27.5212H27.5231H27.5249H27.5268H27.5286H27.5305H27.5323H27.5342H27.536H27.5379H27.5397H27.5416H27.5435H27.5453H27.5472H27.549H27.5509H27.5527H27.5546H27.5564H27.5583H27.5601H27.562H27.5639H27.5657H27.5676H27.5694H27.5713H27.5731H27.575H27.5768H27.5787H27.5806H27.5824H27.5843H27.5861H27.588H27.5898H27.5917H27.5935H27.5954H27.5973H27.5991H27.601H27.6028H27.6047H27.6065H27.6084H27.6103H27.6121H27.614H27.6158H27.6177H27.6195H27.6214H27.6233H27.6251H27.627H27.6288H27.6307H27.6325H27.6344H27.6363H27.6381H27.64H27.6418H27.6437H27.6456H27.6474H27.6493H27.6511H27.653H27.6548H27.6567H27.6586H27.6604H27.6623H27.6641H27.666H27.6679H27.6697H27.6716H27.6734H27.6753H27.6771H27.679H27.6809H27.6827H27.6846H27.6864H27.6883H27.6902H27.692H27.6939H27.6957H27.6976H27.6995H27.7013H27.7032H27.705H27.7069H27.7087H27.7106H27.7125H27.7143H27.7162H27.718H27.7199H27.7218H27.7236H27.7255H27.7273H27.7292H27.7311H27.7329H27.7348H27.7366H27.7385H27.7404H27.7422H27.7441H27.7459H27.7478H28.1773L28.2421 19.2997C28.3561 18.5524 28.4415 17.7929 28.4984 17.0212L28.5864 15.829L27.6758 16.6036C27.2883 16.9332 26.8532 17.2023 26.3851 17.4017ZM22.6028 4.80151C22.6028 4.80149 22.6031 4.80204 22.6034 4.80322L22.6028 4.80151Z" fill="#35383F" stroke="#35383F"/>
<path d="M43.8797 31.2973L43.9021 31.2967L43.9244 31.2941C44.1261 31.2705 44.3245 31.2247 44.516 31.1575H45.0017L44.982 30.6385C44.9736 30.4195 44.949 30.2014 44.9083 29.986L44.9066 29.9768L44.9045 29.9676C44.7546 29.3109 44.4892 28.686 44.1208 28.1221C43.5777 27.2361 42.9257 26.4216 42.1801 25.6976L42.1743 25.692L42.1683 25.6866C41.3414 24.934 40.4196 24.2127 39.5063 23.5263C39.5154 23.5023 39.528 23.4734 39.5451 23.4395C39.5782 23.3742 39.6226 23.3013 39.6763 23.2237L39.6763 23.2237L39.6798 23.2186C39.768 23.0877 39.8657 22.9635 39.972 22.8469L40.1435 22.6925H40.1819L40.3167 22.5888C40.5414 22.4159 40.796 22.2547 41.0219 22.1685C41.1337 22.1258 41.2182 22.1095 41.2756 22.1083C41.3282 22.1072 41.3422 22.1185 41.3428 22.1189L41.3428 22.1189L41.348 22.1224C42.4805 22.8819 43.537 23.7491 44.5026 24.7118L44.5117 24.7209L44.5213 24.7295C45.5003 25.61 46.4455 26.5337 47.3571 27.5006L48.6675 28.8907L48.2061 27.0369C47.82 25.4858 47.3551 23.9554 46.8132 22.4517L46.793 22.3884C46.1924 20.5027 45.5701 18.5487 46.0073 16.7638C46.1159 16.4589 46.2897 16.1813 46.5168 15.9504L46.1637 15.6032L46.5168 15.9504C46.7488 15.7144 47.0305 15.5332 47.3415 15.4198L47.3521 15.416L47.3625 15.4116C47.4321 15.3826 47.5319 15.3542 47.6391 15.3393C47.736 15.326 47.817 15.3267 47.8739 15.3357C47.8728 15.3412 47.8714 15.3471 47.8699 15.3536C47.6438 16.2555 47.7241 17.2517 47.9116 18.2025C48.0943 19.1288 48.3894 20.0604 48.6479 20.8762C48.656 20.9018 48.6641 20.9274 48.6722 20.9528L48.6767 20.9673L48.6822 20.9815C49.386 22.8101 49.9115 24.7025 50.2514 26.6322C50.3817 27.4846 50.2862 28.3562 49.9745 29.1601C49.9013 29.3269 49.8151 29.4879 49.7169 29.6414L49.5165 29.9548L49.759 30.2368C49.9726 30.4853 50.152 30.7612 50.2925 31.0573C50.5413 31.5902 50.6961 32.1621 50.75 32.7477C50.8275 34.1109 50.6607 35.4771 50.2577 36.7817L50.2576 36.7817L50.2552 36.7902C49.7374 38.5789 49.0288 40.6374 47.7531 41.8275L47.7443 41.8357L47.7358 41.8444C47.2323 42.362 46.6261 42.7687 45.9563 43.0384C45.2864 43.3081 44.5676 43.4349 43.8458 43.4106L43.8458 43.4106L43.8402 43.4105C43.2945 43.3983 42.7596 43.2556 42.2803 42.9944C41.801 42.7332 41.3912 42.3611 41.0851 41.9092C40.779 41.4572 40.5856 40.9386 40.5209 40.3966C40.4563 39.8545 40.5223 39.3049 40.7135 38.7937L40.7136 38.7937L40.7174 38.7827C41.468 36.6236 42.7864 34.7065 44.534 33.233L44.0502 32.3776C42.7066 32.8362 41.256 32.879 39.8877 32.5006C37.6108 31.8302 35.6299 30.4045 34.2714 28.4581L34.2672 28.452L34.2628 28.4461L34.2628 28.4461C34.2574 28.4389 34.2021 28.3644 34.3305 28.1191C34.4523 27.8864 34.6888 27.6176 34.9869 27.3849C35.2854 27.1518 35.5994 26.9908 35.846 26.9329C35.9679 26.9042 36.0475 26.9068 36.0907 26.9163C36.119 26.9225 36.1285 26.9299 36.1348 26.9376C37.4263 28.8093 39.2848 30.217 41.4366 30.9533L41.4365 30.9534L41.4484 30.9571C42.2344 31.2043 43.056 31.3193 43.8797 31.2973ZM39.4863 23.598C39.4863 23.598 39.4863 23.5976 39.4864 23.5968L39.4863 23.598ZM47.9301 15.3503C47.9301 15.3504 47.9294 15.3501 47.9283 15.3494C47.9296 15.35 47.9302 15.3503 47.9301 15.3503ZM47.8801 15.2801C47.8797 15.2781 47.8797 15.277 47.8797 15.277C47.8798 15.277 47.88 15.2779 47.8801 15.2801ZM48.861 35.8244L48.9959 34.741L48.9016 34.8039C48.8871 34.0701 48.7402 33.342 48.465 32.6554L48.4556 32.6321L48.444 32.6098C48.31 32.3534 48.1532 32.1095 47.9755 31.8811L47.6784 31.4992L47.287 31.7836C46.1451 32.6132 45.1054 33.5748 44.1894 34.6485L44.1568 34.6811L44.1361 34.7018L44.1179 34.7249L43.9779 34.9022L43.9779 34.9022L43.9744 34.9066L43.7224 35.2333L43.7206 35.2356C43.595 35.4005 43.4737 35.5803 43.3635 35.7436C43.3334 35.7882 43.3042 35.8315 43.2759 35.873L43.2703 35.8812L43.265 35.8896L43.2185 35.964C43.1508 36.0722 43.0893 36.1841 43.0344 36.2992L43.0337 36.3005C42.9422 36.4837 42.8433 36.6814 42.7535 36.891L42.7533 36.8909L42.7488 36.9022C42.7319 36.9445 42.7156 37.0055 42.7095 37.0286C42.7089 37.0309 42.7083 37.0329 42.7079 37.0344L42.7056 37.0432C42.6961 37.0782 42.6879 37.1085 42.6805 37.1333C42.6774 37.1436 42.6756 37.1488 42.6752 37.1501C42.6751 37.1505 42.6751 37.1505 42.6752 37.1502C42.6754 37.1496 42.678 37.1423 42.6831 37.1313L42.6833 37.1309C42.6864 37.124 42.7011 37.0919 42.7288 37.0542C42.7426 37.0355 42.7739 36.9955 42.825 36.9563C42.8311 36.9517 42.8381 36.9465 42.846 36.9411C42.8491 36.939 42.8522 36.9369 42.8556 36.9347C42.9132 36.8973 43.0115 36.8503 43.1423 36.8544C43.2024 36.8563 43.2563 36.8684 43.3037 36.8865C43.2726 36.9528 43.2422 37.0198 43.213 37.0879C43.2079 37.1007 43.1987 37.135 43.1879 37.175C43.1815 37.1987 43.1745 37.2243 43.1676 37.2486L42.639 37.1746L42.5829 37.3706L42.5822 37.3733C42.5309 37.5567 42.4901 37.7429 42.4598 37.9309C42.4288 38.0815 42.4078 38.234 42.397 38.3874L42.8525 38.4195L42.3957 38.4195V38.4196V38.4196V38.4196V38.4196V38.4197V38.4197V38.4197V38.4197V38.4198V38.4198V38.4198V38.4199V38.4199V38.4199V38.42V38.42V38.4201V38.4201V38.4202V38.4202V38.4203V38.4203V38.4204V38.4204V38.4205V38.4206V38.4208V38.4209V38.4211V38.4212V38.4212V38.4214V38.4214V38.4215V38.4216V38.4217V38.4217V38.4219V38.4219V38.422V38.4221V38.4222V38.4223V38.4224V38.4226V38.4226V38.4228V38.4231V38.4233V38.4235V38.4237V38.424V38.4242V38.4245V38.4248V38.425V38.4253V38.4256V38.4259V38.4262V38.4265V38.4268V38.4271V38.4274V38.4277V38.428V38.4284V38.4287V38.4291V38.4294V38.4298V38.4301V38.4305V38.4309V38.4313V38.4317V38.432V38.4324V38.4328V38.4333V38.4337V38.4341V38.4345V38.435V38.4354V38.4358V38.4363V38.4367V38.4372V38.4377V38.4381V38.4386V38.4391V38.4396V38.4401V38.4406V38.4411V38.4416V38.4421V38.4426V38.4431V38.4437V38.4442V38.4447V38.4453V38.4458V38.4464V38.4469V38.4475V38.4481V38.4486V38.4492V38.4498V38.4504V38.451V38.4516V38.4522V38.4528V38.4534V38.454V38.4546V38.4552V38.4559V38.4565V38.4571V38.4578V38.4584V38.4591V38.4597V38.4604V38.4611V38.4617V38.4624V38.4631V38.4637V38.4644V38.4651V38.4658V38.4665V38.4672V38.4679V38.4686V38.4693V38.47V38.4708V38.4715V38.4722V38.4729V38.4737V38.4744V38.4752V38.4759V38.4767V38.4774V38.4782V38.4789V38.4797V38.4805V38.4812V38.482V38.4828V38.4836V38.4843V38.4851V38.4859V38.4867V38.4875V38.4883V38.4891V38.4899V38.4907V38.4916V38.4924V38.4932V38.494V38.4948V38.4957V38.4965V38.4973V38.4982V38.499V38.4999V38.5007V38.5016V38.5024V38.5033V38.5041V38.505V38.5059V38.5067V38.5076V38.5085V38.5093V38.5102V38.5111V38.512V38.5129V38.5137V38.5146V38.5155V38.5164V38.5173V38.5182V38.5191V38.52V38.5209V38.5218V38.5227V38.5237V38.5246V38.5255V38.5264V38.5273V38.5282V38.5292V38.5301V38.531V38.532V38.5329V38.5338V38.5348V38.5357V38.5366V38.5376V38.5385V38.5395V38.5404V38.5414V38.5423V38.5433V38.5442V38.5452V38.5461V38.5471V38.548V38.549V38.5499V38.5509V38.5519V38.5528V38.5538V38.5548V38.5557V38.5567V38.5577V38.5587V38.5596V38.5606V38.5616V38.5626V38.5635V38.5645V38.5655V38.5665V38.5675V38.5684V38.5694V38.5704V38.5714V38.5724V38.5734V38.5744V38.5753V38.5763V38.5773V38.5783V38.5793V38.5803V38.5813V38.5823V38.5833V38.5843V38.5852V38.5862V38.5872V38.5882V38.5892V38.5902V38.5912V38.5922V38.5932V38.5942V38.5952V38.5962V38.5972V38.5982V38.5992V38.6002V38.6012V38.6022V38.6032V38.6042V38.6052V38.6062V38.6071V38.6081V38.6091V38.6101V38.6111V38.6121V38.6131V38.6141V38.6151V38.6161V38.6171V38.6181V38.6191V38.6201V38.621V38.622V38.623V38.624V38.625V38.626V38.627V38.628V38.6289V38.6299V38.6309V38.6319V38.6329V38.6339V38.6348V38.6358V38.6368V38.6378V38.6387V38.6397V38.6407V38.6417V38.6426V38.6436V38.6446V38.6455V38.6465V38.6475V38.6484V38.6494V38.6504V38.6513V38.6523V38.6532V38.6542V38.6551V38.6561V38.657V38.658V38.6589V38.6599V38.6608V38.6618V38.6627V38.6636V38.6646V38.6655V38.6664V38.6674V38.6683V38.6692V38.6702V38.6711V38.672V38.6729V38.6738V38.6748V38.6757V38.6766V38.6775V38.6784V38.6793V38.6802V38.6811V38.682V38.6829V38.6838V38.6847V38.6856V38.6865V38.6873V38.6882V38.6891V38.69V38.6908V38.6917V38.6926V38.6935V38.6943V38.6952V38.696V38.6969V38.6977V38.6986V38.6994V38.7003V38.7011V38.702V38.7028V38.7036V38.7045V38.7053V38.7061V38.7069V38.7077V38.7085V38.7094V38.7102V38.711V38.7118V38.7126V38.7134V38.7141V38.7149V38.7157V38.7165V38.7173V38.7181V38.7188V38.7196V38.7203V38.7211V38.7219V38.7226V38.7234V38.7241V38.7248V38.7256V38.7263V38.727V38.7278V38.7285V38.7292V38.7299V38.7306V38.7313V38.732V38.7327V38.7334V38.7341V38.7348V38.7355V38.7362V38.7369V38.7375V38.7382V38.7388V38.7395V38.7402V38.7408V38.7414V38.7421V38.7427V38.7434V38.744V38.7446V38.7452V38.7458V38.7464V38.747V38.7476V38.7482V38.7488V38.7494V38.75V38.7506V38.7511V38.7517V38.7523V38.7528V38.7534V38.7539V38.7545V38.755V38.7555V38.7561V38.7566V38.7571V38.7576V38.7581V38.7586V38.7591V38.7596V38.7601V38.7606V38.761V38.7615V38.762V38.7624V38.7629V38.7633V38.7638V38.7642V38.7646V38.7651V38.7655V38.7659V38.7663V38.7667V38.7671V38.7675V38.7679V38.7856L42.397 38.8033C42.4212 39.1449 42.4894 39.482 42.5997 39.8063L42.5997 39.8063L42.6011 39.8104C42.6099 39.8356 42.6196 39.8604 42.63 39.8849C42.6306 39.8917 42.6313 39.8986 42.6321 39.9054L42.6417 39.9929L42.6807 40.0719C42.7484 40.2089 42.827 40.3401 42.9158 40.4644C43.0934 40.7221 43.3047 40.955 43.5441 41.1567L43.609 41.2115L43.6883 41.2417L43.8186 41.2913L43.837 41.3051L43.849 41.3141L43.8614 41.3223C43.9784 41.3996 44.0993 41.4707 44.2236 41.5354L44.2261 41.5366C44.4928 41.6735 44.7719 41.7851 45.0595 41.87L45.1287 41.8904H45.201H45.3407C45.4691 41.8997 45.598 41.9001 45.7264 41.8916C45.8294 41.8974 45.9325 41.8989 46.0356 41.896V42.8884L46.9467 41.5724L47.0307 41.4511L47.0469 41.4277L47.0603 41.4026L47.199 41.1437C47.2816 40.9934 47.3601 40.8344 47.4313 40.6902C47.4536 40.6449 47.4753 40.6011 47.4961 40.5594L47.4963 40.5595L47.5017 40.5478C47.7128 40.0969 47.9149 39.616 48.0887 39.1332L48.0887 39.1332L48.0905 39.128C48.4627 38.0569 48.7209 36.9496 48.861 35.8244Z" fill="#35383F" stroke="#35383F"/>
<path d="M39.7218 50.9284C39.7401 50.9175 39.7955 50.8793 39.849 50.8426C39.8794 50.8216 39.9092 50.8012 39.9311 50.7864L40.2365 51.1884L40.4604 51.0204L40.4605 51.0205L40.4678 51.0148L41.1025 50.5201L41.12 50.5065L41.1363 50.4913L41.266 50.3702C41.3664 50.2862 41.4623 50.1969 41.5532 50.1027C41.6226 50.0331 41.7164 49.9317 41.7885 49.8528C41.8262 49.8115 41.8599 49.7741 41.8843 49.7471L41.9131 49.715L41.9177 49.7099L41.9258 49.7014C41.9351 49.6917 41.9481 49.678 41.9635 49.6614C41.9941 49.6286 42.0359 49.5829 42.0786 49.5336C42.1197 49.486 42.169 49.4267 42.2105 49.3682C42.2308 49.3397 42.2567 49.301 42.2797 49.2573L42.2806 49.2555C42.2832 49.2506 42.2872 49.243 42.292 49.233C42.3416 49.1668 42.3876 49.0979 42.4296 49.0267L42.4339 49.0194L42.438 49.0119C42.4731 48.9475 42.5316 48.8111 42.5706 48.72C42.5787 48.7011 42.586 48.6842 42.592 48.6703C42.6133 48.6211 42.6219 48.6031 42.6215 48.603C42.6214 48.6029 42.6202 48.6051 42.618 48.6089C42.6154 48.6134 42.6061 48.6296 42.5915 48.6497C42.5843 48.6595 42.5696 48.6791 42.5479 48.7015C42.5338 48.7161 42.48 48.7718 42.3908 48.8111C42.3332 48.8365 42.244 48.8596 42.1441 48.8516C42.1397 48.8513 42.1354 48.8509 42.131 48.8504C42.0815 48.8451 42.0296 48.8319 41.9779 48.8075C41.9851 48.7959 41.9921 48.7842 41.9991 48.7725C42.0214 48.7315 42.0646 48.631 42.1042 48.5388C42.1243 48.4921 42.1434 48.4476 42.1585 48.4138L42.6481 48.5743C42.6995 48.4281 42.7332 48.2763 42.7486 48.1222L42.7486 48.1222L42.7492 48.115C42.7561 48.0339 42.7561 47.9524 42.7492 47.8714L42.7491 47.8703L42.7803 47.7146L42.675 47.5462C42.6301 47.4744 42.5709 47.4146 42.5454 47.3891C42.5107 47.3544 42.4744 47.3212 42.4488 47.2981C42.4126 47.2653 42.4102 47.2633 42.413 47.266C42.4151 47.2681 42.4202 47.2733 42.4268 47.2806L42.427 47.2808C42.4313 47.2855 42.4483 47.3042 42.4668 47.3311C42.4752 47.3433 42.4966 47.3752 42.5155 47.4204L42.5162 47.4219C42.5236 47.4394 42.556 47.516 42.5544 47.6216C42.5537 47.6666 42.5468 47.7168 42.5293 47.77C42.5186 47.8026 42.5055 47.8323 42.4907 47.8592C42.4893 47.8617 42.4879 47.8642 42.4865 47.8667C42.4808 47.8766 42.4749 47.8861 42.4688 47.8953C42.4619 47.9055 42.4548 47.9153 42.4475 47.9246C42.433 47.9158 42.4184 47.9078 42.4038 47.9008C42.3946 47.8965 42.3855 47.8924 42.3764 47.8888C42.3322 47.8709 42.2883 47.8608 42.246 47.8565C42.2464 47.8413 42.248 47.8262 42.251 47.8112C42.2248 47.7692 42.1452 47.6975 42.0957 47.653C42.086 47.6442 42.0774 47.6365 42.0707 47.6302L42.3511 47.2085C42.3491 47.2072 42.347 47.2058 42.3446 47.2042C42.2067 47.1133 42.061 47.0349 41.9092 46.97C41.5032 46.79 41.087 46.634 40.6627 46.5029L40.661 46.5023C39.4796 46.142 38.2762 45.8487 37.093 45.5603C36.9415 45.5234 36.7902 45.4865 36.6395 45.4496L36.6395 45.4496L36.6357 45.4487C36.4768 45.4111 36.3183 45.3741 36.1602 45.3371C35.4445 45.1698 34.7378 45.0046 34.0481 44.8022L34.0196 44.7938L33.9902 44.7889C32.8305 44.5939 31.7301 44.1382 30.7721 43.456L30.7643 43.4505L30.7563 43.4452C29.4228 42.5707 28.2957 41.4163 27.4535 40.0621L27.4535 40.0621L27.4516 40.059C27.3692 39.9287 27.2947 39.7935 27.2285 39.6542L27.2153 39.6264L27.1988 39.6004C27.1439 39.5142 27.0957 39.4261 27.0386 39.3214L27.0337 39.3125L27.0285 39.3037C27.0195 39.2889 27.0138 39.2723 27.0116 39.2551L27.0021 39.1799L26.9706 39.1109C26.6223 38.3461 26.5022 37.4971 26.6248 36.666C26.7734 36.0083 27.0559 35.3883 27.455 34.8447C27.8574 34.2965 28.3695 33.8379 28.9586 33.4982L28.9667 33.4936L28.9745 33.4887C30.2144 32.7111 31.4787 32.6422 32.6915 33.0062C33.9193 33.3746 35.0999 34.1908 36.1084 35.1893C37.503 36.64 38.8022 38.5509 38.9051 40.4625C38.9472 41.4325 38.6316 42.3842 38.0183 43.1368L37.5161 43.753L38.2889 43.9388C38.6707 44.0306 39.0502 44.1186 39.4274 44.2061C40.5285 44.4613 41.6103 44.712 42.6724 45.0409L42.6967 45.0484L42.7215 45.0535C43.3637 45.1829 43.9612 45.4761 44.4562 45.9039C44.5596 46.0877 44.6219 46.292 44.6382 46.5028C44.6564 46.7361 44.6178 46.9702 44.5259 47.1854L44.5185 47.2025L44.5125 47.2202C43.8138 49.2646 41.9525 50.847 40.0948 52.1103C37.7479 53.6912 35.061 54.6957 32.2527 55.0424C32.1365 55.0555 32.0542 55.0471 32.0038 55.034C31.992 55.0309 31.9828 55.0278 31.9758 55.0251C31.9782 54.9936 31.9908 54.9289 32.0412 54.8267L32.0419 54.8254C32.1911 54.5204 32.4059 54.2523 32.671 54.0402C32.9282 53.8345 33.2265 53.6864 33.5456 53.606C35.2403 53.4242 36.8924 52.9589 38.4331 52.2297L38.4342 52.2292L38.6301 52.1358L38.515 51.6263C38.5247 51.6212 38.5349 51.6157 38.5458 51.6097M39.7218 50.9284C39.6646 50.9666 39.6069 51.0038 39.5489 51.0402C39.5639 51.063 39.5814 51.0852 39.6014 51.1065C39.6812 51.1916 39.7726 51.2303 39.8376 51.2475C39.8676 51.2555 39.8961 51.26 39.9221 51.2623L39.7218 50.9284ZM39.7218 50.9284L39.9454 51.2638C40.0051 51.2663 40.0488 51.2576 40.0629 51.2548L40.0634 51.2546C40.1222 51.2429 40.1653 51.2227 40.1706 51.2203C40.1849 51.2139 40.1958 51.2081 40.2008 51.2054C40.2113 51.1998 40.2187 51.1952 40.2205 51.1942C40.2243 51.1918 40.2123 51.1997 40.1747 51.2254C40.1663 51.2312 40.156 51.2382 40.1446 51.2461C40.0981 51.2781 40.0324 51.3234 39.9942 51.3478C39.7775 51.4919 39.553 51.624 39.3464 51.7456C39.3004 51.7726 39.2553 51.7992 39.2114 51.8252L39.1999 51.832L39.1881 51.8382L38.7812 52.0509C38.7394 52.0736 38.6996 52.0942 38.6795 52.1045C38.6741 52.1073 38.6701 52.1094 38.6679 52.1105C38.6417 52.1243 38.6813 52.1058 38.7215 52.0743L38.7217 52.0741C38.7282 52.0691 38.7457 52.0554 38.7673 52.0335L38.5458 51.6097M38.5458 51.6097L38.7735 52.0271C38.7874 52.0126 38.8026 51.9949 38.8175 51.9742C38.8449 51.936 38.9889 51.7207 38.8584 51.4599C38.8566 51.4563 38.8548 51.4527 38.8529 51.4492L38.5458 51.6097ZM29.3995 34.6199V34.3103V34.6199ZM29.3995 34.6199L29.3961 34.6227L29.3933 34.6249L29.3995 34.6199ZM28.5274 34.3103L28.5913 34.8383L28.5806 34.9262C28.4578 35.2611 28.4074 35.6193 28.4343 35.977L28.4343 35.977L28.4344 35.9791C28.4868 36.6408 28.6686 37.2858 28.9694 37.8774L29.0503 38.0483L29.0581 38.0647L29.0671 38.0806C30.2382 40.1487 32.0508 41.7794 34.2308 42.726L34.233 42.727C34.7743 42.9589 35.313 43.1511 35.8567 43.3228L35.9132 43.3407L35.9723 43.3448C36.12 43.3552 36.2683 43.3556 36.4161 43.346H36.4366H36.9366V42.846V42.8456V42.8452V42.8447V42.8443V42.8439V42.8434V42.843V42.8426V42.8421V42.8417V42.8412V42.8408V42.8404V42.8399V42.8395V42.8391V42.8386V42.8382V42.8378V42.8373V42.8369V42.8365V42.836V42.8356V42.8352V42.8347V42.8343V42.8339V42.8334V42.833V42.8326V42.8322V42.8317V42.8313V42.8309V42.8304V42.83V42.8296V42.8291V42.8287V42.8283V42.8279V42.8274V42.827V42.8266V42.8261V42.8257V42.8253V42.8249V42.8244V42.824V42.8236V42.8231V42.8227V42.8223V42.8219V42.8214V42.821V42.8206V42.8202V42.8197V42.8193V42.8189V42.8184V42.818V42.8176V42.8172V42.8167V42.8163V42.8159V42.8155V42.8151V42.8146V42.8142V42.8138V42.8134V42.8129V42.8125V42.8121V42.8117V42.8112V42.8108V42.8104V42.81V42.8095V42.8091V42.8087V42.8083V42.8079V42.8074V42.807V42.8066V42.8062V42.8058V42.8053V42.8049V42.8045V42.8041V42.8036V42.8032V42.8028V42.8024V42.802V42.8015V42.8011V42.8007V42.8003V42.7999V42.7995V42.799V42.7986V42.7982V42.7978V42.7974V42.7969V42.7965V42.7961V42.7957V42.7953V42.7948V42.7944V42.794V42.7936V42.7932V42.7928V42.7923V42.7919V42.7915V42.7911V42.7907V42.7903V42.7898V42.7894V42.789V42.7886V42.7882V42.7878V42.7873V42.7869V42.7865V42.7861V42.7857V42.7853V42.7848V42.7844V42.784V42.7836V42.7832V42.7828V42.7824V42.7819V42.7815V42.7811V42.7807V42.7803V42.7799V42.7795V42.779V42.7786V42.7782V42.7778V42.7774V42.777V42.7766V42.7761V42.7757V42.7753V42.7749V42.7745V42.7741V42.7737V42.7733V42.7728V42.7724V42.772V42.7716V42.7712V42.7708V42.7704V42.7699V42.7695V42.7691V42.7687V42.7683V42.7679V42.7675V42.7671V42.7667V42.7662V42.7658V42.7654V42.765V42.7646V42.7642V42.7638V42.7634V42.7629V42.7625V42.7621V42.7617V42.7613V42.7609V42.7605V42.7601V42.7597V42.7592V42.7588V42.7584V42.758V42.7576V42.7572V42.7568V42.7564V42.756V42.7555V42.7551V42.7547V42.7543V42.7539V42.7535V42.7531V42.7527V42.7523V42.7518V42.7514V42.751V42.7506V42.7502V42.7498V42.7494V42.749V42.7486V42.7482V42.7477V42.7473V42.7469V42.7465V42.7461V42.7457V42.7453V42.7449V42.7445V42.7441V42.7436V42.7432V42.7428V42.7424V42.742V42.7416V42.7412V42.7408V42.7404V42.7399V42.7395V42.7391V42.7387V42.7383V42.7379V42.7375V42.7371V42.7367V42.7363V42.7358V42.7354V42.735V42.7346V42.7342V42.7338V42.7334V42.733V42.7326V42.7322V42.7317V42.7313V42.7309V42.7305V42.7301V42.7297V42.7293V42.7289V42.7285V42.7281V42.7276V42.7272V42.7268V42.7264V42.726V42.7256V42.7252V42.7248V42.7244V42.7239V42.7235V42.7231V42.7227V42.7223V42.7219V42.7215V42.7211V42.7207V42.7202V42.7198V42.7194V42.719V42.7186V42.7182V42.7178V42.7174V42.717V42.7165V42.7161V42.7157V42.7153V42.7149V42.7145V42.7141V42.7137V42.7133V42.7128V42.7124V42.712V42.7116V42.7112V42.7108V42.7104V42.71V42.7095V42.7091V42.7087V42.7083V42.7079V42.7075V42.7071V42.7067V42.7062V42.7058V42.7054V42.705V42.7046V42.7042V42.7038V42.7034V42.7029V42.7025V42.7021V42.7017V42.7013V42.7009V42.7005V42.7V42.6996V42.6992V42.6988V42.6984V42.698V42.6976V42.6972V42.6967V42.6963V42.6959V42.6955V42.6951V42.6947V42.6942V42.6938V42.6934V42.693V42.6926V42.6922V42.6918V42.6913V42.6909V42.6905V42.6901V42.6897V42.6893V42.6888V42.6884V42.688V42.6876V42.6872V42.6868V42.6863V42.6859V42.6855V42.6851V42.6847V42.6843V42.6838V42.6834V42.683V42.6826V42.6822V42.6818V42.6813V42.6809V42.6805V42.6801V42.6797V42.6792V42.6788V42.6784V42.678V42.6776V42.6771V42.6767V42.6763V42.6759V42.6755V42.675V42.6746V42.6742V42.6738V42.6734V42.6729V42.6725V42.6721V42.6717V42.6713V42.6708V42.6704V42.67V42.6696V42.6692V42.6687V42.6683V42.6679V42.6675V42.667V42.6666V42.6662V42.6658V42.6654V42.6649V42.6645V42.6641V42.6637V42.6632V42.6628V42.6624V42.662V42.6615V42.6611V42.6607V42.6603V42.6598V42.6594V42.659V42.6586V42.6581V42.6578C36.9602 42.4259 36.9592 42.1922 36.9336 41.9604L36.9335 41.9598C36.8637 41.3366 36.7077 40.7261 36.4699 40.1459L36.467 40.1388L36.4639 40.1318C35.8851 38.8339 35.0643 37.6582 34.0455 36.6676C33.0496 35.5416 31.7353 34.7442 30.2762 34.3811L30.2573 34.3764L30.2381 34.3732C29.9596 34.3266 29.6774 34.3055 29.3951 34.3103H29.3951H29.3948H29.3944H29.3941H29.3938H29.3934H29.3931H29.3927H29.3923H29.392H29.3916H29.3912H29.3908H29.3905H29.3901H29.3897H29.3893H29.3889H29.3884H29.388H29.3876H29.3872H29.3868H29.3863H29.3859H29.3854H29.385H29.3846H29.3841H29.3836H29.3832H29.3827H29.3822H29.3818H29.3813H29.3808H29.3803H29.3798H29.3793H29.3788H29.3783H29.3778H29.3773H29.3768H29.3763H29.3757H29.3752H29.3747H29.3741H29.3736H29.3731H29.3725H29.372H29.3714H29.3709H29.3703H29.3697H29.3692H29.3686H29.368H29.3674H29.3669H29.3663H29.3657H29.3651H29.3645H29.3639H29.3633H29.3627H29.3621H29.3615H29.3609H29.3603H29.3596H29.359H29.3584H29.3578H29.3571H29.3565H29.3559H29.3552H29.3546H29.3539H29.3533H29.3526H29.352H29.3513H29.3507H29.35H29.3493H29.3487H29.348H29.3473H29.3466H29.346H29.3453H29.3446H29.3439H29.3432H29.3425H29.3419H29.3412H29.3405H29.3398H29.3391H29.3384H29.3377H29.337H29.3362H29.3355H29.3348H29.3341H29.3334H29.3327H29.332H29.3312H29.3305H29.3298H29.3291H29.3283H29.3276H29.3269H29.3261H29.3254H29.3247H29.3239H29.3232H29.3224H29.3217H29.3209H29.3202H29.3194H29.3187H29.3179H29.3172H29.3164H29.3157H29.3149H29.3142H29.3134H29.3126H29.3119H29.3111H29.3104H29.3096H29.3088H29.3081H29.3073H29.3065H29.3058H29.305H29.3042H29.3034H29.3027H29.3019H29.3011H29.3003H29.2996H29.2988H29.298H29.2972H29.2965H29.2957H29.2949H29.2941H29.2933H29.2926H29.2918H29.291H29.2902H29.2894H29.2886H29.2879H29.2871H29.2863H29.2855H29.2847H29.2839H29.2832H29.2824H29.2816H29.2808H29.28H29.2792H29.2785H29.2777H29.2769H29.2761H29.2753H29.2745H29.2738H29.273H29.2722H29.2714H29.2706H29.2698H29.2691H29.2683H29.2675H29.2667H29.2659H29.2652H29.2644H29.2636H29.2628H29.262H29.2613H29.2605H29.2597H29.2589H29.2582H29.2574H29.2566H29.2559H29.2551H29.2543H29.2536H29.2528H29.252H29.2513H29.2505H29.2497H29.249H29.2482H29.2474H29.2467H29.2459H29.2452H29.2444H29.2437H29.2429H29.2422H29.2414H29.2407H29.2399H29.2392H29.2384H29.2377H29.237H29.2362H29.2355H29.2347H29.234H29.2333H29.2326H29.2318H29.2311H29.2304H29.2297H29.2289H29.2282H29.2275H29.2268H29.2261H29.2254H29.2246H29.2239H29.2232H29.2225H29.2218H29.2211H29.2204H29.2197H29.219H29.2184H29.2177H29.217H29.2163H29.2156H29.2149H29.2143H29.2136H29.2129H29.2123H29.2116H29.2109H29.2103H29.2096H29.209H29.2083H29.2077H29.207H29.2064H29.2057H29.2051H29.2045H29.2038H29.2032H29.2026H29.2019H29.2013H29.2007H29.2001H29.1995H29.1989H29.1983H29.1977H29.1971H29.1965H29.1959H29.1953H29.1947H29.1941H29.1936H29.193H29.1924H29.1918H29.1913H29.1907H29.1902H29.1896H29.1891H29.1885H29.188H29.1874H29.1869H29.1864H29.1858H29.1853H29.1848H29.1843H29.1838H29.1832H29.1827H29.1822H29.1817H29.1812H29.1808H29.1803H29.1798H29.1793H29.1788H29.1784H29.1779H29.1775H29.177H29.1765H29.1761H29.1757H29.1752H29.1748H29.1744H29.1739H29.1735H29.1731H29.1727H29.1723H29.1719H29.1715H29.1711H29.1707H29.1703H29.1699H29.1696H29.1692H29.1688H29.1685H29.1681H29.1678H29.1674H29.1671H29.1667H29.1664H29.1661H29.1658H29.1655H29.1651H29.1648H29.1645H29.1643H29.164H29.1637H29.1634H29.1631H29.1629H29.1626H29.1623H29.1621H29.1619H29.1616H29.1614H29.1611H29.1609H29.1607H29.1605H29.1603H29.1601H29.1599H29.1597H29.1595H29.1593H29.1592H29.159H29.1588H29.1587H29.1585H29.1584H29.1583H29.1581H29.158H29.1579H29.1578H29.1577H29.1576H29.1575H29.1574H29.1573H29.1572H29.1572H29.1571H29.1571H29.157H29.157H29.1569H29.1569H29.1569H29.1569H29.1569H29.0915H28.5274ZM36.0073 42.846C35.9837 42.8386 35.9601 42.8311 35.9366 42.8236V42.824V42.8244V42.8249V42.8253V42.8257V42.8261V42.8266V42.827V42.8274V42.8279V42.8283V42.8287V42.8291V42.8296V42.83V42.8304V42.8309V42.8313V42.8317V42.8322V42.8326V42.833V42.8334V42.8339V42.8343V42.8347V42.8352V42.8356V42.836V42.8365V42.8369V42.8373V42.8378V42.8382V42.8386V42.8391V42.8395V42.8399V42.8404V42.8408V42.8412V42.8417V42.8421V42.8426V42.843V42.8434V42.8439V42.8443V42.8447V42.8452V42.8456V42.846H36.0073ZM29.5927 34.8114C29.6255 34.8123 29.6583 34.8137 29.6911 34.8154L29.5193 34.6007L29.482 34.554L29.4046 34.6159L29.4046 34.6924L29.4046 34.7725L29.5879 34.7503C29.5904 34.7706 29.592 34.791 29.5927 34.8114Z" fill="#35383F" stroke="#35383F"/>
<path d="M10.5068 18.053V18.0675V18.1139C10.6433 21.6502 11.1481 25.1626 12.0129 28.5942L12.0132 28.5953C12.5005 30.5474 13.0964 32.4708 13.798 34.3565L13.7983 34.3574C13.9431 34.7488 14.103 35.1401 14.2665 35.5405C14.2939 35.6075 14.3213 35.6747 14.3488 35.7422C14.5366 36.2029 14.7256 36.6749 14.888 37.1502C15.0655 37.5624 15.1571 38.0065 15.1571 38.4554C15.1571 38.9117 15.0625 39.363 14.8792 39.7809L14.8534 39.8397L14.8135 39.8902C14.7663 39.9499 14.7157 40.0356 14.6776 40.1307C14.6405 40.2236 14.6245 40.3028 14.6228 40.3568C14.6236 40.3569 14.6245 40.357 14.6254 40.3571C14.9427 40.3217 15.249 40.2187 15.5233 40.0548C15.8083 39.8846 16.0518 39.6531 16.236 39.3771L16.247 39.3607L16.2591 39.3453C16.7874 38.6747 17.0548 37.8355 17.0122 36.9832C16.8903 36.0245 16.5936 35.0963 16.1366 34.2446L16.1236 34.2203L16.1133 34.1948C15.3052 32.1851 14.6224 30.1272 14.0688 28.0331M10.5068 18.053L15.6257 22.9234C15.6263 22.923 15.627 22.9226 15.6276 22.9222M10.5068 18.053L10.506 18.0386C10.4266 16.6664 10.3644 15.2035 10.5313 13.8007C10.6978 12.4009 11.089 11.0963 11.8901 10.0246C12.4626 9.27044 13.3426 8.51101 14.2987 8.08954C15.2507 7.66982 16.2126 7.60847 17.0445 8.11586M10.5068 18.053L17.0445 8.11586M14.0688 28.0331C14.0687 28.0328 14.0686 28.0325 14.0686 28.0322L14.552 27.9045L14.069 28.0339C14.0689 28.0337 14.0689 28.0334 14.0688 28.0331ZM14.0688 28.0331C13.7205 26.7341 13.42 25.4189 13.1303 24.1013L12.9986 23.5021L13.612 23.494C14.3226 23.4846 15.018 23.2873 15.6276 22.9222M15.6276 22.9222C17.0235 22.0677 17.9118 20.7025 18.4549 19.1164C18.9992 17.5272 19.1853 15.7476 19.1944 14.1261L19.1945 14.1169L19.1946 14.1169C19.222 12.9836 19.1473 11.752 18.8253 10.6623C18.5043 9.57587 17.9503 8.6699 17.0445 8.11586M15.6276 22.9222L17.0445 8.11586M14.5801 40.3479C14.5802 40.3479 14.5812 40.3482 14.5829 40.3492C14.5809 40.3485 14.58 40.348 14.5801 40.3479ZM16.685 20.3518L16.7132 20.2713V20.255C17.1793 18.7902 17.4155 17.2617 17.4132 15.7242L17.4132 15.722C17.4085 14.9046 17.3805 13.9747 17.2389 13.0941C17.099 12.2248 16.8411 11.3537 16.343 10.6782C16.0024 10.1658 15.5075 9.77504 14.9299 9.56253L14.8935 9.54911L14.8553 9.54148C14.8426 9.53895 14.8276 9.53611 14.8113 9.53302C14.7739 9.52597 14.7297 9.51761 14.6907 9.50856C14.6804 9.50617 14.676 9.50497 14.676 9.50498C14.676 9.50498 14.6762 9.50503 14.6765 9.50513L14.6766 9.50514C14.6776 9.50546 14.6854 9.50775 14.697 9.51215L14.6976 9.51237C14.7041 9.51482 14.7421 9.52906 14.7862 9.55817C14.7966 9.56509 14.8179 9.57947 14.8432 9.60224C14.8594 9.61686 14.8774 9.63495 14.8953 9.65674C14.9024 9.66546 14.9095 9.67476 14.9166 9.68467C14.9739 9.7658 15.0482 9.93125 14.9829 10.1281C14.9096 10.0923 14.8343 10.0601 14.7573 10.0318C14.7519 10.0307 14.7428 10.029 14.7312 10.0268C14.6914 10.0193 14.6222 10.0062 14.5713 9.99413L14.5929 9.46812C14.461 9.45729 14.3285 9.45674 14.1966 9.46644H14.1964H14.1958H14.1952H14.1946H14.194H14.1934H14.1928H14.1922H14.1916H14.1909H14.1903H14.1897H14.189H14.1884H14.1878H14.1871H14.1865H14.1858H14.1851H14.1845H14.1838H14.1831H14.1825H14.1818H14.1811H14.1804H14.1797H14.179H14.1783H14.1776H14.1769H14.1762H14.1755H14.1748H14.1741H14.1734H14.1726H14.1719H14.1712H14.1704H14.1697H14.169H14.1682H14.1675H14.1667H14.166H14.1652H14.1645H14.1637H14.1629H14.1622H14.1614H14.1606H14.1598H14.1591H14.1583H14.1575H14.1567H14.1559H14.1551H14.1543H14.1535H14.1527H14.1519H14.1511H14.1503H14.1495H14.1487H14.1479H14.1471H14.1463H14.1455H14.1446H14.1438H14.143H14.1422H14.1413H14.1405H14.1397H14.1388H14.138H14.1372H14.1363H14.1355H14.1346H14.1338H14.1329H14.1321H14.1312H14.1304H14.1295H14.1287H14.1278H14.127H14.1261H14.1252H14.1244H14.1235H14.1227H14.1218H14.1209H14.1201H14.1192H14.1183H14.1174H14.1166H14.1157H14.1148H14.114H14.1131H14.1122H14.1113H14.1104H14.1096H14.1087H14.1078H14.1069H14.106H14.1052H14.1043H14.1034H14.1025H14.1016H14.1007H14.0999H14.099H14.0981H14.0972H14.0963H14.0954H14.0945H14.0937H14.0928H14.0919H14.091H14.0901H14.0892H14.0883H14.0874H14.0866H14.0857H14.0848H14.0839H14.083H14.0821H14.0812H14.0803H14.0795H14.0786H14.0777H14.0768H14.0759H14.075H14.0742H14.0733H14.0724H14.0715H14.0706H14.0698H14.0689H14.068H14.0671H14.0662H14.0654H14.0645H14.0636H14.0628H14.0619H14.061H14.0601H14.0593H14.0584H14.0575H14.0567H14.0558H14.055H14.0541H14.0532H14.0524H14.0515H14.0507H14.0498H14.049H14.0481H14.0473H14.0464H14.0456H14.0447H14.0439H14.043H14.0422H14.0414H14.0405H14.0397H14.0389H14.038H14.0372H14.0364H14.0356H14.0347H14.0339H14.0331H14.0323H14.0315H14.0307H14.0299H14.0291H14.0283H14.0275H14.0267H14.0259H14.0251H14.0243H14.0235H14.0227H14.0219H14.0211H14.0204H14.0196H14.0188H14.018H14.0173H14.0165H14.0158H14.015H14.0142H14.0135H14.0127H14.012H14.0112H14.0105H14.0098H14.009H14.0083H14.0076H14.0069H14.0061H14.0054H14.0047H14.004H14.0033H14.0026H14.0019H14.0013H14.0012H14.0005H14.0003H13.9998H13.9994H13.9991H13.9984H13.9984H13.9978H13.9975H13.9971H13.9965H13.9964H13.9957H13.9956H13.9951H13.9947H13.9944H13.9938H13.9938H13.9931H13.9929H13.9925H13.992H13.9918H13.9912H13.9911H13.9905H13.9903H13.9899H13.9894H13.9893H13.9887H13.9886H13.988H13.9878H13.9874H13.987H13.9868H13.9862H13.9862H13.9856H13.9854H13.985H13.9846H13.9844H13.9838H13.9838H13.9832H13.983H13.9827H13.9823H13.9821H13.9815H13.9815H13.9809H13.9808H13.9804H13.9801H13.9798H13.9794H13.9793H13.9787H13.9787H13.9782H13.978H13.9776H13.9773H13.9771H13.9766H13.9766H13.9761H13.976H13.9755H13.9753H13.975H13.9747H13.9745H13.974H13.974H13.9735H13.9734H13.973H13.9728H13.9725H13.9722H13.972H13.9716H13.9716H13.9711H13.971H13.9706H13.9705H13.9702H13.9699H13.9697H13.9694H13.9692H13.9688H13.9688H13.9684H13.9683H13.9679H13.9678H13.9675H13.9672H13.9671H13.9667H13.9666H13.9662H13.9662H13.9658H13.9658H13.9654H13.9653H13.965H13.9648H13.9646H13.9644H13.9642H13.9639H13.9639H13.9635H13.9635H13.9631H13.9631H13.9628H13.9626H13.9624H13.9622H13.9621H13.9618H13.9617H13.9614H13.9614H13.9611H13.961H13.9607H13.9607H13.9604H13.9603H13.9601H13.96H13.9598H13.9596H13.9595H13.9593H13.9592H13.959H13.9589H13.9586H13.9586H13.9583H13.9581H13.958H13.9578H13.9577H13.9575H13.9575H13.9573H13.9572H13.957H13.9569H13.9568H13.9567H13.9566H13.9564H13.9563H13.9562H13.9561H13.9559H13.9559H13.9557H13.9555H13.9555H13.9553H13.9553H13.9551H13.9551H13.955H13.9549H13.9548H13.9547H13.9546H13.9546H13.9545H13.9544H13.9543H13.9542H13.9542H13.9541H13.954H13.954H13.9539H13.9538H13.9538H13.9537H13.9537H13.9536H13.9536H13.9535H13.9535H13.9534H13.9534H13.9533H13.9533H13.9532H13.9532H13.9531H13.9531H13.953H13.953H13.9529H13.9529H13.9529H13.9528H13.9528H13.908H13.658L13.508 9.66645L13.452 9.74111L13.4392 9.7581L13.428 9.77611L13.3813 9.85077L13.3731 9.86398L13.3656 9.87768C13.2345 10.1199 13.1193 10.3706 13.0209 10.6279L13.0177 10.6363L13.0148 10.6448C12.9193 10.9243 12.8398 11.209 12.7766 11.4976C12.6992 11.822 12.6402 12.1506 12.5997 12.4817L12.5997 12.4817L12.5993 12.4854C12.5113 13.2527 12.4759 14.0251 12.4933 14.7973V14.9783V15.0454L12.4992 15.0669L12.4933 15.0884V15.1556V15.1586V15.1616V15.1646V15.1676V15.1706V15.1736V15.1766V15.1797V15.1827V15.1857V15.1887V15.1917V15.1947V15.1977V15.2007V15.2037V15.2067V15.2098V15.2128V15.2158V15.2188V15.2218V15.2248V15.2278V15.2308V15.2339V15.2369V15.2399V15.2429V15.2459V15.2489V15.2519V15.255V15.258V15.261V15.264V15.267V15.27V15.273V15.2761V15.2791V15.2821V15.2851V15.2881V15.2911V15.2942V15.2972V15.3002V15.3032V15.3062V15.3092V15.3123V15.3153V15.3183V15.3213V15.3243V15.3274V15.3304V15.3334V15.3364V15.3394V15.3425V15.3455V15.3485V15.3515V15.3545V15.3576V15.3606V15.3636V15.3666V15.3696V15.3727V15.3757V15.3787V15.3817V15.3848V15.3878V15.3908V15.3938V15.3969V15.3999V15.4029V15.4059V15.4089V15.412V15.415V15.418V15.421V15.4241V15.4271V15.4301V15.4331V15.4362V15.4392V15.4422V15.4453V15.4483V15.4513V15.4543V15.4574V15.4604V15.4634V15.4664V15.4695V15.4725V15.4755V15.4786V15.4816V15.4846V15.4876V15.4907V15.4937V15.4967V15.4998V15.5028V15.5058V15.5088V15.5119V15.5149V15.5179V15.521V15.524V15.527V15.5301V15.5331V15.5361V15.5391V15.5422V15.5452V15.5482V15.5513V15.5543V15.5573V15.5604V15.5634V15.5664V15.5695V15.5725V15.5755V15.5786V15.5816V15.5846V15.5877V15.5907V15.5937V15.5968V15.5998V15.6028V15.6059V15.6089V15.6119V15.615V15.618V15.6211V15.6241V15.6271V15.6302V15.6332V15.6362V15.6393V15.6423V15.6453V15.6484V15.6514V15.6545V15.6575V15.6605V15.6636V15.6666V15.6696V15.6727V15.6757V15.6788V15.6818V15.6848V15.6879V15.6909V15.694V15.697V15.7V15.7031V15.7061V15.7091V15.7122V15.7152V15.7183V15.7213V15.7243V15.7274V15.7304V15.7335V15.7365V15.7396V15.7426V15.7456V15.7487V15.7517V15.7548V15.7578V15.7608V15.7639V15.7669V15.77V15.773V15.7761V15.7791V15.7821V15.7852V15.7882V15.7913V15.7943V15.7974V15.8004V15.8034V15.8065V15.8095V15.8126V15.8156V15.8187V15.8217V15.8248V15.8278V15.8308V15.8339V15.8369V15.84V15.843V15.8461V15.8491V15.8522V15.8552V15.8583V15.8613V15.8643V15.8674V15.8704V15.8735V15.8765V15.8796V15.8826V15.8857V15.8887V15.8918V15.8948V15.8979V15.9009V15.904V15.907V15.9101V15.9131V15.9162V15.9192V15.9222V15.9253V15.9283V15.9314V15.9344V15.9375V15.9405V15.9436V15.9466V15.9497V15.9527V15.9558V15.9588V15.9619V15.9649V15.968V15.971V15.9741V15.9771V15.9802V15.9832V15.9863V15.9893V15.9924V15.9954V15.9985V16.0015V16.0046V16.0076V16.0107V16.0137V16.0168V16.0198V16.0229V16.026V16.029V16.0321V16.0351V16.0382V16.0412V16.0443V16.0473V16.0504V16.0534V16.0565V16.0595V16.0626V16.0656V16.0687V16.0717V16.0748V16.0778V16.0809V16.084V16.087V16.0901V16.0931V16.0962V16.0992V16.1023V16.1053V16.1084V16.1114V16.1145V16.1175V16.1206V16.1237V16.1267V16.1298V16.1328V16.1359V16.1389V16.142V16.145V16.1481V16.1512V16.1542V16.1573V16.1603V16.1634V16.1664V16.1695V16.1725V16.1756V16.1787V16.1817V16.1848V16.1878V16.1909V16.1939V16.197V16.2V16.2031V16.2062V16.2092V16.2123V16.2153V16.2184V16.2214V16.2245V16.2276V16.2306V16.2337V16.2367V16.2398V16.2428V16.2459V16.249V16.252V16.2551V16.2581V16.2612V16.2642V16.2673V16.2704V16.2734V16.2765V16.2795V16.2826V16.2857V16.2887V16.2918V16.2948V16.2979V16.3009V16.304V16.3071V16.3101V16.3132V16.3162V16.3193V16.3224V16.3254V16.3285V16.3315V16.3346V16.3377V16.3407V16.3438V16.3468V16.3499V16.353V16.356V16.3591V16.3621V16.3652V16.3682V16.3713V16.3744V16.3774V16.3805V16.3835V16.3866V16.3897V16.3927V16.3958V16.3988V16.4019V16.405V16.408V16.4111V16.4142V16.4172V16.4203V16.4233V16.4264V16.4295V16.4325V16.4356V16.4386V16.4417V16.4448V16.4478V16.4509V16.4539V16.457V16.4601V16.4631V16.4662V16.4692V16.4723V16.4754V16.4784V16.4815V16.4845V16.4876V16.4907V16.4937V16.4968V16.4999V16.5029V16.506V16.509V16.5121V16.5152V16.5182V16.5213V16.5243V16.5274V16.5305V16.5335V16.5366V16.5397V16.5427V16.5458V16.5488V16.5519V16.555V16.558V16.5611V16.5641V16.5672V16.5703V16.5733V16.5764V16.5795V16.5825V16.5856V16.5886V16.5917V16.5948V16.5978V16.6009V16.604V16.607V16.6101V16.6131V16.6162V16.6193V16.6223V16.6254V16.6285V16.6315V16.6346V16.6376V16.6407V16.6438V16.6468V16.6499V16.653V16.656V16.6591V16.6621V16.6652V16.6683V16.6713V16.6744V16.6775V16.6805V16.6836V16.6866V16.6897V16.6928V16.6958V16.6989V16.7019V16.705V16.7081V16.7111V16.7142V16.7289L12.4942 16.7435C12.5368 17.4682 12.6234 18.1896 12.7534 18.9037L12.7534 18.9037L12.7541 18.9071C12.8375 19.348 12.9532 19.7822 13.1 20.2061V20.2898L13.1413 20.385C13.1763 20.4657 13.2154 20.5447 13.2583 20.6214C13.3325 20.7766 13.4233 20.9233 13.5292 21.0588C13.6276 21.191 13.7351 21.3161 13.8509 21.4334L13.8695 21.4522L13.8899 21.4689C13.8916 21.4703 13.8931 21.4718 13.8944 21.4734L13.9499 21.5413L14.0253 21.5862C14.2461 21.7178 14.4844 21.8178 14.7331 21.883L14.7955 21.8994H14.8599H14.9813H15.3079H15.6159H15.8732L16.0228 21.69L16.0694 21.6247L16.0695 21.6247L16.0722 21.6208L16.1375 21.5274L16.1543 21.5035L16.1681 21.4778L16.3641 21.1138L16.3687 21.1053L16.3729 21.0967C16.4915 20.8548 16.5957 20.606 16.685 20.3518Z" fill="#35383F" stroke="#35383F"/>
</svg>
