<svg width="80" height="24" viewBox="0 0 80 24" fill="none" xmlns="http://www.w3.org/2000/svg">
<g clip-path="url(#clip0_2615_204381)">
<path fill-rule="evenodd" clip-rule="evenodd" d="M28.1513 5.68304L23.7033 8.68324C23.5887 8.76062 23.5199 8.88989 23.5199 9.02816V14.476C23.5199 14.7056 23.7062 14.892 23.9359 14.892C24.0188 14.892 24.0998 14.8672 24.1686 14.8208L28.6166 11.8206C28.7312 11.7432 28.8 11.614 28.8 11.4757V6.02797C28.8 5.79815 28.6137 5.61197 28.384 5.61197C28.3011 5.61197 28.2201 5.6367 28.1513 5.68303L28.1513 5.68304ZM15.1999 4.38749V23.584C15.1999 23.8138 15.3861 24 15.6159 24C15.6988 24 15.7798 23.9753 15.8485 23.9289L21.7365 19.9574C21.8512 19.8801 21.9199 19.7508 21.9199 19.6125V0.416005C21.9199 0.18624 21.7337 0 21.5039 0C21.421 0 21.34 0.0247655 21.2713 0.071171L15.3833 4.04263C15.2687 4.11998 15.1999 4.24919 15.1999 4.3875V4.38749ZM6.87989 4.38749V23.584C6.87989 23.8138 7.06613 24 7.29589 24C7.3788 24 7.45979 23.9753 7.52853 23.9289L13.4165 19.9574C13.5312 19.8801 13.5999 19.7508 13.5999 19.6125V0.416005C13.5999 0.18624 13.4137 0 13.1839 0C13.101 0 13.0199 0.0247655 12.9513 0.071171L7.06328 4.04263C6.94865 4.11998 6.87989 4.24919 6.87989 4.3875V4.38749ZM4.63127 5.68304L0.183237 8.68324C0.068644 8.76062 -0.00012207 8.88989 -0.00012207 9.02816V14.476C-0.00012207 14.7056 0.186119 14.892 0.415884 14.892C0.498792 14.892 0.579784 14.8672 0.64852 14.8208L5.09652 11.8206C5.21115 11.7432 5.27988 11.614 5.27988 11.4757V6.02797C5.27988 5.79815 5.09364 5.61197 4.86388 5.61197C4.781 5.61197 4.70001 5.6367 4.63127 5.68303V5.68304ZM45.1483 17.1365L46.1609 16.1239V14.0693H44.121V15.0819H38.9992V8.91816H44.121V9.94546H46.1609V7.90556L45.1483 6.86357H37.9573L36.9447 7.90556V16.1239L37.9573 17.1365H45.1483V17.1365ZM48.4396 6.86355V17.1365H57.1568V15.0819H50.4941V6.86355H48.4396ZM59.142 6.86355V16.1239L60.1546 17.1365H67.3456L68.3582 16.1239V6.86355H66.3183V15.0819H61.1966V6.86355H59.142H59.142ZM72.8382 15.0819V13.042H77.96V15.0819H72.8382ZM72.8382 10.9874V8.91815H77.96V10.9874H72.8382ZM78.9873 17.1365L79.9999 16.1239V13.042L78.9873 12.0147L79.9999 10.9874V7.90553L78.9873 6.86354H70.7836V17.1365H78.9873V17.1365Z" fill="white"/>
</g>
<defs>
<clipPath id="clip0_2615_204381">
<rect width="80.0001" height="24" fill="white"/>
</clipPath>
</defs>
</svg>
