<svg width="70" height="11" viewBox="0 0 70 11" fill="none" xmlns="http://www.w3.org/2000/svg">
<g clip-path="url(#clip0_1267_6050)">
<path fill-rule="evenodd" clip-rule="evenodd" d="M20.5827 0H12.9812L11.9121 1.06272V9.46141L12.9812 10.4981H20.5827L21.6552 9.46141V1.06462L20.5827 0ZM19.497 8.39822H14.084V2.10132H19.497V8.39822Z" fill="white"/>
<path d="M8.67202 10.4981H1.07054L0 9.46328V1.06462L1.07054 0H8.67202L9.74207 1.06462V3.14939H7.58579V2.09943H2.17192V8.3982H7.58579V7.36339H9.74207V9.46328L8.67202 10.4981Z" fill="white"/>
<path fill-rule="evenodd" clip-rule="evenodd" d="M29.242 0H35.7407L36.8267 1.06462V9.4633L35.7407 10.5H29.242L28.1563 9.4633V6.31389H25.9981V10.4995H23.8262V0H25.9981V4.21211H28.1563V1.06272L29.242 0ZM30.3282 8.39821H34.6716V2.10132H30.3282V8.39821Z" fill="white"/>
<path d="M47.6697 10.4981H40.068L38.998 9.46328V7.36339H41.1694V8.3982H46.5839V6.31391H43.3261V4.21398H46.5839V2.09943H41.1694V3.14939H38.998V1.06462L40.068 0H47.6697L48.7403 1.06462V4.21398L47.6697 5.26395L48.7403 6.31391V9.46328L47.6697 10.4981Z" fill="white"/>
<path d="M54.3906 5.25755H57.653V3.35156H54.3906V5.25755Z" fill="white"/>
<path d="M63.2675 6.20679H61.3145V3.35156H63.2675V6.20679Z" fill="white"/>
<path d="M66.54 6.20679H64.5762V3.35156H66.54V6.20679Z" fill="white"/>
<path fill-rule="evenodd" clip-rule="evenodd" d="M68.9266 0H51.981L50.9121 1.06272V9.46141L51.981 10.4995H68.9277L69.9997 9.46281V1.06462L68.9266 0ZM54.3904 7.14889H53.0814V8.41449H54.3904V7.14889ZM53.0814 2.087H58.3083L58.9544 2.72974V5.89379L58.3083 6.52659H53.0814V2.087ZM67.1864 2.087H60.6491L60.0044 2.72738V6.85058L60.6491 7.47344H63.2668V8.41463H64.5761V7.4725H67.1864L67.8406 6.84964V2.72738L67.1864 2.087Z" fill="white"/>
</g>
<defs>
<clipPath id="clip0_1267_6050">
<rect width="70" height="10.5" fill="white"/>
</clipPath>
</defs>
</svg>
