<svg width="60" height="58" viewBox="0 0 60 58" fill="none" xmlns="http://www.w3.org/2000/svg">
<g clip-path="url(#clip0_6038_79160)">
<path fill-rule="evenodd" clip-rule="evenodd" d="M32.7187 50.0117C32.6648 50.0117 32.611 50.0388 32.5571 50.0388L32.7187 50.0117Z" fill="#1C5C94"/>
<path d="M27.8943 1.58024L26.7729 1.73022L28.0672 11.7062L29.1886 11.5562L27.8943 1.58024Z" fill="#1C5C94"/>
<path d="M21.8682 3.06072L20.8232 3.5L24.6139 12.7967L25.6589 12.3575L21.8682 3.06072Z" fill="#1C5C94"/>
<path d="M41.2747 33.1397L40.6189 34.0073L48.1602 39.8837L48.816 39.016L41.2747 33.1397Z" fill="#1C5C94"/>
<path d="M42.8794 30.0362L42.467 31.0466L51.2489 34.7415L51.6613 33.7311L42.8794 30.0362Z" fill="#1C5C94"/>
<path d="M43.6499 26.6086L43.5337 27.696L52.9848 28.7375L53.1011 27.6501L43.6499 26.6086Z" fill="#1C5C94"/>
<path d="M24.2717 0.00503071L23.1792 0.302246L26.3015 12.1345L27.394 11.8373L24.2717 0.00503071Z" fill="#1C5C94"/>
<path d="M43.3706 28.3516L43.092 29.4082L54.2782 32.4488L54.5568 31.3922L43.3706 28.3516Z" fill="#1C5C94"/>
<path d="M42.1792 31.6412L41.6406 32.5884L47.5876 36.0747L48.1262 35.1275L42.1792 31.6412Z" fill="#1C5C94"/>
<path d="M50.4762 24.5416L43.6118 24.7302L43.6409 25.8235L50.5053 25.635L50.4762 24.5416Z" fill="#1C5C94"/>
<path fill-rule="evenodd" clip-rule="evenodd" d="M25.8532 38.0625L25.7993 38.1992C26.0148 38.2812 26.2302 38.3359 26.4456 38.418L26.4726 38.3086L25.8532 38.0625Z" fill="#1C5C94"/>
<path fill-rule="evenodd" clip-rule="evenodd" d="M27.4971 38.6641C27.524 38.6911 27.5779 38.6911 27.6048 38.7182L27.5509 38.6911L27.4971 38.6641Z" fill="#1C5C94"/>
<path fill-rule="evenodd" clip-rule="evenodd" d="M24.7212 37.6523L24.2095 37.4609L24.1826 37.4883C24.3981 37.5977 24.5866 37.707 24.802 37.7891L24.8559 37.6797L24.7212 37.6523Z" fill="#1C5C94"/>
<path fill-rule="evenodd" clip-rule="evenodd" d="M25.6905 38.0078L25.7713 38.0352L25.8521 38.0625L25.8791 38.0352L24.8826 37.625L24.8557 37.6797L24.8826 37.707L25.6905 38.0078Z" fill="#1C5C94"/>
<path fill-rule="evenodd" clip-rule="evenodd" d="M25.7711 38.0352L25.6903 38.0078L24.8824 37.707L24.8285 37.6797L24.7747 37.7891C25.0978 37.9258 25.421 38.0898 25.7711 38.1992L25.8249 38.0625L25.7711 38.0352Z" fill="#1C5C94"/>
<path fill-rule="evenodd" clip-rule="evenodd" d="M26.7146 38.3906L26.58 38.3359L26.4722 38.2812L26.4453 38.3906C26.7954 38.5 27.1455 38.582 27.4956 38.6641V38.6367L26.7146 38.3906Z" fill="#1C5C94"/>
<path fill-rule="evenodd" clip-rule="evenodd" d="M23.9153 37.3516C23.9961 37.4062 24.1038 37.4609 24.1846 37.4883L24.2115 37.4609L23.9153 37.3516Z" fill="#1C5C94"/>
<path d="M16.4445 6.06548L15.5471 6.76465L21.5805 14.7482L22.4779 14.0491L16.4445 6.06548Z" fill="#1C5C94"/>
<path fill-rule="evenodd" clip-rule="evenodd" d="M11.9294 10.418L11.2561 11.3203L14.2992 13.6992C14.8109 13.5625 15.2956 13.4805 15.7803 13.4258L11.9294 10.418Z" fill="#1C5C94"/>
<path fill-rule="evenodd" clip-rule="evenodd" d="M11.3094 16.8711L8.72409 15.7773L8.29321 16.8164L11.3363 18.1016C11.2555 17.6914 11.2555 17.2812 11.3094 16.8711Z" fill="#1C5C94"/>
<path fill-rule="evenodd" clip-rule="evenodd" d="M12.5236 6.53516L11.7427 7.32812L17.7481 13.4258C18.4752 13.5078 19.1754 13.6992 19.8486 13.9453L12.5236 6.53516Z" fill="#1C5C94"/>
<path fill-rule="evenodd" clip-rule="evenodd" d="M12.8448 14.3555L5.35825 9.95312L4.79272 10.9375L12.01 15.1758C12.2523 14.8477 12.5216 14.5742 12.8448 14.3555Z" fill="#1C5C94"/>
<path fill-rule="evenodd" clip-rule="evenodd" d="M12.0388 19.9336L5.54867 18.1562L5.25244 19.25L13.3314 21.4375C12.7928 20.9727 12.362 20.4531 12.0388 19.9336Z" fill="#1C5C94"/>
<path d="M20.4356 6.81323L19.4561 7.38745L23.0377 13.6862L24.0172 13.112L20.4356 6.81323Z" fill="#1C5C94"/>
<path fill-rule="evenodd" clip-rule="evenodd" d="M20.5464 35.7109L20.4387 35.793L20.708 36.0391L21.1658 35.6016L20.5464 35.7109Z" fill="#1C5C94"/>
<path fill-rule="evenodd" clip-rule="evenodd" d="M11.4179 18.1562L11.3372 18.1289C11.4449 18.7305 11.6603 19.332 12.0643 19.9609L12.1989 19.9883C11.768 19.3594 11.5257 18.7578 11.4179 18.1562Z" fill="#1C5C94"/>
<path fill-rule="evenodd" clip-rule="evenodd" d="M16.0757 13.3981C16.1834 13.3981 16.2911 13.3981 16.3988 13.3711C16.3181 13.3711 16.1834 13.3711 16.0757 13.3981Z" fill="#1C5C94"/>
<path fill-rule="evenodd" clip-rule="evenodd" d="M21.3005 35.4375L21.1389 35.6016L21.4082 35.5469C21.3005 35.4102 21.4621 35.5742 21.3005 35.4375Z" fill="#1C5C94"/>
<path fill-rule="evenodd" clip-rule="evenodd" d="M14.1922 13.7266C14.2191 13.7266 14.273 13.6992 14.2999 13.6992H14.273C14.2191 13.7266 14.1653 13.7266 14.1114 13.7539C13.6267 13.8906 13.2227 14.1094 12.8457 14.3828L12.8726 14.4102C13.2766 14.082 13.7075 13.8633 14.1922 13.7266Z" fill="#1C5C94"/>
<path fill-rule="evenodd" clip-rule="evenodd" d="M12.0641 15.2031L12.0102 15.1758C11.6332 15.668 11.3908 16.2422 11.3101 16.8711L11.3908 16.8984C11.4716 16.2695 11.714 15.6953 12.0641 15.2031Z" fill="#1C5C94"/>
<path fill-rule="evenodd" clip-rule="evenodd" d="M15.781 13.4258C15.2963 13.4531 14.7846 13.5625 14.2729 13.6992H14.2999C14.8115 13.5625 15.2963 13.4531 15.781 13.4258Z" fill="#1C5C94"/>
<path fill-rule="evenodd" clip-rule="evenodd" d="M11.3923 16.8984L11.3115 16.8711C11.2576 17.2813 11.2576 17.6914 11.3384 18.1016L11.4192 18.1289C11.3384 17.7188 11.3384 17.3086 11.3923 16.8984Z" fill="#1C5C94"/>
<path fill-rule="evenodd" clip-rule="evenodd" d="M12.8991 14.3555L12.8722 14.3281C12.549 14.5742 12.2528 14.8477 12.0374 15.1484L12.0912 15.1758C12.3067 14.875 12.576 14.6016 12.8991 14.3555Z" fill="#1C5C94"/>
<path fill-rule="evenodd" clip-rule="evenodd" d="M12.172 19.9883L12.0374 19.9609C12.3605 20.4805 12.7914 21 13.33 21.4922L13.5185 21.5469C12.953 21.0273 12.4952 20.5078 12.172 19.9883Z" fill="#1C5C94"/>
<path fill-rule="evenodd" clip-rule="evenodd" d="M17.7185 13.4524C17.4223 13.4253 17.1261 13.3983 16.8298 13.3983C17.1261 13.3713 17.4223 13.3983 17.7185 13.4524Z" fill="#1C5C94"/>
<path fill-rule="evenodd" clip-rule="evenodd" d="M19.8467 14C19.1465 13.7266 18.4463 13.5352 17.7192 13.4531C18.4463 13.5352 19.1735 13.7266 19.8467 14Z" fill="#1C5C94"/>
<path fill-rule="evenodd" clip-rule="evenodd" d="M38.6184 42.6564L20.7369 36.0119L26.9577 34.1252C27.0116 34.0978 27.0116 34.0158 27.0385 33.9611C27.631 32.8673 28.4658 31.172 28.8697 30.0236C29.3814 28.6291 29.6776 28.0548 28.8697 26.6056C28.6274 26.1955 27.7925 24.9923 27.3078 24.6916C27.4694 23.6798 28.4389 23.9259 29.0852 24.2814C29.92 24.883 30.7279 25.84 30.8087 26.8791C30.9164 28.1916 30.297 31.6369 29.5968 32.8947C29.166 33.6877 29.1121 33.8244 28.3042 33.715C28.2234 33.715 27.9541 33.715 27.9541 33.797C27.9541 33.9064 28.0618 33.9884 28.1426 34.0431C29.0852 34.8088 32.1821 35.2736 31.0241 33.1955C30.9972 33.1408 30.8626 33.0588 30.9164 33.0314C32.0744 32.6486 33.2593 32.3478 34.4173 32.047L46.3204 41.5353C46.5627 41.7267 47.5053 42.3283 47.4245 42.8752C47.1283 45.6095 39.3724 42.9025 38.6184 42.6564ZM46.9667 41.0158L34.8482 31.172L30.8356 31.883C31.2396 30.3517 31.6974 28.8205 32.0205 27.2619C32.1552 26.6056 31.9936 26.0588 31.7243 25.4845C31.1049 24.172 30.0547 23.4884 28.8159 22.8048C26.7423 21.6564 25.4227 25.2658 27.0385 26.3869C28.9236 27.6994 28.1157 29.1759 27.4963 30.9259C27.3617 31.3908 26.8769 33.2228 26.473 33.3322C23.8877 34.0705 22.3527 34.4533 19.7674 35.1095L18.771 38.1173L41.4999 44.6525C43.0888 45.008 45.6202 45.2267 47.236 44.6525C50.2252 43.5041 47.7746 41.6447 46.9667 41.0158Z" fill="#1C5C94"/>
<path fill-rule="evenodd" clip-rule="evenodd" d="M24.1574 21.6016L24.1305 21.6562L24.1035 21.6836L24.0766 21.7109L24.0497 21.7383C24.0497 21.7656 24.0228 21.793 24.0228 21.8203C23.9689 21.9297 23.915 22.0664 23.8881 22.2031L23.6457 21.2187C23.1341 20.6172 21.1951 18.9766 19.4716 17.9648C18.2597 17.2539 17.1825 16.8711 16.7786 17.3633C16.2938 18.9492 14.1933 17.7188 14.328 16.4883C14.3549 16.1602 14.5434 15.832 14.9743 15.5586C15.082 15.5039 15.1897 15.4219 15.2974 15.3672C15.5667 15.2305 15.836 15.1484 16.1323 15.0938C16.8055 14.957 17.4788 15.0117 18.2059 15.2578C18.9599 15.5039 19.714 15.9961 20.5219 16.6523C21.5721 17.5273 22.8648 18.5937 23.9958 20.125C24.6691 19.5508 25.1807 19.4141 26.0425 20.0977C25.2346 20.1797 24.5075 20.8633 24.1574 21.5195V21.6016ZM24.3728 25.1289C24.2382 24.3906 24.2113 23.8164 24.2651 23.3242C24.9653 21.6836 25.8809 20.3984 27.9815 21.2734C29.1125 21.7383 29.2202 22.2578 29.328 22.3672L30.1628 22.9688L29.7588 21.9023C29.4357 21.2734 28.4931 20.3164 27.7929 20.125C27.7391 20.125 27.6852 20.0977 27.6044 20.0977L26.5811 19.1953C24.7229 17.0625 22.4339 14.9844 19.8217 14L19.8486 14.0273C19.1754 13.7539 18.4482 13.5898 17.7211 13.4805C17.4249 13.4531 17.1287 13.4258 16.8324 13.3984C16.8055 13.3984 16.7786 13.3984 16.7517 13.3984C16.6439 13.3984 16.5362 13.3984 16.4016 13.3984C16.2938 13.3984 16.1861 13.3984 16.0784 13.4258C16.0515 13.4258 16.0515 13.4258 16.0245 13.4258C15.9438 13.4258 15.863 13.4531 15.7822 13.4531C15.2974 13.5078 14.8127 13.5898 14.301 13.7266C14.2741 13.7266 14.2202 13.7539 14.1933 13.7539C13.7086 13.8906 13.2777 14.1094 12.8737 14.3828C12.5506 14.6289 12.2813 14.9023 12.0389 15.2031C11.6888 15.6953 11.4465 16.2695 11.3657 16.8984C11.3118 17.3086 11.3118 17.7188 11.3926 18.1563C11.5003 18.7578 11.7427 19.3594 12.1466 19.9883C12.4698 20.5078 12.9276 21.0273 13.4931 21.5469C14.4087 22.3398 15.6206 23.1055 17.1825 23.7891C17.4249 23.8984 17.6673 23.9805 17.9366 24.0898C22.0838 25.6758 22.6493 25.7852 26.7427 27.043C25.7732 25.6211 25.7732 25.5391 24.3728 25.1289Z" fill="#1C5C94"/>
<path fill-rule="evenodd" clip-rule="evenodd" d="M51.3812 46.9766C51.3812 46.9766 52.3238 46.4297 52.8354 46.0195L52.1622 47.8242L51.1658 48.0977L51.3812 46.9766Z" fill="#1C5C94"/>
<path fill-rule="evenodd" clip-rule="evenodd" d="M20.7639 34.8359L20.5485 34.6719L20.2253 35L20.7639 34.8359Z" fill="#1C5C94"/>
<path fill-rule="evenodd" clip-rule="evenodd" d="M38.0246 11.7852C38.0246 10.0898 37.2975 9.24219 35.8433 9.24219H34.1736V14.3828H35.8433C37.2975 14.3828 38.0246 13.5625 38.0246 11.7852ZM39.4788 11.7852C39.4788 14.3555 38.1593 15.7773 35.8433 15.7773H34.1736V20.3164H32.7463V7.875H35.8164C38.1593 7.875 39.4788 9.29687 39.4788 11.7852Z" fill="#1C5C94"/>
<path fill-rule="evenodd" clip-rule="evenodd" d="M40.9885 16.7344V11.457C40.9885 8.99609 42.362 7.62891 44.4086 7.62891C46.5092 7.62891 47.8018 8.94141 47.9365 11.3477H46.5092C46.4015 9.73437 45.6743 8.99609 44.3817 8.99609C43.1968 8.99609 42.4158 9.78906 42.4158 11.457V16.7344C42.4158 18.375 43.2506 19.168 44.4356 19.168C45.7282 19.168 46.4553 18.4023 46.59 16.8437H48.0173C47.8826 19.2227 46.59 20.5352 44.4356 20.5352C42.3889 20.5352 40.9885 19.168 40.9885 16.7344Z" fill="#1C5C94"/>
<path fill-rule="evenodd" clip-rule="evenodd" d="M55.3152 16.4062V11.7578C55.3152 10.0352 54.5881 9.05078 53.1608 9.05078C51.7335 9.05078 50.9794 10.0352 50.9794 11.7578V16.4062C50.9794 18.1562 51.7065 19.1406 53.1608 19.1406C54.5611 19.1133 55.3152 18.1562 55.3152 16.4062ZM49.4983 16.4062V11.7578C49.4983 9.21484 50.8717 7.62891 53.1338 7.62891C55.4229 7.62891 56.7694 9.21484 56.7694 11.7578V16.4062C56.7694 18.9766 55.4229 20.5625 53.1338 20.5625C50.8717 20.5352 49.4983 18.9492 49.4983 16.4062Z" fill="#1C5C94"/>
<path fill-rule="evenodd" clip-rule="evenodd" d="M52.7299 49.9844L56.931 32.5391C57.4426 32.4844 58.2775 32.5664 58.4121 33.1133C57.3618 36.4219 53.08 49.957 52.7299 49.9844ZM33.7442 46.6484L33.2056 42.5469L34.4983 42.9297L35.4408 46.5117C34.8753 46.5117 34.3098 46.5391 33.7442 46.6484ZM29.9202 48.1797V41.5625L32.0746 42.2187L32.694 46.8945C31.7514 47.1406 30.8358 47.5508 29.9202 48.1797ZM37.3259 43.75L38.5647 46.7852C37.9184 46.6758 37.2451 46.5937 36.5988 46.5391L35.7371 43.2852L37.3259 43.75ZM1.69757 32.3477C1.83222 31.8008 2.66705 31.7187 3.17871 31.7734L7.37979 49.2188C7.00277 49.1641 2.72091 35.6289 1.69757 32.3477ZM59.8125 33.1953C59.3547 32.4023 58.2775 31.6367 58.2775 31.4727C57.9812 29.4492 58.7891 27.5352 59.5701 25.7305C60.0818 24.0352 58.7622 23.5977 57.8466 23.2148C55.9346 30.4609 52.703 43.2578 52.1374 47.3047C51.9489 47.3867 51.7604 47.4687 51.5719 47.5508C51.7873 47.1953 52.0028 46.8398 52.2451 46.4297C48.1249 49.2188 43.9238 47.8789 39.7766 47.0039L39.8573 47.0312L38.6724 44.1602L41.527 44.8164C43.6275 45.1719 45.5934 45.5273 47.2362 44.9531C49.7676 44.0508 48.5557 42.3828 47.5863 41.5625C49.7407 44.5156 42.7927 45.8555 38.6724 42.8203L38.0261 42.5742L37.9723 42.4102L36.5719 41.8906L36.6258 42.0547L35.2523 41.5352L35.2254 41.3984L33.9866 40.9336L34.0135 41.0703L32.9633 40.6875L32.9363 40.5508L31.8053 40.1406L31.8322 40.2773L29.9202 39.5664L29.1931 39.293L28.0082 48.3711L26.931 48.2344L28.1428 38.9102L27.6042 38.7188C27.5773 38.7188 27.5234 38.6914 27.4965 38.6914L24.5342 49.9023L23.4839 49.6289L26.4462 38.4453C26.2308 38.3906 26.0153 38.3086 25.7999 38.2266L22.2182 46.9766L21.2218 46.5664L24.7766 37.8164C24.5611 37.707 24.3726 37.625 24.1572 37.5156L20.8179 43.3672L19.8753 42.8203L23.1338 37.0781L23.08 37.0508H23.053L22.4337 36.832L16.9669 44.0781L16.1051 43.4219L21.3834 36.4492H21.3565L20.8986 36.2852L20.6563 36.0937L13.1967 43.668L12.4426 42.9023L20.4947 34.7266C20.3331 34.5625 20.1985 34.3711 20.0369 34.207L12.6581 39.9492L12.0117 39.0742L19.3906 33.3047C19.2559 33.1133 19.1213 32.9219 19.0135 32.7305L13.3044 36.0937L12.7658 35.1367L18.5557 31.7461C18.448 31.5273 18.3403 31.3359 18.2595 31.1172L9.64191 34.7539L9.23796 33.7422L17.8556 30.1055C17.7748 29.8867 17.7209 29.668 17.6401 29.4492L6.59882 32.457L6.32952 31.3906L17.3708 28.3828C17.317 28.1641 17.29 27.9453 17.2362 27.6992L7.94532 28.9297L7.81067 27.8359L17.1284 26.5781C17.1015 26.3594 17.1015 26.1133 17.1015 25.8945H10.3421V24.8008H17.1284C17.1554 24.4453 17.1823 24.0625 17.2362 23.707C15.6473 23.0234 14.4354 22.2578 13.5468 21.4648L13.3582 21.4102C13.5737 21.6016 13.8161 21.793 14.0584 21.9844H14.0315C13.8699 22.0117 13.7083 22.0117 13.5198 22.0117C11.0692 21.875 2.18231 20.4531 3.17871 23.4336C1.07818 25.0469 1.67064 27.5898 1.80529 30.2695L0.647297 31.1719C0.0279073 31.6641 -0.0259528 32.3203 0.0279072 33.0859C1.61678 35.793 7.16435 54.7148 8.45699 55.7539C10.0997 57.0664 23.5109 51.8438 26.931 52.3906C29.3816 54.7148 31.5898 54.7422 34.6329 52.4727C37.3259 52.8008 51.2218 56.7383 52.7029 55.4531C55.6652 49.2734 55.369 43.8594 59.7855 34.6992C60.0279 34.1797 60.1356 33.7148 59.8125 33.1953Z" fill="#1C5C94"/>
</g>
<defs>
<clipPath id="clip0_6038_79160">
<rect width="60" height="56" fill="white"/>
</clipPath>
</defs>
</svg>
