<svg width="129" height="58" viewBox="0 0 129 58" fill="none" xmlns="http://www.w3.org/2000/svg">
<g clip-path="url(#clip0_1267_5971)">
<path d="M69.2127 18.3789C70.3389 18.3789 71.0822 19.0405 71.0822 20.1456C71.0822 21.2507 70.3389 21.9424 69.2127 21.9424H68.0793V23.6414H67.0059V18.3789H69.2127ZM69.1677 20.9199C69.7232 20.9199 69.9937 20.6192 69.9937 20.1606C69.9937 19.6945 69.7232 19.4014 69.1677 19.4014H68.0793V20.9199H69.1677Z" fill="white"/>
<path d="M74.5589 18.2891C76.1048 18.2891 77.2986 19.4618 77.2986 21.0105C77.2986 22.5592 76.1048 23.732 74.5589 23.732C73.0123 23.732 71.8262 22.5592 71.8262 21.0105C71.8262 19.4618 73.0123 18.2891 74.5589 18.2891ZM74.5589 19.3115C73.6127 19.3115 72.9077 20.0257 72.9077 21.0105C72.9077 21.9954 73.6127 22.7096 74.5589 22.7096C75.5044 22.7096 76.2101 21.9954 76.2101 21.0105C76.2101 20.0257 75.5044 19.3115 74.5589 19.3115Z" fill="white"/>
<path d="M80.8072 23.732C79.2383 23.732 78.0898 22.5592 78.0898 21.0105C78.0898 19.4618 79.2383 18.2891 80.8072 18.2891C82.061 18.2891 83.0365 19.0634 83.344 20.1836H82.1955C81.948 19.6423 81.4452 19.3115 80.7995 19.3115C79.831 19.3115 79.1707 20.0257 79.1707 21.0105C79.1707 21.9954 79.831 22.7096 80.7995 22.7096C81.4452 22.7096 81.948 22.3788 82.1955 21.8375H83.344C83.0365 22.9576 82.061 23.732 80.8072 23.732Z" fill="white"/>
<path d="M86.7974 23.732C85.2285 23.732 84.0801 22.5592 84.0801 21.0105C84.0801 19.4618 85.2285 18.2891 86.7974 18.2891C88.0512 18.2891 89.0267 19.0634 89.3349 20.1836H88.1865C87.9382 19.6423 87.4355 19.3115 86.7898 19.3115C85.8219 19.3115 85.1609 20.0257 85.1609 21.0105C85.1609 21.9954 85.8219 22.7096 86.7898 22.7096C87.4355 22.7096 87.9382 22.3788 88.1865 21.8375H89.3349C89.0267 22.9576 88.0512 23.732 86.7974 23.732Z" fill="white"/>
<path d="M93.4933 18.3789H94.7247V23.6414H93.6515V21.4387L93.7485 19.9577L91.4592 23.6414H90.2285V18.3789H91.3017V20.5816L91.204 22.0627L93.4933 18.3789Z" fill="white"/>
<path d="M98.1118 17.8277C97.4514 17.8277 96.8511 17.3841 96.8511 16.6248V16.4219H97.699V16.5948C97.699 16.8504 97.8642 17.0158 98.1118 17.0158C98.3593 17.0158 98.5246 16.8504 98.5246 16.5948V16.4219H99.3655V16.6248C99.3655 17.3841 98.7652 17.8277 98.1118 17.8277ZM99.1326 18.3765H100.364V23.639H99.2902V21.4363L99.3878 19.9553L97.0986 23.639H95.8672V18.3765H96.941V20.5792L96.8434 22.0602L99.1326 18.3765Z" fill="white"/>
<path d="M104.065 23.732C102.496 23.732 101.348 22.5592 101.348 21.0105C101.348 19.4618 102.496 18.2891 104.065 18.2891C105.319 18.2891 106.294 19.0634 106.602 20.1836H105.454C105.206 19.6423 104.703 19.3115 104.057 19.3115C103.09 19.3115 102.428 20.0257 102.428 21.0105C102.428 21.9954 103.09 22.7096 104.057 22.7096C104.703 22.7096 105.206 22.3788 105.454 21.8375H106.602C106.294 22.9576 105.319 23.732 104.065 23.732Z" fill="white"/>
<path d="M111.926 23.6414H110.582L108.608 21.1831V23.6414H107.535V18.3789H108.608V20.7095L110.477 18.3789H111.806L109.741 20.9275L111.926 23.6414Z" fill="white"/>
<path d="M116.012 18.3789H117.243V23.6414H116.169V21.4387L116.267 19.9577L113.978 23.6414H112.746V18.3789H113.82V20.5816L113.722 22.0627L116.012 18.3789Z" fill="white"/>
<path d="M121.952 19.4014H119.497V20.4614H121.749V21.4838H119.497V22.619H121.952V23.6414H118.424V18.3789H121.952V19.4014Z" fill="white"/>
<path d="M69.5278 31.7398C67.9591 31.7398 66.8105 30.567 66.8105 29.0183C66.8105 27.4697 67.9591 26.2969 69.5278 26.2969C70.7815 26.2969 71.757 27.0712 72.0652 28.1914H70.9168C70.6686 27.6501 70.1658 27.3193 69.5204 27.3193C68.552 27.3193 67.8915 28.0335 67.8915 29.0183C67.8915 30.0031 68.552 30.7173 69.5204 30.7173C70.1658 30.7173 70.6686 30.3866 70.9168 29.8453H72.0652C71.757 30.9655 70.7815 31.7398 69.5278 31.7398Z" fill="white"/>
<path d="M76.7054 26.3867V27.4091H75.1895V31.6492H74.1164V27.4091H72.6074V26.3867H76.7054Z" fill="white"/>
<path d="M82.1972 26.3867L79.4722 31.6492H78.2715L79.217 29.8299L77.4082 26.3867H78.6089L79.8174 28.6646L80.9958 26.3867H82.1972Z" fill="white"/>
<path d="M86.8234 30.6267H87.5744V32.6942H86.5006V31.6492H82.943V32.6942H81.8691V30.6267H82.6125C82.7324 30.5065 82.8077 30.296 82.8677 29.9276L83.4304 26.3867H86.8234V30.6267ZM83.9185 30.0328C83.8808 30.2734 83.8285 30.4689 83.7762 30.6267H85.7503V27.4091H84.339L83.9185 30.0328Z" fill="white"/>
<path d="M91.9619 27.4091H89.5074V28.4691H91.759V29.4915H89.5074V30.6267H91.9619V31.6492H88.4336V26.3867H91.9619V27.4091Z" fill="white"/>
<path d="M96.3003 26.3867H97.3734V31.6492H96.3003V29.469H93.9657V31.6492H92.8926V26.3867H93.9657V28.4466H96.3003V26.3867Z" fill="white"/>
<path d="M101.351 26.3867H102.424V31.6492H101.351V29.7923C101.08 29.9126 100.72 30.0103 100.217 30.0103C99.1136 30.0103 98.3633 29.4615 98.3633 28.206V26.3867H99.4441V28.0707C99.4441 28.7623 99.8116 28.9878 100.442 28.9878C100.802 28.9878 101.141 28.9277 101.351 28.7924V26.3867Z" fill="white"/>
<path d="M107.162 27.4091H104.708V28.4691H106.96V29.4915H104.708V30.6267H107.162V31.6492H103.635V26.3867H107.162V27.4091Z" fill="white"/>
<path d="M110.616 31.7398C109.047 31.7398 107.898 30.567 107.898 29.0183C107.898 27.4697 109.047 26.2969 110.616 26.2969C111.87 26.2969 112.845 27.0712 113.153 28.1914H112.005C111.757 27.6501 111.254 27.3193 110.608 27.3193C109.64 27.3193 108.979 28.0335 108.979 29.0183C108.979 30.0031 109.64 30.7173 110.608 30.7173C111.254 30.7173 111.757 30.3866 112.005 29.8453H113.153C112.845 30.9655 111.87 31.7398 110.616 31.7398Z" fill="white"/>
<path d="M118.476 31.6492H117.132L115.158 29.1908V31.6492H114.084V26.3867H115.158V28.7172L117.027 26.3867H118.356L116.291 28.9352L118.476 31.6492Z" fill="white"/>
<path d="M122.562 26.3867H123.793V31.6492H122.72V29.4465L122.818 27.9654L120.528 31.6492H119.297V26.3867H120.371V28.5894L120.273 30.0704L122.562 26.3867Z" fill="white"/>
<path d="M128.5 27.4091H126.046V28.4691H128.298V29.4915H126.046V30.6267H128.5V31.6492H124.973V26.3867H128.5V27.4091Z" fill="white"/>
<path d="M69.5136 34.3008C71.0598 34.3008 72.2536 35.4736 72.2536 37.0222C72.2536 38.5709 71.0598 39.7437 69.5136 39.7437C67.9673 39.7437 66.7812 38.5709 66.7812 37.0222C66.7812 35.4736 67.9673 34.3008 69.5136 34.3008ZM69.5136 35.3232C68.5678 35.3232 67.8622 36.0374 67.8622 37.0222C67.8622 38.0071 68.5678 38.7213 69.5136 38.7213C70.4594 38.7213 71.1651 38.0071 71.1651 37.0222C71.1651 36.0374 70.4594 35.3232 69.5136 35.3232Z" fill="white"/>
<path d="M76.9249 34.3945V35.4169H75.4083V39.657H74.3351V35.4169H72.8262V34.3945H76.9249Z" fill="white"/>
<path d="M79.9843 34.3945C81.1104 34.3945 81.8537 35.0561 81.8537 36.1612C81.8537 37.2664 81.1104 37.958 79.9843 37.958H78.8512V39.657H77.7773V34.3945H79.9843ZM79.9397 36.9356C80.4947 36.9356 80.7653 36.6349 80.7653 36.1762C80.7653 35.7102 80.4947 35.4169 79.9397 35.4169H78.8512V36.9356H79.9397Z" fill="white"/>
<path d="M84.4476 34.3945H86.7076V39.657H85.6337V37.8453H84.9657L83.675 39.657H82.3613L83.7727 37.7399C83.074 37.5219 82.6542 36.9581 82.6542 36.1161C82.6542 35.0561 83.3145 34.3945 84.4476 34.3945ZM84.5606 36.8679H85.6337V35.4169H84.5606C84.0049 35.4169 83.735 35.7026 83.735 36.1462C83.735 36.5897 84.0049 36.8679 84.5606 36.8679Z" fill="white"/>
<path d="M92.4777 38.6346H93.2287V40.702H92.1549V39.657H88.5973V40.702H87.5234V38.6346H88.2668C88.3867 38.5143 88.462 38.3038 88.522 37.9355L89.0847 34.3945H92.4777V38.6346ZM89.5728 38.0407C89.5351 38.2812 89.4828 38.4768 89.4299 38.6346H91.4046V35.4169H89.9933L89.5728 38.0407Z" fill="white"/>
<path d="M96.3305 36.3717C97.479 36.3717 98.1093 36.9431 98.1093 38.0106C98.1093 39.0707 97.4337 39.657 96.3082 39.657H94.0859V34.3945H95.1598V36.3717H96.3305ZM98.7327 34.3945H99.8059V39.657H98.7327V34.3945ZM96.2706 38.6346C96.7733 38.6346 97.0285 38.4166 97.0285 37.9956C97.0285 37.5746 96.7956 37.3791 96.2929 37.3791H95.1598V38.6346H96.2706Z" fill="white"/>
<path d="M33.0989 33.172C32.9954 33.7996 32.5125 34.3158 31.7708 34.3158H29.4941L29.6839 32.2188H32.1534C32.5072 32.2187 32.7231 32.2187 32.9092 32.4094C33.0791 32.5835 33.1414 32.8927 33.0989 33.172Z" fill="#0804FF"/>
<path d="M40.5469 25.7389C40.9996 24.6494 41.118 23.5822 41.118 22.3072V20.9727H43.2119V25.7389H40.5469Z" fill="#0804FF"/>
<path d="M24.1749 23.0698H21.8906V20.9727H24.1749C24.9253 20.9727 25.3171 21.489 25.3171 22.1165C25.3171 22.71 24.9019 23.0698 24.1749 23.0698Z" fill="#0804FF"/>
<path fill-rule="evenodd" clip-rule="evenodd" d="M58.5279 53.2077C51.2731 61.97 33.039 58.2876 17.6406 44.8134C2.2424 31.3392 -4.29623 13.5124 2.95848 4.75C10.2132 -4.01236 28.4474 -0.329977 43.8456 13.1443C59.2439 26.6184 65.7825 44.4453 58.5279 53.2077ZM46.4479 29.5508L46.0672 32.2199H49.3032L48.1611 39.6552H50.8261L51.9683 32.2199H55.2044L55.5851 29.5508H46.4479ZM40.7371 34.317L43.0214 29.5508H46.0672L40.9274 39.6552H37.8817L39.2142 36.9861H37.8817L36.3588 29.5508H39.2142L40.166 34.317H40.7371ZM32.3395 29.5508H27.4067L25.889 39.6552H28.5451L29.1143 36.9861H31.3909C32.3792 36.9861 33.4008 36.6851 34.2367 36.0329C35.1225 35.3409 35.7854 34.3577 35.9442 33.3638C36.104 32.2894 35.6828 31.2083 34.9956 30.504C34.3472 29.8395 33.4128 29.5508 32.3395 29.5508ZM22.6528 29.5508H26.4601L20.9396 34.6983L25.1275 39.6552H21.3204L18.0842 35.8423H17.8938L17.3227 39.6552H14.4674L15.9902 29.5508H18.8456L18.2746 33.3638H18.4649L22.6528 29.5508ZM36.3588 28.4069H47.019V25.7377H45.8768V18.3024H38.4527V22.1154C38.4527 23.4567 38.0433 24.7165 37.5009 25.7377H36.3588V28.4069ZM31.0287 28.4069L31.9805 25.7377H30.4576L27.7926 18.3024H30.648L32.3612 23.0687H32.9323L34.6456 18.3024H37.5009L33.8841 28.4069H31.0287ZM21.8914 25.7377H24.1757C26.1265 25.7377 28.1733 24.3417 28.1733 22.1154C28.1733 19.8891 26.4783 18.3024 24.1757 18.3024H19.036V28.4069H21.8914V25.7377ZM14.8481 20.9715V28.4069H12.183V20.9715H8.94695V18.3024H18.0842V20.9715H14.8481Z" fill="#0804FF"/>
<path d="M46.4471 29.5508L46.0664 32.2199H49.3025L48.1604 39.6552H50.8254L51.9676 32.2199H55.2036L55.5844 29.5508H46.4471Z" fill="white"/>
<path d="M43.022 29.5508L40.7377 34.3171H40.1666L39.2148 29.5508H36.3594L37.8823 36.9861H39.2148L37.8823 39.6552H40.9281L46.0678 29.5508H43.022Z" fill="white"/>
<path d="M32.3392 29.5508H27.4065L25.8887 39.6552H28.5447L29.1139 36.9861H31.3906C32.3789 36.9861 33.4005 36.6851 34.2364 36.0329C35.1222 35.3409 35.7851 34.3577 35.9439 33.3638C36.1037 32.2894 35.6825 31.2083 34.9953 30.504C34.3469 29.8395 33.4125 29.5508 32.3392 29.5508ZM33.0981 33.1731C32.9947 33.8007 32.5117 34.3171 31.77 34.3171H29.4934L29.6831 32.2199H32.1495C32.5051 32.2199 32.7218 32.2193 32.9084 32.4105C33.0784 32.5847 33.1406 32.8939 33.0981 33.1731Z" fill="white"/>
<path d="M26.4595 29.5508H22.6523L18.4643 33.3638H18.274L18.8451 29.5508H15.9897L14.4668 39.6552H17.3222L17.8932 35.8422H18.0836L21.3198 39.6552H25.1269L20.939 34.6983L26.4595 29.5508Z" fill="white"/>
<path d="M36.3594 28.4052H47.0196V25.7361H45.8774V18.3008H38.4534V22.1138C38.4534 23.455 38.0439 24.7148 37.5015 25.7361H36.3594V28.4052ZM40.5473 25.7361C41 24.6467 41.1184 23.5794 41.1184 22.3045V20.9699H43.2123V25.7361H40.5473Z" fill="white"/>
<path d="M31.9809 25.7361L31.0291 28.4052H33.8845L37.5013 18.3008H34.6459L32.9327 23.0671H32.3616L30.6483 18.3008H27.793L30.458 25.7361H31.9809Z" fill="white"/>
<path d="M21.8906 25.7361H24.1749C26.1257 25.7361 28.1725 24.34 28.1725 22.1138C28.1725 19.8875 26.4775 18.3008 24.1749 18.3008H19.0352V28.4052H21.8906V25.7361ZM24.1749 23.0671H21.8906V20.9699H24.1749C24.9252 20.9699 25.317 21.4862 25.317 22.1138C25.317 22.7072 24.9019 23.0671 24.1749 23.0671Z" fill="white"/>
<path d="M14.8484 28.4052V20.9699H18.0845V18.3008H8.94727V20.9699H12.1834V28.4052H14.8484Z" fill="white"/>
</g>
<defs>
<clipPath id="clip0_1267_5971">
<rect width="129" height="58" fill="white"/>
</clipPath>
</defs>
</svg>
