<svg width="129" height="58" viewBox="0 0 129 58" fill="none" xmlns="http://www.w3.org/2000/svg">
<g clip-path="url(#clip0_325_10880)">
<path d="M69.2132 18.3781C70.3394 18.3781 71.0827 19.0397 71.0827 20.1448C71.0827 21.2499 70.3394 21.9416 69.2132 21.9416H68.0798V23.6406H67.0063V18.3781H69.2132ZM69.1682 20.9191C69.7236 20.9191 69.9942 20.6184 69.9942 20.1598C69.9942 19.6937 69.7236 19.4006 69.1682 19.4006H68.0798V20.9191H69.1682Z" fill="black"/>
<path d="M74.5584 18.2879C76.1043 18.2879 77.2981 19.4607 77.2981 21.0093C77.2981 22.558 76.1043 23.7308 74.5584 23.7308C73.0118 23.7308 71.8257 22.558 71.8257 21.0093C71.8257 19.4607 73.0118 18.2879 74.5584 18.2879ZM74.5584 19.3104C73.6122 19.3104 72.9072 20.0245 72.9072 21.0093C72.9072 21.9942 73.6122 22.7084 74.5584 22.7084C75.5039 22.7084 76.2096 21.9942 76.2096 21.0093C76.2096 20.0245 75.5039 19.3104 74.5584 19.3104Z" fill="black"/>
<path d="M80.8062 23.7308C79.2373 23.7308 78.0889 22.558 78.0889 21.0093C78.0889 19.4607 79.2373 18.2879 80.8062 18.2879C82.06 18.2879 83.0355 19.0622 83.343 20.1824H82.1946C81.947 19.6411 81.4443 19.3104 80.7986 19.3104C79.83 19.3104 79.1697 20.0245 79.1697 21.0093C79.1697 21.9942 79.83 22.7084 80.7986 22.7084C81.4443 22.7084 81.947 22.3776 82.1946 21.8363H83.343C83.0355 22.9565 82.06 23.7308 80.8062 23.7308Z" fill="black"/>
<path d="M86.797 23.7308C85.228 23.7308 84.0796 22.558 84.0796 21.0093C84.0796 19.4607 85.228 18.2879 86.797 18.2879C88.0507 18.2879 89.0262 19.0622 89.3344 20.1824H88.186C87.9377 19.6411 87.435 19.3104 86.7893 19.3104C85.8214 19.3104 85.1604 20.0245 85.1604 21.0093C85.1604 21.9942 85.8214 22.7084 86.7893 22.7084C87.435 22.7084 87.9377 22.3776 88.186 21.8363H89.3344C89.0262 22.9565 88.0507 23.7308 86.797 23.7308Z" fill="black"/>
<path d="M93.4928 18.3781H94.7242V23.6406H93.6511V21.4379L93.748 19.9569L91.4588 23.6406H90.228V18.3781H91.3012V20.5808L91.2035 22.0619L93.4928 18.3781Z" fill="black"/>
<path d="M98.1113 17.8293C97.451 17.8293 96.8506 17.3857 96.8506 16.6264V16.4235H97.6985V16.5964C97.6985 16.852 97.8638 17.0174 98.1113 17.0174C98.3588 17.0174 98.5241 16.852 98.5241 16.5964V16.4235H99.365V16.6264C99.365 17.3857 98.7647 17.8293 98.1113 17.8293ZM99.1321 18.3781H100.364V23.6406H99.2897V21.4379L99.3874 19.9569L97.0981 23.6406H95.8667V18.3781H96.9405V20.5809L96.8429 22.0619L99.1321 18.3781Z" fill="black"/>
<path d="M104.066 23.7308C102.497 23.7308 101.348 22.558 101.348 21.0093C101.348 19.4607 102.497 18.2879 104.066 18.2879C105.319 18.2879 106.295 19.0622 106.603 20.1824H105.455C105.206 19.6411 104.704 19.3104 104.058 19.3104C103.09 19.3104 102.429 20.0245 102.429 21.0093C102.429 21.9942 103.09 22.7084 104.058 22.7084C104.704 22.7084 105.206 22.3776 105.455 21.8363H106.603C106.295 22.9565 105.319 23.7308 104.066 23.7308Z" fill="black"/>
<path d="M111.925 23.6406H110.581L108.607 21.1823V23.6406H107.534V18.3781H108.607V20.7086L110.476 18.3781H111.805L109.74 20.9267L111.925 23.6406Z" fill="black"/>
<path d="M116.012 18.3781H117.243V23.6406H116.17V21.4379L116.267 19.9569L113.978 23.6406H112.747V18.3781H113.82V20.5808L113.723 22.0619L116.012 18.3781Z" fill="black"/>
<path d="M121.952 19.4006H119.496V20.4606H121.749V21.483H119.496V22.6182H121.952V23.6406H118.423V18.3781H121.952V19.4006Z" fill="black"/>
<path d="M69.5283 31.7382C67.9596 31.7382 66.811 30.5654 66.811 29.0167C66.811 27.468 67.9596 26.2952 69.5283 26.2952C70.782 26.2952 71.7575 27.0696 72.0657 28.1897H70.9173C70.669 27.6485 70.1663 27.3176 69.5209 27.3176C68.5525 27.3176 67.892 28.0318 67.892 29.0167C67.892 30.0015 68.5525 30.7157 69.5209 30.7157C70.1663 30.7157 70.669 30.3849 70.9173 29.8437H72.0657C71.7575 30.9638 70.782 31.7382 69.5283 31.7382Z" fill="black"/>
<path d="M76.7054 26.3855V27.4079H75.1895V31.6479H74.1164V27.4079H72.6074V26.3855H76.7054Z" fill="black"/>
<path d="M82.1972 26.3855L79.4722 31.6479H78.2715L79.217 29.8286L77.4082 26.3855H78.6089L79.8174 28.6633L80.9958 26.3855H82.1972Z" fill="black"/>
<path d="M86.8234 30.6255H87.5744V32.6929H86.5006V31.6479H82.943V32.6929H81.8691V30.6255H82.6125C82.7324 30.5052 82.8077 30.2947 82.8677 29.9263L83.4304 26.3855H86.8234V30.6255ZM83.9185 30.0316C83.8808 30.2722 83.8285 30.4676 83.7762 30.6255H85.7503V27.4079H84.339L83.9185 30.0316Z" fill="black"/>
<path d="M91.9609 27.4079H89.5065V28.4679H91.758V29.4903H89.5065V30.6255H91.9609V31.6479H88.4326V26.3855H91.9609V27.4079Z" fill="black"/>
<path d="M96.2998 26.3855H97.3729V31.6479H96.2998V29.4678H93.9652V31.6479H92.8921V26.3855H93.9652V28.4453H96.2998V26.3855Z" fill="black"/>
<path d="M101.351 26.3855H102.425V31.6479H101.351V29.791C101.081 29.9113 100.721 30.0091 100.218 30.0091C99.1145 30.0091 98.3643 29.4602 98.3643 28.2048V26.3855H99.4451V28.0694C99.4451 28.7611 99.8125 28.9866 100.443 28.9866C100.803 28.9866 101.142 28.9265 101.351 28.7911V26.3855Z" fill="black"/>
<path d="M107.162 27.4079H104.707V28.4679H106.96V29.4903H104.707V30.6255H107.162V31.6479H103.634V26.3855H107.162V27.4079Z" fill="black"/>
<path d="M110.615 31.7382C109.046 31.7382 107.897 30.5654 107.897 29.0167C107.897 27.468 109.046 26.2952 110.615 26.2952C111.869 26.2952 112.844 27.0696 113.152 28.1897H112.004C111.756 27.6485 111.253 27.3176 110.607 27.3176C109.639 27.3176 108.978 28.0318 108.978 29.0167C108.978 30.0015 109.639 30.7157 110.607 30.7157C111.253 30.7157 111.756 30.3849 112.004 29.8437H113.152C112.844 30.9638 111.869 31.7382 110.615 31.7382Z" fill="black"/>
<path d="M118.475 31.6479H117.131L115.157 29.1896V31.6479H114.083V26.3855H115.157V28.7159L117.026 26.3855H118.355L116.29 28.934L118.475 31.6479Z" fill="black"/>
<path d="M122.562 26.3855H123.793V31.6479H122.719V29.4452L122.817 27.9642L120.528 31.6479H119.296V26.3855H120.37V28.5881L120.273 30.0692L122.562 26.3855Z" fill="black"/>
<path d="M128.501 27.4079H126.046V28.4679H128.299V29.4903H126.046V30.6255H128.501V31.6479H124.973V26.3855H128.501V27.4079Z" fill="black"/>
<path d="M69.5131 34.3025C71.0593 34.3025 72.2531 35.4753 72.2531 37.024C72.2531 38.5726 71.0593 39.7454 69.5131 39.7454C67.9668 39.7454 66.7808 38.5726 66.7808 37.024C66.7808 35.4753 67.9668 34.3025 69.5131 34.3025ZM69.5131 35.3249C68.5673 35.3249 67.8617 36.0392 67.8617 37.024C67.8617 38.0088 68.5673 38.723 69.5131 38.723C70.4589 38.723 71.1646 38.0088 71.1646 37.024C71.1646 36.0392 70.4589 35.3249 69.5131 35.3249Z" fill="black"/>
<path d="M76.9259 34.3927V35.4151H75.4092V39.6552H74.3361V35.4151H72.8271V34.3927H76.9259Z" fill="black"/>
<path d="M79.9848 34.3927C81.1109 34.3927 81.8542 35.0543 81.8542 36.1594C81.8542 37.2646 81.1109 37.9562 79.9848 37.9562H78.8517V39.6552H77.7778V34.3927H79.9848ZM79.9401 36.9338C80.4952 36.9338 80.7658 36.6331 80.7658 36.1744C80.7658 35.7084 80.4952 35.4151 79.9401 35.4151H78.8517V36.9338H79.9401Z" fill="black"/>
<path d="M84.4467 34.3927H86.7066V39.6552H85.6328V37.8435H84.9648L83.6741 39.6552H82.3604L83.7717 37.7381C83.073 37.5201 82.6532 36.9563 82.6532 36.1143C82.6532 35.0543 83.3136 34.3927 84.4467 34.3927ZM84.5596 36.8661H85.6328V35.4151H84.5596C84.0039 35.4151 83.734 35.7008 83.734 36.1444C83.734 36.5879 84.0039 36.8661 84.5596 36.8661Z" fill="black"/>
<path d="M92.4768 38.6328H93.2278V40.7002H92.1539V39.6552H88.5963V40.7002H87.5225V38.6328H88.2658C88.3857 38.5125 88.461 38.302 88.521 37.9337L89.0837 34.3927H92.4768V38.6328ZM89.5718 38.0389C89.5342 38.2794 89.4819 38.475 89.4289 38.6328H91.4036V35.4151H89.9923L89.5718 38.0389Z" fill="black"/>
<path d="M96.331 36.3699C97.4795 36.3699 98.1098 36.9413 98.1098 38.0088C98.1098 39.0689 97.4342 39.6552 96.3087 39.6552H94.0864V34.3927H95.1603V36.3699H96.331ZM98.7332 34.3927H99.8064V39.6552H98.7332V34.3927ZM96.2711 38.6328C96.7738 38.6328 97.029 38.4148 97.029 37.9938C97.029 37.5728 96.7961 37.3773 96.2934 37.3773H95.1603V38.6328H96.2711Z" fill="black"/>
<path d="M33.0984 33.1731C32.9949 33.8007 32.512 34.317 31.7703 34.317H29.4937L29.6834 32.2199H32.1529C32.5067 32.2198 32.7226 32.2198 32.9087 32.4105C33.0786 32.5847 33.1409 32.8939 33.0984 33.1731Z" fill="#0804FF"/>
<path d="M40.5469 25.7377C40.9996 24.6483 41.118 23.5811 41.118 22.3061V20.9715H43.2119V25.7377H40.5469Z" fill="#0804FF"/>
<path d="M24.1759 23.0687H21.8916V20.9715H24.1759C24.9262 20.9715 25.3181 21.4879 25.3181 22.1154C25.3181 22.7089 24.9029 23.0687 24.1759 23.0687Z" fill="#0804FF"/>
<path fill-rule="evenodd" clip-rule="evenodd" d="M58.5279 53.2077C51.2731 61.97 33.039 58.2876 17.6406 44.8134C2.2424 31.3392 -4.29623 13.5124 2.95848 4.75C10.2132 -4.01236 28.4474 -0.329977 43.8456 13.1443C59.2439 26.6184 65.7825 44.4453 58.5279 53.2077ZM46.4479 29.5508L46.0672 32.2199H49.3032L48.1611 39.6552H50.8261L51.9683 32.2199H55.2044L55.5851 29.5508H46.4479ZM40.7371 34.317L43.0214 29.5508H46.0672L40.9274 39.6552H37.8817L39.2142 36.9861H37.8817L36.3588 29.5508H39.2142L40.166 34.317H40.7371ZM32.3395 29.5508H27.4067L25.889 39.6552H28.5451L29.1143 36.9861H31.3909C32.3792 36.9861 33.4008 36.6851 34.2367 36.0329C35.1225 35.3409 35.7854 34.3577 35.9442 33.3638C36.104 32.2894 35.6828 31.2083 34.9956 30.504C34.3472 29.8395 33.4128 29.5508 32.3395 29.5508ZM22.6528 29.5508H26.4601L20.9396 34.6983L25.1275 39.6552H21.3204L18.0842 35.8423H17.8938L17.3227 39.6552H14.4674L15.9902 29.5508H18.8456L18.2746 33.3638H18.4649L22.6528 29.5508ZM36.3588 28.4069H47.019V25.7377H45.8768V18.3024H38.4527V22.1154C38.4527 23.4567 38.0433 24.7165 37.5009 25.7377H36.3588V28.4069ZM31.0287 28.4069L31.9805 25.7377H30.4576L27.7926 18.3024H30.648L32.3612 23.0687H32.9323L34.6456 18.3024H37.5009L33.8841 28.4069H31.0287ZM21.8914 25.7377H24.1757C26.1265 25.7377 28.1733 24.3417 28.1733 22.1154C28.1733 19.8891 26.4783 18.3024 24.1757 18.3024H19.036V28.4069H21.8914V25.7377ZM14.8481 20.9715V28.4069H12.183V20.9715H8.94695V18.3024H18.0842V20.9715H14.8481Z" fill="#0804FF"/>
<path d="M46.4481 29.5508L46.0674 32.2199H49.3035L48.1614 39.6552H50.8264L51.9685 32.2199H55.2046L55.5854 29.5508H46.4481Z" fill="white"/>
<path d="M43.0215 29.5508L40.7372 34.3171H40.1661L39.2143 29.5508H36.3589L37.8818 36.9861H39.2143L37.8818 39.6552H40.9276L46.0673 29.5508H43.0215Z" fill="white"/>
<path d="M32.3397 29.5508H27.407L25.8892 39.6552H28.5452L29.1144 36.9861H31.3911C32.3794 36.9861 33.401 36.6851 34.2369 36.0329C35.1227 35.3409 35.7856 34.3577 35.9444 33.3638C36.1042 32.2894 35.683 31.2083 34.9958 30.504C34.3474 29.8395 33.413 29.5508 32.3397 29.5508ZM33.0986 33.1731C32.9952 33.8007 32.5122 34.3171 31.7705 34.3171H29.4939L29.6836 32.2199H32.15C32.5056 32.2199 32.7223 32.2194 32.9089 32.4105C33.0789 32.5847 33.1411 32.8939 33.0986 33.1731Z" fill="white"/>
<path d="M26.46 29.5508H22.6528L18.4648 33.3638H18.2745L18.8455 29.5508H15.9902L14.4673 39.6552H17.3226L17.8937 35.8423H18.0841L21.3203 39.6552H25.1274L20.9395 34.6983L26.46 29.5508Z" fill="white"/>
<path d="M36.3589 28.4069H47.0191V25.7377H45.8769V18.3024H38.4529V22.1154C38.4529 23.4567 38.0434 24.7165 37.5011 25.7377H36.3589V28.4069ZM40.5469 25.7377C40.9995 24.6483 41.1179 23.5811 41.1179 22.3061V20.9715H43.2119V25.7377H40.5469Z" fill="white"/>
<path d="M31.9804 25.7377L31.0286 28.4069H33.884L37.5008 18.3024H34.6454L32.9322 23.0687H32.3611L30.6478 18.3024H27.7925L30.4575 25.7377H31.9804Z" fill="white"/>
<path d="M21.8916 25.7377H24.1758C26.1267 25.7377 28.1734 24.3417 28.1734 22.1154C28.1734 19.8891 26.4785 18.3024 24.1758 18.3024H19.0361V28.4069H21.8916V25.7377ZM24.1758 23.0687H21.8916V20.9715H24.1758C24.9262 20.9715 25.318 21.4879 25.318 22.1154C25.318 22.7089 24.9028 23.0687 24.1758 23.0687Z" fill="white"/>
<path d="M14.8479 28.4069V20.9715H18.084V18.3024H8.94678V20.9715H12.1829V28.4069H14.8479Z" fill="white"/>
</g>
<defs>
<clipPath id="clip0_325_10880">
<rect width="129" height="58" fill="white"/>
</clipPath>
</defs>
</svg>
