<svg width="80" height="72" viewBox="0 0 80 72" fill="none" xmlns="http://www.w3.org/2000/svg">
<g clip-path="url(#clip0_2615_88642)">
<path fill-rule="evenodd" clip-rule="evenodd" d="M43.5343 64.3008C43.4643 64.3008 43.3942 64.3359 43.3242 64.3359L43.5343 64.3008Z" fill="white"/>
<path d="M37.2624 2.03177L35.8047 2.22461L37.4872 15.0508L38.945 14.858L37.2624 2.03177Z" fill="white"/>
<path d="M29.4288 3.93521L28.0703 4.5L32.9982 16.453L34.3567 15.8882L29.4288 3.93521Z" fill="white"/>
<path d="M54.6572 42.6081L53.8047 43.7236L63.6084 51.2789L64.461 50.1634L54.6572 42.6081Z" fill="white"/>
<path d="M56.7431 38.6179L56.207 39.917L67.6235 44.6676L68.1596 43.3685L56.7431 38.6179Z" fill="white"/>
<path d="M57.745 34.2113L57.5939 35.6094L69.8804 36.9484L70.0315 35.5503L57.745 34.2113Z" fill="white"/>
<path d="M32.553 0.00653778L31.1328 0.388672L35.1918 15.6016L36.6121 15.2195L32.553 0.00653778Z" fill="white"/>
<path d="M57.3817 36.4521L57.0195 37.8105L71.5616 41.7199L71.9237 40.3614L57.3817 36.4521Z" fill="white"/>
<path d="M55.833 40.6816L55.1328 41.8994L62.8638 46.3818L63.564 45.164L55.833 40.6816Z" fill="white"/>
<path d="M66.619 31.5534L57.6953 31.7959L57.7332 33.2016L66.6569 32.9591L66.619 31.5534Z" fill="white"/>
<path fill-rule="evenodd" clip-rule="evenodd" d="M34.6091 48.9375L34.5391 49.1133C34.8191 49.2188 35.0992 49.2891 35.3793 49.3945L35.4143 49.2539L34.6091 48.9375Z" fill="white"/>
<path fill-rule="evenodd" clip-rule="evenodd" d="M36.7461 49.7109C36.7811 49.7461 36.8511 49.7461 36.8861 49.7813L36.8161 49.7461L36.7461 49.7109Z" fill="white"/>
<path fill-rule="evenodd" clip-rule="evenodd" d="M33.1377 48.4102L32.4725 48.1641L32.4375 48.1992C32.7176 48.3398 32.9626 48.4805 33.2427 48.5859L33.3127 48.4453L33.1377 48.4102Z" fill="white"/>
<path fill-rule="evenodd" clip-rule="evenodd" d="M34.3978 48.8672L34.5028 48.9023L34.6078 48.9375L34.6428 48.9023L33.3475 48.375L33.3125 48.4453L33.3475 48.4805L34.3978 48.8672Z" fill="white"/>
<path fill-rule="evenodd" clip-rule="evenodd" d="M34.5024 48.9023L34.3973 48.8672L33.3471 48.4805L33.277 48.4453L33.207 48.5859C33.6271 48.7617 34.0472 48.9727 34.5024 49.1133L34.5724 48.9375L34.5024 48.9023Z" fill="white"/>
<path fill-rule="evenodd" clip-rule="evenodd" d="M35.7289 49.3594L35.5538 49.2891L35.4138 49.2188L35.3788 49.3594C35.8339 49.5 36.289 49.6055 36.7441 49.7109V49.6758L35.7289 49.3594Z" fill="white"/>
<path fill-rule="evenodd" clip-rule="evenodd" d="M32.0898 48.0234C32.1949 48.0938 32.3349 48.1641 32.4399 48.1992L32.4749 48.1641L32.0898 48.0234Z" fill="white"/>
<path d="M22.3778 7.79834L21.2112 8.69727L29.0545 18.9619L30.2211 18.0629L22.3778 7.79834Z" fill="white"/>
<path fill-rule="evenodd" clip-rule="evenodd" d="M16.508 13.3945L15.6328 14.5547L19.5888 17.6133C20.254 17.4375 20.8842 17.332 21.5143 17.2617L16.508 13.3945Z" fill="white"/>
<path fill-rule="evenodd" clip-rule="evenodd" d="M15.7023 21.6914L12.3414 20.2852L11.7812 21.6211L15.7373 23.2734C15.6322 22.7461 15.6322 22.2188 15.7023 21.6914Z" fill="white"/>
<path fill-rule="evenodd" clip-rule="evenodd" d="M17.2809 8.40234L16.2656 9.42187L24.0726 17.2617C25.0179 17.3672 25.9281 17.6133 26.8033 17.9297L17.2809 8.40234Z" fill="white"/>
<path fill-rule="evenodd" clip-rule="evenodd" d="M17.6982 18.457L7.96566 12.7969L7.23047 14.0625L16.6129 19.5117C16.928 19.0898 17.278 18.7383 17.6982 18.457Z" fill="white"/>
<path fill-rule="evenodd" clip-rule="evenodd" d="M16.6504 25.6289L8.21322 23.3438L7.82812 24.75L18.3308 27.5625C17.6306 26.9648 17.0705 26.2969 16.6504 25.6289Z" fill="white"/>
<path d="M27.5663 8.75976L26.293 9.49805L30.9492 17.5965L32.2225 16.8582L27.5663 8.75976Z" fill="white"/>
<path fill-rule="evenodd" clip-rule="evenodd" d="M27.7103 45.9141L27.5703 46.0195L27.9204 46.3359L28.5156 45.7734L27.7103 45.9141Z" fill="white"/>
<path fill-rule="evenodd" clip-rule="evenodd" d="M15.8433 23.3437L15.7383 23.3086C15.8783 24.082 16.1584 24.8555 16.6835 25.6641L16.8586 25.6992C16.2984 24.8906 15.9833 24.1172 15.8433 23.3437Z" fill="white"/>
<path fill-rule="evenodd" clip-rule="evenodd" d="M21.8984 17.2266C22.0385 17.2266 22.1785 17.2266 22.3185 17.1914C22.2135 17.1914 22.0385 17.1914 21.8984 17.2266Z" fill="white"/>
<path fill-rule="evenodd" clip-rule="evenodd" d="M28.6905 45.5625L28.4805 45.7734L28.8306 45.7031C28.6905 45.5273 28.9006 45.7383 28.6905 45.5625Z" fill="white"/>
<path fill-rule="evenodd" clip-rule="evenodd" d="M19.4497 17.6484C19.4847 17.6484 19.5548 17.6133 19.5898 17.6133H19.5548C19.4847 17.6484 19.4147 17.6484 19.3447 17.6836C18.7145 17.8594 18.1894 18.1406 17.6993 18.4922L17.7343 18.5273C18.2594 18.1055 18.8196 17.8242 19.4497 17.6484Z" fill="white"/>
<path fill-rule="evenodd" clip-rule="evenodd" d="M16.6834 19.5469L16.6134 19.5117C16.1232 20.1445 15.8082 20.8828 15.7031 21.6914L15.8082 21.7266C15.9132 20.918 16.2283 20.1797 16.6834 19.5469Z" fill="white"/>
<path fill-rule="evenodd" clip-rule="evenodd" d="M21.5153 17.2617C20.8851 17.2969 20.2199 17.4375 19.5547 17.6133H19.5898C20.2549 17.4375 20.8851 17.2969 21.5153 17.2617Z" fill="white"/>
<path fill-rule="evenodd" clip-rule="evenodd" d="M15.8101 21.7266L15.705 21.6914C15.635 22.2188 15.635 22.7461 15.7401 23.2734L15.8451 23.3086C15.7401 22.7813 15.7401 22.2539 15.8101 21.7266Z" fill="white"/>
<path fill-rule="evenodd" clip-rule="evenodd" d="M17.7687 18.457L17.7337 18.4219C17.3136 18.7383 16.9285 19.0898 16.6484 19.4766L16.7185 19.5117C16.9985 19.125 17.3486 18.7734 17.7687 18.457Z" fill="white"/>
<path fill-rule="evenodd" clip-rule="evenodd" d="M16.8235 25.6992L16.6484 25.6641C17.0685 26.332 17.6287 27 18.3289 27.6328L18.5739 27.7031C17.8387 27.0352 17.2436 26.3672 16.8235 25.6992Z" fill="white"/>
<path fill-rule="evenodd" clip-rule="evenodd" d="M24.0342 17.297C23.6491 17.2618 23.264 17.2267 22.8789 17.2267C23.264 17.1915 23.6491 17.2267 24.0342 17.297Z" fill="white"/>
<path fill-rule="evenodd" clip-rule="evenodd" d="M26.8009 18C25.8906 17.6484 24.9804 17.4023 24.0352 17.2969C24.9804 17.4023 25.9256 17.6484 26.8009 18Z" fill="white"/>
<path fill-rule="evenodd" clip-rule="evenodd" d="M51.204 54.8441L27.958 46.3011L36.0451 43.8753C36.1151 43.8402 36.1151 43.7347 36.1501 43.6644C36.9203 42.2582 38.0056 40.0785 38.5307 38.6019C39.1959 36.8089 39.581 36.0707 38.5307 34.2074C38.2156 33.68 37.1304 32.1332 36.5002 31.7464C36.7102 30.4457 37.9706 30.7621 38.8108 31.2191C39.8961 31.9925 40.9463 33.223 41.0514 34.5589C41.1914 36.2464 40.3862 40.6761 39.476 42.2933C38.9158 43.3128 38.8458 43.4886 37.7955 43.348C37.6905 43.348 37.3404 43.348 37.3404 43.4535C37.3404 43.5941 37.4804 43.6996 37.5855 43.7699C38.8108 44.7543 42.8368 45.3519 41.3314 42.68C41.2964 42.6097 41.1214 42.5043 41.1914 42.4691C42.6968 41.9769 44.2372 41.5902 45.7426 41.2035L61.2165 53.4027C61.5316 53.6488 62.7569 54.4222 62.6519 55.1253C62.2668 58.641 52.1842 55.1605 51.204 54.8441ZM62.0567 52.7347L46.3027 40.0785L41.0864 40.9925C41.6115 39.0238 42.2067 37.055 42.6268 35.0511C42.8018 34.2074 42.5918 33.5042 42.2417 32.766C41.4365 31.0785 40.0711 30.1996 38.4607 29.3207C35.765 27.8441 34.0496 32.4847 36.1501 33.9261C38.6007 35.6136 37.5505 37.5121 36.7453 39.7621C36.5702 40.3597 35.94 42.7152 35.4149 42.8558C32.0541 43.805 30.0585 44.2972 26.6977 45.141L25.4023 49.0082L54.9499 57.4105C57.0155 57.8675 60.3063 58.1488 62.4068 57.4105C66.2928 55.9339 63.107 53.5433 62.0567 52.7347Z" fill="white"/>
<path fill-rule="evenodd" clip-rule="evenodd" d="M32.4046 27.7734L32.3696 27.8437L32.3346 27.8789L32.2996 27.9141L32.2646 27.9492C32.2646 27.9844 32.2296 28.0195 32.2296 28.0547C32.1596 28.1953 32.0895 28.3711 32.0545 28.5469L31.7395 27.2812C31.0743 26.5078 28.5536 24.3984 26.3131 23.0977C24.7377 22.1836 23.3373 21.6914 22.8122 22.3242C22.182 24.3633 19.4513 22.7812 19.6263 21.1992C19.6614 20.7773 19.9064 20.3555 20.4666 20.0039C20.6066 19.9336 20.7466 19.8281 20.8867 19.7578C21.2368 19.582 21.5869 19.4766 21.972 19.4063C22.8472 19.2305 23.7224 19.3008 24.6676 19.6172C25.6479 19.9336 26.6281 20.5664 27.6784 21.4102C29.0438 22.5352 30.7242 23.9062 32.1946 25.875C33.0698 25.1367 33.735 24.9609 34.8553 25.8398C33.805 25.9453 32.8597 26.8242 32.4046 27.668V27.7734ZM32.6847 32.3086C32.5097 31.3594 32.4746 30.6211 32.5447 29.9883C33.4549 27.8789 34.6452 26.2266 37.3759 27.3516C38.8463 27.9492 38.9863 28.6172 39.1263 28.7578L40.2116 29.5312L39.6865 28.1602C39.2664 27.3516 38.0411 26.1211 37.1308 25.875C37.0608 25.875 36.9908 25.8398 36.8858 25.8398L35.5554 24.6797C33.1398 21.9375 30.164 19.2656 26.7682 18L26.8032 18.0352C25.928 17.6836 24.9827 17.4727 24.0375 17.332C23.6524 17.2969 23.2673 17.2617 22.8822 17.2266C22.8472 17.2266 22.8122 17.2266 22.7772 17.2266C22.6371 17.2266 22.4971 17.2266 22.322 17.2266C22.182 17.2266 22.042 17.2266 21.9019 17.2617C21.8669 17.2617 21.8669 17.2617 21.8319 17.2617C21.7269 17.2617 21.6219 17.2969 21.5168 17.2969C20.8867 17.3672 20.2565 17.4727 19.5913 17.6484C19.5563 17.6484 19.4863 17.6836 19.4513 17.6836C18.8211 17.8594 18.261 18.1406 17.7359 18.4922C17.3158 18.8086 16.9657 19.1602 16.6506 19.5469C16.1955 20.1797 15.8804 20.918 15.7754 21.7266C15.7053 22.2539 15.7053 22.7813 15.8104 23.3438C15.9504 24.1172 16.2655 24.8906 16.7906 25.6992C17.2107 26.3672 17.8059 27.0352 18.5411 27.7031C19.7314 28.7227 21.3068 29.707 23.3373 30.5859C23.6524 30.7266 23.9675 30.832 24.3176 30.9727C29.7089 33.0117 30.4441 33.1523 35.7655 34.7695C34.5052 32.9414 34.5052 32.8359 32.6847 32.3086Z" fill="white"/>
<path fill-rule="evenodd" clip-rule="evenodd" d="M67.7957 60.3984C67.7957 60.3984 69.021 59.6953 69.6862 59.168L68.811 61.4883L67.5156 61.8398L67.7957 60.3984Z" fill="white"/>
<path fill-rule="evenodd" clip-rule="evenodd" d="M27.9931 44.7891L27.7131 44.5781L27.293 45L27.9931 44.7891Z" fill="white"/>
<path fill-rule="evenodd" clip-rule="evenodd" d="M50.4321 15.1523C50.4321 12.9727 49.4868 11.8828 47.5963 11.8828H45.4258V18.4922H47.5963C49.4868 18.4922 50.4321 17.4375 50.4321 15.1523ZM52.3226 15.1523C52.3226 18.457 50.6071 20.2852 47.5963 20.2852H45.4258V26.1211H43.5703V10.125H47.5613C50.6071 10.125 52.3226 11.9531 52.3226 15.1523Z" fill="white"/>
<path fill-rule="evenodd" clip-rule="evenodd" d="M54.2852 21.5156V14.7305C54.2852 11.5664 56.0706 9.80859 58.7313 9.80859C61.462 9.80859 63.1424 11.4961 63.3175 14.5898H61.462C61.322 12.5156 60.3767 11.5664 58.6963 11.5664C57.1559 11.5664 56.1406 12.5859 56.1406 14.7305V21.5156C56.1406 23.625 57.2259 24.6445 58.7663 24.6445C60.4467 24.6445 61.392 23.6602 61.567 21.6562H63.4225C63.2475 24.7148 61.567 26.4023 58.7663 26.4023C56.1056 26.4023 54.2852 24.6445 54.2852 21.5156Z" fill="white"/>
<path fill-rule="evenodd" clip-rule="evenodd" d="M72.9096 21.0937V15.1172C72.9096 12.9023 71.9643 11.6367 70.1089 11.6367C68.2534 11.6367 67.2731 12.9023 67.2731 15.1172V21.0937C67.2731 23.3437 68.2184 24.6094 70.1089 24.6094C71.9293 24.5742 72.9096 23.3437 72.9096 21.0937ZM65.3477 21.0937V15.1172C65.3477 11.8477 67.1331 9.80859 70.0739 9.80859C73.0496 9.80859 74.8001 11.8477 74.8001 15.1172V21.0937C74.8001 24.3984 73.0496 26.4375 70.0739 26.4375C67.1331 26.4023 65.3477 24.3633 65.3477 21.0937Z" fill="white"/>
<path fill-rule="evenodd" clip-rule="evenodd" d="M69.5489 64.2656L75.0103 41.8359C75.6755 41.7656 76.7608 41.8711 76.9358 42.5742C75.5705 46.8281 70.004 64.2305 69.5489 64.2656ZM44.8676 59.9766L44.1674 54.7031L45.8478 55.1953L47.0732 59.8008C46.338 59.8008 45.6028 59.8359 44.8676 59.9766ZM39.8963 61.9453V53.4375L42.697 54.2812L43.5022 60.293C42.2769 60.6094 41.0866 61.1367 39.8963 61.9453ZM49.5238 56.25L51.1342 60.1523C50.294 60.0117 49.4188 59.9062 48.5785 59.8359L47.4583 55.6523L49.5238 56.25ZM3.20691 41.5898C3.38195 40.8867 4.46723 40.7812 5.1324 40.8516L10.5938 63.2812C10.1037 63.2109 4.53725 45.8086 3.20691 41.5898ZM78.7563 42.6797C78.1611 41.6602 76.7608 40.6758 76.7608 40.4648C76.3757 37.8633 77.4259 35.4023 78.4412 33.082C79.1064 30.9023 77.3909 30.3398 76.2006 29.8477C73.715 39.1641 69.5139 55.6172 68.7787 60.8203C68.5337 60.9258 68.2886 61.0312 68.0435 61.1367C68.3236 60.6797 68.6037 60.2227 68.9188 59.6953C63.5624 63.2812 58.101 61.5586 52.7096 60.4336L52.8146 60.4688L51.2742 56.7773L54.9852 57.6211C57.7159 58.0781 60.2715 58.5352 62.4071 57.7969C65.6979 56.6367 64.1225 54.4922 62.8622 53.4375C65.6629 57.2344 56.6306 58.957 51.2742 55.0547L50.434 54.7383L50.364 54.5273L48.5435 53.8594L48.6136 54.0703L46.8281 53.4023L46.7931 53.2266L45.1827 52.6289L45.2177 52.8047L43.8523 52.3125L43.8173 52.1367L42.3469 51.6094L42.382 51.7852L39.8963 50.8711L38.9511 50.5195L37.4107 62.1914L36.0103 62.0156L37.5857 50.0273L36.8855 49.7813C36.8505 49.7813 36.7805 49.7461 36.7455 49.7461L32.8945 64.1602L31.5292 63.8086L35.3802 49.4297C35.1001 49.3594 34.82 49.2539 34.5399 49.1484L29.8837 60.3984L28.5884 59.8711L33.2096 48.6211C32.9295 48.4805 32.6845 48.375 32.4044 48.2344L28.0633 55.7578L26.838 55.0547L31.0741 47.6719L31.004 47.6367H30.969L30.1638 47.3555L23.057 56.6719L21.9367 55.8281L28.7985 46.8633H28.7635L28.1683 46.6523L27.8532 46.4062L18.1557 56.1445L17.1755 55.1602L27.6432 44.6484C27.4331 44.4375 27.2581 44.1914 27.048 43.9805L17.4556 51.3633L16.6153 50.2383L26.2078 42.8203C26.0328 42.5742 25.8577 42.3281 25.7177 42.082L18.2958 46.4062L17.5956 45.1758L25.1225 40.8164C24.9825 40.5352 24.8425 40.2891 24.7374 40.0078L13.5346 44.6836L13.0094 43.3828L24.2123 38.707C24.1073 38.4258 24.0372 38.1445 23.9322 37.8633L9.57854 41.7305L9.22845 40.3594L23.5821 36.4922C23.5121 36.2109 23.4771 35.9297 23.4071 35.6133L11.329 37.1953L11.1539 35.7891L23.2671 34.1719C23.232 33.8906 23.232 33.5742 23.232 33.293H14.4448V31.8867H23.2671C23.3021 31.4297 23.3371 30.9375 23.4071 30.4805C21.3416 29.6016 19.7662 28.6172 18.6109 27.5977L18.3658 27.5273C18.6459 27.7734 18.9609 28.0195 19.276 28.2656H19.241C19.031 28.3008 18.8209 28.3008 18.5758 28.3008C15.39 28.125 3.83707 26.2969 5.1324 30.1289C2.4017 32.2031 3.1719 35.4727 3.34695 38.918L1.84156 40.0781C1.03635 40.7109 0.966335 41.5547 1.03635 42.5391C3.10188 46.0195 10.3137 70.3477 11.9942 71.6836C14.1297 73.3711 31.5642 66.6562 36.0103 67.3594C39.1961 70.3477 42.0669 70.3828 46.0229 67.4648C49.5238 67.8867 67.5884 72.9492 69.5139 71.2969C73.3649 63.3516 72.9798 56.3906 78.7213 44.6133C79.0364 43.9453 79.1764 43.3477 78.7563 42.6797Z" fill="white"/>
</g>
<defs>
<clipPath id="clip0_2615_88642">
<rect width="78" height="72" fill="white" transform="translate(1)"/>
</clipPath>
</defs>
</svg>
