<svg width="28" height="28" viewBox="0 0 28 28" fill="none" xmlns="http://www.w3.org/2000/svg">
<g clip-path="url(#clip0_2615_204373)">
<path d="M14 28C21.732 28 28 21.732 28 14C28 6.26801 21.732 0 14 0C6.26801 0 0 6.26801 0 14C0 21.732 6.26801 28 14 28Z" fill="white"/>
<path fill-rule="evenodd" clip-rule="evenodd" d="M6.34207 13.852C10.4234 12.0738 13.1449 10.9015 14.5066 10.3352C18.3945 8.71802 19.2024 8.43711 19.729 8.42783C19.8448 8.42579 20.1037 8.4545 20.2715 8.5906C20.4131 8.70553 20.4521 8.86078 20.4707 8.96974C20.4894 9.0787 20.5126 9.32692 20.4941 9.52087C20.2834 11.7346 19.3718 17.1067 18.908 19.5862C18.7117 20.6353 18.3253 20.9871 17.9512 21.0215C17.1382 21.0963 16.5208 20.4842 15.7334 19.968C14.5012 19.1603 13.8051 18.6575 12.6091 17.8693C11.2268 16.9585 12.1229 16.4578 12.9106 15.6397C13.1168 15.4255 16.6989 12.1673 16.7682 11.8717C16.7769 11.8348 16.7849 11.697 16.7031 11.6242C16.6212 11.5515 16.5004 11.5763 16.4132 11.5961C16.2896 11.6242 14.3212 12.9252 10.5079 15.4993C9.94921 15.883 9.44313 16.0699 8.9897 16.0601C8.48983 16.0493 7.52827 15.7775 6.81346 15.5451C5.9367 15.2601 5.23988 15.1094 5.30056 14.6254C5.33216 14.3733 5.67933 14.1155 6.34207 13.852Z" fill="#35383F"/>
</g>
<defs>
<clipPath id="clip0_2615_204373">
<rect width="28" height="28" fill="white"/>
</clipPath>
</defs>
</svg>
