<svg width="28" height="28" viewBox="0 0 28 28" fill="none" xmlns="http://www.w3.org/2000/svg">
<mask id="mask0_2615_204366" style="mask-type:luminance" maskUnits="userSpaceOnUse" x="0" y="0" width="28" height="28">
<path d="M28 0H0V28H28V0Z" fill="white"/>
</mask>
<g mask="url(#mask0_2615_204366)">
<path d="M0 13.44C0 7.10433 0 3.93649 1.96824 1.96824C3.93649 0 7.10433 0 13.44 0H14.56C20.8957 0 24.0635 0 26.0318 1.96824C28 3.93649 28 7.10433 28 13.44V14.56C28 20.8957 28 24.0635 26.0318 26.0318C24.0635 28 20.8957 28 14.56 28H13.44C7.10433 28 3.93649 28 1.96824 26.0318C0 24.0635 0 20.8957 0 14.56V13.44Z" fill="white"/>
<path d="M14.896 20.1716C8.5143 20.1716 4.87433 15.7966 4.72266 8.5166H7.91933C8.02433 13.8599 10.381 16.1232 12.2476 16.5899V8.5166H15.2577V13.1249C17.101 12.9266 19.0375 10.8266 19.6908 8.5166H22.7009C22.1992 11.3633 20.0992 13.4632 18.6059 14.3266C20.0992 15.0266 22.491 16.8582 23.401 20.1716H20.0876C19.3759 17.9549 17.6027 16.2399 15.2577 16.0066V20.1716H14.896Z" fill="#35383F"/>
</g>
</svg>
