<svg width="0" height="0" style="display: none;">
  <symbol id="download" viewBox="0 0 24 24" fill="none" xmlns="http://www.w3.org/2000/svg">
    <g id="Component 31/check_box/Import_light">
      <path id="Vector 9" d="M12 14L11.6464 14.3536L12 14.7071L12.3536 14.3536L12 14ZM12.5 5C12.5 4.72386 12.2761 4.5 12 4.5C11.7239 4.5 11.5 4.72386 11.5 5L12.5 5ZM6.64645 9.35355L11.6464 14.3536L12.3536 13.6464L7.35355 8.64645L6.64645 9.35355ZM12.3536 14.3536L17.3536 9.35355L16.6464 8.64645L11.6464 13.6464L12.3536 14.3536ZM12.5 14L12.5 5L11.5 5L11.5 14L12.5 14Z" fill="currentColor"/>
      <path id="Vector 114" d="M5 16L5 17C5 18.1046 5.89543 19 7 19L17 19C18.1046 19 19 18.1046 19 17V16" stroke="currentColor"/>
    </g>
  </symbol>
  <symbol id="file-dock" viewBox="0 0 24 24" fill="none" xmlns="http://www.w3.org/2000/svg">
    <path d="M13.1716 3H9C7.11438 3 6.17157 3 5.58579 3.58579C5 4.17157 5 5.11438 5 7V17C5 18.8856 5 19.8284 5.58579 20.4142C6.17157 21 7.11438 21 9 21H15C16.8856 21 17.8284 21 18.4142 20.4142C19 19.8284 19 18.8856 19 17V8.82843C19 8.41968 19 8.2153 18.9239 8.03153C18.8478 7.84776 18.7032 7.70324 18.4142 7.41421L14.5858 3.58579C14.2968 3.29676 14.1522 3.15224 13.9685 3.07612C13.7847 3 13.5803 3 13.1716 3Z" stroke="currentColor"/>
    <path d="M9 13L15 13" stroke="currentColor" stroke-linecap="round"/>
    <path d="M9 17L13 17" stroke="currentColor" stroke-linecap="round"/>
    <path d="M13 3V7C13 7.94281 13 8.41421 13.2929 8.70711C13.5858 9 14.0572 9 15 9H19" stroke="currentColor"/>
  </symbol>
  <symbol id="wrap" xmlns="http://www.w3.org/2000/svg" viewBox="0 0 32 32" fill="none">
    <circle cx="16" cy="16" r="15.5" fill="currentColor" stroke="currentColor" />
    <path
        d="M23.9181 12.9492L17.3981 19.4692C16.6281 20.2392 15.3681 20.2392 14.5981 19.4692L8.07812 12.9492"
        stroke="white" stroke-width="1.5" stroke-miterlimit="10" stroke-linecap="round"
        stroke-linejoin="round" />
  </symbol>
  <symbol id="user-avatar" viewBox="0 0 56 56" fill="none" xmlns="http://www.w3.org/2000/svg">
    <circle cx="28" cy="28" r="27.5" stroke="currentColor"/>
    <circle cx="28" cy="23" r="5" stroke="currentColor" stroke-linecap="round"/>
    <path d="M37.6593 37.9294C37.0895 36.2284 35.8341 34.7252 34.0876 33.6532C32.3412 32.5811 30.2013 32 28 32C25.7987 32 23.6588 32.5811 21.9124 33.6532C20.1659 34.7252 18.9105 36.2284 18.3407 37.9294" stroke="currentColor" stroke-linecap="round"/>
  </symbol>
  <symbol id="add-file" viewBox="0 0 16 17" fill="none" xmlns="http://www.w3.org/2000/svg">
    <path fill-rule="evenodd" clip-rule="evenodd" d="M11.8355 1.25844C12.6113 1.37294 13.3318 1.73974 13.8824 2.30713C15.2454 3.71146 15.2287 5.94982 13.8449 7.33361L13.5759 7.60259L10.4638 10.7146L6.98631 14.1921C5.66848 15.5099 3.52973 15.503 2.22047 14.1766C0.919578 12.8588 0.930576 10.7367 2.24506 9.43237L7.34427 4.37262C7.90114 3.82005 8.79998 3.82178 9.35473 4.37649C9.91102 4.93275 9.91104 5.83466 9.35476 6.39094L4.00621 11.7395L4.71332 12.4466L10.0619 7.09805C11.0087 6.15124 11.0087 4.61614 10.0618 3.66936C9.11761 2.72522 7.58774 2.72228 6.63991 3.66277L1.5407 8.72253C-0.165097 10.4151 -0.179369 13.169 1.50879 14.8791C3.20781 16.6003 5.98326 16.6093 7.69341 14.8992L11.1709 11.4217L14.283 8.3097L14.552 8.04072C16.3222 6.27052 16.3436 3.40714 14.6 1.61067C13.8612 0.849372 12.8834 0.370366 11.8355 0.25V1.25844Z" fill="currentColor"/>
  </symbol>
  <symbol id="arrow-down" viewBox="0 0 24 24" fill="none" xmlns="http://www.w3.org/2000/svg">
    <path d="M19.9201 8.94922L13.4001 15.4692C12.6301 16.2392 11.3701 16.2392 10.6001 15.4692L4.08008 8.94922" stroke="currentColor" stroke-width="1.5" stroke-miterlimit="10" stroke-linecap="round" stroke-linejoin="round"/>
  </symbol>
  <symbol id="arrow-right" viewBox="0 0 24 24" fill="none" xmlns="http://www.w3.org/2000/svg">
    <path d="M8.94922 4.08187L15.4692 10.6019C16.2392 11.3719 16.2392 12.6319 15.4692 13.4019L8.94922 19.9219" stroke="currentColor" stroke-width="1.5" stroke-miterlimit="10" stroke-linecap="round" stroke-linejoin="round"/>
  </symbol>
  <symbol id="basket" viewBox="0 0 24 24" fill="none" xmlns="http://www.w3.org/2000/svg">
    <path d="M9.5 14.5L9.5 11.5" stroke="currentColor" stroke-linecap="round"/>
    <path d="M14.5 14.5L14.5 11.5" stroke="currentColor" stroke-linecap="round"/>
    <path d="M3 6.5H21V6.5C19.5955 6.5 18.8933 6.5 18.3889 6.83706C18.1705 6.98298 17.983 7.17048 17.8371 7.38886C17.5 7.89331 17.5 8.59554 17.5 10V15.5C17.5 17.3856 17.5 18.3284 16.9142 18.9142C16.3284 19.5 15.3856 19.5 13.5 19.5H10.5C8.61438 19.5 7.67157 19.5 7.08579 18.9142C6.5 18.3284 6.5 17.3856 6.5 15.5V10C6.5 8.59554 6.5 7.89331 6.16294 7.38886C6.01702 7.17048 5.82952 6.98298 5.61114 6.83706C5.10669 6.5 4.40446 6.5 3 6.5V6.5Z" stroke="currentColor" stroke-linecap="round"/>
    <path d="M9.5 3.50024C9.5 3.50024 10 2.5 12 2.5C14 2.5 14.5 3.5 14.5 3.5" stroke="currentColor" stroke-linecap="round"/>
  </symbol>
  <symbol id="bell-light" viewBox="0 0 36 36" fill="none" xmlns="http://www.w3.org/2000/svg">
    <path d="M10.5883 13.6249C11.0126 9.85204 14.2034 7 18 7V7C21.7966 7 24.9874 9.85204 25.4117 13.6249L25.7363 16.5107C25.8026 17.1005 25.8358 17.3954 25.89 17.6841C26.0313 18.4376 26.2801 19.1669 26.629 19.8495C26.7626 20.1111 26.9167 20.3648 27.2248 20.8721L28.1549 22.4035C28.9723 23.7495 29.381 24.4224 29.0942 24.9321C28.8075 25.4417 28.0201 25.4417 26.4454 25.4417H9.55458C7.97988 25.4417 7.19252 25.4417 6.90577 24.9321C6.61902 24.4224 7.02773 23.7495 7.84514 22.4035L8.77522 20.8721C9.08333 20.3648 9.23738 20.1111 9.37104 19.8495C9.71985 19.1669 9.96873 18.4376 10.11 17.6841C10.1642 17.3954 10.1974 17.1005 10.2637 16.5107L10.5883 13.6249Z" stroke="currentColor"/>
    <path d="M14.1363 25.7627C14.3642 26.6914 14.8664 27.5121 15.565 28.0974C16.2635 28.6827 17.1195 29 18 29C18.8805 29 19.7365 28.6827 20.435 28.0974C21.1336 27.5121 21.6358 26.6914 21.8637 25.7627" stroke="currentColor" stroke-linecap="round"/>
  </symbol>
  <symbol id="calendar" viewBox="0 0 20 21" fill="none" xmlns="http://www.w3.org/2000/svg">
    <path d="M6.875 5.8125C6.7025 5.8125 6.5625 5.67281 6.5625 5.5V3.625C6.5625 3.45219 6.7025 3.3125 6.875 3.3125C7.0475 3.3125 7.1875 3.45219 7.1875 3.625V5.5C7.1875 5.67281 7.0475 5.8125 6.875 5.8125Z" fill="currentColor"/>
    <path d="M13.125 5.8125C12.9525 5.8125 12.8125 5.67281 12.8125 5.5V3.625C12.8125 3.45219 12.9525 3.3125 13.125 3.3125C13.2975 3.3125 13.4375 3.45219 13.4375 3.625V5.5C13.4375 5.67281 13.2975 5.8125 13.125 5.8125Z" fill="currentColor"/>
    <path d="M14.375 17.6875C14.2025 17.6875 14.0625 17.5478 14.0625 17.375C14.0625 17.2022 14.2025 17.0625 14.375 17.0625C14.8919 17.0625 15.3125 16.6419 15.3125 16.125C15.3125 15.9522 15.4525 15.8125 15.625 15.8125C15.7975 15.8125 15.9375 15.9522 15.9375 16.125C15.9375 16.9866 15.2366 17.6875 14.375 17.6875Z" fill="currentColor"/>
    <path d="M15.625 16.4375C15.4525 16.4375 15.3125 16.2978 15.3125 16.125V5.5C15.3125 5.32719 15.4525 5.1875 15.625 5.1875C15.7975 5.1875 15.9375 5.32719 15.9375 5.5V16.125C15.9375 16.2978 15.7975 16.4375 15.625 16.4375Z" fill="currentColor"/>
    <path d="M14.375 17.6875H5.625C5.4525 17.6875 5.3125 17.5478 5.3125 17.375C5.3125 17.2022 5.4525 17.0625 5.625 17.0625H14.375C14.5475 17.0625 14.6875 17.2022 14.6875 17.375C14.6875 17.5478 14.5475 17.6875 14.375 17.6875Z" fill="currentColor"/>
    <path d="M5.625 17.6875C4.76344 17.6875 4.0625 16.9866 4.0625 16.125C4.0625 15.9522 4.2025 15.8125 4.375 15.8125C4.5475 15.8125 4.6875 15.9522 4.6875 16.125C4.6875 16.6419 5.10812 17.0625 5.625 17.0625C5.7975 17.0625 5.9375 17.2022 5.9375 17.375C5.9375 17.5478 5.7975 17.6875 5.625 17.6875Z" fill="currentColor"/>
    <path d="M4.375 16.4375C4.2025 16.4375 4.0625 16.2978 4.0625 16.125V5.5C4.0625 5.32719 4.2025 5.1875 4.375 5.1875C4.5475 5.1875 4.6875 5.32719 4.6875 5.5V16.125C4.6875 16.2978 4.5475 16.4375 4.375 16.4375Z" fill="currentColor"/>
    <path d="M4.375 5.8125C4.2025 5.8125 4.0625 5.67281 4.0625 5.5C4.0625 4.63844 4.76344 3.9375 5.625 3.9375C5.7975 3.9375 5.9375 4.07719 5.9375 4.25C5.9375 4.42281 5.7975 4.5625 5.625 4.5625C5.10812 4.5625 4.6875 4.98312 4.6875 5.5C4.6875 5.67281 4.5475 5.8125 4.375 5.8125Z" fill="currentColor"/>
    <path d="M14.375 4.5625H5.625C5.4525 4.5625 5.3125 4.42281 5.3125 4.25C5.3125 4.07719 5.4525 3.9375 5.625 3.9375H14.375C14.5475 3.9375 14.6875 4.07719 14.6875 4.25C14.6875 4.42281 14.5475 4.5625 14.375 4.5625Z" fill="currentColor"/>
    <path d="M15.625 5.8125C15.4525 5.8125 15.3125 5.67281 15.3125 5.5C15.3125 4.98312 14.8919 4.5625 14.375 4.5625C14.2025 4.5625 14.0625 4.42281 14.0625 4.25C14.0625 4.07719 14.2025 3.9375 14.375 3.9375C15.2366 3.9375 15.9375 4.63844 15.9375 5.5C15.9375 5.67281 15.7975 5.8125 15.625 5.8125Z" fill="currentColor"/>
    <path d="M13.75 15.8125H10.625C10.4525 15.8125 10.3125 15.6728 10.3125 15.5V13.625C10.3125 13.4522 10.4525 13.3125 10.625 13.3125H13.75C13.9225 13.3125 14.0625 13.4522 14.0625 13.625V15.5C14.0625 15.6728 13.9225 15.8125 13.75 15.8125ZM10.9375 15.1875H13.4375V13.9375H10.9375V15.1875Z" fill="currentColor"/>
    <path d="M13.75 12.0625H12.8125C12.64 12.0625 12.5 11.9228 12.5 11.75C12.5 11.5772 12.64 11.4375 12.8125 11.4375H13.75C13.9225 11.4375 14.0625 11.5772 14.0625 11.75C14.0625 11.9228 13.9225 12.0625 13.75 12.0625Z" fill="currentColor"/>
    <path d="M11.5625 12.0625H10.625C10.4525 12.0625 10.3125 11.9228 10.3125 11.75C10.3125 11.5772 10.4525 11.4375 10.625 11.4375H11.5625C11.735 11.4375 11.875 11.5772 11.875 11.75C11.875 11.9228 11.735 12.0625 11.5625 12.0625Z" fill="currentColor"/>
    <path d="M13.75 10.1875H12.8125C12.64 10.1875 12.5 10.0478 12.5 9.875C12.5 9.70219 12.64 9.5625 12.8125 9.5625H13.75C13.9225 9.5625 14.0625 9.70219 14.0625 9.875C14.0625 10.0478 13.9225 10.1875 13.75 10.1875Z" fill="currentColor"/>
    <path d="M11.5625 10.1875H10.625C10.4525 10.1875 10.3125 10.0478 10.3125 9.875C10.3125 9.70219 10.4525 9.5625 10.625 9.5625H11.5625C11.735 9.5625 11.875 9.70219 11.875 9.875C11.875 10.0478 11.735 10.1875 11.5625 10.1875Z" fill="currentColor"/>
    <path d="M9.375 10.1875H8.4375C8.265 10.1875 8.125 10.0478 8.125 9.875C8.125 9.70219 8.265 9.5625 8.4375 9.5625H9.375C9.5475 9.5625 9.6875 9.70219 9.6875 9.875C9.6875 10.0478 9.5475 10.1875 9.375 10.1875Z" fill="currentColor"/>
    <path d="M9.375 15.8125H8.4375C8.265 15.8125 8.125 15.6728 8.125 15.5C8.125 15.3272 8.265 15.1875 8.4375 15.1875H9.375C9.5475 15.1875 9.6875 15.3272 9.6875 15.5C9.6875 15.6728 9.5475 15.8125 9.375 15.8125Z" fill="currentColor"/>
    <path d="M9.375 12.0625H8.4375C8.265 12.0625 8.125 11.9228 8.125 11.75C8.125 11.5772 8.265 11.4375 8.4375 11.4375H9.375C9.5475 11.4375 9.6875 11.5772 9.6875 11.75C9.6875 11.9228 9.5475 12.0625 9.375 12.0625Z" fill="currentColor"/>
    <path d="M9.375 13.9375H8.4375C8.265 13.9375 8.125 13.7978 8.125 13.625C8.125 13.4522 8.265 13.3125 8.4375 13.3125H9.375C9.5475 13.3125 9.6875 13.4522 9.6875 13.625C9.6875 13.7978 9.5475 13.9375 9.375 13.9375Z" fill="currentColor"/>
    <path d="M7.1875 13.9375H6.25C6.0775 13.9375 5.9375 13.7978 5.9375 13.625C5.9375 13.4522 6.0775 13.3125 6.25 13.3125H7.1875C7.36 13.3125 7.5 13.4522 7.5 13.625C7.5 13.7978 7.36 13.9375 7.1875 13.9375Z" fill="currentColor"/>
    <path d="M7.1875 12.0625H6.25C6.0775 12.0625 5.9375 11.9228 5.9375 11.75C5.9375 11.5772 6.0775 11.4375 6.25 11.4375H7.1875C7.36 11.4375 7.5 11.5772 7.5 11.75C7.5 11.9228 7.36 12.0625 7.1875 12.0625Z" fill="currentColor"/>
    <path d="M7.1875 15.8125H6.25C6.0775 15.8125 5.9375 15.6728 5.9375 15.5C5.9375 15.3272 6.0775 15.1875 6.25 15.1875H7.1875C7.36 15.1875 7.5 15.3272 7.5 15.5C7.5 15.6728 7.36 15.8125 7.1875 15.8125Z" fill="currentColor"/>
    <path d="M7.1875 10.1875H6.25C6.0775 10.1875 5.9375 10.0478 5.9375 9.875C5.9375 9.70219 6.0775 9.5625 6.25 9.5625H7.1875C7.36 9.5625 7.5 9.70219 7.5 9.875C7.5 10.0478 7.36 10.1875 7.1875 10.1875Z" fill="currentColor"/>
    <path d="M15.625 8.3125H4.375C4.2025 8.3125 4.0625 8.17281 4.0625 8C4.0625 7.82719 4.2025 7.6875 4.375 7.6875H15.625C15.7975 7.6875 15.9375 7.82719 15.9375 8C15.9375 8.17281 15.7975 8.3125 15.625 8.3125Z" fill="currentColor"/>
  </symbol>
  <symbol id="close-location" viewBox="0 0 24 24" fill="none" xmlns="http://www.w3.org/2000/svg">
    <path d="M12 21C10.8181 21 9.64778 20.7672 8.55585 20.3149C7.46392 19.8626 6.47177 19.1997 5.63604 18.364C4.80031 17.5282 4.13738 16.5361 3.68508 15.4442C3.23279 14.3522 3 13.1819 3 12C3 10.8181 3.23279 9.64778 3.68508 8.55585C4.13738 7.46392 4.80031 6.47177 5.63604 5.63604C6.47177 4.80031 7.46392 4.13738 8.55585 3.68508C9.64778 3.23279 10.8181 3 12 3C13.1819 3 14.3522 3.23279 15.4442 3.68508C16.5361 4.13738 17.5282 4.80031 18.364 5.63604C19.1997 6.47177 19.8626 7.46392 20.3149 8.55585C20.7672 9.64778 21 10.8181 21 12C21 13.1819 20.7672 14.3522 20.3149 15.4442C19.8626 16.5361 19.1997 17.5282 18.364 18.364C17.5282 19.1997 16.5361 19.8626 15.4441 20.3149C14.3522 20.7672 13.1819 21 12 21L12 21Z" stroke="currentColor" stroke-linecap="round"/>
    <path d="M9 9L15 15" stroke="currentColor" stroke-linecap="round"/>
    <path d="M15 9L9 15" stroke="currentColor" stroke-linecap="round"/>
  </symbol>
  <symbol id="close-modal" width="24" height="24" viewBox="0 0 24 24" fill="none" xmlns="http://www.w3.org/2000/svg">
    <path d="M12 21C10.8181 21 9.64778 20.7672 8.55585 20.3149C7.46392 19.8626 6.47177 19.1997 5.63604 18.364C4.80031 17.5282 4.13738 16.5361 3.68508 15.4442C3.23279 14.3522 3 13.1819 3 12C3 10.8181 3.23279 9.64778 3.68508 8.55585C4.13738 7.46392 4.80031 6.47177 5.63604 5.63604C6.47177 4.80031 7.46392 4.13738 8.55585 3.68508C9.64778 3.23279 10.8181 3 12 3C13.1819 3 14.3522 3.23279 15.4442 3.68508C16.5361 4.13738 17.5282 4.80031 18.364 5.63604C19.1997 6.47177 19.8626 7.46392 20.3149 8.55585C20.7672 9.64778 21 10.8181 21 12C21 13.1819 20.7672 14.3522 20.3149 15.4442C19.8626 16.5361 19.1997 17.5282 18.364 18.364C17.5282 19.1997 16.5361 19.8626 15.4441 20.3149C14.3522 20.7672 13.1819 21 12 21L12 21Z" stroke="currentColor" stroke-linecap="round"/>
    <path d="M9 9L15 15" stroke="currentColor" stroke-linecap="round"/>
    <path d="M15 9L9 15" stroke="currentColor" stroke-linecap="round"/>
  </symbol>
</svg>