<svg width="0" height="0" style="display: none;">
  <symbol id="download" viewBox="0 0 24 24" fill="none" xmlns="http://www.w3.org/2000/svg">
    <g id="Component 31/check_box/Import_light">
    <path id="Vector 9" d="M12 14L11.6464 14.3536L12 14.7071L12.3536 14.3536L12 14ZM12.5 5C12.5 4.72386 12.2761 4.5 12 4.5C11.7239 4.5 11.5 4.72386 11.5 5L12.5 5ZM6.64645 9.35355L11.6464 14.3536L12.3536 13.6464L7.35355 8.64645L6.64645 9.35355ZM12.3536 14.3536L17.3536 9.35355L16.6464 8.64645L11.6464 13.6464L12.3536 14.3536ZM12.5 14L12.5 5L11.5 5L11.5 14L12.5 14Z" fill="currentColor"/>
    <path id="Vector 114" d="M5 16L5 17C5 18.1046 5.89543 19 7 19L17 19C18.1046 19 19 18.1046 19 17V16" stroke="currentColor"/>
    </g>
  </symbol>
  <symbol id="file-dock" viewBox="0 0 24 24" fill="none" xmlns="http://www.w3.org/2000/svg">
    <path d="M13.1716 3H9C7.11438 3 6.17157 3 5.58579 3.58579C5 4.17157 5 5.11438 5 7V17C5 18.8856 5 19.8284 5.58579 20.4142C6.17157 21 7.11438 21 9 21H15C16.8856 21 17.8284 21 18.4142 20.4142C19 19.8284 19 18.8856 19 17V8.82843C19 8.41968 19 8.2153 18.9239 8.03153C18.8478 7.84776 18.7032 7.70324 18.4142 7.41421L14.5858 3.58579C14.2968 3.29676 14.1522 3.15224 13.9685 3.07612C13.7847 3 13.5803 3 13.1716 3Z" stroke="currentColor"/>
    <path d="M9 13L15 13" stroke="currentColor" stroke-linecap="round"/>
    <path d="M9 17L13 17" stroke="currentColor" stroke-linecap="round"/>
    <path d="M13 3V7C13 7.94281 13 8.41421 13.2929 8.70711C13.5858 9 14.0572 9 15 9H19" stroke="currentColor"/>
  </symbol>
</svg>