<svg width="16" height="16" viewBox="0 0 16 16" fill="none" xmlns="http://www.w3.org/2000/svg">
<path d="M7.45196 13.0457C7.51312 13.1345 7.59495 13.2071 7.69042 13.2573C7.78588 13.3075 7.89211 13.3337 7.99996 13.3337C8.1078 13.3337 8.21403 13.3075 8.3095 13.2573C8.40496 13.2071 8.4868 13.1345 8.54796 13.0457L14.548 4.37901C14.6174 4.27905 14.6581 4.16196 14.6657 4.04048C14.6733 3.91899 14.6474 3.79776 14.5909 3.68994C14.5345 3.58212 14.4495 3.49184 14.3453 3.42891C14.2411 3.36599 14.1217 3.33282 14 3.33301H1.99996C1.87852 3.33351 1.75952 3.36711 1.65574 3.43018C1.55197 3.49326 1.46736 3.58343 1.411 3.691C1.35465 3.79857 1.32868 3.91947 1.3359 4.0407C1.34311 4.16192 1.38324 4.27888 1.45196 4.37901L7.45196 13.0457Z" fill="#1C5C94"/>
</svg>
