<svg width="36" height="36" viewBox="0 0 36 36" fill="none" xmlns="http://www.w3.org/2000/svg">
<path d="M10.5883 13.6249C11.0126 9.85204 14.2034 7 18 7V7C21.7966 7 24.9874 9.85204 25.4117 13.6249L25.7363 16.5107C25.8026 17.1005 25.8358 17.3954 25.89 17.6841C26.0313 18.4376 26.2801 19.1669 26.629 19.8495C26.7626 20.1111 26.9167 20.3648 27.2248 20.8721L28.1549 22.4035C28.9723 23.7495 29.381 24.4224 29.0942 24.9321C28.8075 25.4417 28.0201 25.4417 26.4454 25.4417H9.55458C7.97988 25.4417 7.19252 25.4417 6.90577 24.9321C6.61902 24.4224 7.02773 23.7495 7.84514 22.4035L8.77522 20.8721C9.08333 20.3648 9.23738 20.1111 9.37104 19.8495C9.71985 19.1669 9.96873 18.4376 10.11 17.6841C10.1642 17.3954 10.1974 17.1005 10.2637 16.5107L10.5883 13.6249Z" stroke="#35383F"/>
<path d="M14.1363 25.7627C14.3642 26.6914 14.8664 27.5121 15.565 28.0974C16.2635 28.6827 17.1195 29 18 29C18.8805 29 19.7365 28.6827 20.435 28.0974C21.1336 27.5121 21.6358 26.6914 21.8637 25.7627" stroke="#35383F" stroke-linecap="round"/>
</svg>
