<svg width="20" height="21" viewBox="0 0 20 21" fill="none" xmlns="http://www.w3.org/2000/svg">
<path d="M6.875 5.8125C6.7025 5.8125 6.5625 5.67281 6.5625 5.5V3.625C6.5625 3.45219 6.7025 3.3125 6.875 3.3125C7.0475 3.3125 7.1875 3.45219 7.1875 3.625V5.5C7.1875 5.67281 7.0475 5.8125 6.875 5.8125Z" fill="#35383F"/>
<path d="M13.125 5.8125C12.9525 5.8125 12.8125 5.67281 12.8125 5.5V3.625C12.8125 3.45219 12.9525 3.3125 13.125 3.3125C13.2975 3.3125 13.4375 3.45219 13.4375 3.625V5.5C13.4375 5.67281 13.2975 5.8125 13.125 5.8125Z" fill="#35383F"/>
<path d="M14.375 17.6875C14.2025 17.6875 14.0625 17.5478 14.0625 17.375C14.0625 17.2022 14.2025 17.0625 14.375 17.0625C14.8919 17.0625 15.3125 16.6419 15.3125 16.125C15.3125 15.9522 15.4525 15.8125 15.625 15.8125C15.7975 15.8125 15.9375 15.9522 15.9375 16.125C15.9375 16.9866 15.2366 17.6875 14.375 17.6875Z" fill="#35383F"/>
<path d="M15.625 16.4375C15.4525 16.4375 15.3125 16.2978 15.3125 16.125V5.5C15.3125 5.32719 15.4525 5.1875 15.625 5.1875C15.7975 5.1875 15.9375 5.32719 15.9375 5.5V16.125C15.9375 16.2978 15.7975 16.4375 15.625 16.4375Z" fill="#35383F"/>
<path d="M14.375 17.6875H5.625C5.4525 17.6875 5.3125 17.5478 5.3125 17.375C5.3125 17.2022 5.4525 17.0625 5.625 17.0625H14.375C14.5475 17.0625 14.6875 17.2022 14.6875 17.375C14.6875 17.5478 14.5475 17.6875 14.375 17.6875Z" fill="#35383F"/>
<path d="M5.625 17.6875C4.76344 17.6875 4.0625 16.9866 4.0625 16.125C4.0625 15.9522 4.2025 15.8125 4.375 15.8125C4.5475 15.8125 4.6875 15.9522 4.6875 16.125C4.6875 16.6419 5.10812 17.0625 5.625 17.0625C5.7975 17.0625 5.9375 17.2022 5.9375 17.375C5.9375 17.5478 5.7975 17.6875 5.625 17.6875Z" fill="#35383F"/>
<path d="M4.375 16.4375C4.2025 16.4375 4.0625 16.2978 4.0625 16.125V5.5C4.0625 5.32719 4.2025 5.1875 4.375 5.1875C4.5475 5.1875 4.6875 5.32719 4.6875 5.5V16.125C4.6875 16.2978 4.5475 16.4375 4.375 16.4375Z" fill="#35383F"/>
<path d="M4.375 5.8125C4.2025 5.8125 4.0625 5.67281 4.0625 5.5C4.0625 4.63844 4.76344 3.9375 5.625 3.9375C5.7975 3.9375 5.9375 4.07719 5.9375 4.25C5.9375 4.42281 5.7975 4.5625 5.625 4.5625C5.10812 4.5625 4.6875 4.98312 4.6875 5.5C4.6875 5.67281 4.5475 5.8125 4.375 5.8125Z" fill="#35383F"/>
<path d="M14.375 4.5625H5.625C5.4525 4.5625 5.3125 4.42281 5.3125 4.25C5.3125 4.07719 5.4525 3.9375 5.625 3.9375H14.375C14.5475 3.9375 14.6875 4.07719 14.6875 4.25C14.6875 4.42281 14.5475 4.5625 14.375 4.5625Z" fill="#35383F"/>
<path d="M15.625 5.8125C15.4525 5.8125 15.3125 5.67281 15.3125 5.5C15.3125 4.98312 14.8919 4.5625 14.375 4.5625C14.2025 4.5625 14.0625 4.42281 14.0625 4.25C14.0625 4.07719 14.2025 3.9375 14.375 3.9375C15.2366 3.9375 15.9375 4.63844 15.9375 5.5C15.9375 5.67281 15.7975 5.8125 15.625 5.8125Z" fill="#35383F"/>
<path d="M13.75 15.8125H10.625C10.4525 15.8125 10.3125 15.6728 10.3125 15.5V13.625C10.3125 13.4522 10.4525 13.3125 10.625 13.3125H13.75C13.9225 13.3125 14.0625 13.4522 14.0625 13.625V15.5C14.0625 15.6728 13.9225 15.8125 13.75 15.8125ZM10.9375 15.1875H13.4375V13.9375H10.9375V15.1875Z" fill="#35383F"/>
<path d="M13.75 12.0625H12.8125C12.64 12.0625 12.5 11.9228 12.5 11.75C12.5 11.5772 12.64 11.4375 12.8125 11.4375H13.75C13.9225 11.4375 14.0625 11.5772 14.0625 11.75C14.0625 11.9228 13.9225 12.0625 13.75 12.0625Z" fill="#35383F"/>
<path d="M11.5625 12.0625H10.625C10.4525 12.0625 10.3125 11.9228 10.3125 11.75C10.3125 11.5772 10.4525 11.4375 10.625 11.4375H11.5625C11.735 11.4375 11.875 11.5772 11.875 11.75C11.875 11.9228 11.735 12.0625 11.5625 12.0625Z" fill="#35383F"/>
<path d="M13.75 10.1875H12.8125C12.64 10.1875 12.5 10.0478 12.5 9.875C12.5 9.70219 12.64 9.5625 12.8125 9.5625H13.75C13.9225 9.5625 14.0625 9.70219 14.0625 9.875C14.0625 10.0478 13.9225 10.1875 13.75 10.1875Z" fill="#35383F"/>
<path d="M11.5625 10.1875H10.625C10.4525 10.1875 10.3125 10.0478 10.3125 9.875C10.3125 9.70219 10.4525 9.5625 10.625 9.5625H11.5625C11.735 9.5625 11.875 9.70219 11.875 9.875C11.875 10.0478 11.735 10.1875 11.5625 10.1875Z" fill="#35383F"/>
<path d="M9.375 10.1875H8.4375C8.265 10.1875 8.125 10.0478 8.125 9.875C8.125 9.70219 8.265 9.5625 8.4375 9.5625H9.375C9.5475 9.5625 9.6875 9.70219 9.6875 9.875C9.6875 10.0478 9.5475 10.1875 9.375 10.1875Z" fill="#35383F"/>
<path d="M9.375 15.8125H8.4375C8.265 15.8125 8.125 15.6728 8.125 15.5C8.125 15.3272 8.265 15.1875 8.4375 15.1875H9.375C9.5475 15.1875 9.6875 15.3272 9.6875 15.5C9.6875 15.6728 9.5475 15.8125 9.375 15.8125Z" fill="#35383F"/>
<path d="M9.375 12.0625H8.4375C8.265 12.0625 8.125 11.9228 8.125 11.75C8.125 11.5772 8.265 11.4375 8.4375 11.4375H9.375C9.5475 11.4375 9.6875 11.5772 9.6875 11.75C9.6875 11.9228 9.5475 12.0625 9.375 12.0625Z" fill="#35383F"/>
<path d="M9.375 13.9375H8.4375C8.265 13.9375 8.125 13.7978 8.125 13.625C8.125 13.4522 8.265 13.3125 8.4375 13.3125H9.375C9.5475 13.3125 9.6875 13.4522 9.6875 13.625C9.6875 13.7978 9.5475 13.9375 9.375 13.9375Z" fill="#35383F"/>
<path d="M7.1875 13.9375H6.25C6.0775 13.9375 5.9375 13.7978 5.9375 13.625C5.9375 13.4522 6.0775 13.3125 6.25 13.3125H7.1875C7.36 13.3125 7.5 13.4522 7.5 13.625C7.5 13.7978 7.36 13.9375 7.1875 13.9375Z" fill="#35383F"/>
<path d="M7.1875 12.0625H6.25C6.0775 12.0625 5.9375 11.9228 5.9375 11.75C5.9375 11.5772 6.0775 11.4375 6.25 11.4375H7.1875C7.36 11.4375 7.5 11.5772 7.5 11.75C7.5 11.9228 7.36 12.0625 7.1875 12.0625Z" fill="#35383F"/>
<path d="M7.1875 15.8125H6.25C6.0775 15.8125 5.9375 15.6728 5.9375 15.5C5.9375 15.3272 6.0775 15.1875 6.25 15.1875H7.1875C7.36 15.1875 7.5 15.3272 7.5 15.5C7.5 15.6728 7.36 15.8125 7.1875 15.8125Z" fill="#35383F"/>
<path d="M7.1875 10.1875H6.25C6.0775 10.1875 5.9375 10.0478 5.9375 9.875C5.9375 9.70219 6.0775 9.5625 6.25 9.5625H7.1875C7.36 9.5625 7.5 9.70219 7.5 9.875C7.5 10.0478 7.36 10.1875 7.1875 10.1875Z" fill="#35383F"/>
<path d="M15.625 8.3125H4.375C4.2025 8.3125 4.0625 8.17281 4.0625 8C4.0625 7.82719 4.2025 7.6875 4.375 7.6875H15.625C15.7975 7.6875 15.9375 7.82719 15.9375 8C15.9375 8.17281 15.7975 8.3125 15.625 8.3125Z" fill="#35383F"/>
</svg>
