<svg width="26" height="25" viewBox="0 0 26 25" fill="none" xmlns="http://www.w3.org/2000/svg">
<rect width="25.5178" height="25" rx="12.5" fill="white"/>
<path fill-rule="evenodd" clip-rule="evenodd" d="M20.4852 15.5827C20.3124 19.7081 16.9147 23 12.7468 23C8.46832 23 5.00001 19.4151 5.00001 15.2533C5.00001 14.697 4.99003 13.5852 5.82413 11.7095C6.3233 10.587 6.63638 9.88179 6.81307 9.23716C6.91016 8.88287 7.09896 8.31999 7.6372 9.23716C7.95457 9.77795 7.96685 10.5558 7.96685 10.5558C7.96685 10.5558 9.14765 9.64963 9.94474 7.91856C11.1133 5.38084 10.1809 3.86388 9.86233 2.809C9.75206 2.44408 9.68283 1.78825 10.4392 2.06729C11.2099 2.3517 13.2475 3.77801 14.3126 5.28137C15.8327 7.42697 16.3729 9.48439 16.3729 9.48439C16.3729 9.48439 16.8596 8.88031 17.0322 8.24821C17.2271 7.53444 17.23 6.82751 17.8562 7.589C18.4518 8.31315 19.3364 9.67403 19.8342 10.9678C20.7382 13.3173 20.4852 15.5827 20.4852 15.5827Z" fill="url(#paint0_linear_270_12894)"/>
<path fill-rule="evenodd" clip-rule="evenodd" d="M12.7474 23C9.7889 23 7.39062 20.6018 7.39062 17.6432C7.39062 15.8581 8.11 14.7743 9.60718 13.3046C10.5658 12.3635 11.463 11.2077 11.8443 10.4206C11.9194 10.2657 12.0903 9.4583 12.749 10.4037C13.0945 10.8994 13.6362 11.7812 13.9836 12.5337C14.5824 13.8311 14.7253 15.0885 14.7253 15.0885C14.7253 15.0885 15.3122 14.7427 15.7143 13.8523C15.8439 13.5653 16.106 12.479 16.8386 13.5652C17.3762 14.3622 18.1147 15.7954 18.1042 17.6432C18.1042 20.6018 15.7059 23 12.7474 23Z" fill="#FC9502"/>
<path fill-rule="evenodd" clip-rule="evenodd" d="M12.8283 17.1487C13.5906 17.1487 13.5906 18.5603 14.5589 20.4452C15.2037 21.7002 14.2392 22.9999 12.8283 22.9999C11.4173 22.9999 10.6855 21.8562 10.6855 20.4452C10.6855 19.0343 12.066 17.1487 12.8283 17.1487Z" fill="#FCE202"/>
<defs>
<linearGradient id="paint0_linear_270_12894" x1="12.7584" y1="23.0155" x2="12.7584" y2="2.01587" gradientUnits="userSpaceOnUse">
<stop stop-color="#FF4C0D"/>
<stop offset="1" stop-color="#FC9502"/>
</linearGradient>
</defs>
</svg>
