<svg width="16" height="16" viewBox="0 0 16 16" fill="none" xmlns="http://www.w3.org/2000/svg">
<path d="M13.1188 9.05069C12.9233 9.24554 12.6068 9.24502 12.4119 9.04954L12.3668 9.00435C12.1718 8.80875 12.1723 8.49205 12.368 8.29709L13.9448 6.72608C14.5425 6.12825 14.9122 5.30238 14.9122 4.39021C14.9122 2.56565 13.4331 1.08656 11.6086 1.08656C10.6962 1.08656 9.87021 1.45637 9.27235 2.05434L7.70132 3.63057C7.50634 3.82619 7.1897 3.82667 6.99413 3.63166L6.94886 3.58652C6.75338 3.39159 6.75286 3.07513 6.94771 2.87957L8.51902 1.30242C9.31167 0.4982 10.4129 0 11.6305 0C14.0428 0 15.9984 1.95555 15.9984 4.36787C15.9984 5.58547 15.5001 6.68671 14.6965 7.47884L13.1188 9.05069ZM4.36629 16C1.9547 15.999 0 14.0438 0 11.6321C0 10.4267 0.488307 9.33532 1.27786 8.54502L2.85599 6.9727C3.05143 6.77799 3.36764 6.77836 3.56262 6.97352L3.60702 7.01796C3.80237 7.21351 3.80201 7.53046 3.6062 7.72555L2.0297 9.29624C1.4322 9.89391 1.06265 10.7195 1.06265 11.6314C1.06265 13.4556 2.54143 14.9343 4.36557 14.9343C5.27782 14.9343 6.10369 14.5645 6.70144 13.9666L8.27335 12.3912C8.46829 12.1958 8.78466 12.1953 8.98018 12.3901L9.02673 12.4365C9.22237 12.6314 9.22296 12.948 9.02805 13.1436L7.45688 14.7206C6.67065 15.5109 5.58231 16 4.37972 16C4.375 16 4.37102 16 4.36629 16ZM5.33045 11.4206C5.13519 11.6158 4.81861 11.6158 4.62335 11.4206L4.57788 11.3751C4.38262 11.1798 4.38262 10.8633 4.57788 10.668L10.6441 4.60177C10.8394 4.40651 11.1559 4.40651 11.3512 4.60177L11.3967 4.64724C11.5919 4.8425 11.5919 5.15908 11.3967 5.35434L5.33045 11.4206Z" fill="#1F7CC0"/>
</svg>
