<svg width="19" height="13" viewBox="0 0 19 13" fill="none" xmlns="http://www.w3.org/2000/svg">
<g clip-path="url(#clip0_9209_158982)">
<path d="M0.777656 1.31055C0.571652 1.31055 0.374065 1.39229 0.228267 1.53782C0.0824684 1.68335 0.000372521 1.88079 0 2.0868L0 11.6184C0.00148482 11.8236 0.0840712 12.02 0.229749 12.1646C0.375428 12.3092 0.57238 12.3904 0.777656 12.3904H17.2308C17.4367 12.3904 17.6341 12.3086 17.7797 12.163C17.9252 12.0175 18.007 11.82 18.007 11.6141V2.0868C18.007 1.88092 17.9252 1.68348 17.7797 1.53791C17.6341 1.39233 17.4367 1.31055 17.2308 1.31055H0.777656ZM17.2308 1.87305H17.2533L9 7.7807L0.75375 1.87445H17.2238L17.2308 1.87305ZM6.75 6.85961L0.585 11.5551C0.576562 11.5551 0.570938 11.5691 0.5625 11.5762V2.43555L6.75 6.85961ZM7.22813 7.20273L8.83969 8.35586C8.88733 8.38974 8.94435 8.40792 9.00281 8.40789C9.06175 8.40822 9.11931 8.39002 9.16734 8.35586L10.7775 7.20273L16.8511 11.8279H1.14891L7.22813 7.20273ZM17.4375 11.5762C17.4307 11.5684 17.4232 11.5614 17.415 11.5551L11.25 6.85961L17.4375 2.42992V11.5762Z" fill="#35383F"/>
</g>
<defs>
<clipPath id="clip0_9209_158982">
<rect width="19" height="12" fill="white" transform="translate(0 0.5)"/>
</clipPath>
</defs>
</svg>
