<svg width="48" height="48" viewBox="0 0 48 48" fill="none" xmlns="http://www.w3.org/2000/svg">
<circle cx="24" cy="24" r="23" fill="black" fill-opacity="0.4" stroke="white" stroke-width="2"/>
<path d="M26.1624 17.7977C26.1617 17.7985 26.1609 17.7992 26.1602 17.8L26.1602 17.8L16.8904 27.0697C16.8788 27.0813 16.8666 27.0934 16.8541 27.1059C16.7202 27.2388 16.538 27.4197 16.4083 27.6488C16.2786 27.8778 16.2172 28.1273 16.1721 28.3104C16.1679 28.3276 16.1638 28.3442 16.1598 28.3602L15.2505 31.9972C15.248 32.0073 15.2453 32.0179 15.2426 32.0289C15.2102 32.1575 15.1628 32.346 15.1463 32.5145C15.1272 32.7098 15.119 33.1539 15.4822 33.5172C15.8454 33.8804 16.2896 33.8722 16.4848 33.8531C16.6533 33.8366 16.8419 33.7891 16.9705 33.7568C16.9815 33.754 16.9921 33.7513 17.0022 33.7488L20.6392 32.8396C20.6551 32.8356 20.6718 32.8315 20.689 32.8273C20.8721 32.7822 21.1215 32.7208 21.3506 32.5911L20.8579 31.7209L21.3506 32.5911C21.5796 32.4614 21.7606 32.2791 21.8935 32.1453C21.9059 32.1327 21.918 32.1206 21.9296 32.1089L21.2225 31.4018L21.9296 32.1089L21.9296 32.1089L31.1994 22.8392C31.2116 22.8269 31.2239 22.8147 31.2362 22.8024C31.5004 22.5383 31.7644 22.2745 31.954 22.026C32.17 21.7428 32.3812 21.3657 32.3812 20.875C32.3812 20.3843 32.17 20.0072 31.954 19.724C31.7644 19.4755 31.5004 19.2117 31.2362 18.9476C31.2239 18.9354 31.2116 18.9231 31.1994 18.9108L30.0885 17.8C30.0763 17.7877 30.064 17.7754 30.0517 17.7631C29.7877 17.499 29.5238 17.235 29.2753 17.0454C28.9922 16.8294 28.615 16.6182 28.1243 16.6182C27.6337 16.6182 27.2565 16.8294 26.9734 17.0454C26.7249 17.235 26.461 17.499 26.197 17.7631C26.1855 17.7747 26.1739 17.7862 26.1624 17.7977Z" stroke="white" stroke-width="2"/>
<path d="M25.1035 19.0625L29.9368 23.8958" stroke="white" stroke-width="2"/>
</svg>
