<svg width="18" height="19" viewBox="0 0 18 19" fill="none" xmlns="http://www.w3.org/2000/svg">
<g clip-path="url(#clip0_9209_158978)">
<path d="M17.1354 13.406L14.9574 11.21C14.5974 10.85 14.1114 10.634 13.6614 10.634C13.1754 10.634 12.7434 10.832 12.3654 11.21L11.1054 12.47C11.0514 12.434 10.9794 12.398 10.9254 12.38C10.9254 12.38 10.9074 12.38 10.9074 12.362L10.8894 12.344C10.7274 12.236 10.5474 12.128 10.3314 12.038C9.23342 11.354 8.20742 10.4 7.16342 9.12195C6.67742 8.50995 6.33542 7.96995 6.06542 7.37595C6.35342 7.14195 6.56942 6.90795 6.73142 6.72795L7.28942 6.16995C7.72142 5.77395 7.93742 5.32395 7.93742 4.85595C7.93742 4.36995 7.72142 3.91995 7.30742 3.48795L5.59742 1.77795C5.43542 1.61595 5.27342 1.45395 5.09342 1.29195C4.73342 0.949953 4.28342 0.751953 3.81542 0.751953C3.29342 0.751953 2.86142 0.931953 2.46542 1.32795L1.15142 2.64195C0.629424 3.12795 0.323424 3.73995 0.251424 4.49595V4.51395C0.215424 5.44995 0.359423 6.31395 0.755423 7.39395C1.38542 9.08595 2.33942 10.67 3.76142 12.416C5.61542 14.504 7.70342 16.124 10.0254 17.24L10.0794 17.258C10.7634 17.564 12.0594 18.14 13.4994 18.23H13.6974C14.6514 18.23 15.3714 17.924 15.9654 17.276C16.1814 17.024 16.4154 16.79 16.6134 16.574C16.7754 16.448 16.8834 16.322 16.9914 16.196L17.1354 16.052L17.1714 16.016C17.9274 15.188 17.9274 14.18 17.1354 13.406ZM16.5054 15.404L16.3254 15.584L16.3074 15.62C16.2174 15.728 16.1454 15.818 16.0554 15.89L16.0014 15.944C15.7854 16.16 15.5334 16.412 15.2814 16.7C14.8674 17.15 14.3994 17.348 13.6974 17.348H13.5534C12.2934 17.258 11.1414 16.754 10.4574 16.448L10.4214 16.43C8.20742 15.368 6.20942 13.82 4.46342 11.84C3.09542 10.184 2.19542 8.67195 1.60142 7.08795C1.24142 6.09795 1.11542 5.37795 1.15142 4.56795C1.20542 4.04595 1.40342 3.63195 1.76342 3.30795L3.09542 1.97595C3.31142 1.75995 3.52742 1.66995 3.79742 1.66995C4.03142 1.66995 4.24742 1.77795 4.44542 1.95795L4.46342 1.97595C4.62542 2.11995 4.78742 2.28195 4.94942 2.44395L6.65942 4.15395C6.98342 4.47795 7.03742 4.72995 7.03742 4.87395C7.03742 5.01795 7.00142 5.23395 6.65942 5.53995L6.08342 6.11595C5.88542 6.33195 5.65142 6.56595 5.34542 6.81795L5.30942 6.85395L5.27342 6.90795C5.11142 7.12395 5.09342 7.32195 5.18342 7.60995L5.20142 7.68195L5.21942 7.75395C5.52542 8.41995 5.90342 9.03195 6.44342 9.71595C7.55942 11.084 8.67542 12.11 9.86342 12.848L9.91742 12.884C10.0614 12.956 10.2054 13.028 10.3314 13.1C10.3854 13.154 10.4574 13.19 10.5114 13.208C10.5834 13.244 10.6374 13.262 10.6734 13.298L10.7994 13.388H10.8354L10.8894 13.406C10.9974 13.442 11.0694 13.442 11.1234 13.442C11.3034 13.442 11.4654 13.37 11.6274 13.208L12.9774 11.858C13.1934 11.642 13.3914 11.552 13.6434 11.552C13.9134 11.552 14.1654 11.714 14.3094 11.858L16.5054 14.054C16.9374 14.486 16.9554 14.936 16.5054 15.404Z" fill="#35383F"/>
</g>
<defs>
<clipPath id="clip0_9209_158978">
<rect width="18" height="18" fill="white" transform="translate(0 0.5)"/>
</clipPath>
</defs>
</svg>
