
<svg width="18" height="18" viewBox="0 0 18 18" fill="none" xmlns="http://www.w3.org/2000/svg">
<path d="M12.6088 12.6088L17 17M14.6 7.8C14.6 9.14491 14.2012 10.4596 13.454 11.5779C12.7068 12.6961 11.6448 13.5677 10.4023 14.0824C9.15972 14.5971 7.79247 14.7317 6.47339 14.4693C5.15432 14.207 3.94268 13.5593 2.99168 12.6083C2.04068 11.6573 1.39304 10.4457 1.13066 9.12661C0.868284 7.80754 1.00295 6.44029 1.51762 5.19775C2.0323 3.95522 2.90387 2.8932 4.02213 2.14601C5.14038 1.39881 6.4551 1 7.80001 1C9.60348 1 11.3331 1.71643 12.6083 2.99167C13.8836 4.26692 14.6 5.99653 14.6 7.8Z" stroke="#898989" stroke-width="2" stroke-linecap="round" stroke-linejoin="round"/>

</svg>
