<svg width="26" height="26" viewBox="0 0 26 26" fill="none" xmlns="http://www.w3.org/2000/svg">
<g clip-path="url(#clip0_2686_15458)">
<path d="M13 26C20.1797 26 26 20.1797 26 13C26 5.8203 20.1797 0 13 0C5.8203 0 0 5.8203 0 13C0 20.1797 5.8203 26 13 26Z" fill="#1F7CC0"/>
<path fill-rule="evenodd" clip-rule="evenodd" d="M5.88851 12.861C9.67827 11.2099 12.2054 10.1213 13.4698 9.59539C17.0801 8.09377 17.8302 7.83292 18.3192 7.82431C18.4267 7.82242 18.6672 7.84907 18.8229 7.97545C18.9545 8.08217 18.9906 8.22633 19.008 8.32751C19.0253 8.42869 19.0468 8.65918 19.0297 8.83928C18.8341 10.8949 17.9875 15.8833 17.5569 18.1856C17.3746 19.1598 17.0158 19.4865 16.6684 19.5184C15.9135 19.5879 15.3402 19.0195 14.609 18.5402C13.4649 17.7902 12.8185 17.3233 11.7079 16.5914C10.4244 15.7456 11.2564 15.2807 11.9879 14.521C12.1793 14.3222 15.5056 11.2967 15.5699 11.0222C15.578 10.9879 15.5855 10.86 15.5095 10.7924C15.4334 10.7248 15.3213 10.7479 15.2403 10.7663C15.1255 10.7924 13.2977 12.0005 9.75682 14.3907C9.238 14.7469 8.76806 14.9205 8.34702 14.9114C7.88285 14.9014 6.98998 14.649 6.32622 14.4332C5.5121 14.1686 4.86505 14.0287 4.92139 13.5792C4.95074 13.3451 5.27311 13.1057 5.88851 12.861Z" fill="white"/>
</g>
<defs>
<clipPath id="clip0_2686_15458">
<rect width="26" height="26" fill="white"/>
</clipPath>
</defs>
</svg>
