<svg width="24" height="25" viewBox="0 0 24 25" fill="none" xmlns="http://www.w3.org/2000/svg">
<path d="M14.3308 16.3601L15.6608 15.03C15.8655 14.8229 16.1092 14.6584 16.3778 14.5461C16.6465 14.4339 16.9347 14.3762 17.2258 14.3762C17.517 14.3762 17.8052 14.4339 18.0739 14.5461C18.3425 14.6584 18.5862 14.8229 18.7908 15.03L20.3508 16.5901C20.5579 16.7947 20.7224 17.0382 20.8346 17.3069C20.9468 17.5755 21.0046 17.8639 21.0046 18.155C21.0046 18.4462 20.9468 18.7345 20.8346 19.0032C20.7224 19.2718 20.5579 19.5153 20.3508 19.72L19.6408 20.4399C19.1516 20.934 18.5189 21.2609 17.8329 21.374C17.1469 21.4872 16.4427 21.3808 15.8208 21.0701C10.4691 18.3151 6.11008 13.9596 3.35083 8.61011C3.03976 7.98753 2.93414 7.28235 3.04914 6.59595C3.16414 5.90955 3.49384 5.27723 3.99085 4.79004L4.70081 4.07007C5.11674 3.65665 5.67937 3.42456 6.26581 3.42456C6.85225 3.42456 7.41488 3.65665 7.83081 4.07007L9.40082 5.64014C9.81424 6.05607 10.0463 6.61863 10.0463 7.20508C10.0463 7.79152 9.81424 8.35408 9.40082 8.77002L8.0708 10.1001C8.95021 11.2896 9.91617 12.4125 10.9608 13.46C11.9994 14.5004 13.116 15.4599 14.3008 16.3301L14.3308 16.3601Z" stroke="#1F7CC0" stroke-linecap="round" stroke-linejoin="round"/>
<path d="M18.2109 9.26001C18.0578 8.51669 17.6931 7.83355 17.1609 7.29248C16.6288 6.75141 15.9516 6.37541 15.2109 6.20996" stroke="#1F7CC0" stroke-linecap="round" stroke-linejoin="round"/>
<path d="M22 7.92993C21.6283 6.61916 20.928 5.42521 19.9655 4.46094C19.003 3.49666 17.8101 2.794 16.5 2.41992" stroke="#1F7CC0" stroke-linecap="round" stroke-linejoin="round"/>
</svg>
