<svg width="24" height="24" viewBox="0 0 24 24" fill="none" xmlns="http://www.w3.org/2000/svg">
<rect width="24" height="24" rx="5" fill="#1F7CC0"/>
<path fill-rule="evenodd" clip-rule="evenodd" d="M16.5 5C15.837 5 15.2011 5.26339 14.7322 5.73223C14.2634 6.20107 14 6.83696 14 7.5C14.0013 7.66194 14.0184 7.82337 14.051 7.982L9.20499 10.676C8.74282 10.2428 8.13345 10.0012 7.5 10C6.83696 10 6.20108 10.2634 5.73224 10.7322C5.2634 11.2011 5 11.837 5 12.5C5 13.163 5.2634 13.7989 5.73224 14.2678C6.20108 14.7366 6.83696 15 7.5 15C8.13869 14.9997 8.75306 14.755 9.21701 14.316L14.051 17.004C14.0178 17.1673 14.0011 17.3334 14.001 17.5C14.001 18.163 14.2644 18.7989 14.7332 19.2678C15.2021 19.7366 15.838 20 16.501 20C17.164 20 17.7999 19.7366 18.2688 19.2678C18.7376 18.7989 19.001 18.163 19.001 17.5C19.001 16.837 18.7376 16.2011 18.2688 15.7322C17.7999 15.2634 17.164 15 16.501 15C15.86 15.0001 15.2436 15.2464 14.779 15.688L9.94699 13C9.98142 12.8355 9.99918 12.668 10 12.5C9.99915 12.3272 9.98038 12.1549 9.944 11.986L14.772 9.303C15.2367 9.74932 15.8557 9.99902 16.5 10C17.163 10 17.7989 9.73661 18.2678 9.26777C18.7366 8.79893 19 8.16304 19 7.5C19 6.83696 18.7366 6.20107 18.2678 5.73223C17.7989 5.26339 17.163 5 16.5 5Z" fill="white"/>
</svg>
