<svg width="24" height="24" viewBox="0 0 24 24" fill="none" xmlns="http://www.w3.org/2000/svg">
<mask id="mask0_2686_15451" style="mask-type:luminance" maskUnits="userSpaceOnUse" x="0" y="0" width="24" height="24">
<path d="M24 0H0V24H24V0Z" fill="white"/>
</mask>
<g mask="url(#mask0_2686_15451)">
<path d="M0 11.52C0 6.08942 0 3.37414 1.68707 1.68707C3.37414 0 6.08942 0 11.52 0H12.48C17.9106 0 20.6259 0 22.3129 1.68707C24 3.37414 24 6.08942 24 11.52V12.48C24 17.9106 24 20.6259 22.3129 22.3129C20.6259 24 17.9106 24 12.48 24H11.52C6.08942 24 3.37414 24 1.68707 22.3129C0 20.6259 0 17.9106 0 12.48V11.52Z" fill="#1F7CC0"/>
<path d="M12.7688 17.2908C7.29881 17.2908 4.17884 13.5408 4.04883 7.30078H6.78884C6.87884 11.8808 8.8988 13.8208 10.4988 14.2208V7.30078H13.0789V11.2507C14.6589 11.0808 16.3187 9.28078 16.8787 7.30078H19.4587C19.0287 9.74079 17.2287 11.5408 15.9487 12.2808C17.2287 12.8808 19.2788 14.4508 20.0588 17.2908H17.2188C16.6087 15.3908 15.0889 13.9208 13.0789 13.7208V17.2908H12.7688Z" fill="white"/>
</g>
</svg>
