<svg width="32" height="32" viewBox="0 0 32 32" fill="none" xmlns="http://www.w3.org/2000/svg">
<g clip-path="url(#clip0_954_19457)">
<path fill-rule="evenodd" clip-rule="evenodd" d="M17.4499 27.7402C17.4212 27.7402 17.3925 27.7547 17.3638 27.7547L17.4499 27.7402Z" fill="#1C5C94"/>
<path d="M14.8769 1.90829L14.2788 1.98828L14.9691 7.30879L15.5671 7.2288L14.8769 1.90829Z" fill="#1C5C94"/>
<path d="M11.6633 2.69931L11.106 2.93359L13.1276 7.89186L13.685 7.65758L11.6633 2.69931Z" fill="#1C5C94"/>
<path d="M22.0133 18.7404L21.6636 19.2031L25.6856 22.3372L26.0354 21.8744L22.0133 18.7404Z" fill="#1C5C94"/>
<path d="M22.8688 17.0861L22.6489 17.625L27.3326 19.5956L27.5525 19.0567L22.8688 17.0861Z" fill="#1C5C94"/>
<path d="M23.2803 15.2579L23.2183 15.8379L28.2589 16.3934L28.3209 15.8134L23.2803 15.2579Z" fill="#1C5C94"/>
<path d="M12.945 1.07L12.3623 1.22852L14.0275 7.53906L14.6102 7.38055L12.945 1.07Z" fill="#1C5C94"/>
<path d="M23.131 16.1865L22.9824 16.75L28.9484 18.3716L29.0969 17.8081L23.131 16.1865Z" fill="#1C5C94"/>
<path d="M22.4957 17.9421L22.2085 18.4473L25.3802 20.3066L25.6675 19.8015L22.4957 17.9421Z" fill="#1C5C94"/>
<path d="M26.9208 14.1553L23.2598 14.2559L23.2753 14.839L26.9363 14.7384L26.9208 14.1553Z" fill="#1C5C94"/>
<path fill-rule="evenodd" clip-rule="evenodd" d="M13.7885 21.3672L13.7598 21.4401C13.8747 21.4839 13.9896 21.513 14.1045 21.5568L14.1188 21.4984L13.7885 21.3672Z" fill="#1C5C94"/>
<path fill-rule="evenodd" clip-rule="evenodd" d="M14.665 21.6875C14.6794 21.7019 14.7081 21.7019 14.7225 21.7163L14.6938 21.7019L14.665 21.6875Z" fill="#1C5C94"/>
<path fill-rule="evenodd" clip-rule="evenodd" d="M13.1847 21.147L12.9118 21.0449L12.8975 21.0595C13.0124 21.1178 13.1129 21.1762 13.2278 21.2199L13.2565 21.1616L13.1847 21.147Z" fill="#1C5C94"/>
<path fill-rule="evenodd" clip-rule="evenodd" d="M13.7016 21.337L13.7447 21.3516L13.7878 21.3661L13.8021 21.3516L13.2707 21.1328L13.2563 21.162L13.2707 21.1766L13.7016 21.337Z" fill="#1C5C94"/>
<path fill-rule="evenodd" clip-rule="evenodd" d="M13.7448 21.3517L13.7017 21.3371L13.2708 21.1767L13.2421 21.1621L13.2134 21.2204C13.3857 21.2934 13.5581 21.3809 13.7448 21.4392L13.7735 21.3663L13.7448 21.3517Z" fill="#1C5C94"/>
<path fill-rule="evenodd" clip-rule="evenodd" d="M14.2476 21.5408L14.1758 21.5116L14.1184 21.4824L14.104 21.5408C14.2907 21.5991 14.4774 21.6428 14.6641 21.6866V21.672L14.2476 21.5408Z" fill="#1C5C94"/>
<path fill-rule="evenodd" clip-rule="evenodd" d="M12.7549 20.9863C12.798 21.0155 12.8554 21.0447 12.8985 21.0592L12.9129 21.0447L12.7549 20.9863Z" fill="#1C5C94"/>
<path d="M8.7706 4.30094L8.29199 4.67383L11.5098 8.93174L11.9884 8.55885L8.7706 4.30094Z" fill="#1C5C94"/>
<path fill-rule="evenodd" clip-rule="evenodd" d="M6.36248 6.62305L6.00342 7.1043L7.6264 8.37305C7.89929 8.30013 8.15782 8.25638 8.41634 8.22721L6.36248 6.62305Z" fill="#1C5C94"/>
<path fill-rule="evenodd" clip-rule="evenodd" d="M6.03147 10.0638L4.65265 9.48047L4.42285 10.0346L6.04583 10.7201C6.00274 10.5013 6.00274 10.2826 6.03147 10.0638Z" fill="#1C5C94"/>
<path fill-rule="evenodd" clip-rule="evenodd" d="M6.67921 4.55273L6.2627 4.97565L9.46557 8.22773C9.85336 8.27148 10.2268 8.37357 10.5859 8.50482L6.67921 4.55273Z" fill="#1C5C94"/>
<path fill-rule="evenodd" clip-rule="evenodd" d="M6.85059 8.72292L2.85777 6.375L2.55615 6.9L6.40534 9.16042C6.53461 8.98542 6.67824 8.83958 6.85059 8.72292Z" fill="#1C5C94"/>
<path fill-rule="evenodd" clip-rule="evenodd" d="M6.42066 11.6979L2.95926 10.75L2.80127 11.3333L7.11007 12.5C6.82281 12.2521 6.59301 11.975 6.42066 11.6979Z" fill="#1C5C94"/>
<path d="M10.8989 4.69961L10.3765 5.00586L12.2867 8.36522L12.8091 8.05897L10.8989 4.69961Z" fill="#1C5C94"/>
<path fill-rule="evenodd" clip-rule="evenodd" d="M10.9583 20.113L10.9009 20.1568L11.0445 20.288L11.2887 20.0547L10.9583 20.113Z" fill="#1C5C94"/>
<path fill-rule="evenodd" clip-rule="evenodd" d="M6.08948 10.749L6.04639 10.7344C6.10384 11.0552 6.21874 11.376 6.43418 11.7115L6.50599 11.726C6.27619 11.3906 6.14693 11.0698 6.08948 10.749Z" fill="#1C5C94"/>
<path fill-rule="evenodd" clip-rule="evenodd" d="M8.57373 8.21169C8.63118 8.21169 8.68863 8.21169 8.74608 8.19727C8.70299 8.19727 8.63118 8.19727 8.57373 8.21169Z" fill="#1C5C94"/>
<path fill-rule="evenodd" clip-rule="evenodd" d="M11.3601 19.9668L11.2739 20.0543L11.4176 20.0251C11.3601 19.9522 11.4463 20.0397 11.3601 19.9668Z" fill="#1C5C94"/>
<path fill-rule="evenodd" clip-rule="evenodd" d="M7.56921 8.38763C7.58357 8.38763 7.61229 8.37305 7.62666 8.37305H7.61229C7.58357 8.38763 7.55484 8.38763 7.52612 8.40221C7.26759 8.47513 7.05215 8.5918 6.85107 8.73763L6.86544 8.75221C7.08088 8.57721 7.31068 8.46055 7.56921 8.38763Z" fill="#1C5C94"/>
<path fill-rule="evenodd" clip-rule="evenodd" d="M6.43438 9.17474L6.40566 9.16016C6.20458 9.42266 6.07531 9.72891 6.03223 10.0643L6.07531 10.0789C6.1184 9.74349 6.24767 9.43724 6.43438 9.17474Z" fill="#1C5C94"/>
<path fill-rule="evenodd" clip-rule="evenodd" d="M8.41661 8.22656C8.15809 8.24115 7.8852 8.29948 7.6123 8.3724H7.62667C7.89956 8.29948 8.15809 8.24115 8.41661 8.22656Z" fill="#1C5C94"/>
<path fill-rule="evenodd" clip-rule="evenodd" d="M6.0758 10.079L6.03272 10.0645C6.00399 10.2832 6.00399 10.502 6.04708 10.7207L6.09017 10.7353C6.04708 10.5165 6.04708 10.2978 6.0758 10.079Z" fill="#1C5C94"/>
<path fill-rule="evenodd" clip-rule="evenodd" d="M6.87953 8.72357L6.86516 8.70898C6.69281 8.84023 6.53482 8.98607 6.41992 9.14648L6.44865 9.16107C6.56355 9.00065 6.70718 8.85482 6.87953 8.72357Z" fill="#1C5C94"/>
<path fill-rule="evenodd" clip-rule="evenodd" d="M6.49174 11.7275L6.41992 11.7129C6.59227 11.99 6.82208 12.2671 7.10933 12.5296L7.20987 12.5587C6.90825 12.2816 6.66409 12.0046 6.49174 11.7275Z" fill="#1C5C94"/>
<path fill-rule="evenodd" clip-rule="evenodd" d="M9.45004 8.24154C9.29205 8.22711 9.13406 8.21269 8.97607 8.21269C9.13406 8.19827 9.29205 8.21269 9.45004 8.24154Z" fill="#1C5C94"/>
<path fill-rule="evenodd" clip-rule="evenodd" d="M10.5848 8.53385C10.2114 8.38802 9.83799 8.28594 9.4502 8.24219C9.83799 8.28594 10.2258 8.38802 10.5848 8.53385Z" fill="#1C5C94"/>
<path fill-rule="evenodd" clip-rule="evenodd" d="M20.5965 23.8157L11.0597 20.272L14.3775 19.2657C14.4062 19.2511 14.4062 19.2074 14.4206 19.1782C14.7365 18.5949 15.1818 17.6907 15.3972 17.0782C15.6701 16.3345 15.8281 16.0282 15.3972 15.2553C15.268 15.0365 14.8227 14.3949 14.5642 14.2345C14.6504 13.6949 15.1674 13.8261 15.5121 14.0157C15.9574 14.3365 16.3883 14.847 16.4313 15.4011C16.4888 16.1011 16.1584 17.9386 15.785 18.6095C15.5552 19.0324 15.5265 19.1053 15.0956 19.047C15.0525 19.047 14.9089 19.047 14.9089 19.0907C14.9089 19.149 14.9663 19.1928 15.0094 19.222C15.5121 19.6303 17.1638 19.8782 16.5462 18.7699C16.5319 18.7407 16.4601 18.697 16.4888 18.6824C17.1064 18.4782 17.7383 18.3178 18.3559 18.1574L24.7042 23.2178C24.8335 23.3199 25.3362 23.6407 25.2931 23.9324C25.1351 25.3907 20.9987 23.947 20.5965 23.8157ZM25.0489 22.9407L18.5857 17.6907L16.4457 18.0699C16.6611 17.2532 16.9053 16.4365 17.0777 15.6053C17.1495 15.2553 17.0633 14.9636 16.9197 14.6574C16.5893 13.9574 16.0292 13.5928 15.3685 13.2282C14.2626 12.6157 13.5588 14.5407 14.4206 15.1386C15.426 15.8386 14.9951 16.6261 14.6647 17.5595C14.5929 17.8074 14.3344 18.7845 14.119 18.8428C12.7401 19.2365 11.9215 19.4407 10.5426 19.7907L10.0112 21.3949L22.1333 24.8803C22.9807 25.0699 24.3308 25.1865 25.1926 24.8803C26.7868 24.2678 25.4798 23.2761 25.0489 22.9407Z" fill="#1C5C94"/>
<path fill-rule="evenodd" clip-rule="evenodd" d="M12.8838 12.5879L12.8694 12.6171L12.8551 12.6316L12.8407 12.6462L12.8263 12.6608C12.8263 12.6754 12.812 12.69 12.812 12.7046C12.7832 12.7629 12.7545 12.8358 12.7402 12.9087L12.6109 12.3837C12.338 12.0629 11.3039 11.1879 10.3847 10.6483C9.73836 10.2691 9.16386 10.065 8.94842 10.3275C8.68989 11.1733 7.5696 10.5171 7.64142 9.86081C7.65578 9.68581 7.75632 9.51081 7.98612 9.36497C8.04357 9.33581 8.10102 9.29206 8.15847 9.26289C8.3021 9.18997 8.44573 9.14622 8.60371 9.11706C8.96278 9.04414 9.32185 9.07331 9.70964 9.20456C10.1118 9.33581 10.5139 9.59831 10.9448 9.94831C11.505 10.415 12.1944 10.9837 12.7976 11.8004C13.1567 11.4941 13.4296 11.4212 13.8892 11.7858C13.4583 11.8296 13.0705 12.1941 12.8838 12.5441V12.5879ZM12.9987 14.4691C12.9269 14.0754 12.9125 13.7691 12.9412 13.5066C13.3147 12.6316 13.803 11.9462 14.9233 12.4129C15.5265 12.6608 15.584 12.9379 15.6414 12.9962L16.0867 13.3171L15.8712 12.7483C15.6989 12.4129 15.1962 11.9025 14.8227 11.8004C14.794 11.8004 14.7653 11.7858 14.7222 11.7858L14.1764 11.3046C13.1854 10.1671 11.9646 9.05872 10.5714 8.53372L10.5858 8.54831C10.2267 8.40247 9.8389 8.31497 9.45111 8.25664C9.29312 8.24206 9.13513 8.22747 8.97714 8.21289C8.96278 8.21289 8.94842 8.21289 8.93406 8.21289C8.8766 8.21289 8.81915 8.21289 8.74734 8.21289C8.68989 8.21289 8.63244 8.21289 8.57499 8.22747C8.56063 8.22747 8.56063 8.22747 8.54626 8.22747C8.50318 8.22747 8.46009 8.24206 8.417 8.24206C8.15847 8.27122 7.89994 8.31497 7.62705 8.38789C7.61269 8.38789 7.58397 8.40247 7.5696 8.40247C7.31107 8.47539 7.08127 8.59206 6.86583 8.73789C6.69348 8.86914 6.54985 9.01497 6.42059 9.17539C6.23388 9.43789 6.10461 9.74414 6.06152 10.0796C6.0328 10.2983 6.0328 10.5171 6.07589 10.7504C6.13334 11.0712 6.2626 11.3921 6.47804 11.7275C6.65039 12.0046 6.89456 12.2816 7.19617 12.5587C7.6845 12.9816 8.33082 13.39 9.16386 13.7546C9.29312 13.8129 9.42239 13.8566 9.56601 13.915C11.7779 14.7608 12.0795 14.8191 14.2626 15.49C13.7455 14.7316 13.7455 14.6879 12.9987 14.4691Z" fill="#1C5C94"/>
<path fill-rule="evenodd" clip-rule="evenodd" d="M27.4035 26.1198C27.4035 26.1198 27.9062 25.8281 28.1791 25.6094L27.82 26.5719L27.2886 26.7177L27.4035 26.1198Z" fill="#1C5C94"/>
<path fill-rule="evenodd" clip-rule="evenodd" d="M11.0739 19.6461L10.959 19.5586L10.7866 19.7336L11.0739 19.6461Z" fill="#1C5C94"/>
<path fill-rule="evenodd" clip-rule="evenodd" d="M20.2799 7.35104C20.2799 6.44687 19.8921 5.99479 19.1166 5.99479H18.2261V8.73646H19.1166C19.8921 8.73646 20.2799 8.29896 20.2799 7.35104ZM21.0555 7.35104C21.0555 8.72187 20.3517 9.48021 19.1166 9.48021H18.2261V11.901H17.4648V5.26562H19.1022C20.3517 5.26562 21.0555 6.02396 21.0555 7.35104Z" fill="#1C5C94"/>
<path fill-rule="evenodd" clip-rule="evenodd" d="M21.8604 9.99102V7.17643C21.8604 5.86393 22.5928 5.13477 23.6844 5.13477C24.8047 5.13477 25.4941 5.83477 25.5659 7.1181H24.8047C24.7472 6.25768 24.3595 5.86393 23.67 5.86393C23.0381 5.86393 22.6216 6.28685 22.6216 7.17643V9.99102C22.6216 10.866 23.0668 11.2889 23.6988 11.2889C24.3882 11.2889 24.776 10.8806 24.8478 10.0493H25.609C25.5372 11.3181 24.8478 12.0181 23.6988 12.0181C22.6072 12.0181 21.8604 11.2889 21.8604 9.99102Z" fill="#1C5C94"/>
<path fill-rule="evenodd" clip-rule="evenodd" d="M29.5013 9.81602V7.33685C29.5013 6.4181 29.1135 5.8931 28.3522 5.8931C27.591 5.8931 27.1889 6.4181 27.1889 7.33685V9.81602C27.1889 10.7493 27.5767 11.2743 28.3522 11.2743C29.0991 11.2598 29.5013 10.7493 29.5013 9.81602ZM26.3989 9.81602V7.33685C26.3989 5.9806 27.1314 5.13477 28.3379 5.13477C29.5587 5.13477 30.2768 5.9806 30.2768 7.33685V9.81602C30.2768 11.1868 29.5587 12.0327 28.3379 12.0327C27.1314 12.0181 26.3989 11.1723 26.3989 9.81602Z" fill="#1C5C94"/>
<path fill-rule="evenodd" clip-rule="evenodd" d="M28.1226 27.724L30.3631 18.4198C30.636 18.3906 31.0813 18.4344 31.1531 18.726C30.5929 20.4906 28.3093 27.7094 28.1226 27.724ZM17.9969 25.9448L17.7096 23.7573L18.3991 23.9615L18.9017 25.8719C18.6001 25.8719 18.2985 25.8865 17.9969 25.9448ZM15.9574 26.7615V23.2323L17.1064 23.5823L17.4368 26.076C16.9341 26.2073 16.4457 26.426 15.9574 26.7615ZM19.9071 24.399L20.5678 26.0177C20.2231 25.9594 19.864 25.9156 19.5193 25.8865L19.0597 24.151L19.9071 24.399ZM0.905336 18.3177C0.977149 18.026 1.42239 17.9823 1.69528 18.0115L3.93586 27.3156C3.73478 27.2865 1.45112 20.0677 0.905336 18.3177ZM31.8999 18.7698C31.6558 18.3469 31.0813 17.9385 31.0813 17.851C30.9233 16.7719 31.3542 15.751 31.7707 14.7885C32.0436 13.8844 31.3398 13.651 30.8515 13.4469C29.8317 17.3115 28.1082 24.1365 27.8066 26.2948C27.7061 26.3385 27.6055 26.3823 27.505 26.426C27.6199 26.2365 27.7348 26.0469 27.864 25.8281C25.6666 27.3156 23.426 26.601 21.2141 26.1344L21.2572 26.149L20.6253 24.6177L22.1477 24.9677C23.268 25.1573 24.3165 25.3469 25.1926 25.0406C26.5427 24.5594 25.8964 23.6698 25.3793 23.2323C26.5283 24.8073 22.8228 25.5219 20.6253 23.9031L20.2806 23.7719L20.2518 23.6844L19.505 23.4073L19.5337 23.4948L18.8012 23.2177L18.7868 23.1448L18.1262 22.8969L18.1405 22.9698L17.5804 22.7656L17.566 22.6927L16.9628 22.474L16.9771 22.5469L15.9574 22.1677L15.5696 22.0219L14.9377 26.8635L14.3631 26.7906L15.0095 21.8177L14.7222 21.7156C14.7078 21.7156 14.6791 21.701 14.6648 21.701L13.0849 27.6802L12.5247 27.5344L14.1046 21.5698C13.9897 21.5406 13.8748 21.4969 13.7599 21.4531L11.8497 26.1198L11.3183 25.901L13.2141 21.2344C13.0992 21.176 12.9987 21.1323 12.8838 21.074L11.1028 24.1948L10.6001 23.9031L12.338 20.8406L12.3093 20.826H12.2949L11.9646 20.7094L9.04896 24.574L8.58936 24.224L11.4044 20.5052H11.3901L11.1459 20.4177L11.0166 20.3156L7.03819 24.3552L6.63604 23.9469L10.9305 19.5865C10.8443 19.499 10.7725 19.3969 10.6863 19.3094L6.75094 22.3719L6.40623 21.9052L10.3416 18.8281C10.2698 18.726 10.198 18.624 10.1405 18.5219L7.09564 20.3156L6.80839 19.8052L9.89636 17.9969C9.83891 17.8802 9.78146 17.7781 9.73837 17.6615L5.14232 19.601L4.92688 19.0615L9.52293 17.1219C9.47984 17.0052 9.45112 16.8885 9.40803 16.7719L3.51934 18.376L3.37571 17.8073L9.2644 16.2031C9.23568 16.0865 9.22131 15.9698 9.19259 15.8385L4.23747 16.4948L4.16566 15.9115L9.13514 15.2406C9.12077 15.124 9.12077 14.9927 9.12077 14.876H5.51575V14.2927H9.13514C9.1495 14.1031 9.16386 13.899 9.19259 13.7094C8.34519 13.3448 7.69887 12.9365 7.2249 12.5135L7.12437 12.4844C7.23927 12.5865 7.36853 12.6885 7.49779 12.7906H7.48343C7.39726 12.8052 7.31108 12.8052 7.21054 12.8052C5.90354 12.7323 1.16386 11.974 1.69528 13.5635C0.574995 14.424 0.890973 15.7802 0.962787 17.2094L0.345192 17.6906C0.0148513 17.9531 -0.013874 18.3031 0.0148513 18.7115C0.862248 20.1552 3.82095 30.2469 4.51036 30.801C5.38648 31.501 12.5391 28.7156 14.3631 29.0073C15.6701 30.2469 16.8479 30.2615 18.4709 29.051C19.9071 29.226 27.3183 31.326 28.1082 30.6406C29.6881 27.3448 29.5301 24.4573 31.8856 19.5719C32.0148 19.2948 32.0723 19.0469 31.8999 18.7698Z" fill="#1C5C94"/>
</g>
<defs>
<clipPath id="clip0_954_19457">
<rect width="32" height="29.8667" fill="white" transform="translate(0 1.06641)"/>
</clipPath>
</defs>
</svg>
