<svg width="62" height="58" viewBox="0 0 62 58" fill="none" xmlns="http://www.w3.org/2000/svg">
<path d="M58.5279 53.2077C51.2731 61.97 33.039 58.2876 17.6406 44.8134C2.2424 31.3392 -4.29623 13.5124 2.95848 4.75C10.2132 -4.01236 28.4474 -0.329977 43.8456 13.1443C59.2439 26.6184 65.7825 44.4453 58.5279 53.2077Z" fill="#0804FF"/>
<path fill-rule="evenodd" clip-rule="evenodd" d="M46.4479 29.5508L46.0672 32.2199H49.3032L48.1611 39.6552H50.8261L51.9683 32.2199H55.2044L55.5851 29.5508H46.4479ZM40.7371 34.317L43.0214 29.5508H46.0672L40.9274 39.6552H37.8817L39.2142 36.9861H37.8817L36.3588 29.5508H39.2142L40.166 34.317H40.7371ZM32.3395 29.5508H27.4067L25.889 39.6552H28.5451L29.1143 36.9861H31.3909C32.3792 36.9861 33.4008 36.6851 34.2367 36.0329C35.1225 35.3409 35.7854 34.3577 35.9442 33.3638C36.104 32.2894 35.6828 31.2083 34.9956 30.504C34.3472 29.8395 33.4128 29.5508 32.3395 29.5508ZM22.6528 29.5508H26.4601L20.9396 34.6983L25.1275 39.6552H21.3204L18.0842 35.8423H17.8938L17.3227 39.6552H14.4674L15.9902 29.5508H18.8456L18.2746 33.3638H18.4649L22.6528 29.5508ZM36.3588 28.4069H47.019V25.7377H45.8768V18.3024H38.4527V22.1154C38.4527 23.4567 38.0433 24.7165 37.5009 25.7377H36.3588V28.4069ZM31.0287 28.4069L31.9805 25.7377H30.4576L27.7926 18.3024H30.648L32.3612 23.0687H32.9323L34.6456 18.3024H37.5009L33.8841 28.4069H31.0287ZM21.8914 25.7377H24.1757C26.1265 25.7377 28.1733 24.3417 28.1733 22.1154C28.1733 19.8891 26.4783 18.3024 24.1757 18.3024H19.036V28.4069H21.8914V25.7377ZM14.8481 20.9715V28.4069H12.183V20.9715H8.94695V18.3024H18.0842V20.9715H14.8481Z" fill="white"/>
<path transform="translate(22.01 21.02)" d="M3.60475 0.95323C3.50127 1.58082 3.01839 2.09709 2.27668 2.09709H0L0.189734 2.60009e-06H2.65921C3.01302 -6.72794e-05 3.22897 -6.69547e-05 3.41501 0.190634C3.58494 0.364774 3.64721 0.673992 3.60475 0.95323Z" fill="#0804FF"/>
<path transform="translate(40.82 21.02)" d="M0 4.7662C0.452685 3.67671 0.571087 2.60951 0.571087 1.33456V0H2.665V4.7662H0Z" fill="#0804FF"/>
<path transform="translate(29.64 32.30)" d="M2.28428 2.09715H0V0H2.28428C3.03464 0 3.42645 0.51634 3.42645 1.14386C3.42645 1.73734 3.01128 2.09715 2.28428 2.09715Z" fill="#0804FF"/>
</svg>
